<svg width="128" height="128" viewBox="0 0 128 128" fill="none" xmlns="http://www.w3.org/2000/svg">
    <path d="M99.6169 86.4874C99.5314 86.3847 99.4441 86.2923 99.3535 86.205C94.9201 81.5568 89.3801 78.2588 83.344 76.6261C88.4684 72.9962 92.2997 67.6668 94.0512 61.6185C97.5849 61.456 100.318 57.9783 100.318 53.5662C100.318 50.3573 98.8899 47.6019 96.6561 46.3012V27.5473C96.6561 23.2122 94.1932 19.394 90.4354 17.5679C90.5209 17.4104 90.5996 17.2496 90.6714 17.087C91.7712 14.6242 91.566 12.0228 90.0984 9.75861C89.1902 8.35694 87.5739 6.84745 86.1782 6.84745C84.8902 6.84745 84.2967 7.81099 83.9769 8.32785C83.6365 8.88235 83.1679 9.64223 81.6918 10.6212C79.8343 11.8551 78.076 12.3258 77.2328 12.4918C75.0828 11.1705 67.4595 7.00148 58.9639 8.43053C52.035 9.59773 46.8456 14.5883 44.239 17.6569C40.5479 19.548 38.1824 23.3868 38.1824 27.5456V46.2995C35.9486 47.6002 34.5204 50.3556 34.5204 53.5645C34.5204 57.9766 37.2536 61.4542 40.7873 61.6168C42.5371 67.665 46.3701 72.9945 51.4945 76.6244C45.402 78.2896 39.8962 81.5773 35.4868 86.1999C35.3961 86.2838 35.3226 86.3642 35.2884 86.4087C29.1959 92.9019 25.8418 101.365 25.8418 110.24V122.866C25.8418 125.696 28.144 128 30.973 128H103.869C106.698 128 109 125.696 109 122.866V110.24C108.997 101.37 105.643 92.907 99.6169 86.4874Z" fill="#E6E7E8" />
    <path d="M91.4615 80.7387C91.4153 80.6822 91.3709 80.6309 91.3161 80.5864C86.8588 75.8953 81.0503 72.5067 74.5182 71.0537C74.5096 71.052 74.5045 71.0468 74.496 71.0451C74.4635 71.0383 74.431 71.0331 74.3985 71.0263C73.5467 70.8398 72.6829 70.6891 71.8089 70.5693C78.8541 67.179 84.1427 60.7029 85.9266 52.9039C86.2636 53.0032 86.6057 53.0682 86.9512 53.0682C89.6502 53.0682 91.7643 50.2803 91.7643 46.7222C91.7643 43.6895 90.2266 41.2251 88.104 40.5593V20.7015C88.104 16.2467 85.0047 12.5243 80.8467 11.5539C81.4094 10.9977 81.914 10.3354 82.2664 9.54297C84.2641 5.06414 80.2344 1.71315 79.3347 1.71315C78.5137 1.71315 78.8011 3.20381 75.7942 5.20276C72.777 7.20686 70.0096 7.43619 70.0096 7.43619C70.0096 7.43619 61.6782 1.71143 52.4043 3.27226C45.7491 4.39325 40.765 9.42659 38.473 12.1888C35.2712 13.6881 33.0493 16.9295 33.0493 20.6998V40.5576C30.9267 41.2234 29.3891 43.6878 29.3891 46.7205C29.3891 50.2786 31.5031 53.0665 34.2022 53.0665C34.5477 53.0665 34.8897 53.0015 35.2267 52.9022C37.0106 60.7012 42.2975 67.1773 49.3444 70.5676C48.4687 70.6874 47.6032 70.8398 46.7497 71.0263C46.7189 71.0331 46.6881 71.0366 46.6574 71.0434C46.6505 71.0451 46.6437 71.0503 46.6368 71.052C40.1031 72.505 34.2928 75.8953 29.8355 80.5864C29.7825 80.6309 29.738 80.6822 29.6918 80.737C24.1261 86.6688 20.707 94.6373 20.707 103.396V116.022C20.707 117.913 22.2378 119.445 24.1278 119.445H97.0238C98.9138 119.445 100.445 117.913 100.445 116.022V103.396C100.445 94.639 97.0255 86.6705 91.4615 80.7387Z" fill="#0089EF" />
    <path d="M92.7665 79.6314C92.681 79.5321 92.5955 79.4397 92.5031 79.3524C88.0731 74.7076 82.5366 71.4114 76.5022 69.7804C81.6266 66.1504 85.4579 60.821 87.2094 54.7728C90.7431 54.6102 93.4763 51.1326 93.4763 46.7205C93.4763 43.5115 92.0481 40.7561 89.8143 39.4554V20.7015C89.8143 16.3665 87.3514 12.5482 83.5936 10.7221C83.6791 10.563 83.7578 10.4021 83.8296 10.2395C84.9277 7.77676 84.7225 5.17367 83.2549 2.90944C82.3467 1.50777 80.7321 0 79.3364 0C78.0484 0 77.4549 0.963538 77.1351 1.48039C76.7947 2.0349 76.3261 2.79477 74.85 3.77543C72.9925 5.00937 71.2342 5.4783 70.391 5.64431C68.2427 4.32308 60.6177 0.152316 52.1221 1.58308C45.1932 2.75028 40.0038 7.74082 37.3972 10.8094C33.7044 12.7006 31.3389 16.5393 31.3389 20.6981V39.452C29.1068 40.7527 27.6786 43.5081 27.6786 46.7171C27.6786 51.1292 30.4118 54.6068 33.9456 54.7694C35.6953 60.8159 39.5283 66.147 44.651 69.777C38.5602 71.4422 33.0578 74.7281 28.6484 79.349C28.5509 79.4363 28.4757 79.5202 28.4449 79.5612C22.3524 86.0544 19 94.5175 19 103.391V116.017C19 118.847 21.3022 121.151 24.1312 121.151H42.1196C43.0654 121.151 43.83 120.384 43.83 119.439C43.83 118.495 43.0654 117.728 42.1196 117.728H24.1278C23.1837 117.728 22.4174 116.96 22.4174 116.017V103.391C22.4174 95.3903 25.4431 87.7607 30.925 81.8991C30.9763 81.8563 31.0276 81.8101 31.0738 81.7604C35.408 77.1995 40.9172 74.0727 47.0507 72.7069C47.0729 72.7018 47.0918 72.6967 47.1123 72.6898V72.6915C47.923 72.5135 48.7423 72.3698 49.5718 72.2568C50.321 72.1541 50.9128 71.574 51.0325 70.8278C51.1489 70.0816 50.764 69.3457 50.0833 69.0188C43.4589 65.8321 38.5277 59.6624 36.8926 52.5137C36.7865 52.0533 36.4975 51.658 36.0887 51.4184C35.6833 51.1788 35.1959 51.1223 34.7426 51.2524C34.5254 51.3174 34.3492 51.3482 34.2021 51.3482C32.49 51.3482 31.0994 49.2688 31.0994 46.7136C31.0994 44.5367 32.1325 42.6319 33.559 42.1852C34.2722 41.9627 34.758 41.3004 34.758 40.5525V20.7015C34.758 17.7356 36.5009 15.0024 39.1982 13.7411C39.4257 13.635 39.6275 13.4793 39.79 13.2842C42.0067 10.6126 46.6334 5.98147 52.6899 4.96145C61.1274 3.53412 68.9662 8.79678 69.0449 8.84812C69.3664 9.0689 69.7752 9.17672 70.1498 9.14078C70.2815 9.13051 73.3927 8.84984 76.7417 6.62668C78.3255 5.57415 79.1585 4.59349 79.6545 3.88325C80.0496 4.26832 80.5217 4.85363 80.821 5.61351C81.2332 6.6592 81.1956 7.74767 80.7064 8.84299C80.4687 9.37525 80.1215 9.863 79.6443 10.3336C79.2013 10.7718 79.0319 11.417 79.2013 12.016C79.3706 12.6167 79.8512 13.0771 80.4567 13.2174C83.9528 14.0338 86.3935 17.1092 86.3935 20.6981V40.5559C86.3935 41.3038 86.8793 41.9661 87.5925 42.1886C89.019 42.6353 90.0538 44.5418 90.0538 46.7171C90.0538 49.274 88.6632 51.3516 86.9511 51.3516C86.804 51.3516 86.6279 51.3208 86.4106 51.2558C85.9574 51.124 85.4699 51.1822 85.0645 51.4218C84.6575 51.6597 84.3667 52.0568 84.2606 52.5171C82.6255 59.6641 77.6944 65.8338 71.0683 69.0222C70.3892 69.3491 70.0027 70.085 70.1207 70.8329C70.237 71.5791 70.8305 72.1593 71.5797 72.2602C72.3921 72.3698 73.1943 72.5118 74.0341 72.6898C74.0717 72.7018 74.1111 72.7121 74.1487 72.7206C80.2378 74.0761 85.7453 77.2029 90.076 81.7621C90.1274 81.8169 90.1564 81.858 90.2146 81.9059C95.7101 87.7624 98.7341 95.3937 98.7341 103.393V116.018C98.7341 116.961 97.9679 117.73 97.0237 117.73H69.2689C68.3231 117.73 67.5585 118.496 67.5585 119.441C67.5585 120.386 68.3231 121.153 69.2689 121.153H97.0254C99.8545 121.153 102.157 118.849 102.157 116.018V103.393C102.155 94.5243 98.8025 86.0613 92.7665 79.6314Z" fill="#3A2C60" />
    <path d="M61.6778 117.733H49.811C48.8651 117.733 48.1006 118.5 48.1006 119.445C48.1006 120.389 48.8651 121.156 49.811 121.156H61.6778C62.6237 121.156 63.3882 120.389 63.3882 119.445C63.3882 118.5 62.6237 117.733 61.6778 117.733Z" fill="#3A2C60" />
</svg>
