<svg width="128" height="128" viewBox="0 0 128 128" fill="none" xmlns="http://www.w3.org/2000/svg">
    <g clip-path="url(#clip0)">
        <path d="M38.4669 39.169C39.3999 45.852 42.7139 51.78 47.5259 56.067C47.5619 56.102 47.5969 56.135 47.6379 56.164C52.5399 60.485 58.9669 63.115 65.9999 63.115C72.8169 63.115 79.0649 60.645 83.9069 56.559C83.9419 56.536 83.9679 56.505 83.9989 56.479C89.9939 51.374 93.8069 43.78 93.8069 35.308C93.8069 27.45 90.5249 20.348 85.2659 15.286C85.2279 15.242 85.1869 15.205 85.1419 15.168C80.1529 10.421 73.4129 7.5 65.9999 7.5C63.0659 7.5 60.2369 7.96 57.5799 8.807C57.5679 8.812 57.5569 8.814 57.5449 8.819C46.3339 12.406 38.1919 22.922 38.1919 35.308C38.1919 36.599 38.2879 37.867 38.4589 39.112C38.4599 39.131 38.4639 39.149 38.4669 39.169Z" fill="#E6E7E8" />
        <path d="M97.73 64.212H34.27C31.502 64.212 29.25 66.463 29.25 69.231C29.25 71.999 31.502 74.251 34.27 74.251H38.045C39.15 76.208 43.312 84.081 44.893 94.248C47.468 110.801 45.906 123.248 45.89 123.372C45.819 123.919 46.205 124.421 46.753 124.493C46.797 124.498 46.84 124.501 46.883 124.501C47.378 124.501 47.807 124.134 47.873 123.63C47.874 123.624 47.878 123.586 47.885 123.533C49.445 123.101 57.939 120.672 65.996 116.81C74.074 120.682 82.591 123.114 84.119 123.536C84.125 123.587 84.13 123.624 84.13 123.63C84.195 124.134 84.625 124.501 85.12 124.501C85.163 124.501 85.206 124.499 85.25 124.493C85.798 124.422 86.185 123.92 86.112 123.372C86.096 123.248 84.531 110.822 87.109 94.248C88.69 84.081 92.851 76.208 93.956 74.251H97.731C100.499 74.251 102.751 71.999 102.751 69.231C102.751 66.463 100.498 64.212 97.73 64.212ZM72.03 74.251C71.123 75.754 69.128 78.782 65.995 82.179C62.867 78.786 60.869 75.755 59.96 74.251H72.03ZM57.649 74.251C57.967 74.846 60.21 78.895 64.605 83.629C63.635 84.605 62.586 85.593 61.435 86.572C59.381 88.319 57.312 89.715 55.383 90.835C47.427 84.091 42.272 77.666 41.611 76.827C41.121 75.778 40.683 74.913 40.329 74.251H57.649V74.251ZM69.258 88.096C71.193 89.742 73.132 91.094 74.962 92.202C73.277 93.57 71.483 94.937 69.591 96.259C68.357 97.121 67.163 97.92 65.994 98.685C64.825 97.92 63.632 97.121 62.397 96.259C60.506 94.937 58.712 93.57 57.027 92.202C58.856 91.094 60.795 89.743 62.73 88.096C63.916 87.087 64.996 86.072 65.994 85.072C66.992 86.072 68.072 87.087 69.258 88.096ZM83.73 108.405C83.167 108.168 82.284 107.782 81.119 107.235C82.227 106.372 83.17 105.606 83.913 104.986C83.834 106.167 83.773 107.31 83.73 108.405ZM84.132 102.169C83.488 102.737 81.669 104.307 79.11 106.262C76.233 104.83 72.348 102.727 67.835 99.871C68.783 99.241 69.746 98.591 70.738 97.899C72.896 96.391 74.928 94.825 76.821 93.263C80.514 95.262 83.52 96.222 84.755 96.566C84.495 98.503 84.291 100.374 84.132 102.169ZM65.995 114.586C65.44 114.311 64.888 114.03 64.343 113.742C60.813 111.875 57.458 109.634 54.682 107.606C57.665 106.087 61.535 103.945 65.995 101.078C70.456 103.945 74.326 106.088 77.309 107.607C74.534 109.635 71.179 111.874 67.647 113.743C67.101 114.03 66.55 114.311 65.995 114.586ZM48.089 104.996C48.829 105.614 49.768 106.377 50.87 107.235C49.714 107.778 48.835 108.163 48.272 108.4C48.227 107.309 48.167 106.171 48.089 104.996ZM47.87 102.179C47.711 100.38 47.506 98.504 47.246 96.562C48.487 96.216 51.486 95.255 55.169 93.261C57.062 94.823 59.094 96.389 61.252 97.897C62.243 98.59 63.206 99.239 64.154 99.869C59.644 102.722 55.758 104.826 52.879 106.259C50.339 104.319 48.526 102.757 47.87 102.179ZM43.983 82.638C46.306 85.167 49.551 88.462 53.509 91.867C50.562 93.388 48.142 94.209 46.961 94.56C46.93 94.353 46.901 94.148 46.869 93.94C46.205 89.675 45.12 85.845 43.983 82.638ZM48.084 121.398C48.255 119.174 48.449 115.395 48.338 110.536C48.692 110.398 50.222 109.783 52.665 108.605C55.654 110.834 59.426 113.403 63.408 115.509C63.51 115.563 63.613 115.615 63.715 115.668C57.115 118.681 50.507 120.7 48.084 121.398ZM68.275 115.669C68.377 115.616 68.48 115.563 68.582 115.509C72.563 113.403 76.335 110.834 79.325 108.605C81.795 109.796 83.332 110.411 83.663 110.54C83.552 115.399 83.747 119.179 83.918 121.401C81.505 120.707 74.887 118.688 68.275 115.669ZM85.132 93.94C85.099 94.149 85.07 94.355 85.039 94.563C83.863 94.213 81.438 93.393 78.48 91.866C82.448 88.452 85.7 85.15 88.024 82.618C86.885 85.83 85.797 89.667 85.132 93.94ZM90.405 76.792C89.868 77.477 84.684 83.989 76.606 90.835C74.677 89.715 72.608 88.319 70.554 86.572C69.403 85.593 68.355 84.604 67.385 83.628C71.78 78.894 74.023 74.846 74.34 74.25H91.671C91.322 74.906 90.889 75.759 90.405 76.792Z" fill="#E6E7E8" />
        <path d="M80.9552 50.2632C91.4243 39.7941 91.4243 22.8204 80.9552 12.3513C70.4861 1.88227 53.5124 1.88227 43.0433 12.3513C32.5743 22.8204 32.5743 39.7941 43.0433 50.2632C53.5124 60.7323 70.4861 60.7323 80.9552 50.2632Z" fill="#FA759E" />
        <path d="M62.0002 4.49899C58.4842 4.49899 55.1312 5.18299 52.0542 6.41299C54.2702 5.81999 56.5972 5.49899 59.0002 5.49899C73.8052 5.49899 85.8082 17.501 85.8082 32.307C85.8082 43.597 78.8252 53.25 68.9462 57.201C80.3832 54.14 88.8082 43.71 88.8082 31.307C88.8082 16.502 76.8052 4.49899 62.0002 4.49899Z" fill="white" />
        <path d="M34.4669 35.169C35.3999 41.852 38.7139 47.78 43.5259 52.067C43.5619 52.102 43.5969 52.135 43.6379 52.164C48.5399 56.485 54.9669 59.115 61.9999 59.115C68.8169 59.115 75.0649 56.645 79.9069 52.559C79.9419 52.536 79.9679 52.505 79.9989 52.479C85.9939 47.374 89.8069 39.78 89.8069 31.308C89.8069 23.45 86.5249 16.348 81.2659 11.286C81.2279 11.241 81.1869 11.204 81.1419 11.168C76.1529 6.42099 69.4129 3.49899 61.9999 3.49899C59.0649 3.49899 56.2369 3.95899 53.5789 4.80599C53.5679 4.80999 53.5569 4.81199 53.5459 4.81699C42.3339 8.40399 34.1919 18.921 34.1919 31.307C34.1919 32.598 34.2879 33.866 34.4589 35.111C34.4599 35.131 34.4639 35.149 34.4669 35.169ZM36.8539 37.093C37.9239 37.596 39.2039 37.979 40.5639 37.979C41.6529 37.979 42.7879 37.731 43.8939 37.114C44.8499 38.671 45.9329 40.14 47.1189 41.518C45.7409 44.167 44.5999 46.849 43.7299 49.517C40.3799 46.155 37.9539 41.875 36.8539 37.093ZM52.5449 46.598C51.3519 50.215 52.8499 53.71 54.2529 55.925C50.9559 54.885 47.9449 53.197 45.3639 51.015C46.1619 48.379 47.2369 45.723 48.5609 43.093C49.7969 44.36 51.1249 45.536 52.5449 46.598ZM57.2899 56.676C56.4449 55.697 53.3789 51.789 54.2779 47.804C59.6239 51.312 66.0099 53.361 72.8679 53.361C73.7709 53.361 74.6719 53.316 75.5709 53.245C71.6249 55.695 66.9759 57.114 61.9999 57.114C60.3909 57.115 58.8179 56.959 57.2899 56.676ZM78.8979 50.789C76.9219 51.166 74.8959 51.362 72.8679 51.362C66.2899 51.362 60.1709 49.364 55.0819 45.946C56.5919 44.084 60.3819 43.584 64.7079 43.019C68.3859 42.539 72.5549 41.995 76.2889 40.475C81.6939 38.275 85.6659 34.402 87.7899 31.958C87.6039 39.466 84.1969 46.186 78.8979 50.789ZM87.6909 28.894C86.7359 30.187 82.2479 35.889 75.5359 38.622C72.0409 40.045 68.0079 40.572 64.4499 41.036C59.6359 41.664 55.4099 42.221 53.4529 44.77C52.0539 43.698 50.7479 42.512 49.5439 41.228C52.2949 36.235 55.9169 31.38 60.2229 27.002C66.2729 20.85 73.1999 16.07 80.2879 13.117C84.3989 17.251 87.1199 22.765 87.6909 28.894ZM78.6809 11.638C71.6419 14.716 64.7949 19.503 58.7979 25.601C54.5469 29.923 50.9339 34.703 48.1399 39.636C47.1639 38.447 46.2719 37.186 45.4729 35.863C47.3449 33.745 47.6759 29.88 48.0369 25.454C48.2859 22.403 48.5419 19.248 49.3129 16.323C50.6509 11.25 53.7339 7.49499 54.5039 6.61399C56.8779 5.89199 59.3939 5.49999 61.9999 5.49999C68.3559 5.49899 74.1789 7.81399 78.6809 11.638ZM50.9609 7.98499C49.7049 9.87599 48.2319 12.576 47.3789 15.813C46.5629 18.909 46.2869 22.3 46.0429 25.292C45.7579 28.785 45.4849 32.116 44.4139 33.952C42.1649 29.579 40.8869 24.628 40.8869 19.381C40.8869 18.347 40.9409 17.305 41.0389 16.279C43.5819 12.742 46.9919 9.87099 50.9609 7.98499ZM38.8979 19.822C38.9699 25.439 40.4069 30.731 42.8989 35.38C40.1439 36.901 37.3089 35.169 36.3979 34.514C36.2669 33.462 36.1919 32.394 36.1919 31.308C36.1919 27.182 37.1699 23.283 38.8979 19.822Z" fill="#3A2C61" />

        <path d="M93.731 69.251H30.269C28.049 69.251 26.25 67.452 26.25 65.232C26.25 63.012 28.049 61.213 30.269 61.213H93.73C95.95 61.213 97.749 63.012 97.749 65.232C97.75 67.451 95.951 69.251 93.731 69.251Z" fill="#6DC9F7" />

        <path d="M76.625 60.212C76.072 60.212 75.625 60.66 75.625 61.212C75.625 61.764 76.072 62.212 76.625 62.212H82.586C83.139 62.212 83.586 61.764 83.586 61.212C83.586 60.66 83.139 60.212 82.586 60.212H76.625Z" fill="#3A2C60" />
        <path d="M93.73 60.212H86.625C86.072 60.212 85.625 60.66 85.625 61.212C85.625 61.764 86.072 62.212 86.625 62.212H93.73C95.395 62.212 96.75 63.566 96.75 65.232C96.75 66.897 95.396 68.251 93.73 68.251H30.27C28.605 68.251 27.25 66.897 27.25 65.232C27.25 63.567 28.604 62.212 30.27 62.212H72.25C72.803 62.212 73.25 61.764 73.25 61.212C73.25 60.66 72.803 60.212 72.25 60.212H30.27C27.502 60.212 25.25 62.464 25.25 65.232C25.25 68 27.502 70.251 30.27 70.251H34.045C35.15 72.208 39.312 80.081 40.893 90.248C43.468 106.801 41.906 119.248 41.89 119.372C41.819 119.919 42.205 120.421 42.753 120.493C42.797 120.498 42.84 120.501 42.883 120.501C43.378 120.501 43.807 120.134 43.873 119.63C43.874 119.624 43.878 119.586 43.885 119.533C45.445 119.101 53.939 116.672 61.996 112.81C70.074 116.682 78.591 119.114 80.119 119.536C80.125 119.587 80.13 119.624 80.13 119.63C80.195 120.134 80.625 120.501 81.12 120.501C81.163 120.501 81.206 120.499 81.25 120.493C81.798 120.422 82.185 119.92 82.112 119.372C82.096 119.248 80.531 106.822 83.109 90.248C84.69 80.081 88.851 72.208 89.956 70.251H93.731C96.499 70.251 98.751 68 98.751 65.232C98.751 62.464 96.498 60.212 93.73 60.212ZM68.03 70.25C67.123 71.753 65.128 74.781 61.995 78.178C58.867 74.785 56.869 71.754 55.96 70.25H68.03ZM53.649 70.25C53.967 70.845 56.21 74.894 60.605 79.628C59.635 80.604 58.586 81.592 57.435 82.572C55.381 84.319 53.312 85.715 51.383 86.835C43.429 80.093 38.275 73.67 37.612 72.828C37.121 71.779 36.683 70.913 36.33 70.25H53.649ZM65.258 84.096C67.193 85.742 69.132 87.094 70.961 88.202C69.276 89.571 67.482 90.938 65.59 92.26C64.356 93.122 63.162 93.921 61.993 94.686C60.824 93.921 59.631 93.122 58.396 92.26C56.505 90.938 54.711 89.571 53.026 88.203C54.855 87.095 56.794 85.744 58.729 84.097C59.915 83.088 60.995 82.073 61.993 81.072C62.993 82.072 64.072 83.087 65.258 84.096ZM79.73 104.405C79.167 104.168 78.284 103.782 77.12 103.235C78.228 102.372 79.171 101.606 79.914 100.986C79.834 102.167 79.773 103.31 79.73 104.405ZM80.132 98.169C79.488 98.737 77.669 100.307 75.11 102.262C72.232 100.83 68.348 98.727 63.835 95.871C64.783 95.241 65.746 94.591 66.738 93.899C68.896 92.391 70.928 90.825 72.821 89.263C76.514 91.262 79.52 92.222 80.755 92.566C80.495 94.503 80.291 96.374 80.132 98.169ZM61.995 110.586C61.44 110.311 60.888 110.03 60.343 109.742C56.813 107.875 53.458 105.634 50.682 103.606C53.665 102.087 57.535 99.945 61.995 97.078C66.456 99.945 70.326 102.088 73.309 103.607C70.534 105.635 67.179 107.874 63.647 109.742C63.101 110.03 62.55 110.311 61.995 110.586ZM44.089 100.996C44.829 101.614 45.768 102.377 46.87 103.235C45.714 103.778 44.835 104.163 44.272 104.4C44.227 103.309 44.167 102.171 44.089 100.996ZM43.87 98.18C43.711 96.381 43.506 94.505 43.246 92.563C44.487 92.217 47.486 91.256 51.169 89.263C53.062 90.825 55.094 92.391 57.252 93.899C58.243 94.592 59.206 95.241 60.154 95.871C55.644 98.724 51.758 100.828 48.879 102.261C46.338 100.32 44.526 98.757 43.87 98.18ZM39.984 78.638C42.307 81.167 45.552 84.461 49.51 87.866C46.563 89.387 44.143 90.208 42.962 90.559C42.931 90.352 42.902 90.147 42.87 89.939C42.205 85.675 41.12 81.846 39.984 78.638ZM44.084 117.398C44.255 115.174 44.449 111.395 44.338 106.536C44.692 106.398 46.222 105.783 48.665 104.605C51.654 106.834 55.426 109.403 59.408 111.509C59.51 111.563 59.613 111.615 59.715 111.669C53.116 114.681 46.507 116.7 44.084 117.398ZM64.275 111.669C64.377 111.616 64.48 111.563 64.582 111.51C68.563 109.404 72.336 106.835 75.325 104.606C77.795 105.796 79.332 106.412 79.663 106.541C79.552 111.4 79.747 115.18 79.918 117.402C77.504 116.707 70.885 114.686 64.275 111.669ZM81.132 89.94C81.099 90.149 81.07 90.355 81.039 90.563C79.863 90.213 77.438 89.393 74.48 87.866C78.448 84.453 81.699 81.15 84.023 78.619C82.885 81.83 81.796 85.667 81.132 89.94ZM86.405 72.792C85.868 73.477 80.678 79.993 72.606 86.835C70.677 85.715 68.608 84.319 66.554 82.572C65.403 81.593 64.355 80.604 63.385 79.628C67.78 74.894 70.023 70.846 70.34 70.25H87.671C87.322 70.906 86.889 71.759 86.405 72.792Z" fill="#3A2C60" />
    </g>
    <defs>
        <clipPath id="clip0">
            <rect width="128" height="128" fill="white" />
        </clipPath>
    </defs>
</svg>
