<svg width="128" height="128" viewBox="0 0 128 128" fill="none" xmlns="http://www.w3.org/2000/svg">
    <path d="M117.356 71.455C112.122 57.763 100.845 52.132 85.5999 55.602C82.7319 56.254 80.1119 57.149 77.8129 58.262C76.3689 58.961 74.8749 59.315 73.3729 59.315H71.6679V53.633C71.6679 51.198 69.6869 49.216 67.2509 49.216H66.9999V45.633C66.9999 43.427 68.7939 41.633 70.9999 41.633H73.9999C77.3089 41.633 79.9999 38.942 79.9999 35.633V34.508C79.9999 31.199 77.3089 28.508 73.9999 28.508H50.9999C48.7939 28.508 46.9999 26.714 46.9999 24.508V23.466C46.9999 21.26 48.7939 19.466 50.9999 19.466H60.9999C64.3089 19.466 66.9999 16.775 66.9999 13.466V9.799C66.9999 9.247 66.5529 8.799 65.9999 8.799C65.4469 8.799 64.9999 9.247 64.9999 9.799V13.466C64.9999 15.672 63.2059 17.466 60.9999 17.466H50.9999C47.6909 17.466 44.9999 20.157 44.9999 23.466V24.508C44.9999 27.817 47.6909 30.508 50.9999 30.508H73.9999C76.2059 30.508 77.9999 32.302 77.9999 34.508V35.633C77.9999 37.839 76.2059 39.633 73.9999 39.633H70.9999C67.6909 39.633 64.9999 42.324 64.9999 45.633V49.216H64.7499C62.3139 49.216 60.3329 51.197 60.3329 53.633V59.315H58.6279C57.1259 59.315 55.6319 58.961 54.1879 58.262C51.8889 57.149 49.2689 56.254 46.4009 55.602C31.1559 52.134 19.8799 57.763 14.6449 71.455C9.91292 83.835 10.5389 102.681 16.0409 113.466C18.6399 118.561 22.1039 121.72 26.3389 122.856C35.3349 125.267 45.3339 114.544 53.9979 104.301C55.9769 101.964 58.8609 100.623 61.9139 100.623H70.0859C73.1389 100.623 76.0239 101.964 78.0019 104.301C85.8289 113.554 94.7419 123.2 103.024 123.2C103.911 123.2 104.791 123.089 105.661 122.856C109.895 121.72 113.36 118.561 115.959 113.466C121.462 102.681 122.088 83.835 117.356 71.455Z" fill="#E6E7E8" />
    <path d="M112.385 67.826C106.69 52.929 94.4737 49.737 81.8287 52.615C79.0977 53.236 76.5477 54.092 74.2637 55.197C72.7587 55.925 71.0937 56.354 69.3717 56.354H54.6277C52.9057 56.354 51.2407 55.925 49.7357 55.197C47.4517 54.092 44.9017 53.236 42.1707 52.615C29.5257 49.738 17.3097 52.929 11.6147 67.826C5.47272 83.894 8.05072 113.947 22.6077 117.853C31.2907 120.183 41.6347 108.58 49.2047 99.631C51.4067 97.028 54.6097 95.585 57.9127 95.585H66.0847C69.3877 95.585 72.5907 97.029 74.7927 99.631C82.3637 108.58 92.7067 120.183 101.39 117.853C115.949 113.947 118.528 83.894 112.385 67.826Z" fill="#6DC9F7" />
    <path d="M11.6149 70.826C17.3099 55.929 29.5259 52.737 42.1699 55.615C44.9009 56.236 47.4509 57.092 49.7349 58.197C51.2399 58.925 52.9049 59.354 54.6269 59.354H69.3709C71.0929 59.354 72.7579 58.925 74.2629 58.197C76.5469 57.092 79.0969 56.236 81.8279 55.615C94.4729 52.737 106.689 55.929 112.384 70.826C114.269 75.756 115.328 82.004 115.477 88.409C115.638 80.982 114.563 73.525 112.384 67.826C106.689 52.929 94.4729 49.737 81.8279 52.615C79.0969 53.236 76.5469 54.092 74.2629 55.197C72.7579 55.925 71.0929 56.354 69.3709 56.354H54.6279C52.9059 56.354 51.2409 55.925 49.7359 55.197C47.4519 54.092 44.9019 53.236 42.1709 52.615C29.5259 49.737 17.3099 52.929 11.6149 67.826C9.43693 73.525 8.36193 80.982 8.52193 88.409C8.67093 82.004 9.72993 75.756 11.6149 70.826Z" fill="white" />
    <path d="M90.1338 96.952C99.7988 96.952 107.634 89.117 107.634 79.452C107.634 69.787 99.7988 61.952 90.1338 61.952C80.4688 61.952 72.6338 69.787 72.6338 79.452C72.6338 89.117 80.4688 96.952 90.1338 96.952Z" fill="#D4FBFF" />
    <path d="M80.822 84.108C83.3935 84.108 85.478 82.0234 85.478 79.452C85.478 76.8806 83.3935 74.796 80.822 74.796C78.2506 74.796 76.166 76.8806 76.166 79.452C76.166 82.0234 78.2506 84.108 80.822 84.108Z" fill="#FA759E" />
    <path d="M99.447 84.108C102.018 84.108 104.103 82.0234 104.103 79.452C104.103 76.8806 102.018 74.796 99.447 74.796C96.8756 74.796 94.791 76.8806 94.791 79.452C94.791 82.0234 96.8756 84.108 99.447 84.108Z" fill="#FA759E" />
    <path d="M90.134 93.42C92.7055 93.42 94.79 91.3354 94.79 88.764C94.79 86.1926 92.7055 84.108 90.134 84.108C87.5626 84.108 85.478 86.1926 85.478 88.764C85.478 91.3354 87.5626 93.42 90.134 93.42Z" fill="#FA759E" />
    <path d="M90.134 74.795C92.7055 74.795 94.79 72.7104 94.79 70.139C94.79 67.5676 92.7055 65.483 90.134 65.483C87.5626 65.483 85.478 67.5676 85.478 70.139C85.478 72.7104 87.5626 74.795 90.134 74.795Z" fill="#FA759E" />
    <path d="M33.8657 96.952C43.5307 96.952 51.3657 89.117 51.3657 79.452C51.3657 69.787 43.5307 61.952 33.8657 61.952C24.2007 61.952 16.3657 69.787 16.3657 79.452C16.3657 89.117 24.2007 96.952 33.8657 96.952Z" fill="#D4FBFF" />
    <path d="M42.9816 75.128H38.1886V70.335C38.1886 69.216 37.2816 68.31 36.1636 68.31H31.5666C30.4476 68.31 29.5416 69.217 29.5416 70.335V75.128H24.7496C23.6306 75.128 22.7246 76.035 22.7246 77.153V81.75C22.7246 82.869 23.6316 83.775 24.7496 83.775H29.5426V88.568C29.5426 89.687 30.4496 90.593 31.5676 90.593H36.1646C37.2836 90.593 38.1896 89.686 38.1896 88.568V83.775H42.9826C44.1016 83.775 45.0076 82.868 45.0076 81.75V77.153C45.0066 76.035 44.1006 75.128 42.9816 75.128Z" fill="#FA759E" />
    <path d="M66.667 56.341H57.334V49.633C57.334 47.746 58.864 46.216 60.751 46.216H63.251C65.138 46.216 66.668 47.746 66.668 49.633V56.341H66.667Z" fill="#0089EF" />
    <path d="M113.356 67.455C108.121 53.763 96.8459 48.133 81.5999 51.601C78.7319 52.254 76.1119 53.149 73.8119 54.261C72.3689 54.96 70.8739 55.314 69.3729 55.314H67.6679V49.632C67.6679 47.197 65.6869 45.215 63.2509 45.215H62.9999V41.632C62.9999 39.426 64.7939 37.632 66.9999 37.632H69.9999C73.3089 37.632 75.9999 34.941 75.9999 31.632V30.507C75.9999 27.198 73.3089 24.507 69.9999 24.507H46.9999C44.7939 24.507 42.9999 22.713 42.9999 20.507V19.465C42.9999 17.259 44.7939 15.465 46.9999 15.465H56.9999C60.3089 15.465 62.9999 12.774 62.9999 9.465V5.8C62.9999 5.248 62.5529 4.8 61.9999 4.8C61.4469 4.8 60.9999 5.248 60.9999 5.8V9.467C60.9999 11.673 59.2059 13.467 56.9999 13.467H46.9999C43.6909 13.467 40.9999 16.158 40.9999 19.467V20.509C40.9999 23.818 43.6909 26.509 46.9999 26.509H69.9999C72.2059 26.509 73.9999 28.303 73.9999 30.509V31.634C73.9999 33.84 72.2059 35.634 69.9999 35.634H66.9999C63.6909 35.634 60.9999 38.325 60.9999 41.634V45.217H60.7499C58.3139 45.217 56.3329 47.198 56.3329 49.634V55.316H54.6279C53.1259 55.316 51.6319 54.962 50.1879 54.263C47.8889 53.151 45.2699 52.256 42.4019 51.603C27.1569 48.136 15.8799 53.764 10.6449 67.456C5.91292 79.836 6.53892 98.683 12.0409 109.468C14.6399 114.562 18.1039 117.721 22.3389 118.858C31.3369 121.273 41.3329 110.546 49.9989 100.304C51.9759 97.966 54.8609 96.626 57.9139 96.626H66.0859C69.1389 96.626 72.0239 97.966 74.0019 100.304C81.8289 109.556 90.7429 119.203 99.0249 119.202C99.9119 119.202 100.792 119.091 101.662 118.858C106.319 117.608 110.166 113.755 112.785 107.714C113.014 107.188 112.771 106.576 112.245 106.348C111.716 106.117 111.106 106.362 110.879 106.888C108.521 112.326 105.148 115.772 101.123 116.851C92.6469 119.127 81.5489 106.008 75.5879 98.962C73.2149 96.157 69.7509 94.547 66.0859 94.547H57.9139C54.2479 94.547 50.7849 96.156 48.4129 98.962C42.4509 106.008 31.3539 119.127 22.8779 116.851C19.2349 115.874 16.2119 113.072 13.8919 108.524C8.62092 98.193 8.03592 80.103 12.5859 68.199C19.0869 51.19 33.7719 51.77 41.9399 53.63C44.6549 54.248 47.1249 55.09 49.2819 56.134C51.0109 56.971 52.8089 57.395 54.6279 57.395H69.3719C71.1899 57.395 72.9889 56.971 74.7169 56.134C76.8749 55.09 79.3459 54.248 82.0609 53.63C90.2359 51.77 104.915 51.192 111.415 68.199C113.871 74.623 114.936 83.542 114.263 92.057C114.217 92.629 114.645 93.129 115.216 93.175C115.802 93.222 116.287 92.793 116.333 92.221C117.029 83.411 115.916 74.153 113.356 67.455ZM58.3329 49.633C58.3329 48.3 59.4169 47.216 60.7499 47.216H63.2499C64.5829 47.216 65.6669 48.3 65.6669 49.633V55.315H58.3329V49.633Z" fill="#3A2C60" />
    <path d="M114.968 95.365C114.4 95.282 113.871 95.67 113.785 96.237C113.443 98.502 112.974 100.66 112.392 102.652C112.231 103.203 112.547 103.779 113.097 103.941C113.195 103.969 113.293 103.983 113.389 103.983C113.839 103.983 114.253 103.689 114.386 103.235C114.994 101.154 115.484 98.904 115.839 96.547C115.926 95.98 115.535 95.451 114.968 95.365Z" fill="#3A2C60" />
</svg>
