<svg width="128" height="128" viewBox="0 0 128 128" fill="none" xmlns="http://www.w3.org/2000/svg">
    <path d="M38.3518 106.849C38.6658 107.661 39.0438 108.402 39.4738 109.051C39.9508 109.771 40.5828 110.358 41.3558 110.795C42.1408 111.239 43.0908 111.465 44.1818 111.465C45.2748 111.465 46.2288 111.234 47.0158 110.779C47.7828 110.336 48.4088 109.755 48.8758 109.053C49.2968 108.421 49.6718 107.682 49.9888 106.857C50.2838 106.088 50.5788 105.277 50.8658 104.444L59.0358 82.398C59.1718 82.005 59.3068 81.625 59.4418 81.257C59.5898 80.853 59.7178 80.427 59.8228 79.989C59.9308 79.525 59.9868 79.08 59.9868 78.668C59.9868 77.999 59.7978 77.337 59.4238 76.702C59.0548 76.073 58.5398 75.562 57.8938 75.184C57.2418 74.804 56.5268 74.611 55.7688 74.611C54.7398 74.611 53.8918 74.877 53.2498 75.401C52.6648 75.879 52.2358 76.433 51.9748 77.047C51.7628 77.544 51.4598 78.385 51.0498 79.614L44.3398 99.563L37.6588 79.78C37.1198 78.114 36.5958 76.917 36.0548 76.12C35.3768 75.119 34.2668 74.611 32.7548 74.611C31.5298 74.611 30.4918 75.037 29.6708 75.879C28.8578 76.713 28.4438 77.667 28.4438 78.715C28.4438 79.099 28.5008 79.54 28.6178 80.061C28.7278 80.555 28.8658 81.019 29.0268 81.438C29.1688 81.812 29.3068 82.194 29.4478 82.6L37.4658 104.422C37.7608 105.277 38.0578 106.086 38.3518 106.849Z" fill="#E6E7E8" />
    <path d="M69.9999 110.107C70.8089 109.23 71.2189 107.95 71.2189 106.303V79.749C71.2189 78.1 70.8079 76.822 69.9959 75.952C69.1659 75.062 68.0809 74.611 66.7699 74.611C65.4859 74.611 64.4159 75.069 63.5929 75.972C62.7939 76.848 62.3899 78.119 62.3899 79.749V106.303C62.3899 107.933 62.7989 109.208 63.6049 110.092C64.4349 111.003 65.5009 111.464 66.7699 111.464C68.0839 111.464 69.1699 111.008 69.9999 110.107Z" fill="#E6E7E8" />
    <path d="M100.149 77.943C99.0351 76.956 97.6991 76.242 96.1851 75.822C94.6851 75.394 92.6401 75.186 89.9331 75.186H81.1741C79.4161 75.186 78.0801 75.602 77.2031 76.421C76.3071 77.258 75.8511 78.587 75.8511 80.371V106.35C75.8511 107.949 76.2541 109.206 77.0501 110.089C77.8721 111.002 78.9581 111.465 80.2771 111.465C81.5461 111.465 82.6141 111 83.4521 110.082C84.2661 109.19 84.6801 107.919 84.6801 106.304V97.763H89.9331C94.3381 97.763 97.7341 96.791 100.024 94.874C102.367 92.913 103.555 90.029 103.555 86.302C103.555 84.572 103.268 82.984 102.701 81.581C102.124 80.155 101.265 78.931 100.149 77.943ZM94.6361 86.439C94.6361 87.456 94.4151 88.269 93.9821 88.856C93.5401 89.453 92.8971 89.877 92.0161 90.151C91.0371 90.457 89.7801 90.611 88.2791 90.611H84.6811V82.311H88.2791C91.7151 82.311 93.0761 82.961 93.5951 83.488C94.2951 84.24 94.6361 85.205 94.6361 86.439Z" fill="#E6E7E8" />
    <path d="M100.95 24.622C98.062 24.622 95.714 26.971 95.714 29.858C95.714 30.758 95.963 31.592 96.364 32.332L92.347 35.042C92.061 35.236 91.709 35.285 91.38 35.18C91.052 35.075 90.794 34.828 90.674 34.505L87.758 26.667C89.274 25.75 90.3 24.1 90.3 22.201C90.3 19.314 87.951 16.965 85.064 16.965C82.177 16.965 79.828 19.314 79.828 22.201C79.828 23.627 80.404 24.919 81.332 25.864L77.308 31.765C76.981 32.244 76.5 32.26 76.303 32.25C76.111 32.236 75.634 32.147 75.379 31.625L69.535 19.64C71.2 18.506 72.296 16.596 72.296 14.434C72.296 10.963 69.472 8.13898 66 8.13898C62.528 8.13898 59.704 10.963 59.704 14.434C59.704 16.596 60.8 18.506 62.465 19.64L56.621 31.625C56.367 32.147 55.891 32.236 55.698 32.25C55.501 32.262 55.02 32.245 54.693 31.765L50.669 25.864C51.597 24.919 52.173 23.627 52.173 22.201C52.173 19.314 49.824 16.965 46.937 16.965C44.05 16.965 41.7 19.314 41.7 22.201C41.7 24.1 42.725 25.749 44.242 26.668L41.326 34.505C41.206 34.829 40.948 35.075 40.62 35.18C40.292 35.284 39.94 35.236 39.653 35.042L35.636 32.332C36.037 31.592 36.286 30.757 36.286 29.858C36.286 26.971 33.937 24.622 31.05 24.622C28.163 24.622 25.814 26.971 25.814 29.858C25.814 32.602 27.942 34.835 30.631 35.052L35.835 61.499H35.084C32.503 61.499 30.402 63.599 30.402 66.18C30.402 68.761 32.503 70.861 35.084 70.861H96.916C99.497 70.861 101.598 68.761 101.598 66.18C101.598 63.599 99.497 61.499 96.916 61.499H96.165L101.369 35.052C104.058 34.834 106.186 32.602 106.186 29.858C106.186 26.971 103.838 24.622 100.95 24.622Z" fill="#E6E7E8" />
    <path d="M96.9159 114.499H35.0839C32.5029 114.499 30.4019 116.599 30.4019 119.18C30.4019 121.761 32.5029 123.861 35.0839 123.861H96.9159C99.4969 123.861 101.598 121.761 101.598 119.18C101.598 116.599 99.4969 114.499 96.9159 114.499Z" fill="#E6E7E8" />
    <path d="M25.2539 90.37H21.3049L20.0849 86.614C20.0849 86.614 20.0849 86.614 20.0849 86.613C19.8599 85.925 19.2239 85.463 18.4999 85.463C17.7759 85.463 17.1399 85.925 16.9149 86.614L15.6949 90.37H11.7459C11.0209 90.37 10.3849 90.833 10.1609 91.521C9.93686 92.21 10.1809 92.959 10.7659 93.384L13.9599 95.705L12.7399 99.461C12.5159 100.15 12.7599 100.899 13.3459 101.324C13.6379 101.536 13.9809 101.643 14.3239 101.643C14.6679 101.643 15.0109 101.537 15.3029 101.324L18.4979 99.003L21.6929 101.324C22.2789 101.75 23.0659 101.751 23.6499 101.325C24.2369 100.9 24.4799 100.151 24.2559 99.462L23.0359 95.706L26.2299 93.385C26.8159 92.96 27.0589 92.211 26.8349 91.522C26.6149 90.833 25.9779 90.37 25.2539 90.37Z" fill="#E6E7E8" />
    <path d="M121.839 91.521C121.615 90.833 120.979 90.37 120.254 90.37H116.305L115.085 86.614C115.085 86.614 115.085 86.614 115.085 86.613C114.86 85.925 114.224 85.463 113.5 85.463C112.776 85.463 112.14 85.925 111.915 86.614L110.695 90.37H106.746C106.021 90.37 105.385 90.833 105.161 91.521C104.937 92.21 105.181 92.959 105.766 93.384L108.96 95.705L107.74 99.461C107.516 100.15 107.76 100.899 108.346 101.324C108.638 101.536 108.981 101.643 109.324 101.643C109.668 101.643 110.011 101.537 110.303 101.324L113.498 99.003L116.693 101.324C117.278 101.75 118.065 101.751 118.65 101.325C119.237 100.9 119.48 100.151 119.256 99.462L118.036 95.706L121.23 93.385C121.819 92.959 122.062 92.21 121.839 91.521Z" fill="#E6E7E8" />
    <path d="M32.7088 76.094L40.3418 98.694L47.9978 75.933C48.3958 74.738 48.6948 73.906 48.8938 73.438C49.0928 72.971 49.4228 72.549 49.8818 72.174C50.3418 71.799 50.9708 71.611 51.7678 71.611C52.3498 71.611 52.8898 71.757 53.3888 72.048C53.8858 72.339 54.2778 72.726 54.5608 73.209C54.8448 73.692 54.9868 74.179 54.9868 74.669C54.9868 75.006 54.9408 75.37 54.8488 75.761C54.7558 76.152 54.6418 76.535 54.5028 76.91C54.3648 77.286 54.2278 77.673 54.0898 78.071L45.9278 100.096C45.6368 100.939 45.3458 101.74 45.0548 102.498C44.7628 103.257 44.4258 103.923 44.0428 104.498C43.6588 105.073 43.1488 105.544 42.5138 105.912C41.8788 106.28 41.0998 106.464 40.1808 106.464C39.2608 106.464 38.4828 106.284 37.8468 105.924C37.2108 105.564 36.6978 105.089 36.3068 104.498C35.9158 103.908 35.5748 103.238 35.2838 102.487C34.9928 101.736 34.7008 100.939 34.4108 100.096L26.3868 78.255C26.2488 77.857 26.1078 77.466 25.9618 77.083C25.8158 76.7 25.6928 76.286 25.5938 75.842C25.4948 75.398 25.4448 75.022 25.4448 74.715C25.4448 73.934 25.7588 73.221 26.3868 72.577C27.0158 71.933 27.8048 71.611 28.7548 71.611C29.9198 71.611 30.7438 71.967 31.2268 72.68C31.7088 73.393 32.2038 74.531 32.7088 76.094Z" fill="#6DC9F7" />
    <path d="M59.3899 102.303V75.749C59.3899 74.37 59.7039 73.335 60.3319 72.645C60.9609 71.955 61.7729 71.61 62.7699 71.61C63.7959 71.61 64.6279 71.951 65.2639 72.633C65.8999 73.315 66.2179 74.354 66.2179 75.748V102.302C66.2179 103.697 65.8999 104.739 65.2639 105.428C64.6279 106.118 63.7959 106.463 62.7699 106.463C61.7889 106.463 60.9799 106.114 60.3439 105.417C59.7079 104.72 59.3899 103.683 59.3899 102.303Z" fill="#6DC9F7" />
    <path d="M85.9331 92.762H79.6801V102.303C79.6801 103.667 79.3581 104.702 78.7141 105.407C78.0701 106.112 77.2581 106.465 76.2771 106.465C75.2501 106.465 74.4221 106.116 73.7941 105.419C73.1651 104.722 72.8521 103.699 72.8521 102.35V76.37C72.8521 74.868 73.1971 73.795 73.8861 73.151C74.5751 72.507 75.6711 72.185 77.1741 72.185H85.9331C88.5231 72.185 90.5161 72.385 91.9111 72.783C93.2911 73.166 94.4821 73.803 95.4861 74.691C96.4901 75.58 97.2531 76.669 97.7741 77.956C98.2951 79.244 98.5551 80.692 98.5551 82.301C98.5551 85.735 97.4971 88.336 95.3821 90.107C93.2671 91.877 90.1181 92.762 85.9331 92.762ZM84.2781 77.313H79.6801V87.613H84.2781C85.8871 87.613 87.2321 87.445 88.3131 87.107C89.3931 86.77 90.2171 86.218 90.7851 85.452C91.3511 84.686 91.6361 83.681 91.6361 82.44C91.6361 80.954 91.198 79.743 90.3251 78.808C89.3431 77.811 87.3281 77.313 84.2781 77.313Z" fill="#6DC9F7" />
    <path d="M93.7491 28.604L88.9061 31.871C87.7691 32.638 86.2141 32.139 85.7361 30.854L82.5051 22.169C82.0531 22.333 81.5721 22.437 81.0631 22.437C80.1701 22.437 79.3441 22.158 78.6611 21.686L74.1321 28.328C73.2161 29.671 71.1901 29.524 70.4781 28.063L64.2191 15.227C63.5431 15.542 62.7961 15.73 62.0001 15.73C61.2041 15.73 60.4571 15.542 59.7791 15.227L53.5211 28.063C52.8081 29.525 50.7831 29.671 49.8671 28.328L45.3381 21.686C44.6551 22.158 43.8291 22.437 42.9371 22.437C42.4281 22.437 41.9471 22.333 41.4951 22.169L38.2641 30.854C37.7861 32.139 36.2311 32.638 35.0941 31.871L30.2511 28.604C29.5581 29.411 28.5731 29.946 27.4541 30.053L33.0521 58.498H62.0001H90.9491L96.5471 30.053C95.4271 29.946 94.4431 29.412 93.7491 28.604Z" fill="#FA759E" />
    <path d="M42.936 22.437C45.2754 22.437 47.172 20.5404 47.172 18.201C47.172 15.8615 45.2754 13.965 42.936 13.965C40.5965 13.965 38.7 15.8615 38.7 18.201C38.7 20.5404 40.5965 22.437 42.936 22.437Z" fill="#FFD7E5" />
    <path d="M81.0641 22.437C83.4036 22.437 85.3001 20.5404 85.3001 18.201C85.3001 15.8615 83.4036 13.965 81.0641 13.965C78.7246 13.965 76.8281 15.8615 76.8281 18.201C76.8281 20.5404 78.7246 22.437 81.0641 22.437Z" fill="#FFD7E5" />
    <path d="M62.0001 15.731C64.925 15.731 67.2961 13.3599 67.2961 10.435C67.2961 7.51008 64.925 5.13898 62.0001 5.13898C59.0752 5.13898 56.7041 7.51008 56.7041 10.435C56.7041 13.3599 59.0752 15.731 62.0001 15.731Z" fill="#FFD7E5" />
    <path d="M27.049 30.0939C29.3885 30.0939 31.285 28.1974 31.285 25.8579C31.285 23.5185 29.3885 21.6219 27.049 21.6219C24.7095 21.6219 22.813 23.5185 22.813 25.8579C22.813 28.1974 24.7095 30.0939 27.049 30.0939Z" fill="#FFD7E5" />
    <path d="M96.9499 30.0939C99.2893 30.0939 101.186 28.1974 101.186 25.8579C101.186 23.5185 99.2893 21.6219 96.9499 21.6219C94.6104 21.6219 92.7139 23.5185 92.7139 25.8579C92.7139 28.1974 94.6104 30.0939 96.9499 30.0939Z" fill="#FFD7E5" />
    <path d="M62.0001 52.914L56.7041 44.417L62.0001 35.92L67.2951 44.417L62.0001 52.914Z" fill="#6DC9F7" />
    <path d="M75.4148 47.947C77.3643 47.947 78.9448 46.3665 78.9448 44.417C78.9448 42.4674 77.3643 40.887 75.4148 40.887C73.4652 40.887 71.8848 42.4674 71.8848 44.417C71.8848 46.3665 73.4652 47.947 75.4148 47.947Z" fill="#D4FBFF" />
    <path d="M87.0648 46.888C88.4294 46.888 89.5358 45.7817 89.5358 44.417C89.5358 43.0523 88.4294 41.946 87.0648 41.946C85.7001 41.946 84.5938 43.0523 84.5938 44.417C84.5938 45.7817 85.7001 46.888 87.0648 46.888Z" fill="#D4FBFF" />
    <path d="M36.9339 46.888C38.2986 46.888 39.4049 45.7817 39.4049 44.417C39.4049 43.0523 38.2986 41.946 36.9339 41.946C35.5692 41.946 34.4629 43.0523 34.4629 44.417C34.4629 45.7817 35.5692 46.888 36.9339 46.888Z" fill="#D4FBFF" />
    <path d="M48.5849 47.947C50.5345 47.947 52.1149 46.3665 52.1149 44.417C52.1149 42.4674 50.5345 40.887 48.5849 40.887C46.6354 40.887 45.0549 42.4674 45.0549 44.417C45.0549 46.3665 46.6354 47.947 48.5849 47.947Z" fill="#D4FBFF" />
    <path d="M92.9161 65.861H31.0831C29.0501 65.861 27.4021 64.213 27.4021 62.18C27.4021 60.147 29.0501 58.499 31.0831 58.499H92.9161C94.9491 58.499 96.5971 60.147 96.5971 62.18C96.5971 64.213 94.9491 65.861 92.9161 65.861Z" fill="#FFD7E5" />
    <path d="M92.9161 62.861H31.0831C29.5861 62.861 28.3031 61.963 27.7281 60.68C27.5221 61.139 27.4021 61.644 27.4021 62.18C27.4021 64.213 29.0501 65.861 31.0831 65.861H92.9161C94.9491 65.861 96.5971 64.213 96.5971 62.18C96.5971 61.644 96.4771 61.139 96.2711 60.68C95.6971 61.963 94.4141 62.861 92.9161 62.861Z" fill="white" />
    <path d="M92.9159 118.861H31.0829C29.0499 118.861 27.4019 117.213 27.4019 115.18C27.4019 113.147 29.0499 111.499 31.0829 111.499H92.9159C94.9489 111.499 96.5969 113.147 96.5969 115.18C96.5969 117.213 94.9489 118.861 92.9159 118.861Z" fill="#FFD7E5" />
    <path d="M15.133 82.923L16.578 87.37H21.254C21.899 87.37 22.167 88.196 21.645 88.575L17.862 91.323L19.307 95.77C19.506 96.384 18.804 96.894 18.282 96.515L14.89 94.051C14.657 93.881 14.341 93.881 14.107 94.051L10.715 96.515C10.193 96.894 9.49103 96.384 9.69003 95.77L11.135 91.323L7.35203 88.575C6.83203 88.195 7.10003 87.37 7.74603 87.37H12.422L13.867 82.923C14.066 82.309 14.934 82.309 15.133 82.923Z" fill="#0089EF" />
    <path d="M110.133 82.923L111.578 87.37H116.254C116.899 87.37 117.167 88.196 116.645 88.575L112.862 91.323L114.307 95.77C114.506 96.384 113.804 96.894 113.282 96.515L109.89 94.051C109.657 93.881 109.341 93.881 109.107 94.051L105.715 96.515C105.193 96.894 104.491 96.384 104.69 95.77L106.135 91.323L102.352 88.575C101.83 88.196 102.098 87.37 102.743 87.37H107.419L108.864 82.923C109.066 82.309 109.934 82.309 110.133 82.923Z" fill="#0089EF" />
    <path d="M34.3518 102.849C34.6658 103.661 35.0438 104.402 35.4738 105.051C35.9508 105.771 36.5828 106.358 37.3558 106.795C38.1408 107.239 39.0908 107.465 40.1818 107.465C41.2748 107.465 42.2288 107.234 43.0158 106.779C43.7828 106.336 44.4088 105.755 44.8758 105.053C45.2968 104.421 45.6718 103.682 45.9888 102.857C46.2838 102.088 46.5788 101.277 46.8658 100.444L55.0358 78.398C55.1718 78.005 55.3068 77.625 55.4418 77.257C55.5898 76.853 55.7178 76.427 55.8228 75.989C55.9308 75.525 55.9868 75.08 55.9868 74.668C55.9868 73.999 55.7978 73.337 55.4238 72.702C55.0548 72.073 54.5398 71.562 53.8938 71.184C53.2418 70.804 52.5268 70.611 51.7688 70.611C50.7398 70.611 49.8918 70.877 49.2498 71.401C48.6648 71.879 48.2358 72.433 47.9748 73.047C47.7628 73.544 47.4598 74.385 47.0498 75.614L40.3398 95.563L33.6588 75.78C33.1198 74.114 32.5958 72.917 32.0548 72.12C31.3768 71.119 30.2668 70.611 28.7548 70.611C27.5298 70.611 26.4918 71.037 25.6708 71.879C24.8578 72.713 24.4438 73.667 24.4438 74.715C24.4438 75.099 24.5008 75.54 24.6178 76.061C24.7278 76.555 24.8658 77.019 25.0268 77.438C25.1688 77.812 25.3068 78.194 25.4478 78.6L33.4658 100.422C33.7598 101.277 34.0568 102.086 34.3518 102.849ZM26.8958 76.725C26.7688 76.393 26.6598 76.022 26.5698 75.622C26.4868 75.251 26.4448 74.946 26.4448 74.714C26.4448 74.199 26.6598 73.729 27.1028 73.275C27.5448 72.821 28.0708 72.61 28.7548 72.61C29.9728 72.61 30.2928 73.084 30.3988 73.24C30.8268 73.871 31.2838 74.935 31.7578 76.401C31.7588 76.405 31.7598 76.409 31.7618 76.413L39.3948 99.013C39.5318 99.42 39.9138 99.693 40.3418 99.693C40.3418 99.693 40.3418 99.693 40.3428 99.693C40.7718 99.693 41.1528 99.419 41.2898 99.012L48.9458 76.249C49.3348 75.084 49.6268 74.27 49.8138 73.83C49.9478 73.516 50.1838 73.219 50.5148 72.948C50.7888 72.724 51.2108 72.61 51.7678 72.61C52.1718 72.61 52.5388 72.709 52.8838 72.91C53.2358 73.116 53.5008 73.379 53.6978 73.715C53.8918 74.044 53.9858 74.356 53.9858 74.668C53.9858 74.927 53.9488 75.217 53.8758 75.529C53.7908 75.886 53.6868 76.235 53.5638 76.566C53.4238 76.947 53.2848 77.34 53.1528 77.723L44.9828 99.769C44.6958 100.601 44.4088 101.391 44.1218 102.138C43.8568 102.826 43.5518 103.433 43.2118 103.942C42.9118 104.392 42.5208 104.753 42.0138 105.046C41.5348 105.323 40.9188 105.463 40.1818 105.463C39.4408 105.463 38.8218 105.325 38.3408 105.053C37.8388 104.769 37.4458 104.406 37.1418 103.945C36.7908 103.415 36.4798 102.803 36.2168 102.125C35.9298 101.385 35.6428 100.6 35.3498 99.75L27.3318 77.926C27.1908 77.52 27.0468 77.12 26.8958 76.725Z" fill="#3A2C60" />
    <path d="M65.9999 106.107C66.8089 105.23 67.2189 103.95 67.2189 102.303V75.749C67.2189 74.1 66.8079 72.822 65.9959 71.952C65.1659 71.062 64.0809 70.611 62.7699 70.611C61.4859 70.611 60.4159 71.069 59.5929 71.972C58.7939 72.848 58.3899 74.119 58.3899 75.749V102.303C58.3899 103.933 58.7989 105.208 59.6049 106.092C60.4349 107.003 61.5009 107.464 62.7699 107.464C64.0839 107.464 65.1699 107.008 65.9999 106.107ZM60.3899 102.303V75.749C60.3899 74.633 60.6189 73.815 61.0719 73.319C61.5119 72.836 62.0519 72.611 62.7699 72.611C63.5139 72.611 64.0899 72.841 64.5329 73.316C64.9879 73.804 65.2189 74.623 65.2189 75.75V102.304C65.2189 103.433 64.9879 104.257 64.5299 104.753C64.0819 105.239 63.5229 105.465 62.7709 105.465C62.0679 105.465 61.5319 105.236 61.0839 104.745C60.6239 104.24 60.3899 103.419 60.3899 102.303Z" fill="#3A2C60" />
    <path d="M84.2777 76.312H79.6797C79.1267 76.312 78.6797 76.76 78.6797 77.312V87.612C78.6797 88.164 79.1267 88.612 79.6797 88.612H84.2777C85.9807 88.612 87.4387 88.426 88.6107 88.061C89.8927 87.661 90.8947 86.983 91.5887 86.046C92.2827 85.107 92.6357 83.893 92.6357 82.44C92.6357 80.7 92.1047 79.248 91.0377 78.106C89.8487 76.899 87.6377 76.312 84.2777 76.312ZM89.9807 84.856C89.5387 85.453 88.8957 85.877 88.0147 86.151C87.0357 86.457 85.7787 86.611 84.2777 86.611H80.6797V78.311H84.2777C87.7137 78.311 89.0747 78.961 89.5937 79.488C90.2937 80.238 90.6347 81.203 90.6347 82.438C90.6347 83.456 90.4147 84.269 89.9807 84.856Z" fill="#3A2C60" />
    <path d="M96.1491 73.943C95.0351 72.956 93.6991 72.242 92.1851 71.822C90.6851 71.394 88.6401 71.186 85.9331 71.186H77.1741C75.4161 71.186 74.0801 71.602 73.2031 72.421C72.3071 73.258 71.8511 74.587 71.8511 76.371V102.35C71.8511 103.949 72.2541 105.206 73.0501 106.089C73.8721 107.002 74.9581 107.465 76.2771 107.465C77.5461 107.465 78.6141 107 79.4521 106.082C80.2661 105.19 80.6801 103.919 80.6801 102.304V93.763H85.9331C90.3381 93.763 93.7341 92.791 96.0241 90.874C98.3671 88.913 99.5551 86.029 99.5551 82.302C99.5551 80.572 99.2681 78.984 98.7011 77.581C98.1241 76.155 97.2641 74.931 96.1491 73.943ZM94.7411 89.34C92.8201 90.947 89.8571 91.762 85.9331 91.762H79.6801C79.1271 91.762 78.6801 92.21 78.6801 92.762V102.303C78.6801 103.403 78.4431 104.22 77.9761 104.732C77.5201 105.232 76.9811 105.464 76.2781 105.464C75.5301 105.464 74.9771 105.237 74.5371 104.748C74.0831 104.244 73.8521 103.437 73.8521 102.349V76.37C73.8521 75.163 74.0931 74.326 74.5691 73.882C75.0641 73.42 75.9401 73.185 77.1741 73.185H85.9331C88.4161 73.185 90.3351 73.373 91.6431 73.746C92.8681 74.086 93.9381 74.656 94.8231 75.439C95.7061 76.221 96.3861 77.193 96.8471 78.33C97.3171 79.493 97.5551 80.829 97.5551 82.3C97.5551 85.452 96.6341 87.755 94.7411 89.34Z" fill="#3A2C60" />
    <path d="M96.951 20.622C94.063 20.622 91.714 22.971 91.714 25.858C91.714 26.758 91.963 27.592 92.364 28.333L88.347 31.043C88.061 31.237 87.707 31.287 87.379 31.181C87.051 31.076 86.794 30.83 86.674 30.507L83.758 22.669C85.275 21.75 86.3 20.1 86.3 18.201C86.3 15.314 83.951 12.965 81.064 12.965C78.177 12.965 75.828 15.314 75.828 18.201C75.828 19.627 76.404 20.919 77.332 21.864L73.308 27.765C72.981 28.244 72.499 28.263 72.303 28.25C72.11 28.236 71.633 28.147 71.378 27.625L65.534 15.64C67.199 14.506 68.295 12.596 68.295 10.434C68.295 6.96298 65.471 4.13898 61.999 4.13898C58.528 4.13898 55.704 6.96298 55.704 10.434C55.704 12.596 56.8 14.506 58.465 15.64L52.622 27.625C52.367 28.147 51.891 28.236 51.697 28.25C51.5 28.266 51.019 28.244 50.692 27.765L46.668 21.864C47.595 20.919 48.172 19.627 48.172 18.201C48.172 15.314 45.823 12.965 42.936 12.965C40.049 12.965 37.7 15.314 37.7 18.201C37.7 20.1 38.726 21.75 40.242 22.668L37.326 30.505C37.206 30.829 36.948 31.075 36.62 31.18C36.292 31.284 35.939 31.236 35.653 31.042L31.636 28.332C32.037 27.592 32.286 26.757 32.286 25.858C32.286 22.971 29.937 20.622 27.05 20.622C24.163 20.622 21.814 22.971 21.814 25.858C21.814 28.602 23.943 30.835 26.632 31.053L31.836 57.5H31.084C28.503 57.5 26.403 59.6 26.403 62.181C26.403 64.762 28.503 66.862 31.084 66.862H92.917C95.498 66.862 97.598 64.762 97.598 62.181C97.598 59.6 95.498 57.5 92.917 57.5H92.165L97.369 31.053C100.058 30.836 102.187 28.603 102.187 25.858C102.187 22.971 99.839 20.622 96.951 20.622ZM81.064 14.965C82.848 14.965 84.3 16.417 84.3 18.201C84.3 19.985 82.848 21.438 81.064 21.438C79.28 21.438 77.828 19.986 77.828 18.201C77.828 16.416 79.28 14.965 81.064 14.965ZM62 6.13898C64.369 6.13898 66.296 8.06598 66.296 10.434C66.296 12.802 64.369 14.73 62 14.73C59.632 14.73 57.705 12.803 57.705 10.435C57.705 8.06698 59.631 6.13898 62 6.13898ZM42.936 14.965C44.72 14.965 46.172 16.417 46.172 18.201C46.172 19.985 44.72 21.438 42.936 21.438C41.152 21.438 39.7 19.986 39.7 18.201C39.7 16.416 41.152 14.965 42.936 14.965ZM23.813 25.858C23.813 24.073 25.265 22.622 27.049 22.622C28.833 22.622 30.285 24.074 30.285 25.858C30.285 27.642 28.833 29.095 27.049 29.095C25.265 29.095 23.813 27.643 23.813 25.858ZM85.418 57.499C84.865 57.499 84.418 57.947 84.418 58.499C84.418 59.051 84.865 59.499 85.418 59.499H92.917C94.396 59.499 95.598 60.702 95.598 62.18C95.598 63.658 94.396 64.861 92.917 64.861H31.084C29.605 64.861 28.403 63.658 28.403 62.18C28.403 60.701 29.605 59.499 31.084 59.499H70.298C70.851 59.499 71.298 59.051 71.298 58.499C71.298 57.947 70.851 57.499 70.298 57.499H33.874L28.625 30.826C29.267 30.622 29.849 30.302 30.358 29.883L34.534 32.701C35.331 33.239 36.315 33.379 37.23 33.085C38.146 32.791 38.865 32.106 39.201 31.203L42.12 23.355C42.388 23.397 42.657 23.438 42.936 23.438C43.678 23.438 44.382 23.279 45.022 22.999L49.041 28.892C49.675 29.821 50.732 30.326 51.843 30.245C52.964 30.164 53.928 29.512 54.42 28.501L60.279 16.484C60.827 16.64 61.403 16.729 62 16.729C62.597 16.729 63.173 16.64 63.721 16.484L69.581 28.502C70.073 29.512 71.037 30.164 72.158 30.245C73.268 30.327 74.326 29.821 74.96 28.892L78.979 22.999C79.619 23.278 80.323 23.438 81.065 23.438C81.345 23.438 81.613 23.398 81.881 23.355L84.8 31.202C85.135 32.104 85.853 32.79 86.769 33.084C87.687 33.378 88.67 33.238 89.467 32.7L93.643 29.883C94.151 30.302 94.734 30.621 95.376 30.826L90.127 57.499H85.418ZM96.951 29.095C95.166 29.095 93.714 27.643 93.714 25.858C93.714 24.073 95.166 22.622 96.951 22.622C98.735 22.622 100.187 24.074 100.187 25.858C100.187 27.642 98.735 29.095 96.951 29.095Z" fill="#3A2C60" />
    <path d="M62.8478 35.391C62.4818 34.804 61.5148 34.806 61.1508 35.391L55.8558 43.888C55.6538 44.212 55.6538 44.622 55.8558 44.946L61.1508 53.444C61.3338 53.737 61.6538 53.915 61.9998 53.915C62.3458 53.915 62.6658 53.737 62.8488 53.444L68.1448 44.946C68.3468 44.622 68.3468 44.212 68.1448 43.888L62.8478 35.391ZM61.9998 51.024L57.8838 44.417L61.9998 37.811L66.1168 44.417L61.9998 51.024Z" fill="#3A2C60" />
    <path d="M79.9458 44.417C79.9458 41.919 77.9138 39.887 75.4158 39.887C72.9168 39.887 70.8848 41.919 70.8848 44.417C70.8848 46.915 72.9168 48.948 75.4158 48.948C77.9138 48.948 79.9458 46.915 79.9458 44.417ZM72.8838 44.417C72.8838 43.022 74.0198 41.887 75.4148 41.887C76.8098 41.887 77.9448 43.022 77.9448 44.417C77.9448 45.813 76.8098 46.948 75.4148 46.948C74.0198 46.948 72.8838 45.812 72.8838 44.417Z" fill="#3A2C60" />
    <path d="M87.0648 40.946C85.1508 40.946 83.5938 42.503 83.5938 44.417C83.5938 46.331 85.1508 47.888 87.0648 47.888C88.9788 47.888 90.5368 46.331 90.5368 44.417C90.5368 42.503 88.9788 40.946 87.0648 40.946ZM87.0648 45.888C86.2538 45.888 85.5938 45.228 85.5938 44.417C85.5938 43.606 86.2538 42.946 87.0648 42.946C87.8768 42.946 88.5368 43.606 88.5368 44.417C88.5368 45.228 87.8768 45.888 87.0648 45.888Z" fill="#3A2C60" />
    <path d="M36.9339 40.946C35.0199 40.946 33.4629 42.503 33.4629 44.417C33.4629 46.331 35.0199 47.888 36.9339 47.888C38.8479 47.888 40.4059 46.331 40.4059 44.417C40.4059 42.503 38.8479 40.946 36.9339 40.946ZM36.9339 45.888C36.1229 45.888 35.4629 45.228 35.4629 44.417C35.4629 43.606 36.1229 42.946 36.9339 42.946C37.7459 42.946 38.4059 43.606 38.4059 44.417C38.4059 45.228 37.7459 45.888 36.9339 45.888Z" fill="#3A2C60" />
    <path d="M48.5849 39.887C46.0869 39.887 44.0549 41.919 44.0549 44.417C44.0549 46.915 46.0869 48.948 48.5849 48.948C51.0829 48.948 53.1149 46.915 53.1149 44.417C53.1149 41.919 51.0829 39.887 48.5849 39.887ZM48.5849 46.948C47.1889 46.948 46.0549 45.813 46.0549 44.417C46.0549 43.022 47.1899 41.887 48.5849 41.887C49.9799 41.887 51.1149 43.022 51.1149 44.417C51.1149 45.812 49.9799 46.948 48.5849 46.948Z" fill="#3A2C60" />
    <path d="M81.1521 57.499H74.8281C74.2751 57.499 73.8281 57.947 73.8281 58.499C73.8281 59.051 74.2751 59.499 74.8281 59.499H81.1521C81.7051 59.499 82.1521 59.051 82.1521 58.499C82.1521 57.947 81.7051 57.499 81.1521 57.499Z" fill="#3A2C60" />
    <path d="M92.9168 110.499H31.0838C28.5028 110.499 26.4028 112.599 26.4028 115.18C26.4028 117.761 28.5028 119.861 31.0838 119.861H92.9168C95.4978 119.861 97.5978 117.761 97.5978 115.18C97.5978 112.599 95.4978 110.499 92.9168 110.499ZM92.9168 117.861H31.0838C29.6048 117.861 28.4028 116.658 28.4028 115.18C28.4028 113.701 29.6048 112.499 31.0838 112.499H92.9168C94.3958 112.499 95.5978 113.702 95.5978 115.18C95.5968 116.658 94.3948 117.861 92.9168 117.861Z" fill="#3A2C60" />
    <path d="M21.2549 86.37H17.3049L16.0849 82.614C15.8609 81.926 15.2249 81.463 14.5009 81.463C13.7759 81.463 13.1399 81.926 12.9159 82.614L11.6949 86.37H7.74592C7.02192 86.37 6.38592 86.832 6.16192 87.52C5.93692 88.208 6.18092 88.958 6.76592 89.384L9.96092 91.705L8.73992 95.461C8.51592 96.149 8.75992 96.898 9.34492 97.323C9.92992 97.748 10.7179 97.75 11.3039 97.323L14.4979 95.002L17.6929 97.323C17.9859 97.536 18.3289 97.643 18.6719 97.643C19.0149 97.643 19.3589 97.537 19.6509 97.324C20.2369 96.898 20.4799 96.149 20.2549 95.461L19.0349 91.705L22.2299 89.383C22.8159 88.957 23.0579 88.209 22.8339 87.52C22.6099 86.831 21.9779 86.37 21.2549 86.37ZM17.2749 90.514C16.9239 90.769 16.7779 91.22 16.9119 91.632L18.0389 95.101L15.4799 93.242C14.8919 92.815 14.1059 92.816 13.5199 93.242L10.9599 95.102L12.0879 91.633C12.2219 91.221 12.0749 90.77 11.7249 90.515L8.77292 88.37H12.4209C12.8549 88.37 13.2379 88.091 13.3719 87.679L14.4999 84.21L15.6269 87.679C15.7609 88.091 16.1449 88.37 16.5779 88.37H20.2269L17.2749 90.514Z" fill="#3A2C60" />
    <path d="M117.839 87.52C117.615 86.832 116.979 86.369 116.255 86.369H112.305L111.085 82.613C110.861 81.925 110.225 81.462 109.501 81.462C108.776 81.462 108.14 81.925 107.916 82.613L106.695 86.369H102.746C102.022 86.369 101.386 86.831 101.162 87.519C100.937 88.207 101.181 88.957 101.766 89.383L104.961 91.704L103.74 95.46C103.516 96.148 103.76 96.897 104.345 97.322C104.93 97.747 105.718 97.749 106.304 97.322L109.498 95.001L112.693 97.322C112.986 97.535 113.329 97.642 113.672 97.642C114.015 97.642 114.359 97.536 114.651 97.323C115.237 96.897 115.48 96.148 115.255 95.46L114.035 91.704L117.23 89.382C117.82 88.958 118.062 88.209 117.839 87.52ZM112.275 90.514C111.924 90.769 111.778 91.22 111.912 91.632L113.039 95.101L110.48 93.242C109.892 92.815 109.106 92.816 108.52 93.242L105.96 95.102L107.088 91.633C107.222 91.221 107.075 90.77 106.725 90.515L103.773 88.37H107.421C107.855 88.37 108.238 88.091 108.372 87.679L109.499 84.21L110.626 87.679C110.76 88.091 111.144 88.37 111.577 88.37H115.226L112.275 90.514Z" fill="#3A2C60" />
</svg>
