<svg width="227" height="264" viewBox="0 0 227 264" fill="none" xmlns="http://www.w3.org/2000/svg">
    <path d="M123.341 263.627C165.24 263.627 199.207 261.17 199.207 258.138C199.207 255.107 165.24 252.649 123.341 252.649C81.4417 252.649 47.4756 255.107 47.4756 258.138C47.4756 261.17 81.4417 263.627 123.341 263.627Z" fill="#E6E1F5" />
    <path d="M157.695 88.4532C157.457 81.2935 157.099 74.1338 156.98 66.8547C156.622 51.4613 156.98 36.068 156.502 20.6746C156.502 19.362 155.071 19.362 154.952 20.6746C153.64 35.9486 153.64 51.4613 153.52 66.8547C153.52 74.0144 153.401 81.2935 153.52 88.4532C153.64 95.4936 152.924 103.847 154.952 110.529C155.429 112.319 157.457 112.558 157.934 110.529C159.246 103.727 157.934 95.6129 157.695 88.4532Z" fill="#5E1C4F" />
    <path d="M78.8476 88.4532C78.6091 81.2935 78.2512 74.1338 78.1319 66.8547C77.7741 51.4613 78.1319 36.068 77.6548 20.6746C77.6548 19.362 76.2234 19.362 76.1041 20.6746C74.7919 35.9486 74.7919 51.4613 74.6726 66.8547C74.6726 74.0144 74.5534 81.2935 74.6726 88.4532C74.7919 95.4936 74.0762 103.847 76.1041 110.529C76.5812 112.319 78.6091 112.558 79.0862 110.529C80.3983 103.727 79.0862 95.6129 78.8476 88.4532Z" fill="#5E1C4F" />
    <path d="M82.0684 256.468C87.4362 258.616 95.5476 257.184 101.035 255.752C103.063 255.155 102.466 252.53 100.677 252.291C94.7126 249.905 86.2434 248.592 81.2334 253.485C80.1598 254.439 80.8756 255.99 82.0684 256.468Z" fill="#5E1C4F" />
    <path d="M102.228 242.506C101.989 238.569 101.631 234.511 101.512 230.573C101.154 221.982 101.512 213.509 101.035 204.918C101.035 204.202 99.6032 204.202 99.484 204.918C98.1718 213.39 98.1718 221.982 98.0525 230.573C98.0525 234.511 97.9332 238.569 98.0525 242.506C98.1718 246.444 97.4561 251.098 99.484 254.797C99.9611 255.752 101.989 255.99 102.466 254.797C103.778 250.979 102.466 246.444 102.228 242.506Z" fill="#5E1C4F" />
    <path d="M152.804 253.485C147.794 248.711 139.445 249.905 133.361 252.291C131.572 252.53 130.856 255.155 133.003 255.752C138.49 257.303 146.602 258.735 151.969 256.468C153.282 255.99 153.878 254.439 152.804 253.485Z" fill="#5E1C4F" />
    <path d="M135.389 242.506C135.15 238.569 134.792 234.511 134.673 230.573C134.315 221.982 134.673 213.509 134.196 204.918C134.196 204.202 132.765 204.202 132.645 204.918C131.333 213.39 131.333 221.982 131.214 230.573C131.214 234.511 131.095 238.569 131.214 242.506C131.333 246.444 130.617 251.098 132.645 254.797C133.122 255.752 135.15 255.99 135.627 254.797C136.94 250.979 135.627 246.444 135.389 242.506Z" fill="#5E1C4F" />
    <path d="M194.793 182.723C190.022 189.644 181.672 193.462 173.441 192.627C175.111 200.98 170.22 210.765 162.467 215.657C156.622 219.356 150.419 220.192 144.813 216.135C143.023 214.822 141.473 213.39 140.041 211.839C139.087 213.509 137.894 215.18 136.82 216.493C132.049 222.459 125.608 227.232 117.615 227.948C110.101 228.545 103.659 225.084 99.9613 218.998C93.4006 223.891 82.307 224.488 76.462 219.714C71.8099 215.896 69.5435 209.93 69.3049 203.724C69.0663 203.844 68.8278 203.963 68.4699 204.082C65.7264 205.037 62.7442 205.156 59.8814 204.44C53.6785 202.77 49.6228 197.4 48.5493 191.314C47.8336 186.541 48.9071 181.529 51.2928 177.234C46.5214 174.847 43.0621 168.761 43.7779 163.391C44.1357 160.647 45.2093 158.141 46.6407 156.112C39.6029 148.237 40.3186 130.099 47.4757 122.581C52.1278 117.689 58.2114 117.211 63.8178 119.001C64.0564 112.915 67.0385 107.307 73.9571 106.352C80.0406 105.517 84.4542 107.904 87.6749 111.961C87.9134 111.364 88.152 110.768 88.3906 110.171C90.8956 104.085 95.5477 95.8515 103.063 95.2549C109.266 94.7775 113.918 99.312 116.78 104.443C117.496 103.369 118.331 102.176 119.405 101.102C124.295 95.9708 132.288 90.4817 139.087 95.4935C141.115 96.9255 142.427 98.954 143.262 101.221C147.556 97.2834 154.117 93.5843 159.723 95.8515C166.165 98.5961 168.908 106.949 169.027 113.393C169.027 114.228 169.027 115.183 168.908 116.018C169.982 115.541 171.175 115.302 172.367 115.063C185.37 113.035 196.94 129.979 191.215 141.554C189.902 144.18 188.232 146.566 186.324 148.953C189.545 150.504 192.288 153.129 194.435 156.232C200.161 163.869 200.4 174.489 194.793 182.723Z" fill="#FFC1D0" />
    <path d="M173.56 118.643C171.652 118.882 169.385 119.717 167.238 120.911C167.238 119.479 167 117.927 166.88 116.734C166.284 113.274 164.614 109.694 162.109 107.069C160.916 105.875 158.65 107.427 159.723 108.978C161.513 111.722 163.183 114.228 163.779 117.569C164.137 119.359 163.779 121.627 164.256 123.417C162.348 125.445 161.513 128.07 162.825 130.815C163.302 131.77 164.614 131.531 165.091 130.815C165.926 129.502 166.045 128.07 166.761 126.638C168.073 124.49 170.578 123.059 173.083 122.701C178.57 121.746 182.387 126.4 184.177 130.934C184.892 132.605 187.636 132.605 187.517 130.457C187.278 124.132 179.763 118.047 173.56 118.643Z" fill="#FFB5C7" />
    <path d="M153.878 102.176C152.566 101.937 151.373 102.295 150.18 102.415C148.868 102.534 148.51 104.443 149.823 104.801C151.015 105.04 152.208 105.756 153.401 105.637C154.236 105.637 154.952 105.04 155.071 104.085C155.19 103.25 154.713 102.295 153.878 102.176Z" fill="#FFB5C7" />
    <path d="M144.455 106.591C141.353 101.937 136.94 98.2382 130.976 99.4315C126.204 100.386 120.598 103.489 120.001 108.739C119.882 109.694 121.194 109.813 121.671 109.216C123.461 106.353 127.993 103.966 131.333 103.369C136.224 102.534 138.371 105.875 141.115 109.097C142.665 111.006 145.767 108.62 144.455 106.591Z" fill="#FFB5C7" />
    <path d="M143.381 124.371C142.188 124.61 140.28 122.7 139.564 121.984C139.087 121.507 138.729 121.149 138.371 120.672C138.252 120.314 138.013 119.956 137.775 119.717C137.298 118.882 137.059 118.047 137.059 117.092C137.059 115.779 135.031 115.779 135.031 117.092C135.031 118.166 135.15 119.121 135.389 120.075C130.379 122.82 126.92 127.235 125.369 132.724C121.075 130.337 115.945 130.934 111.89 134.275C107.834 137.617 102.943 145.97 108.311 150.146C109.385 150.981 111.174 149.907 110.339 148.595C105.925 140.958 118.689 130.815 125.25 136.901C126.443 137.974 127.993 137.139 128.113 135.707C128.828 130.099 131.93 125.803 136.463 122.939C136.94 123.655 137.417 124.371 138.013 125.087C139.445 126.638 143.023 129.86 145.051 127.354C146.125 126.042 145.17 123.894 143.381 124.371Z" fill="#FFB5C7" />
    <path d="M101.512 102.534C95.7864 103.847 92.2078 110.171 93.0428 115.779C93.1621 116.615 94.5935 116.615 94.7128 115.779C95.19 113.632 96.1443 111.603 97.4564 109.813C98.8878 107.904 100.677 106.949 102.824 105.756C104.614 104.801 103.421 102.057 101.512 102.534Z" fill="#FFB5C7" />
    <path d="M93.4007 120.911C91.1343 117.927 88.8679 114.944 85.2893 113.632C81.4722 112.08 77.4165 111.842 73.4801 112.916C72.2872 113.274 72.4065 115.302 73.8379 115.183C76.7008 114.825 80.16 115.779 82.7843 116.734C86.1243 117.808 88.0329 120.195 90.0607 122.939C91.6114 124.968 94.9514 122.939 93.4007 120.911Z" fill="#FFB5C7" />
    <path d="M101.751 127.235C98.2913 125.326 94.7128 125.326 91.2535 127.116C88.1521 128.667 84.8121 130.934 84.5735 134.633C84.4543 135.469 85.7664 136.065 86.3628 135.349C88.8678 132.485 92.8042 129.144 96.9792 129.622C98.4106 129.741 102.228 132.485 102.824 129.383C102.824 128.667 102.586 127.712 101.751 127.235Z" fill="#FFB5C7" />
    <path d="M53.44 126.161C50.6964 126.519 48.5493 129.622 47.595 132.127C46.5215 134.991 46.76 137.855 47.9529 140.719C48.3107 141.435 49.5036 141.077 49.3843 140.361C49.1457 138.094 49.7422 135.707 50.6964 133.559C51.6507 131.531 53.5593 130.457 54.6328 128.548C55.2293 127.474 54.6328 126.042 53.44 126.161Z" fill="#FFB5C7" />
    <path d="M70.7363 148.237C70.2592 147.64 69.4242 147.521 69.0663 148.237C68.3506 149.43 68.5892 149.907 68.2313 151.339C67.6349 153.249 66.2035 154.8 64.4142 155.754C61.7899 157.067 57.0185 157.664 54.275 155.754C54.275 155.516 54.275 155.277 54.0364 155.038C52.3664 152.294 51.1735 149.43 49.8614 146.566C49.3843 145.373 47.595 146.208 47.8336 147.401C48.1914 149.072 48.6686 150.623 49.3843 152.175C50.4578 154.561 50.935 154.919 50.1 157.306C49.1457 159.931 47.8336 161.84 48.3107 164.823C48.9071 168.284 54.275 174.489 57.9728 171.983C58.9271 171.267 58.5692 169.835 57.3764 169.716C53.6785 169.477 50.935 165.539 51.4121 162.198C51.5314 160.528 52.3664 159.096 53.2014 157.783C56.0642 160.528 60.7164 160.528 64.5335 159.096C67.9928 157.544 73.7185 152.175 70.7363 148.237Z" fill="#FFB5C7" />
    <path d="M69.1856 133.679C64.0564 132.724 57.0185 137.139 57.3764 142.748C57.3764 143.702 58.5693 144.06 59.1657 143.225C60.2393 141.435 61.3128 139.645 63.1021 138.452C64.8914 137.139 66.7999 136.901 68.9471 136.781C70.4978 136.662 71.0942 134.037 69.1856 133.679Z" fill="#FFB5C7" />
    <path d="M69.1856 178.188C61.432 177.234 49.7421 184.393 54.3942 193.343C54.7521 194.059 55.9449 193.701 55.9449 192.985C55.5871 189.405 57.1378 185.825 60.1199 183.797C62.9828 181.768 66.3227 181.768 69.6627 181.291C71.452 180.933 70.7363 178.427 69.1856 178.188Z" fill="#FFB5C7" />
    <path d="M65.1301 197.758C64.6529 197.519 64.1758 197.758 63.5794 197.639C63.2215 197.519 62.9829 197.162 62.8637 196.684C62.6251 195.849 61.1937 195.968 61.313 196.923C61.4322 198.713 63.8179 201.219 65.6072 199.667C66.4422 198.951 65.8458 197.997 65.1301 197.758Z" fill="#FFB5C7" />
    <path d="M77.7743 191.076C75.2693 189.405 69.5436 187.376 68.1122 191.314C67.8736 192.15 69.0665 192.866 69.6629 192.15C70.975 190.479 76.3429 194.178 77.0586 195.133C78.7286 197.4 78.6093 200.383 78.8478 203.128C79.0864 205.395 82.3071 205.395 82.3071 203.128C82.4264 198.951 81.7107 193.701 77.7743 191.076Z" fill="#FFB5C7" />
    <path d="M96.2635 211.839C95.0706 212.316 94.3549 212.793 93.2813 213.509C91.1342 215.061 89.8221 215.299 87.3171 215.18C82.9035 214.941 78.2514 213.629 76.9393 208.856C76.7007 207.901 75.2693 208.14 75.2693 209.094C75.15 213.748 78.7285 216.731 82.9035 217.805C88.8678 219.357 92.4463 217.925 97.4563 215.061C99.2456 214.106 98.172 211.123 96.2635 211.839Z" fill="#FFB5C7" />
    <path d="M101.154 181.052C98.4105 181.052 95.1898 181.887 92.9234 183.677C91.2534 178.904 87.4362 174.847 82.5455 174.728C87.9134 170.671 86.2434 160.528 80.637 157.186C78.7284 155.993 76.9391 159.096 78.8477 160.17C81.472 161.721 82.7841 164.943 82.5455 167.807C82.4262 170.79 80.7563 172.818 79.2056 175.205C79.0863 175.444 79.2055 175.682 79.3248 175.921C79.3248 176.16 79.4441 176.279 79.6827 176.398C83.0227 178.069 86.482 178.546 88.6291 182.126C91.0148 186.064 89.7027 189.524 89.4641 193.701C89.3448 195.133 91.2534 195.491 91.9691 194.417C93.4005 192.269 93.7584 189.644 93.5198 187.019C95.9055 185.825 98.0526 184.393 101.035 184.513C102.943 184.513 104.733 185.109 106.403 186.064C107.595 186.78 108.073 187.257 109.504 187.257C110.22 187.257 110.697 186.541 110.578 185.825C109.862 182.245 104.255 181.052 101.154 181.052Z" fill="#FFB5C7" />
    <path d="M174.395 154.203C173.203 145.97 166.165 141.077 158.292 142.628C157.695 137.855 154.594 133.321 149.584 132.366C144.335 131.412 138.013 135.111 138.252 140.838C138.252 141.674 139.325 142.032 139.803 141.316C141.83 137.855 144.335 134.395 149.226 135.469C153.52 136.423 155.31 140.838 155.19 144.776C155.19 145.85 156.264 146.686 157.218 146.328C164.137 144.06 170.22 147.998 171.294 155.158C171.533 157.067 174.753 156.232 174.395 154.203Z" fill="#FFB5C7" />
    <path d="M190.26 163.034C189.306 161.721 187.278 162.914 188.113 164.346C193.6 173.296 187.397 186.541 176.065 185.229C174.872 185.109 174.634 187.019 175.827 187.377C181.672 189.286 187.994 185.945 191.215 180.933C194.674 175.444 193.958 168.284 190.26 163.034Z" fill="#FFB5C7" />
    <path d="M167.715 193.224C170.101 190.598 171.533 186.422 169.982 183.081C169.266 181.529 167.238 182.484 167.119 183.916C166.88 186.541 166.761 188.928 164.733 191.076C162.825 192.866 160.081 193.582 157.457 193.582C156.503 193.582 155.906 195.133 156.86 195.61C159.485 196.803 162.228 196.684 164.614 195.491C164.614 200.145 164.495 204.082 159.843 206.827C158.173 207.782 156.264 208.736 154.355 209.214C151.015 210.049 148.153 208.378 145.528 206.588C144.574 205.992 143.739 207.304 144.455 208.02C149.465 213.987 155.19 213.39 161.751 209.81C167.835 206.469 168.908 200.264 167.954 193.82C167.954 193.582 167.835 193.462 167.715 193.224Z" fill="#FFB5C7" />
    <path d="M152.328 194.775C152.208 192.985 149.465 192.866 149.465 194.775C149.703 204.321 139.087 204.918 132.407 202.77C131.453 202.412 130.618 203.247 130.618 204.202C130.021 218.76 111.413 225.323 105.091 210.407C104.733 209.452 103.421 210.168 103.54 211.004C104.852 218.402 112.248 223.056 119.524 221.982C127.516 220.788 132.526 213.509 133.361 205.992C141.83 208.14 153.043 205.992 152.328 194.775Z" fill="#FFB5C7" />
    <path d="M124.176 187.377C123.58 185.587 121.194 186.064 121.075 187.854C120.478 192.388 119.524 195.73 114.991 197.639C110.816 199.309 105.687 199.787 101.989 196.803C100.796 195.849 99.4841 197.281 100.319 198.474C107.596 207.304 128.709 199.906 124.176 187.377Z" fill="#FFB5C7" />
    <path d="M135.747 170.313C134.554 164.943 127.039 163.988 122.506 164.227C116.184 164.465 114.156 169.597 113.321 175.086C113.083 176.279 114.753 176.756 115.111 175.563C116.781 171.267 118.808 167.568 123.938 167.807C127.993 167.926 130.498 168.881 133.123 171.745C134.316 172.938 135.986 171.745 135.747 170.313Z" fill="#FFB5C7" />
    <path d="M165.807 167.687C164.733 162.795 160.2 158.857 155.071 158.857C150.896 158.857 144.455 160.886 144.216 165.778C144.097 166.971 145.767 166.971 146.125 166.017C147.198 163.272 152.447 161.96 154.952 162.079C158.769 162.198 161.393 165.062 162.467 168.523C163.182 170.671 166.165 169.716 165.807 167.687Z" fill="#FFB5C7" />
    <path d="M105.925 164.704C105.448 161.84 103.778 159.215 101.154 157.783C99.0069 156.59 96.0247 156.112 94.2355 158.141C93.4005 159.096 94.474 160.528 95.5476 159.931C96.979 159.215 99.0069 160.289 100.08 161.244C101.393 162.437 102.108 163.869 102.347 165.659C102.705 167.926 106.283 166.971 105.925 164.704Z" fill="#FFB5C7" />
    <path d="M121.671 193.701C116.303 193.701 111.532 190.718 108.669 185.587C107.834 184.035 108.43 182.126 109.862 181.291C111.413 180.455 113.321 181.052 114.156 182.484C115.826 185.587 118.57 187.377 121.671 187.377C124.773 187.377 127.516 185.587 129.186 182.484C130.021 180.933 131.93 180.455 133.48 181.291C135.031 182.126 135.508 184.035 134.673 185.587C131.93 190.718 127.039 193.701 121.671 193.701Z" fill="#692861" />
    <path d="M161.393 153.607C160.32 153.607 159.246 153.01 158.65 151.936C158.053 150.743 156.98 150.027 155.906 150.027C154.832 150.027 153.759 150.743 153.162 151.936C152.327 153.487 150.419 153.965 148.868 153.129C147.318 152.294 146.84 150.385 147.675 148.833C149.465 145.612 152.566 143.702 155.906 143.702C159.246 143.702 162.347 145.612 164.137 148.833C164.972 150.385 164.375 152.294 162.944 153.129C162.467 153.487 161.87 153.607 161.393 153.607Z" fill="#692861" />
    <path d="M91.6112 153.607C90.5376 153.607 89.464 153.01 88.8676 151.936C88.2712 150.743 87.1976 150.027 86.1241 150.027C85.0505 150.027 83.9769 150.743 83.3805 151.936C82.5455 153.487 80.6369 153.965 79.0862 153.129C77.5355 152.294 77.0584 150.385 77.8934 148.833C79.6827 145.612 82.7841 143.702 86.1241 143.702C89.464 143.702 92.5655 145.612 94.3547 148.833C95.1897 150.385 94.5933 152.294 93.1619 153.129C92.5655 153.487 92.0883 153.607 91.6112 153.607Z" fill="#692861" />
    <path d="M155.429 168.403C134.793 168.403 132.884 166.733 132.049 166.017C129.306 163.511 128.828 152.533 128.828 146.208C128.828 134.872 130.379 133.321 131.333 132.605C131.572 132.366 131.93 132.127 132.288 132.008C139.564 129.144 169.982 127.951 177.616 130.218C178.093 130.338 178.451 130.576 178.809 130.934C179.525 131.65 181.552 133.44 181.552 148.475C181.552 163.511 179.525 165.301 178.809 166.017C177.974 166.733 176.185 168.403 155.429 168.403ZM139.683 161.721C147.318 162.437 163.302 162.437 171.175 161.721C173.202 161.482 174.872 159.931 175.111 157.783C175.588 152.771 175.588 144.538 175.111 139.406C174.872 137.378 173.202 135.707 171.175 135.588C162.705 134.991 147.198 135.588 138.968 136.901C136.94 137.259 135.508 138.929 135.389 140.838C135.031 145.612 135.27 153.129 135.866 157.902C135.985 159.931 137.655 161.482 139.683 161.721Z" fill="#9C3E64" />
    <path d="M85.8857 168.403C65.2493 168.403 63.3408 166.733 62.5058 166.017C61.7901 165.301 59.7622 163.511 59.7622 148.475C59.7622 133.44 61.7901 131.65 62.5058 130.934C62.8636 130.576 63.2215 130.338 63.6986 130.218C71.2136 127.951 101.631 129.144 109.027 132.008C109.385 132.127 109.743 132.366 109.981 132.605C110.816 133.44 112.486 134.872 112.486 146.208C112.486 152.533 112.128 163.392 109.266 166.017C108.431 166.733 106.522 168.403 85.8857 168.403ZM70.6172 161.721C78.3707 162.318 93.52 162.318 101.273 161.721C103.54 161.482 105.329 159.812 105.568 157.544C106.164 152.891 106.283 145.85 106.045 141.196C105.926 138.929 104.256 137.139 101.989 136.781C93.8778 135.588 79.0864 134.991 70.7365 135.469C68.3507 135.588 66.4422 137.497 66.3229 139.764C65.965 144.776 65.965 152.413 66.3229 157.306C66.5615 159.692 68.3508 161.482 70.6172 161.721Z" fill="#9C3E64" />
    <path d="M132.049 155.397C131.333 155.397 130.737 155.039 130.379 154.442C128.232 150.504 124.653 148.117 120.717 148.117C116.78 148.117 113.202 150.504 111.055 154.442C110.578 155.397 109.385 155.755 108.55 155.158C107.595 154.681 107.357 153.487 107.834 152.652C110.697 147.401 115.468 144.299 120.836 144.299C126.204 144.299 131.095 147.401 133.838 152.652C134.315 153.607 133.958 154.681 133.123 155.158C132.645 155.277 132.288 155.397 132.049 155.397Z" fill="#9C3E64" />
    <path d="M62.8636 150.623C62.5057 150.623 62.1479 150.504 61.79 150.265L46.5215 139.287C45.5672 138.571 44.3743 138.332 43.3008 138.452C41.9886 138.69 40.6765 139.645 39.7222 141.077L38.7679 142.39C38.1715 143.225 36.9787 143.464 36.1437 142.867C35.3087 142.27 35.0701 141.077 35.6665 140.242L36.6208 138.929C38.1715 136.662 40.3186 135.23 42.5851 134.753C44.6129 134.395 46.7601 134.872 48.5493 136.185L63.8179 147.163C64.6529 147.759 64.8914 148.953 64.295 149.788C64.0564 150.385 63.46 150.623 62.8636 150.623Z" fill="#9C3E64" />
    <path d="M178.451 150.623C177.974 150.623 177.378 150.385 177.02 150.027C176.304 149.311 176.423 148.117 177.139 147.402L189.425 136.423C190.976 135.111 192.765 134.514 194.435 134.753C196.463 135.111 198.372 136.662 199.803 139.048L200.519 140.361C200.996 141.316 200.638 142.39 199.803 142.867C198.849 143.344 197.775 142.986 197.298 142.151L196.582 140.838C195.747 139.406 194.793 138.571 193.958 138.333C193.362 138.213 192.646 138.452 192.05 139.048L179.763 150.027C179.286 150.504 178.928 150.623 178.451 150.623Z" fill="#9C3E64" />
    <path d="M169.028 173.534C167.596 173.057 165.926 173.176 164.495 173.296C163.063 173.415 161.632 174.489 161.751 176.04C161.87 177.711 162.944 178.665 164.495 178.785C165.688 178.904 167.119 179.143 168.193 179.143C169.624 179.143 170.817 178.069 171.055 176.637C171.294 175.205 170.459 173.892 169.028 173.534Z" fill="white" />
    <path d="M75.1498 173.534C76.5813 173.057 78.2513 173.176 79.6827 173.296C81.1141 173.415 82.5455 174.489 82.4262 176.04C82.3069 177.711 81.2334 178.665 79.6827 178.785C78.4898 178.904 77.0584 179.143 75.9848 179.143C74.5534 179.143 73.3606 178.069 73.122 176.637C72.8834 175.205 73.7184 173.892 75.1498 173.534Z" fill="white" />
    <path d="M196.463 33.562C141.115 23.8964 84.4541 23.8964 28.9864 33.562C28.6286 31.4141 28.2707 29.3855 27.9128 27.2376C83.9769 17.4527 141.472 17.4527 197.537 27.2376C197.179 29.3855 196.821 31.4141 196.463 33.562Z" fill="#997495" />
    <path d="M208.034 36.9033C209.107 37.3806 223.422 40.7218 224.614 40.7218C225.807 40.7218 227.835 32.3688 226.642 31.7721C225.569 31.2948 211.254 27.9536 210.062 27.9536C208.869 27.9536 206.841 36.3066 208.034 36.9033Z" fill="#997495" />
    <path d="M201.712 49.6714C202.547 50.984 215.549 54.0865 216.861 53.2512C218.173 52.4159 226.404 17.0947 225.569 15.7821C224.734 14.4695 211.732 11.3669 210.42 12.2022C209.108 13.0375 200.996 48.3588 201.712 49.6714Z" fill="#AECBE8" />
    <path d="M180.121 51.8196C181.314 53.6096 199.445 57.9054 201.354 56.7121C203.143 55.5188 214.356 7.42945 213.282 5.5202C212.09 3.73027 193.958 -0.565555 192.05 0.627729C190.141 1.82101 178.928 50.0297 180.121 51.8196Z" fill="#BFDAF5" />
    <path d="M18.9665 38.0966C17.8929 38.6933 3.57865 41.9151 2.3858 41.9151C1.19294 41.9151 -0.834907 33.5621 0.357946 32.9655C1.43151 32.4882 15.7458 29.147 16.9386 29.147C18.1315 29.147 20.04 37.6193 18.9665 38.0966Z" fill="#997495" />
    <path d="M25.1693 50.9841C24.3343 52.2967 11.3322 55.3992 10.0201 54.5639C8.70797 53.7286 0.477278 18.4074 1.31228 17.0948C2.14727 15.7822 15.1494 12.6796 16.4615 13.5149C17.7737 14.3502 26.0043 49.5521 25.1693 50.9841Z" fill="#AECBE8" />
    <path d="M46.8793 53.132C45.6865 54.9219 27.5551 59.2177 25.6466 58.0244C23.8573 56.8312 12.6445 8.74177 13.718 6.83252C14.9109 5.04259 33.0422 0.746761 34.9508 1.94005C36.8594 3.13333 48.0722 51.2227 46.8793 53.132Z" fill="#BFDAF5" />
    <path d="M163.302 22.5839C163.302 18.646 159.604 17.3334 156.264 16.9754C152.566 16.6174 149.226 18.4074 148.63 22.2259C148.152 25.8057 150.3 29.6242 152.805 32.1301C153.162 32.4881 153.52 32.7268 153.878 32.7268C154.952 33.3234 156.383 33.3234 157.099 32.3688C159.365 29.6242 163.302 26.4024 163.302 22.5839Z" fill="#5E1C4F" />
    <path d="M68.5891 22.5839C68.5891 18.646 72.287 17.3334 75.627 16.9754C79.3248 16.6174 82.6648 18.4074 83.2612 22.2259C83.7384 25.8057 81.5912 29.6242 79.0862 32.1301C78.7284 32.4881 78.3705 32.7268 78.0127 32.7268C76.9391 33.3234 75.5077 33.3234 74.792 32.3688C72.4062 29.6242 68.5891 26.4024 68.5891 22.5839Z" fill="#5E1C4F" />
    <path d="M197.656 83.68C191.811 86.3053 187.994 91.5557 184.296 96.5675C183.461 97.6415 185.25 98.9541 186.085 97.9995C190.38 93.7036 195.39 90.0044 198.61 84.754C199.207 84.038 198.372 83.4414 197.656 83.68Z" fill="#E6E1F5" />
    <path d="M206.125 96.9255C202.189 94.8969 196.224 97.2835 192.407 98.9541C190.857 99.67 191.334 101.937 193.123 101.579C195.389 101.102 197.775 100.744 200.041 100.386C201.95 100.028 204.455 99.9087 206.006 98.7154C206.602 98.3574 206.841 97.4028 206.125 96.9255Z" fill="#E6E1F5" />
</svg>
