<svg width="128" height="128" viewBox="0 0 128 128" fill="none" xmlns="http://www.w3.org/2000/svg">
    <path d="M125.102 55.91C125.102 45.774 117.223 37.511 107.127 37.012C107.053 36.994 106.974 36.985 106.894 36.985H89.3831V31.026L102.844 25.391C103.211 25.238 103.451 24.882 103.458 24.484C103.464 24.087 103.234 23.723 102.873 23.559L88.7981 17.14C88.4871 16.999 88.1282 17.025 87.8422 17.208C87.5562 17.392 87.3832 17.709 87.3832 18.049V36.984H63.8051C63.7481 36.984 63.6992 37.009 63.6451 37.019C63.4132 37.008 63.1852 36.984 62.9511 36.984C56.8032 36.984 51.5431 40.816 49.4051 46.212H28.4601C27.4321 46.212 26.5011 46.593 25.7641 47.201C25.7081 47.243 25.6451 47.275 25.5971 47.331C25.5931 47.335 25.5931 47.341 25.5891 47.346C24.7421 48.125 24.2021 49.231 24.2021 50.469V73.337C24.2021 74.57 24.7371 75.672 25.5771 76.451C25.5781 76.452 25.5791 76.452 25.5801 76.453C26.3401 77.156 27.3461 77.595 28.4601 77.595H48.3751V82.796H28.5281C26.3531 82.796 24.5841 84.566 24.5841 86.741C24.5841 88.916 26.3541 90.686 28.5281 90.686H79.9841V113.951C79.9841 114.503 80.4311 114.951 80.9841 114.951H95.7841C96.3372 114.951 96.7841 114.503 96.7841 113.951V90.685H124.101C124.654 90.685 125.101 90.237 125.101 89.685V55.91H125.102Z" fill="#E6E7E8" />
    <path d="M17.398 61.904C17.398 61.352 16.951 60.904 16.398 60.904H7.89795C7.34495 60.904 6.89795 61.352 6.89795 61.904C6.89795 62.456 7.34495 62.904 7.89795 62.904H16.398C16.951 62.904 17.398 62.456 17.398 61.904Z" fill="#E6E7E8" />
    <path d="M20.398 55.904H11.8979C11.3449 55.904 10.8979 56.352 10.8979 56.904C10.8979 57.456 11.3449 57.904 11.8979 57.904H20.398C20.951 57.904 21.398 57.456 21.398 56.904C21.398 56.352 20.951 55.904 20.398 55.904Z" fill="#E6E7E8" />
    <path d="M20.398 65.904H11.8979C11.3449 65.904 10.8979 66.352 10.8979 66.904C10.8979 67.456 11.3449 67.904 11.8979 67.904H20.398C20.951 67.904 21.398 67.456 21.398 66.904C21.398 66.352 20.951 65.904 20.398 65.904Z" fill="#E6E7E8" />
    <path d="M102.893 34.002V33.984H102.176H59.8052V34.027C66.9022 34.47 72.5252 40.35 72.5252 47.558V85.684H120.102V51.909C120.102 42.25 112.46 34.379 102.893 34.002Z" fill="#FA759E" />
    <path d="M58.95 33.984C51.453 33.984 45.375 40.062 45.375 47.559V79.796H72.524V47.559C72.524 40.062 66.447 33.984 58.95 33.984Z" fill="#FFD7E5" />
    <path d="M58.95 33.984C51.453 33.984 45.375 40.062 45.375 47.559V50.559C45.375 43.062 51.453 36.984 58.95 36.984C66.447 36.984 72.525 43.062 72.525 50.559V47.559C72.524 40.062 66.447 33.984 58.95 33.984Z" fill="white" />
    <path d="M91.7829 85.685H76.9839V109.95H91.7829V85.685Z" fill="#0089EF" />
    <path d="M72.524 85.685H24.529C22.903 85.685 21.584 84.367 21.584 82.74C21.584 81.114 22.902 79.795 24.529 79.795H72.525V85.685H72.524Z" fill="#FA759E" />
    <path d="M84.3828 26.36V14.05L98.4578 20.468L84.3828 26.36Z" fill="#6DC9F7" />
    <path d="M84.3828 56.857C87.4204 56.857 89.8828 54.3946 89.8828 51.357C89.8828 48.3194 87.4204 45.857 84.3828 45.857C81.3452 45.857 78.8828 48.3194 78.8828 51.357C78.8828 54.3946 81.3452 56.857 84.3828 56.857Z" fill="#0089EF" />
    <path d="M84.3828 53.628C85.6371 53.628 86.6538 52.6112 86.6538 51.357C86.6538 50.1028 85.6371 49.086 84.3828 49.086C83.1286 49.086 82.1118 50.1028 82.1118 51.357C82.1118 52.6112 83.1286 53.628 84.3828 53.628Z" fill="#D4FBFF" />
    <path d="M62.3911 72.595H24.4601C22.6611 72.595 21.2031 71.137 21.2031 69.337V46.469C21.2031 44.671 22.6611 43.212 24.4601 43.212H62.3911C64.1901 43.212 65.6481 44.671 65.6481 46.469V69.336C65.6481 71.136 64.1901 72.595 62.3911 72.595Z" fill="#6DC9F7" />
    <path d="M120.102 60.883C119.549 60.883 119.102 61.331 119.102 61.883V67.508C119.102 68.06 119.549 68.508 120.102 68.508C120.655 68.508 121.102 68.06 121.102 67.508V61.883C121.102 61.331 120.654 60.883 120.102 60.883Z" fill="#3A2C60" />
    <path d="M103.127 33.012C103.053 32.994 102.974 32.985 102.894 32.985H85.3831V27.026L98.8441 21.391C99.2111 21.238 99.4511 20.882 99.4581 20.484C99.4641 20.087 99.2342 19.723 98.8732 19.559L84.7981 13.14C84.4871 12.999 84.1282 13.025 83.8422 13.208C83.5562 13.392 83.3832 13.709 83.3832 14.049V14.967V26.36V32.984H59.8051C59.7472 32.984 59.6971 33.009 59.6421 33.019C59.4111 33.008 59.1842 32.984 58.9501 32.984C52.8001 32.984 47.5322 36.814 45.3951 42.212H24.4601C23.4321 42.212 22.5011 42.593 21.7641 43.201C21.7081 43.243 21.6451 43.275 21.5971 43.331C21.5931 43.335 21.5931 43.341 21.5891 43.346C20.7421 44.125 20.2021 45.231 20.2021 46.469V69.337C20.2021 70.57 20.7371 71.672 21.5771 72.451C21.5781 72.452 21.5791 72.452 21.5801 72.453C22.3401 73.156 23.3461 73.595 24.4601 73.595H44.3751V78.796H24.5281C22.3531 78.796 20.5841 80.566 20.5841 82.741C20.5841 84.916 22.3541 86.686 24.5281 86.686H72.5242H75.9841V109.951C75.9841 110.503 76.4311 110.951 76.9841 110.951H91.7841C92.3372 110.951 92.7841 110.503 92.7841 109.951V86.685H120.101C120.654 86.685 121.101 86.237 121.101 85.685V71.383C121.101 70.831 120.654 70.383 120.101 70.383C119.548 70.383 119.101 70.831 119.101 71.383V84.685H73.5242V47.559C73.5242 42.198 70.6061 37.516 66.2831 34.984H66.2892H83.3832V44.941C80.2732 45.425 77.8832 48.113 77.8832 51.356C77.8832 54.94 80.7991 57.856 84.3831 57.856C87.9671 57.856 90.8831 54.94 90.8831 51.356C90.8831 48.113 88.4931 45.425 85.3831 44.941V34.984H102.704C102.753 34.993 102.803 34.999 102.854 35.001C111.964 35.36 119.101 42.787 119.101 51.909V58.008C119.101 58.56 119.548 59.008 120.101 59.008C120.654 59.008 121.101 58.56 121.101 58.008V51.91C121.102 41.774 113.223 33.51 103.127 33.012ZM85.3831 24.857V15.605L95.9621 20.429L85.3831 24.857ZM90.7841 86.685V108.95H77.9841V86.685H90.7841ZM62.3921 44.212C62.4861 44.212 62.5751 44.228 62.6661 44.24L44.7231 59.692C44.7231 59.692 44.7231 59.693 44.7221 59.693C43.9821 60.33 42.8681 60.329 42.1281 59.692L24.1851 44.24C24.2761 44.229 24.3661 44.212 24.4601 44.212H62.3921ZM64.6482 46.469V69.337C64.6482 69.734 64.5362 70.102 64.3562 70.426L49.3582 58.339L64.3722 45.41C64.5421 45.727 64.6482 46.084 64.6482 46.469ZM22.4951 70.426C22.3141 70.102 22.2031 69.734 22.2031 69.337V46.469C22.2031 46.084 22.3091 45.727 22.4801 45.409L37.4941 58.338L22.4951 70.426ZM24.2591 71.574L39.0351 59.666L40.8242 61.207C41.5651 61.847 42.4961 62.166 43.4271 62.166C44.3551 62.166 45.2842 61.847 46.0252 61.21C46.0261 61.209 46.0281 61.209 46.0291 61.208L47.8191 59.667L62.5942 71.575C62.5271 71.581 62.4622 71.595 62.3941 71.595H24.4601C24.3911 71.595 24.3261 71.58 24.2591 71.574ZM71.5242 84.685H24.5281C23.4561 84.685 22.5841 83.812 22.5841 82.74C22.5841 81.668 23.4561 80.795 24.5281 80.795H71.5242V84.685ZM71.5242 47.559V78.795H46.3751V73.594H62.3921C64.7401 73.594 66.6492 71.684 66.6492 69.336V46.469C66.6492 45.23 66.1082 44.124 65.2612 43.345C65.2571 43.341 65.2571 43.335 65.2531 43.331C65.2101 43.281 65.1521 43.253 65.1021 43.214C64.3631 42.598 63.4261 42.212 62.3921 42.212H47.5901C49.6031 37.948 53.9301 34.984 58.9501 34.984C65.8841 34.984 71.5242 40.625 71.5242 47.559ZM88.8831 51.356C88.8831 53.837 86.8642 55.856 84.3831 55.856C81.9021 55.856 79.8832 53.837 79.8832 51.356C79.8832 48.875 81.9021 46.856 84.3831 46.856C86.8642 46.856 88.8831 48.875 88.8831 51.356Z" fill="#3A2C60" />
    <path d="M13.3979 57.904C13.3979 57.352 12.9509 56.904 12.3979 56.904H3.89795C3.34495 56.904 2.89795 57.352 2.89795 57.904C2.89795 58.456 3.34495 58.904 3.89795 58.904H12.3979C12.9509 58.904 13.3979 58.456 13.3979 57.904Z" fill="#3A2C60" />
    <path d="M16.398 51.904H7.89795C7.34495 51.904 6.89795 52.352 6.89795 52.904C6.89795 53.456 7.34495 53.904 7.89795 53.904H16.398C16.951 53.904 17.398 53.456 17.398 52.904C17.398 52.352 16.951 51.904 16.398 51.904Z" fill="#3A2C60" />
    <path d="M16.398 61.904H7.89795C7.34495 61.904 6.89795 62.352 6.89795 62.904C6.89795 63.456 7.34495 63.904 7.89795 63.904H16.398C16.951 63.904 17.398 63.456 17.398 62.904C17.398 62.352 16.951 61.904 16.398 61.904Z" fill="#3A2C60" />
</svg>
