<svg width="128" height="128" viewBox="0 0 128 128" fill="none" xmlns="http://www.w3.org/2000/svg">
    <path d="M100.34 83.795V18.941C100.34 16.195 98.1059 13.961 95.3599 13.961H31.3599C28.6139 13.961 26.3799 16.195 26.3799 18.941V22.492H23.2349C21.0289 22.492 19.2349 24.286 19.2349 26.492C19.2349 28.698 21.0289 30.492 23.2349 30.492H26.3799V40.492H23.2349C21.0289 40.492 19.2349 42.286 19.2349 44.492C19.2349 46.698 21.0289 48.492 23.2349 48.492H26.3799V58.492H23.2349C21.0289 58.492 19.2349 60.286 19.2349 62.492C19.2349 64.698 21.0289 66.492 23.2349 66.492H26.3799V76.492H23.2349C21.0289 76.492 19.2349 78.286 19.2349 80.492C19.2349 82.698 21.0289 84.492 23.2349 84.492H26.3799V94.492H23.2349C21.0289 94.492 19.2349 96.286 19.2349 98.492C19.2349 100.698 21.0289 102.492 23.2349 102.492H26.3799V106.043C26.3799 108.789 28.6139 111.023 31.3599 111.023H81.2879C84.4839 115.272 89.5509 118.037 95.2649 118.037C104.914 118.037 112.765 110.186 112.765 100.537C112.765 92.654 107.522 85.976 100.34 83.795Z" fill="#E6E7E8" />
    <path d="M74.7649 96.539C74.7649 87.426 82.1519 80.039 91.2649 80.039C92.6809 80.039 94.0479 80.236 95.3599 80.572V14.942C95.3599 12.733 93.5689 10.942 91.3599 10.942H27.3599C25.1509 10.942 23.3599 12.733 23.3599 14.942V102.044C23.3599 104.253 25.1509 106.044 27.3599 106.044H77.7919C75.8919 103.355 74.7649 100.082 74.7649 96.539Z" fill="#FFD7E5" />
    <path d="M91.3599 10.942H27.3599C25.1509 10.942 23.3599 12.733 23.3599 14.942V17.942C23.3599 15.733 25.1509 13.942 27.3599 13.942H91.3599C93.5689 13.942 95.3599 15.733 95.3599 17.942V14.942C95.3599 12.733 93.5689 10.942 91.3599 10.942Z" fill="white" />
    <path d="M27.4849 25.493H19.2349C17.5779 25.493 16.2349 24.15 16.2349 22.493C16.2349 20.836 17.5779 19.493 19.2349 19.493H27.4849C29.1419 19.493 30.4849 20.836 30.4849 22.493C30.4849 24.15 29.1419 25.493 27.4849 25.493Z" fill="#FA759E" />
    <path d="M27.4849 43.493H19.2349C17.5779 43.493 16.2349 42.15 16.2349 40.493C16.2349 38.836 17.5779 37.493 19.2349 37.493H27.4849C29.1419 37.493 30.4849 38.836 30.4849 40.493C30.4849 42.15 29.1419 43.493 27.4849 43.493Z" fill="#FA759E" />
    <path d="M27.4849 61.493H19.2349C17.5779 61.493 16.2349 60.15 16.2349 58.493C16.2349 56.836 17.5779 55.493 19.2349 55.493H27.4849C29.1419 55.493 30.4849 56.836 30.4849 58.493C30.4849 60.15 29.1419 61.493 27.4849 61.493Z" fill="#FA759E" />
    <path d="M27.4849 79.493H19.2349C17.5779 79.493 16.2349 78.15 16.2349 76.493C16.2349 74.836 17.5779 73.493 19.2349 73.493H27.4849C29.1419 73.493 30.4849 74.836 30.4849 76.493C30.4849 78.15 29.1419 79.493 27.4849 79.493Z" fill="#FA759E" />
    <path d="M27.4849 97.493H19.2349C17.5779 97.493 16.2349 96.15 16.2349 94.493C16.2349 92.836 17.5779 91.493 19.2349 91.493H27.4849C29.1419 91.493 30.4849 92.836 30.4849 94.493C30.4849 96.15 29.1419 97.493 27.4849 97.493Z" fill="#FA759E" />
    <path d="M95.3599 33.512C94.8179 33.512 94.3799 33.951 94.3799 34.492V43.492C94.3799 44.034 94.8189 44.472 95.3599 44.472C95.9009 44.472 96.3399 44.033 96.3399 43.492V34.492C96.3399 33.951 95.9009 33.512 95.3599 33.512Z" fill="#3A2C60" />
    <path d="M85.3599 21.493H40.0259C39.4739 21.493 39.0259 21.941 39.0259 22.493C39.0259 23.045 39.4739 23.493 40.0259 23.493H85.3599C85.9119 23.493 86.3599 23.045 86.3599 22.493C86.3599 21.941 85.9119 21.493 85.3599 21.493Z" fill="#3A2C60" />
    <path d="M85.3599 33.493H40.0259C39.4739 33.493 39.0259 33.941 39.0259 34.493C39.0259 35.045 39.4739 35.493 40.0259 35.493H85.3599C85.9119 35.493 86.3599 35.045 86.3599 34.493C86.3599 33.941 85.9119 33.493 85.3599 33.493Z" fill="#3A2C60" />
    <path d="M85.3599 45.493H40.0259C39.4739 45.493 39.0259 45.941 39.0259 46.493C39.0259 47.045 39.4739 47.493 40.0259 47.493H85.3599C85.9119 47.493 86.3599 47.045 86.3599 46.493C86.3599 45.941 85.9119 45.493 85.3599 45.493Z" fill="#3A2C60" />
    <path d="M85.3599 57.493H40.0259C39.4739 57.493 39.0259 57.941 39.0259 58.493C39.0259 59.045 39.4739 59.493 40.0259 59.493H85.3599C85.9119 59.493 86.3599 59.045 86.3599 58.493C86.3599 57.941 85.9119 57.493 85.3599 57.493Z" fill="#3A2C60" />
    <path d="M85.3599 69.493H40.0259C39.4739 69.493 39.0259 69.941 39.0259 70.493C39.0259 71.045 39.4739 71.493 40.0259 71.493H85.3599C85.9119 71.493 86.3599 71.045 86.3599 70.493C86.3599 69.941 85.9119 69.493 85.3599 69.493Z" fill="#3A2C60" />
    <path d="M96.3399 79.795V47.49C96.3399 46.948 95.9009 46.51 95.3599 46.51C94.8189 46.51 94.3799 46.949 94.3799 47.49V79.333C93.3679 79.15 92.3299 79.039 91.2659 79.039C88.0179 79.039 84.9849 79.945 82.3749 81.493H40.0259C39.4739 81.493 39.0259 81.941 39.0259 82.493C39.0259 83.045 39.4739 83.493 40.0259 83.493H79.6419C76.7669 86.057 74.7459 89.544 74.0479 93.493H40.0259C39.4739 93.493 39.0259 93.941 39.0259 94.493C39.0259 95.045 39.4739 95.493 40.0259 95.493H73.8179C73.7969 95.841 73.7649 96.186 73.7649 96.539C73.7649 99.634 74.5799 102.538 75.9959 105.063H27.3599C25.6949 105.063 24.3399 103.709 24.3399 102.043V98.492H27.4849C29.6909 98.492 31.4849 96.698 31.4849 94.492C31.4849 92.286 29.6909 90.492 27.4849 90.492H24.3399V80.492H27.4849C29.6909 80.492 31.4849 78.698 31.4849 76.492C31.4849 74.286 29.6909 72.492 27.4849 72.492H24.3399V62.492H27.4849C29.6909 62.492 31.4849 60.698 31.4849 58.492C31.4849 56.286 29.6909 54.492 27.4849 54.492H24.3399V44.492H27.4849C29.6909 44.492 31.4849 42.698 31.4849 40.492C31.4849 38.286 29.6909 36.492 27.4849 36.492H24.3399V26.492H27.4849C29.6909 26.492 31.4849 24.698 31.4849 22.492C31.4849 20.286 29.6909 18.492 27.4849 18.492H24.3399V14.941C24.3399 13.276 25.6939 11.921 27.3599 11.921H91.3599C93.0249 11.921 94.3799 13.275 94.3799 14.941V30.114C94.3799 30.656 94.8189 31.094 95.3599 31.094C95.9009 31.094 96.3399 30.655 96.3399 30.114V14.942C96.3399 12.196 94.1059 9.96201 91.3599 9.96201H27.3599C24.6139 9.96201 22.3799 12.196 22.3799 14.942V18.493H19.2349C17.0289 18.493 15.2349 20.287 15.2349 22.493C15.2349 24.699 17.0289 26.493 19.2349 26.493H22.3799V36.493H19.2349C17.0289 36.493 15.2349 38.287 15.2349 40.493C15.2349 42.699 17.0289 44.493 19.2349 44.493H22.3799V54.493H19.2349C17.0289 54.493 15.2349 56.287 15.2349 58.493C15.2349 60.699 17.0289 62.493 19.2349 62.493H22.3799V72.493H19.2349C17.0289 72.493 15.2349 74.287 15.2349 76.493C15.2349 78.699 17.0289 80.493 19.2349 80.493H22.3799V90.493H19.2349C17.0289 90.493 15.2349 92.287 15.2349 94.493C15.2349 96.699 17.0289 98.493 19.2349 98.493H22.3799V102.044C22.3799 104.79 24.6139 107.024 27.3599 107.024H77.2879C80.4839 111.273 85.5509 114.039 91.2659 114.039C100.915 114.039 108.766 106.188 108.766 96.539C108.765 88.655 103.522 81.977 96.3399 79.795ZM17.2349 22.493C17.2349 21.39 18.1319 20.493 19.2349 20.493H27.4849C28.5879 20.493 29.4849 21.39 29.4849 22.493C29.4849 23.596 28.5879 24.493 27.4849 24.493H19.2349C18.1319 24.493 17.2349 23.596 17.2349 22.493ZM17.2349 40.493C17.2349 39.39 18.1319 38.493 19.2349 38.493H27.4849C28.5879 38.493 29.4849 39.39 29.4849 40.493C29.4849 41.596 28.5879 42.493 27.4849 42.493H19.2349C18.1319 42.493 17.2349 41.596 17.2349 40.493ZM17.2349 58.493C17.2349 57.39 18.1319 56.493 19.2349 56.493H27.4849C28.5879 56.493 29.4849 57.39 29.4849 58.493C29.4849 59.596 28.5879 60.493 27.4849 60.493H19.2349C18.1319 60.493 17.2349 59.596 17.2349 58.493ZM17.2349 76.493C17.2349 75.39 18.1319 74.493 19.2349 74.493H27.4849C28.5879 74.493 29.4849 75.39 29.4849 76.493C29.4849 77.596 28.5879 78.493 27.4849 78.493H19.2349C18.1319 78.493 17.2349 77.596 17.2349 76.493ZM17.2349 94.493C17.2349 93.39 18.1319 92.493 19.2349 92.493H27.4849C28.5879 92.493 29.4849 93.39 29.4849 94.493C29.4849 95.596 28.5879 96.493 27.4849 96.493H19.2349C18.1319 96.493 17.2349 95.596 17.2349 94.493ZM91.2649 112.039C82.7179 112.039 75.7649 105.086 75.7649 96.539C75.7649 87.992 82.7179 81.039 91.2649 81.039C99.8119 81.039 106.765 87.992 106.765 96.539C106.765 105.086 99.8119 112.039 91.2649 112.039Z" fill="#3A2C60" />
    <path d="M94.3501 68.552C86.5519 68.552 80.2075 74.3032 80.2075 81.3723C80.2075 85.2194 82.143 89.156 85.3843 91.903C87.1123 93.3669 88.4717 95.2028 89.3553 97.2476C88.7919 97.4735 88.3964 97.9834 88.3964 98.577C88.3964 99.0014 88.6014 99.3799 88.922 99.6462C88.6014 99.9122 88.3964 100.291 88.3964 100.715C88.3964 101.14 88.6014 101.518 88.922 101.785C88.6014 102.051 88.3964 102.43 88.3964 102.854C88.3964 103.642 89.0925 104.282 89.9557 104.305V104.421C89.9557 105.682 91.0761 106.709 92.4622 106.731C92.6561 107.515 93.427 108.104 94.3497 108.104C95.2724 108.104 96.0432 107.515 96.2371 106.731C97.6233 106.709 98.7437 105.682 98.7437 104.421V104.305C99.6073 104.282 100.303 103.642 100.303 102.854C100.303 102.43 100.098 102.051 99.7773 101.785C100.098 101.519 100.303 101.14 100.303 100.715C100.303 100.291 100.098 99.9126 99.7773 99.6462C100.098 99.3803 100.303 99.0014 100.303 98.577C100.303 97.9834 99.9075 97.4735 99.3441 97.2476C100.228 95.2028 101.587 93.3673 103.315 91.903C106.557 89.1564 108.492 85.2194 108.492 81.3723C108.493 74.3032 102.148 68.552 94.3501 68.552Z" fill="#E6E7E8" />
    <path d="M115.575 81.7816H111.655C111.42 81.7816 111.229 81.9543 111.229 82.1671C111.229 82.3798 111.42 82.5525 111.655 82.5525H115.575C115.81 82.5525 116 82.3798 116 82.1671C116 81.9543 115.81 81.7816 115.575 81.7816Z" fill="#E6E7E8" />
    <path d="M77.0462 81.7816H73.1259C72.8912 81.7816 72.7007 81.9543 72.7007 82.1671C72.7007 82.3798 72.8912 82.5525 73.1259 82.5525H77.0462C77.2809 82.5525 77.4714 82.3798 77.4714 82.1671C77.4714 81.9543 77.2809 81.7816 77.0462 81.7816Z" fill="#E6E7E8" />
    <path d="M109.058 68.2899L106.285 70.803C106.119 70.9537 106.119 71.1973 106.285 71.348C106.368 71.4232 106.477 71.461 106.586 71.461C106.695 71.461 106.804 71.4232 106.887 71.348L109.659 68.8349C109.825 68.6842 109.825 68.4406 109.659 68.2899C109.493 68.1392 109.224 68.1392 109.058 68.2899Z" fill="#E6E7E8" />
    <path d="M81.8135 92.9865L79.0412 95.4996C78.8749 95.6503 78.8749 95.8939 79.0412 96.0446C79.1241 96.1198 79.233 96.1576 79.3418 96.1576C79.4507 96.1576 79.5595 96.1198 79.6424 96.0446L82.4147 93.5315C82.581 93.3808 82.581 93.1372 82.4147 92.9865C82.2485 92.8358 81.9797 92.8358 81.8135 92.9865Z" fill="#E6E7E8" />
    <path d="M94.3505 66.8665C94.5852 66.8665 94.7757 66.6938 94.7757 66.481V62.9272C94.7757 62.7145 94.5852 62.5418 94.3505 62.5418C94.1158 62.5418 93.9253 62.7145 93.9253 62.9272V66.481C93.9253 66.6938 94.1158 66.8665 94.3505 66.8665Z" fill="#E6E7E8" />
    <path d="M106.887 92.9865C106.721 92.8358 106.452 92.8358 106.286 92.9865C106.12 93.1372 106.12 93.3808 106.286 93.5315L109.058 96.0446C109.141 96.1198 109.25 96.1576 109.359 96.1576C109.468 96.1576 109.576 96.1198 109.659 96.0446C109.826 95.8939 109.826 95.6503 109.659 95.4996L106.887 92.9865Z" fill="#E6E7E8" />
    <path d="M81.8135 71.3476C81.8964 71.4228 82.0053 71.4606 82.1141 71.4606C82.223 71.4606 82.3318 71.4228 82.4147 71.3476C82.581 71.1969 82.581 70.9533 82.4147 70.8026L79.6424 68.2895C79.4762 68.1388 79.2074 68.1388 79.0412 68.2895C78.8749 68.4402 78.8749 68.6838 79.0412 68.8345L81.8135 71.3476Z" fill="#E6E7E8" />
    <path d="M92.6497 106.177C93.4848 106.177 94.1617 105.563 94.1617 104.806H91.1377C91.1377 105.563 91.8146 106.177 92.6497 106.177Z" fill="#FFD7E5" />
    <path d="M92.649 67.3957C85.0732 67.3957 78.9316 72.963 78.9316 79.8305C78.9316 83.7146 80.8965 87.4719 83.9737 90.0795C85.9109 91.7211 87.3344 93.7531 88.2142 95.9737C88.2431 95.9717 88.2703 95.966 88.2996 95.966H96.9971C97.0264 95.966 97.0541 95.9717 97.0826 95.9737C97.9627 93.7531 99.3859 91.7211 101.323 90.0795C104.401 87.4715 106.365 83.7146 106.365 79.8305C106.366 72.963 100.225 67.3957 92.649 67.3957Z" fill="#6DC9F7" />
    <path d="M92.649 68.552C99.9982 68.552 105.997 73.7913 106.349 80.3743C106.358 80.1932 106.366 80.012 106.366 79.8301C106.366 72.963 100.225 67.3957 92.649 67.3957C85.0732 67.3957 78.9316 72.963 78.9316 79.8305C78.9316 80.0124 78.9401 80.1936 78.9486 80.3747C79.3011 73.7917 85.2999 68.552 92.649 68.552Z" fill="white" />
    <path d="M94.9428 71.506L86.4082 83.878H92.708L89.5028 93.1472L98.8904 80.2722H91.7623L94.9428 71.506Z" fill="#0089EF" />
    <path d="M88.6807 102.381V102.879C88.6807 103.944 89.6327 104.806 90.8067 104.806H94.4919C95.6663 104.806 96.6179 103.943 96.6179 102.879V102.381H88.6807Z" fill="#FA759E" />
    <path d="M96.999 98.1044H88.3011C87.6497 98.1044 87.1216 97.6257 87.1216 97.0352C87.1216 96.4447 87.6497 95.9659 88.3011 95.9659H96.9985C97.65 95.9659 98.1781 96.4447 98.1781 97.0352C98.1785 97.6257 97.6504 98.1044 96.999 98.1044Z" fill="#FFD7E5" />
    <path d="M96.9985 100.243H88.3006C87.6492 100.243 87.1211 99.7642 87.1211 99.1737C87.1211 98.5832 87.6492 98.1044 88.3006 98.1044H96.9981C97.6495 98.1044 98.1776 98.5832 98.1776 99.1737C98.178 99.7642 97.6499 100.243 96.9985 100.243Z" fill="#FFD7E5" />
    <path d="M96.9985 102.381H88.3006C87.6492 102.381 87.1211 101.903 87.1211 101.312C87.1211 100.722 87.6492 100.243 88.3006 100.243H96.9981C97.6495 100.243 98.1776 100.722 98.1776 101.312C98.178 101.903 97.6499 102.381 96.9985 102.381Z" fill="#FFD7E5" />
    <path d="M92.6489 67.0103C84.8508 67.0103 78.5063 72.7615 78.5063 79.8305C78.5063 83.6776 80.4419 87.6142 83.6832 90.3612C85.4001 91.8163 86.7591 93.6607 87.6439 95.7108C87.086 95.939 86.6953 96.4455 86.6953 97.0352C86.6953 97.4596 86.9002 97.8381 87.2208 98.1044C86.9002 98.3704 86.6953 98.7493 86.6953 99.1737C86.6953 99.598 86.9002 99.9769 87.2208 100.243C86.9002 100.509 86.6953 100.888 86.6953 101.312C86.6953 102.1 87.3913 102.74 88.2545 102.763V102.879C88.2545 104.14 89.3749 105.167 90.761 105.189C90.9549 105.973 91.7258 106.562 92.6485 106.562C93.5712 106.562 94.3421 105.973 94.536 105.189C95.9221 105.167 97.0425 104.14 97.0425 102.879V102.763C97.9061 102.74 98.6017 102.1 98.6017 101.312C98.6017 100.888 98.3968 100.509 98.0762 100.243C98.3968 99.9769 98.6017 99.598 98.6017 99.1737C98.6017 98.7493 98.3968 98.3708 98.0762 98.1044C98.3968 97.8385 98.6017 97.4596 98.6017 97.0352C98.6017 96.4455 98.211 95.939 97.6531 95.7108C98.5379 93.6607 99.8969 91.8163 101.613 90.3612C104.855 87.6146 106.791 83.678 106.791 79.8305C106.791 72.7615 100.447 67.0103 92.6489 67.0103ZM92.6489 105.791C92.2008 105.791 91.8151 105.544 91.6493 105.191H93.649C93.4832 105.544 93.0975 105.791 92.6489 105.791ZM96.1925 102.879C96.1925 103.729 95.4297 104.42 94.4917 104.42H90.8065C89.8685 104.42 89.1057 103.729 89.1057 102.879V102.766H96.193V102.879H96.1925ZM97.7517 101.312C97.7517 101.689 97.4133 101.996 96.9974 101.996H96.6173H88.6801H88.3C87.8841 101.996 87.5457 101.689 87.5457 101.312C87.5457 100.935 87.8841 100.628 88.3 100.628H96.9974C97.4137 100.628 97.7517 100.935 97.7517 101.312ZM97.7517 99.1737C97.7517 99.5506 97.4133 99.8574 96.9974 99.8574H88.3C87.8841 99.8574 87.5457 99.5506 87.5457 99.1737C87.5457 98.7967 87.8841 98.4899 88.3 98.4899H96.9974C97.4137 98.4899 97.7517 98.7967 97.7517 99.1737ZM101.033 89.7981C99.1821 91.3673 97.7254 93.3635 96.7972 95.5805H96.0331C95.7984 95.5805 95.6079 95.7532 95.6079 95.966C95.6079 96.1788 95.7984 96.3514 96.0331 96.3514H96.9979C97.0272 96.3514 97.0548 96.3565 97.0829 96.3591H97.0833C97.4584 96.3985 97.7517 96.6848 97.7517 97.0348C97.7517 97.4118 97.4133 97.7186 96.9974 97.7186H88.3C87.8841 97.7186 87.5457 97.4118 87.5457 97.0348C87.5457 96.6579 87.8841 96.3511 88.3 96.3511H91.1076C91.3423 96.3511 91.5328 96.1784 91.5328 95.9656C91.5328 95.7528 91.3423 95.5802 91.1076 95.5802H88.5011C87.5729 93.3631 86.1161 91.3669 84.2644 89.7977C81.1915 87.1941 79.3567 83.4676 79.3567 79.8301C79.3567 73.1866 85.3198 67.7811 92.6489 67.7811C99.9781 67.7811 105.941 73.1862 105.941 79.8305C105.941 83.468 104.106 87.1944 101.033 89.7981Z" fill="#3A2C60" />
    <path d="M98.8904 79.8864H92.3495L95.3463 71.6263C95.4135 71.4413 95.3178 71.2397 95.1231 71.1569C94.9284 71.074 94.6962 71.1364 94.5822 71.3014L86.0476 83.6738C85.9656 83.7925 85.9613 83.9424 86.0362 84.065C86.111 84.1876 86.2534 84.2635 86.4082 84.2635H92.1297L89.0967 93.0316C89.0334 93.2151 89.1286 93.4124 89.3195 93.4953C89.3782 93.5204 89.4407 93.5327 89.502 93.5327C89.641 93.5327 89.7758 93.471 89.857 93.3596L99.245 80.4846C99.3313 80.3663 99.339 80.2144 99.2645 80.0895C99.1901 79.9647 99.0468 79.8864 98.8904 79.8864ZM90.8103 90.655L93.114 83.9933C93.1544 83.8761 93.131 83.7486 93.0511 83.6499C92.9712 83.5508 92.8436 83.4926 92.7084 83.4926H87.1753L93.4419 74.4085L91.3584 80.1516C91.3154 80.2692 91.338 80.3979 91.4179 80.4981C91.4978 80.5983 91.6258 80.6577 91.7623 80.6577H98.0995L90.8103 90.655Z" fill="#3A2C60" />
    <path d="M94.4565 95.5806H92.7025C92.4678 95.5806 92.2773 95.7532 92.2773 95.966C92.2773 96.1788 92.4678 96.3515 92.7025 96.3515H94.4565C94.6912 96.3515 94.8817 96.1788 94.8817 95.966C94.8817 95.7532 94.6912 95.5806 94.4565 95.5806Z" fill="#3A2C60" />
    <path d="M113.874 80.2398H109.954C109.719 80.2398 109.528 80.4125 109.528 80.6253C109.528 80.838 109.719 81.0107 109.954 81.0107H113.874C114.109 81.0107 114.299 80.838 114.299 80.6253C114.299 80.4125 114.109 80.2398 113.874 80.2398Z" fill="#3A2C60" />
    <path d="M75.3455 80.2398H71.4252C71.1905 80.2398 71 80.4125 71 80.6253C71 80.838 71.1905 81.0107 71.4252 81.0107H75.3455C75.5803 81.0107 75.7707 80.838 75.7707 80.6253C75.7707 80.4125 75.5803 80.2398 75.3455 80.2398Z" fill="#3A2C60" />
    <path d="M107.357 66.7481L104.585 69.2612C104.418 69.4119 104.418 69.6555 104.585 69.8062C104.668 69.8814 104.776 69.9192 104.885 69.9192C104.994 69.9192 105.103 69.8814 105.186 69.8062L107.958 67.2932C108.124 67.1424 108.124 66.8988 107.958 66.7481C107.792 66.5974 107.523 66.5974 107.357 66.7481Z" fill="#3A2C60" />
    <path d="M80.1133 91.4447L77.341 93.9578C77.1747 94.1085 77.1747 94.3521 77.341 94.5028C77.4239 94.578 77.5328 94.6157 77.6416 94.6157C77.7505 94.6157 77.8593 94.578 77.9422 94.5028L80.7145 91.9897C80.8808 91.839 80.8808 91.5954 80.7145 91.4447C80.5483 91.294 80.2796 91.294 80.1133 91.4447Z" fill="#3A2C60" />
    <path d="M92.6498 65.3247C92.8845 65.3247 93.075 65.152 93.075 64.9392V61.3854C93.075 61.1727 92.8845 61 92.6498 61C92.4151 61 92.2246 61.1727 92.2246 61.3854V64.9392C92.2246 65.152 92.4151 65.3247 92.6498 65.3247Z" fill="#3A2C60" />
    <path d="M105.186 91.4447C105.02 91.294 104.751 91.294 104.585 91.4447C104.419 91.5954 104.419 91.839 104.585 91.9897L107.357 94.5028C107.44 94.578 107.549 94.6157 107.658 94.6157C107.767 94.6157 107.876 94.578 107.959 94.5028C108.125 94.3521 108.125 94.1085 107.959 93.9578L105.186 91.4447Z" fill="#3A2C60" />
    <path d="M80.1133 69.8062C80.1962 69.8814 80.3051 69.9192 80.4139 69.9192C80.5228 69.9192 80.6316 69.8814 80.7145 69.8062C80.8808 69.6555 80.8808 69.4119 80.7145 69.2612L77.9422 66.7481C77.776 66.5974 77.5073 66.5974 77.341 66.7481C77.1747 66.8988 77.1747 67.1424 77.341 67.2932L80.1133 69.8062Z" fill="#3A2C60" />
</svg>
