<svg width="128" height="128" viewBox="0 0 128 128" fill="none" xmlns="http://www.w3.org/2000/svg">
    <g clip-path="url(#clip0)">
        <path d="M114.802 86.408C114.802 82.166 111.604 78.662 107.493 78.165V67.955C107.493 66.467 106.71 65.158 105.399 64.453C104.088 63.749 102.564 63.82 101.323 64.641L87.606 73.733H73.029C70.776 73.733 68.665 74.337 66.835 75.381C62.951 72.536 58.346 70.626 53.349 69.972C60.011 66.73 64.901 60.404 66.16 52.863C66.37 52.905 66.581 52.933 66.795 52.933C69.219 52.933 71.117 50.434 71.117 47.244C71.117 45.413 70.49 43.812 69.498 42.778V25.214C69.498 22.618 68.346 20.297 66.531 18.716C66.578 18.489 66.619 18.261 66.619 18.03C66.619 13.467 57.266 9.76904 45.728 9.76904C34.781 9.76904 25.817 13.1 24.925 17.338C20.234 19.042 16.877 23.527 16.877 28.807V42.791C15.892 43.825 15.269 45.422 15.269 47.247C15.269 50.437 17.167 52.936 19.59 52.936C19.804 52.936 20.015 52.908 20.225 52.866C21.484 60.407 26.375 66.734 33.036 69.975C18.648 71.855 7.5 84.185 7.5 99.077V119.232C7.5 120.886 8.846 122.232 10.5 122.232C10.5 122.232 77.891 122.23 77.894 122.23C77.905 122.23 77.915 122.232 77.925 122.232C83.389 122.232 87.833 117.787 87.833 112.324C87.833 108.71 85.882 105.551 82.983 103.82V99.081H87.605L101.322 108.173C101.996 108.619 102.752 108.844 103.512 108.844C104.154 108.844 104.798 108.684 105.398 108.362C106.709 107.658 107.492 106.349 107.492 104.861V94.65C111.604 94.154 114.802 90.65 114.802 86.408Z" fill="#E6E7E8" />
        <path d="M111.516 76.6362C111.665 76.7152 111.826 76.7532 111.984 76.7532C112.342 76.7532 112.689 76.5602 112.868 76.2222L116.504 69.3732C116.764 68.8852 116.578 68.2802 116.09 68.0212C115.603 67.7632 114.996 67.9482 114.738 68.4352L111.102 75.2842C110.842 75.7712 111.027 76.3772 111.516 76.6362Z" fill="#E6E7E8" />
        <path d="M112.867 96.5952C112.608 96.1062 112.004 95.9222 111.515 96.1812C111.027 96.4402 110.841 97.0452 111.101 97.5332L114.737 104.382C114.917 104.72 115.262 104.913 115.621 104.913C115.779 104.913 115.939 104.875 116.089 104.796C116.577 104.537 116.763 103.932 116.503 103.444L112.867 96.5952Z" fill="#E6E7E8" />
        <path d="M123.5 85.4082H116.933C116.38 85.4082 115.933 85.8562 115.933 86.4082C115.933 86.9602 116.38 87.4082 116.933 87.4082H123.5C124.053 87.4082 124.5 86.9602 124.5 86.4082C124.5 85.8562 124.053 85.4082 123.5 85.4082Z" fill="#E6E7E8" />
        <path d="M73.885 117.232H6.5C5.395 117.232 4.5 116.337 4.5 115.232V95.0773C4.5 79.4143 17.198 66.7163 32.861 66.7163H45.524C61.187 66.7163 73.885 79.4143 73.885 95.0773V117.232Z" fill="#6DC9F7" />
        <path d="M39.193 67.309C36.204 67.309 33.355 66.717 30.751 65.65V65.786L39.193 71.165L47.644 65.786V65.646C45.037 66.715 42.185 67.309 39.193 67.309Z" fill="white" />
        <path d="M39.1931 71.165L34.5811 76.117L36.8151 82.408H41.5711L43.8041 76.117L39.1931 71.165Z" fill="#0089EF" />
        <path d="M44.0919 117.232H34.2939L36.8149 82.4082H41.5709L44.0919 117.232Z" fill="#0089EF" />
        <path d="M57.8659 25.3441C43.2919 28.4681 26.8559 21.9321 26.8559 21.9321C19.4639 24.4451 17.4269 31.4471 16.9019 36.0051V45.0181C16.9019 57.3291 26.8819 67.3091 39.1929 67.3091C51.5039 67.3091 61.4839 57.3291 61.4839 45.0181V36.6341C60.8289 27.5081 57.8659 25.3441 57.8659 25.3441Z" fill="white" />
        <path d="M16.9011 45.0172V38.9372C16.4981 38.6922 16.0561 38.5552 15.5901 38.5552C13.7551 38.5552 12.2681 40.6552 12.2681 43.2452C12.2681 45.8352 13.7551 47.9352 15.5901 47.9352C16.1121 47.9352 16.5991 47.7502 17.0391 47.4472C16.9531 46.6482 16.9011 45.8392 16.9011 45.0172Z" fill="white" />
        <path d="M62.7952 38.5552C62.3292 38.5552 61.8862 38.6932 61.4842 38.9372V45.0172C61.4842 45.8392 61.4332 46.6472 61.3462 47.4462C61.7862 47.7492 62.2732 47.9342 62.7952 47.9342C64.6302 47.9342 66.1172 45.8342 66.1172 43.2442C66.1172 40.6552 64.6302 38.5552 62.7952 38.5552Z" fill="white" />
        <path d="M57.4748 82.5269V82.2879C57.4748 81.2519 57.6238 80.2529 57.8798 79.2969H56.4598C54.7598 79.2969 53.3818 80.6749 53.3818 82.3749V82.4379C53.3818 84.1379 54.7598 85.5159 56.4598 85.5159H57.8788C57.6238 84.5619 57.4748 83.5629 57.4748 82.5269Z" fill="#FA759E" />
        <path d="M73.9247 99.4161C75.3877 99.4161 76.7647 99.7751 77.9827 100.401V94.0811H69.8657V100.401C71.0847 99.7761 72.4617 99.4161 73.9247 99.4161Z" fill="#FFD7E5" />
        <path d="M102.493 75.0991V89.7171C106.53 89.7171 109.802 86.4451 109.802 82.4081C109.802 78.3711 106.53 75.0991 102.493 75.0991Z" fill="#FA3571" />
        <path d="M83.9066 94.0809H69.0286C62.6476 94.0809 57.4746 88.9079 57.4746 82.5269V82.2879C57.4746 75.9069 62.6476 70.7339 69.0286 70.7339H83.9066V94.0809Z" fill="#FA3571" />
        <path d="M60.4746 82.5269V82.2879C60.4746 75.9069 65.6476 70.7339 72.0286 70.7339H69.0286C62.6476 70.7339 57.4746 75.9069 57.4746 82.2879V82.5269C57.4746 88.9079 62.6476 94.0809 69.0286 94.0809H72.0286C65.6476 94.0809 60.4746 88.9079 60.4746 82.5269Z" fill="white" />
        <path d="M83.9067 94.081L97.8757 103.339C99.8527 104.649 102.493 103.232 102.493 100.86V63.955C102.493 61.583 99.8527 60.165 97.8757 61.476L83.9067 70.734V94.081Z" fill="#FFD7E5" />
        <path d="M83.9067 94.081L97.8757 103.339C99.8527 104.649 102.493 103.232 102.493 100.86V63.955C102.493 61.583 99.8527 60.165 97.8757 61.476L83.9067 70.734V94.081Z" fill="#FFD7E5" />
        <path d="M82.6031 110.362C83.7293 105.573 80.7596 100.777 75.9702 99.6511C71.1809 98.525 66.3854 101.495 65.2593 106.284C64.1331 111.073 67.1028 115.869 71.8922 116.995C76.6815 118.121 81.477 115.152 82.6031 110.362Z" fill="white" />
        <path d="M21.2368 108.625C21.7898 108.625 22.2368 108.177 22.2368 107.625V100.625C22.2368 100.073 21.7898 99.625 21.2368 99.625C20.6838 99.625 20.2368 100.073 20.2368 100.625V107.625C20.2368 108.177 20.6848 108.625 21.2368 108.625Z" fill="#3A2C60" />
        <path d="M29.3579 39.668C28.1269 39.668 27.1289 40.666 27.1289 41.897C27.1289 43.128 28.1269 44.126 29.3579 44.126C30.5889 44.126 31.5869 43.128 31.5869 41.897C31.5869 40.666 30.5889 39.668 29.3579 39.668Z" fill="#3A2C60" />
        <path d="M49.0269 39.668C47.7959 39.668 46.7979 40.666 46.7979 41.897C46.7979 43.128 47.7959 44.126 49.0269 44.126C50.2579 44.126 51.2559 43.128 51.2559 41.897C51.2559 40.666 50.2579 39.668 49.0269 39.668Z" fill="#3A2C60" />
        <path d="M39.1922 52.8189C41.1412 52.8189 42.7272 51.2339 42.7272 49.2839V47.7979C42.7272 47.2459 42.2802 46.7979 41.7272 46.7979C41.1742 46.7979 40.7272 47.2459 40.7272 47.7979V49.2839C40.7272 50.1299 40.0392 50.8189 39.1922 50.8189C38.3452 50.8189 37.6572 50.1309 37.6572 49.2839V47.7979C37.6572 47.2459 37.2102 46.7979 36.6572 46.7979C36.1042 46.7979 35.6572 47.2459 35.6572 47.7979V49.2839C35.6572 51.2329 37.2432 52.8189 39.1922 52.8189Z" fill="#3A2C60" />
        <path d="M47.3281 37.5942L51.6931 38.3542C51.7521 38.3642 51.8091 38.3692 51.8661 38.3692C52.3441 38.3692 52.7651 38.0272 52.8501 37.5402C52.9451 36.9962 52.5801 36.4782 52.0371 36.3832L47.6721 35.6232C47.1211 35.5332 46.6101 35.8932 46.5151 36.4372C46.4201 36.9812 46.7841 37.4992 47.3281 37.5942Z" fill="#3A2C60" />
        <path d="M30.7141 35.6239L26.3491 36.3839C25.8051 36.4789 25.4411 36.9969 25.5361 37.5409C25.6211 38.0269 26.0431 38.3699 26.5201 38.3699C26.5771 38.3699 26.6341 38.3649 26.6931 38.3549L31.0581 37.5949C31.6021 37.4999 31.9661 36.9819 31.8711 36.4379C31.7761 35.8939 31.2661 35.5329 30.7141 35.6239Z" fill="#3A2C60" />
        <path d="M44.9291 55.9671C45.2611 55.5291 45.1751 54.9071 44.7391 54.5721C44.3051 54.2391 43.6771 54.3201 43.3401 54.7551C43.2791 54.8321 41.8391 56.6461 39.1941 56.6461C36.4971 56.6461 35.1311 54.8641 35.0631 54.7741C34.7401 54.3301 34.1181 54.2301 33.6701 54.5521C33.2221 54.8751 33.1211 55.5001 33.4431 55.9481C33.5231 56.0581 35.4311 58.6451 39.1931 58.6451C42.8581 58.6451 44.8461 56.0761 44.9291 55.9671Z" fill="#3A2C60" />
        <g filter="url(#filter0_d)">
            <path d="M110.803 82.408C110.803 78.165 107.605 74.662 103.493 74.166V63.956C103.493 62.468 102.71 61.159 101.399 60.455C100.086 59.75 98.563 59.821 97.323 60.644L83.605 69.735H69.029C66.767 69.735 64.648 70.345 62.813 71.396C58.923 68.55 54.318 66.64 49.313 65.993C55.993 62.757 60.899 56.42 62.161 48.866C62.37 48.908 62.581 48.936 62.795 48.936C65.219 48.936 67.117 46.436 67.117 43.246C67.117 41.415 66.49 39.814 65.498 38.781V21.214C65.498 18.618 64.346 16.297 62.531 14.716C62.578 14.489 62.619 14.261 62.619 14.03C62.619 9.46704 53.266 5.76904 41.728 5.76904C30.781 5.76904 21.817 9.10004 20.925 13.338C16.234 15.042 12.877 19.526 12.877 24.807V38.791C11.892 39.825 11.269 41.421 11.269 43.247C11.269 46.437 13.167 48.937 15.59 48.937C15.804 48.937 16.015 48.909 16.225 48.867C17.485 56.411 22.378 62.739 29.044 65.98C14.653 67.856 3.5 80.182 3.5 95.077V115.232C3.5 116.886 4.846 118.232 6.5 118.232H73.886C73.889 118.232 73.891 118.23 73.894 118.23C73.905 118.23 73.915 118.232 73.925 118.232C79.389 118.232 83.833 113.787 83.833 108.324C83.833 104.71 81.882 101.551 78.983 99.82V95.081H83.605L97.323 104.172C97.997 104.618 98.753 104.843 99.513 104.843C100.154 104.843 100.798 104.683 101.399 104.361C102.71 103.657 103.493 102.348 103.493 100.86V90.65C107.604 90.154 110.803 86.65 110.803 82.408ZM108.803 82.408C108.803 85.547 106.499 88.158 103.493 88.638V76.178C106.499 76.659 108.803 79.269 108.803 82.408ZM82.907 71.734V93.082H69.029C63.209 93.082 58.474 88.348 58.474 82.528V82.289C58.474 76.469 63.208 71.734 69.029 71.734H82.907ZM57.136 78.298H56.46C54.211 78.298 52.382 80.128 52.382 82.44C52.382 84.666 54.175 86.474 56.392 86.512C56.234 87.399 56.148 88.307 56.148 89.231V116.233H45.022L42.583 82.547L44.196 78.005L46.051 79.997C46.241 80.202 46.507 80.315 46.782 80.315C46.835 80.315 46.887 80.311 46.94 80.302C47.269 80.249 47.55 80.036 47.69 79.734L52.78 68.711C55.779 69.538 58.568 70.864 61.062 72.593C59.265 74.073 57.894 76.046 57.136 78.298ZM56.648 84.518H56.46C55.314 84.518 54.382 83.585 54.382 82.376C54.382 81.23 55.315 80.298 56.46 80.298H56.648C56.544 80.948 56.475 81.61 56.475 82.289V82.528C56.475 83.206 56.544 83.868 56.648 84.518ZM40.743 71.363L46.415 67.752C47.907 67.8 49.368 67.966 50.791 68.245L46.499 77.543L40.743 71.363ZM39.192 69.979L36.27 68.118C37.228 68.239 38.202 68.308 39.192 68.308C40.183 68.308 41.157 68.239 42.115 68.118L39.192 69.979ZM31.949 67.739L37.642 71.363L31.886 77.543L27.587 68.23C29.005 67.953 30.462 67.788 31.949 67.739ZM39.192 72.632L42.659 76.355L40.864 81.408H37.52L35.726 76.354L39.192 72.632ZM62.405 46.872H62.404C62.452 46.26 62.485 45.643 62.485 45.018L62.483 39.59L62.485 39.591C63.85 39.277 65.118 41.08 65.118 43.244C65.117 45.448 63.831 47.324 62.405 46.872ZM15.979 46.872C14.562 47.324 13.268 45.448 13.268 43.245C13.268 41.245 14.331 39.556 15.589 39.556C15.693 39.556 15.797 39.568 15.901 39.592V45.018C15.901 45.643 15.933 46.259 15.981 46.872C15.982 46.872 15.979 46.871 15.979 46.872ZM17.901 45.018V36.062C18.452 31.364 20.459 25.349 26.84 22.998C29.353 23.946 43.993 29.117 57.538 26.433C58.231 27.253 60.002 29.963 60.483 36.633V45.018C60.483 56.758 50.931 66.309 39.191 66.309C27.451 66.309 17.901 56.757 17.901 45.018ZM5.5 115.232V95.077C5.5 88.1 8.129 81.728 12.443 76.89C17.194 79.154 20.238 83.93 20.238 89.23V97.25C20.238 97.802 20.685 98.25 21.238 98.25C21.791 98.25 22.238 97.802 22.238 97.25V89.23C22.238 83.379 19.004 78.081 13.901 75.38C17.141 72.26 21.144 69.931 25.601 68.702L30.695 79.735C30.835 80.037 31.116 80.25 31.445 80.303C31.498 80.312 31.55 80.316 31.603 80.316C31.878 80.316 32.144 80.202 32.334 79.998L34.19 78.005L35.802 82.547L33.364 116.233H22.237V111.126C22.237 110.574 21.79 110.126 21.237 110.126C20.684 110.126 20.237 110.574 20.237 111.126V116.233H6.5C5.948 116.232 5.5 115.783 5.5 115.232ZM35.369 116.232L37.745 83.408H40.64L43.017 116.232H35.369ZM58.147 116.232V89.23C58.147 89.084 58.162 88.94 58.167 88.795C60.315 92.502 64.296 95.015 68.867 95.073V99.82C65.969 101.551 64.017 104.71 64.017 108.324C64.017 111.556 65.579 114.422 67.981 116.232H58.147ZM81.833 108.324C81.833 112.684 78.285 116.232 73.925 116.232C69.565 116.232 66.018 112.685 66.018 108.324C66.018 103.963 69.565 100.416 73.925 100.416C78.285 100.416 81.833 103.964 81.833 108.324ZM76.983 98.905C76.019 98.591 74.992 98.416 73.924 98.416C72.857 98.416 71.83 98.591 70.866 98.904V95.081H76.982V98.905H76.983ZM101.493 100.86C101.493 101.599 101.104 102.25 100.453 102.599C99.802 102.949 99.044 102.914 98.429 102.505L84.908 93.544V71.271L98.429 62.31C99.044 61.902 99.802 61.866 100.453 62.216C101.104 62.566 101.493 63.216 101.493 63.955V75.099V89.717V100.86Z" fill="#3A2C60" />
        </g>
        <path d="M107.516 72.6352C107.665 72.7142 107.826 72.7522 107.984 72.7522C108.342 72.7522 108.689 72.5592 108.868 72.2212L112.504 65.3722C112.764 64.8842 112.578 64.2792 112.09 64.0202C111.602 63.7622 110.995 63.9472 110.738 64.4352L107.102 71.2842C106.842 71.7712 107.027 72.3762 107.516 72.6352Z" fill="#3A2C60" />
        <path d="M108.867 92.5958C108.607 92.1078 108.003 91.9218 107.515 92.1808C107.027 92.4398 106.841 93.0448 107.101 93.5328L110.737 100.382C110.917 100.72 111.262 100.913 111.621 100.913C111.779 100.913 111.939 100.875 112.089 100.796C112.577 100.537 112.763 99.9318 112.503 99.4438L108.867 92.5958Z" fill="#3A2C60" />
        <path d="M119.5 81.4082H112.933C112.38 81.4082 111.933 81.8562 111.933 82.4082C111.933 82.9602 112.38 83.4082 112.933 83.4082H119.5C120.053 83.4082 120.5 82.9602 120.5 82.4082C120.5 81.8562 120.053 81.4082 119.5 81.4082Z" fill="#3A2C60" />
    </g>
    <defs>
        <filter id="filter0_d" x="-0.5" y="5.76904" width="115.303" height="120.463" filterUnits="userSpaceOnUse" color-interpolation-filters="sRGB">
            <feFlood flood-opacity="0" result="BackgroundImageFix" />
            <feColorMatrix in="SourceAlpha" type="matrix" values="0 0 0 0 0 0 0 0 0 0 0 0 0 0 0 0 0 0 127 0" />
            <feOffset dy="4" />
            <feGaussianBlur stdDeviation="2" />
            <feColorMatrix type="matrix" values="0 0 0 0 0 0 0 0 0 0 0 0 0 0 0 0 0 0 0.25 0" />
            <feBlend mode="normal" in2="BackgroundImageFix" result="effect1_dropShadow" />
            <feBlend mode="normal" in="SourceGraphic" in2="effect1_dropShadow" result="shape" />
        </filter>
        <clipPath id="clip0">
            <rect width="128" height="128" fill="white" />
        </clipPath>
    </defs>
</svg>
