<svg width="18" height="22" viewBox="0 0 18 22" fill="none" xmlns="http://www.w3.org/2000/svg">
    <path d="M15.34 21.5H2.25C1.65326 21.5 1.08097 21.2629 0.65901 20.841C0.237053 20.419 0 19.8467 0 19.25L0 2.25C0 1.65326 0.237053 1.08097 0.65901 0.65901C1.08097 0.237053 1.65326 0 2.25 0L11 0C11.1981 0.00258996 11.3874 0.0824391 11.5275 0.222534C11.6676 0.362629 11.7474 0.551893 11.75 0.75C11.7474 0.948107 11.6676 1.13737 11.5275 1.27747C11.3874 1.41756 11.1981 1.49741 11 1.5H2.25C2.05189 1.50259 1.86263 1.58244 1.72253 1.72253C1.58244 1.86263 1.50259 2.05189 1.5 2.25V19.25C1.50259 19.4481 1.58244 19.6374 1.72253 19.7775C1.86263 19.9176 2.05189 19.9974 2.25 20H15.34C15.5381 19.9974 15.7274 19.9176 15.8675 19.7775C16.0076 19.6374 16.0874 19.4481 16.09 19.25V6.56C16.09 6.36109 16.169 6.17032 16.3097 6.02967C16.4503 5.88902 16.6411 5.81 16.84 5.81C17.0389 5.81 17.2297 5.88902 17.3703 6.02967C17.511 6.17032 17.59 6.36109 17.59 6.56V19.25C17.59 19.8467 17.3529 20.419 16.931 20.841C16.509 21.2629 15.9367 21.5 15.34 21.5Z" fill="#0089EF" />
    <path d="M16.84 7.31H12C11.5359 7.31 11.0908 7.12562 10.7626 6.79744C10.4344 6.46925 10.25 6.02413 10.25 5.56V0.749999C10.249 0.6022 10.2923 0.457488 10.3743 0.334509C10.4563 0.211531 10.5732 0.115921 10.71 0.0599989C10.8469 0.000967942 10.9984 -0.0153408 11.1448 0.0132091C11.2911 0.0417589 11.4254 0.113836 11.53 0.219999L17.37 6C17.475 6.1054 17.5463 6.23964 17.5748 6.38566C17.6033 6.53167 17.5877 6.68286 17.53 6.82C17.4789 6.96242 17.3854 7.08576 17.262 7.17337C17.1386 7.26098 16.9913 7.30867 16.84 7.31V7.31ZM11.78 2.56V5.56C11.78 5.6263 11.8064 5.68989 11.8532 5.73678C11.9001 5.78366 11.9637 5.81 12.03 5.81H15.03L11.78 2.56Z" fill="#0089EF" />
    <path d="M12.37 12.4502H5.37C5.17108 12.4502 4.98032 12.3712 4.83966 12.2305C4.69901 12.0899 4.62 11.8991 4.62 11.7002C4.62 11.5013 4.69901 11.3105 4.83966 11.1699C4.98032 11.0292 5.17108 10.9502 5.37 10.9502H12.37C12.5689 10.9502 12.7597 11.0292 12.9003 11.1699C13.041 11.3105 13.12 11.5013 13.12 11.7002C13.12 11.8991 13.041 12.0899 12.9003 12.2305C12.7597 12.3712 12.5689 12.4502 12.37 12.4502Z" fill="#0089EF" />
    <path d="M12.3101 16.4702H5.31006C5.11115 16.4702 4.92038 16.3912 4.77973 16.2505C4.63908 16.1099 4.56006 15.9191 4.56006 15.7202C4.56006 15.5213 4.63908 15.3305 4.77973 15.1899C4.92038 15.0492 5.11115 14.9702 5.31006 14.9702H12.3101C12.509 14.9702 12.6997 15.0492 12.8404 15.1899C12.981 15.3305 13.0601 15.5213 13.0601 15.7202C13.0601 15.9191 12.981 16.1099 12.8404 16.2505C12.6997 16.3912 12.509 16.4702 12.3101 16.4702Z" fill="#0089EF" />
</svg>
