<svg viewBox="0 0 120 116" fill="none" xmlns="http://www.w3.org/2000/svg">
  <path d="M119.085 53.772C119.059 49.091 115.89 44.343 109.886 44.327C109.885 44.327 109.884 44.327 109.883 44.327H74.281C73.05 44.327 72.184 43.992 71.71 43.33C70.985 42.32 71.028 40.458 71.831 38.089C72.138 37.184 72.448 36.377 72.746 35.601C73.872 32.669 74.845 30.137 74.845 24.754C74.845 16.401 69.973 4.83099 60.825 4.83099C57.281 4.83099 56.435 8.65299 55.156 14.439C54.145 19.004 52.762 25.256 49.553 32.295C46.684 38.589 40.607 47.808 35.904 53.864C35.178 51.092 32.66 49.038 29.664 49.038H11.372C7.81202 49.038 4.91602 51.934 4.91602 55.495V108.713C4.91602 112.273 7.81202 115.169 11.372 115.169H29.664C32.851 115.169 35.5 112.846 36.021 109.806C39.034 112.529 43.433 115.169 49.183 115.169C57.875 115.169 97.25 115.14 97.249 115.14C104.346 115.14 107.908 110.383 108.292 105.668C108.525 102.8 107.584 99.714 105.427 97.826C109.539 96.6 112 92.26 112.273 88.374C112.472 85.533 111.548 82.259 108.679 80.215C112.022 79.044 114.604 75.571 114.959 71.474C115.209 68.582 114.246 65.188 111.147 63.002C116.622 62.341 119.107 57.892 119.085 53.772Z" fill="#E6E7E8" />
  <path d="M105.883 41.327C105.883 41.327 78.4121 41.327 70.2811 41.327C66.1871 41.327 65.4221 38.085 66.8841 33.768C68.3261 29.511 69.8451 27.381 69.8451 20.754C69.8451 12.452 64.9951 1.83099 56.8251 1.83099C51.7591 1.83099 53.5501 13.168 46.4641 28.709C43.3001 35.651 36.0681 46.45 31.1211 52.452V103.516C34.1221 106.756 38.7971 110.169 45.1841 110.169C53.8761 110.169 93.2501 110.14 93.2501 110.14C105.763 110.14 105.904 94.476 97.6301 93.122H99.8741C107.794 92.268 111.117 78.199 100.989 75.638L102.878 75.604C110.445 74.809 113.919 61.341 103.379 58.338L105.881 58.085C117.122 57.927 116.512 41.356 105.883 41.327Z" fill="#FFD7E5" />
  <path d="M31.121 51.495V104.713C31.121 107.728 28.673 110.169 25.664 110.169H7.37202C4.35702 110.169 1.91602 107.728 1.91602 104.713V51.495C1.91602 48.486 4.35702 46.038 7.37202 46.038H25.664C28.673 46.038 31.121 48.486 31.121 51.495Z" fill="#0089EF" />
  <path d="M14.3973 102.475L11.8473 99.925C10.6753 98.753 10.6753 96.854 11.8473 95.682L14.3973 93.132C15.5693 91.96 17.4683 91.96 18.6403 93.132L21.1903 95.682C22.3623 96.854 22.3623 98.753 21.1903 99.925L18.6403 102.475C17.4683 103.647 15.5683 103.647 14.3973 102.475Z" fill="#6DC9F7" />
  <path d="M4.91602 104.713V51.495C4.91602 48.486 7.35701 46.038 10.372 46.038H7.37202C4.35702 46.038 1.91602 48.486 1.91602 51.495V104.713C1.91602 107.728 4.35702 110.169 7.37202 110.169H10.372C7.35701 110.169 4.91602 107.728 4.91602 104.713Z" fill="white" />
  <path d="M115.085 49.772C115.059 45.091 111.89 40.344 105.883 40.327H70.28C69.049 40.327 68.184 39.992 67.71 39.329C66.985 38.319 67.028 36.457 67.831 34.088C68.138 33.182 68.448 32.375 68.746 31.599C69.871 28.667 70.844 26.135 70.844 20.754C70.844 12.401 65.972 0.830994 56.824 0.830994C53.28 0.830994 52.434 4.654 51.155 10.44C50.145 15.005 48.762 21.257 45.553 28.295C42.685 34.588 36.607 43.807 31.903 49.864C31.178 47.092 28.659 45.038 25.664 45.038H7.37204C3.81104 45.038 0.915039 47.934 0.915039 51.495V104.713C0.915039 108.273 3.81104 111.17 7.37204 111.17H25.664C28.85 111.17 31.498 108.847 32.02 105.807C35.033 108.53 39.433 111.17 45.183 111.17C53.875 111.17 93.25 111.141 93.249 111.141C100.345 111.141 103.908 106.384 104.291 101.67C104.524 98.801 103.584 95.716 101.426 93.827C105.539 92.601 107.999 88.262 108.273 84.375C108.472 81.534 107.548 78.259 104.679 76.215C108.022 75.043 110.603 71.571 110.958 67.474C111.208 64.582 110.246 61.189 107.146 59.002C112.622 58.341 115.108 53.892 115.085 49.772ZM105.78 57.089L103.359 57.334H89.714C89.161 57.334 88.714 57.782 88.714 58.334C88.714 58.886 89.161 59.334 89.714 59.334H103.211C107.148 60.498 109.299 63.467 108.967 67.301C108.685 70.557 106.418 74.225 102.86 74.603L100.971 74.637C100.962 74.637 100.955 74.642 100.947 74.642H89.714C89.161 74.642 88.714 75.09 88.714 75.642C88.714 76.194 89.161 76.642 89.714 76.642H100.851C104.514 77.615 106.545 80.441 106.279 84.233C106.033 87.731 103.687 91.672 99.819 92.121H97.631C97.622 92.121 97.614 92.126 97.605 92.126H89.714C89.161 92.126 88.714 92.574 88.714 93.126C88.714 93.678 89.161 94.126 89.714 94.126H97.55C101.01 94.745 102.561 98.291 102.299 101.506C102.013 105.027 99.471 109.139 93.249 109.139C93.249 109.139 53.876 109.168 45.184 109.168C39.212 109.168 34.823 105.942 32.121 103.114V75.209C32.121 74.657 31.674 74.209 31.121 74.209C30.568 74.209 30.121 74.657 30.121 75.209V104.712C30.121 107.17 28.122 109.169 25.665 109.169H7.37204C4.91404 109.169 2.91504 107.17 2.91504 104.712V51.495C2.91504 49.037 4.91404 47.038 7.37204 47.038H25.664C28.121 47.038 30.12 49.037 30.12 51.495V59C30.12 59.552 30.567 60 31.12 60C31.673 60 32.12 59.552 32.12 59V52.805C37.021 46.8 44.16 36.175 47.374 29.124C50.67 21.894 52.079 15.523 53.107 10.871C54.308 5.44099 54.968 2.82999 56.824 2.82999C64.563 2.82999 68.844 13.428 68.844 20.753C68.844 25.764 67.977 28.022 66.879 30.881C66.572 31.68 66.253 32.513 65.937 33.445C64.907 36.485 64.958 38.922 66.084 40.493C66.684 41.329 67.897 42.325 70.28 42.325H105.88C110.801 42.339 113.065 46.2 113.085 49.781C113.105 53.367 110.881 57.014 105.78 57.089Z" fill="#3A2C60" />
  <path d="M19.4018 92.37C17.8118 90.78 15.2248 90.779 13.6348 92.37L11.0838 94.921C9.49484 96.51 9.49484 99.097 11.0838 100.688L13.6348 103.238C14.4298 104.032 15.4738 104.43 16.5178 104.43C17.5628 104.43 18.6068 104.033 19.4018 103.238L21.9518 100.688C22.7228 99.918 23.1458 98.894 23.1458 97.805C23.1458 96.716 22.7218 95.692 21.9518 94.922L19.4018 92.37ZM20.4278 99.163L17.8778 101.713C17.1268 102.463 15.9068 102.463 15.1578 101.713L12.6078 99.163C11.8578 98.413 11.8578 97.193 12.6068 96.444L15.1578 93.893C15.8838 93.166 17.1498 93.165 17.8778 93.893L20.4278 96.444C20.7908 96.807 20.9908 97.29 20.9908 97.803C20.9908 98.317 20.7908 98.8 20.4278 99.163Z" fill="#3A2C60" />
  <path d="M31.1201 62.376C30.5671 62.376 30.1201 62.824 30.1201 63.376V70.459C30.1201 71.011 30.5671 71.459 31.1201 71.459C31.6731 71.459 32.1201 71.011 32.1201 70.459V63.376C32.1201 62.824 31.6731 62.376 31.1201 62.376Z" fill="#3A2C60" />
</svg>
