<svg width="128" height="128" viewBox="0 0 128 128" fill="none" xmlns="http://www.w3.org/2000/svg">
    <path d="M97.219 46.754H91.343V35.748H97.204C97.58 35.748 97.925 35.537 98.096 35.202C98.266 34.867 98.235 34.464 98.013 34.16L81.984 12.132C81.607 11.614 80.744 11.614 80.367 12.132L71.357 24.515L65.985 17.132C65.609 16.614 64.744 16.614 64.368 17.132L61.178 21.515L49.985 6.132C49.609 5.614 48.744 5.614 48.368 6.132L32.34 28.16C32.119 28.464 32.087 28.867 32.257 29.202C32.427 29.537 32.772 29.748 33.148 29.748H39.009V46.754H34.78C28.881 46.754 24.082 51.553 24.082 57.452V101.98C24.082 107.879 28.881 112.678 34.78 112.678H68.983L82.737 125.544C83.237 126.012 83.867 126.255 84.512 126.255C84.865 126.255 85.222 126.182 85.566 126.033C86.538 125.612 87.141 124.692 87.141 123.633V112.677H97.217C103.116 112.677 107.915 107.878 107.915 101.979V57.453C107.917 51.554 103.118 46.754 97.219 46.754Z" fill="#E6E7E8" />
    <path d="M45.1479 35.748L57.1779 19.215L45.1759 2.72L29.1479 24.748H36.0089V43.754H52.0089V35.748H45.1479Z" fill="#6DC9F7" />
    <path d="M77.1759 8.72L67.3569 22.215L77.2039 35.748H70.3429V43.754H86.3429V30.748H93.2039L77.1759 8.72Z" fill="#FA759E" />
    <path d="M52.0089 43.754H70.343V35.748H77.204L61.1759 13.72L45.1479 35.748H52.0089V43.754Z" fill="#FFD7E5" />
    <path d="M30.781 43.754H93.218C98.574 43.754 102.916 48.096 102.916 53.452V97.98C102.916 103.336 98.574 107.678 93.218 107.678H82.142V119.634C82.142 121.048 80.454 121.78 79.421 120.814L65.378 107.678H30.781C25.425 107.678 21.083 103.336 21.083 97.98V53.452C21.083 48.096 25.425 43.754 30.781 43.754Z" fill="#D4FBFF" />
    <path d="M93.218 43.754H30.781C25.425 43.754 21.083 48.096 21.083 53.452V56.452C21.083 51.096 25.425 46.754 30.781 46.754H93.218C98.574 46.754 102.916 51.096 102.916 56.452V53.452C102.917 48.096 98.575 43.754 93.218 43.754Z" fill="white" />
    <path d="M93.219 42.754H87.343V31.748H93.204C93.58 31.748 93.925 31.537 94.096 31.202C94.266 30.867 94.235 30.464 94.013 30.16L77.984 8.132C77.607 7.614 76.744 7.614 76.367 8.132L67.357 20.516L61.984 13.132C61.608 12.614 60.743 12.614 60.367 13.132L57.178 17.516L45.984 2.132C45.608 1.614 44.743 1.614 44.367 2.132L28.34 24.16C28.119 24.464 28.087 24.867 28.257 25.202C28.427 25.537 28.772 25.748 29.148 25.748H35.009V42.754H30.781C24.882 42.754 20.083 47.553 20.083 53.452V72.352C20.083 72.904 20.531 73.352 21.083 73.352C21.635 73.352 22.083 72.904 22.083 72.352V53.452C22.083 48.656 25.985 44.754 30.781 44.754H93.219C98.015 44.754 101.917 48.656 101.917 53.452V97.98C101.917 102.776 98.015 106.678 93.219 106.678H82.142C81.589 106.678 81.142 107.126 81.142 107.678V119.634C81.142 119.999 80.882 120.151 80.771 120.199C80.659 120.247 80.37 120.331 80.106 120.084L66.063 106.948C65.877 106.775 65.633 106.678 65.379 106.678H30.781C25.985 106.678 22.083 102.776 22.083 97.98V88.393C22.083 87.841 21.635 87.393 21.083 87.393C20.531 87.393 20.083 87.841 20.083 88.393V97.98C20.083 103.879 24.882 108.678 30.781 108.678H64.984L78.738 121.544C79.238 122.012 79.868 122.255 80.513 122.255C80.866 122.255 81.223 122.182 81.566 122.033C82.538 121.612 83.141 120.692 83.141 119.633V108.677H93.218C99.117 108.677 103.916 103.878 103.916 97.979V53.452C103.917 47.553 99.118 42.754 93.219 42.754ZM61.176 15.42L75.24 34.748H70.343C69.79 34.748 69.343 35.196 69.343 35.748V42.754H53.009V35.748C53.009 35.196 52.561 34.748 52.009 34.748H47.113L61.176 15.42ZM36.009 23.748H31.113L45.176 4.42L55.941 19.215L44.34 35.16C44.119 35.464 44.087 35.867 44.257 36.202C44.427 36.537 44.772 36.748 45.148 36.748H51.009V42.754H37.009V24.748C37.009 24.196 36.562 23.748 36.009 23.748ZM71.343 42.754V36.748H77.204C77.58 36.748 77.925 36.537 78.096 36.202C78.266 35.867 78.235 35.464 78.013 35.16L68.594 22.215L77.176 10.42L91.24 29.748H86.343C85.79 29.748 85.343 30.196 85.343 30.748V42.754H71.343Z" fill="#3A2C60" />
    <path d="M21.083 84.504C21.635 84.504 22.083 84.056 22.083 83.504V76.849C22.083 76.297 21.635 75.849 21.083 75.849C20.531 75.849 20.083 76.297 20.083 76.849V83.504C20.083 84.056 20.531 84.504 21.083 84.504Z" fill="#3A2C60" />
    <path d="M46.4958 92.944L47.6358 87.184C44.8028 87.122 43.3848 85.993 43.3848 83.796C43.3848 82.769 43.7388 81.933 44.4468 81.286C45.1558 80.639 46.1968 80.316 47.5738 80.316H49.0208L50.7768 71.353H47.5738C46.2378 71.353 45.2068 71.02 44.4778 70.352C43.7488 69.685 43.3848 68.869 43.3848 67.903C43.3848 66.876 43.7388 66.05 44.4468 65.423C45.1558 64.797 46.1968 64.484 47.5738 64.484H52.1628L53.6098 57.43C53.8358 56.239 54.0878 55.305 54.3648 54.627C54.6408 53.949 55.0208 53.436 55.5038 53.087C55.9858 52.738 56.6178 52.563 57.3978 52.563C58.4858 52.563 59.3178 52.851 59.8928 53.425C60.4678 54 60.7548 54.739 60.7548 55.643C60.7548 55.849 60.5808 56.886 60.2318 58.754L59.0918 64.483H69.2478L70.7268 57.429C70.9318 56.362 71.1278 55.499 71.3118 54.842C71.4958 54.185 71.8298 53.631 72.3128 53.178C72.7948 52.727 73.4988 52.501 74.4228 52.501C75.4898 52.501 76.3168 52.778 76.9028 53.332C77.4878 53.887 77.7808 54.636 77.7808 55.581C77.7808 56.012 77.7548 56.434 77.7038 56.844C77.6528 57.255 77.5858 57.65 77.5038 58.03C77.4218 58.41 77.3698 58.651 77.3498 58.754L76.2098 64.545C79.1468 64.607 80.6148 65.746 80.6148 67.964C80.6148 68.991 80.2648 69.812 79.5678 70.428C78.8698 71.044 77.8328 71.352 76.4568 71.352H74.8868L73.0388 80.315H76.4578C77.8338 80.315 78.8708 80.644 79.5688 81.301C80.2668 81.958 80.6158 82.79 80.6158 83.796C80.6158 84.802 80.2718 85.618 79.5838 86.244C78.8948 86.871 77.8538 87.184 76.4568 87.184H71.7128L70.2658 94.268C70.0398 95.397 69.8398 96.27 69.6648 96.886C69.4908 97.502 69.1568 98.041 68.6638 98.503C68.1708 98.965 67.4628 99.196 66.5388 99.196C65.5118 99.196 64.7008 98.908 64.1048 98.333C63.5098 97.758 63.2118 97.009 63.2118 96.084C63.2118 95.242 63.3548 94.195 63.6428 92.942L64.7818 87.182H54.5658L53.1178 94.266C52.7478 96.012 52.3638 97.269 51.9628 98.039C51.5628 98.809 50.7048 99.194 49.3908 99.194C48.3438 99.194 47.5228 98.906 46.9268 98.331C46.3308 97.756 46.0338 97.007 46.0338 96.082C46.0338 95.61 46.0908 95.081 46.2038 94.496C46.3158 93.914 46.4128 93.396 46.4958 92.944ZM67.9248 71.352H57.7068L55.8898 80.315H66.1688L67.9248 71.352Z" fill="#0089EF" />
</svg>
