<svg width="235" height="279" viewBox="0 0 235 279" fill="none" xmlns="http://www.w3.org/2000/svg">
    <g clip-path="url(#clip0)">
        <g filter="url(#filter0_d)">
            <path d="M165.247 179.713C141.641 164.529 118.034 129.892 80.4292 130.01C80.3105 130.01 80.1919 130.01 80.0733 130.01C73.1929 129.536 67.1429 133.332 61.9233 137.958C65.2449 145.55 69.041 153.023 72.7184 160.14C81.9713 178.052 92.6477 194.897 104.273 211.504C114.119 225.62 124.321 239.617 136.54 251.717C142.827 257.885 150.3 265.003 158.723 269.985C162.045 271.29 165.603 272.476 169.162 272.713C170.823 269.866 174.026 267.494 178.534 265.121C181.855 263.342 184.228 261.681 185.651 258.36C186.6 256.106 187.549 254.208 189.21 252.191C192.888 247.921 197.988 246.497 201.073 241.278C204.276 235.94 206.411 231.788 211.631 227.755C214.952 225.145 216.494 223.129 217.918 219.214C218.748 216.96 219.816 214.825 221.595 213.046C223.849 210.673 226.815 209.25 229.187 206.996C232.39 204.149 233.814 200.472 234.644 196.439C234.763 196.202 234.763 195.846 234.763 195.608C211.275 200.353 186.956 193.592 165.247 179.713Z" fill="#FA3571" />
        </g>
        <path d="M143.657 236.059C143.776 234.754 144.606 233.805 146.03 233.686C155.046 232.974 168.094 224.671 165.129 214.232C164.773 212.927 165.841 211.029 167.383 211.267C174.382 212.216 177.347 201.302 177.703 195.964C177.941 192.524 177.229 189.321 176.28 186.119C172.602 184.221 168.925 182.204 165.366 179.832C141.759 164.648 118.153 130.01 80.5478 130.129C80.4292 130.129 80.3105 130.129 80.1919 130.129C73.3116 129.654 67.2616 133.45 62.042 138.076C65.3635 145.668 69.1596 153.142 72.837 160.259C82.09 178.171 92.7664 195.015 104.392 211.622C113.526 224.79 123.135 237.957 134.286 249.463C139.15 246.853 142.946 241.871 143.657 236.059Z" fill="#E8367A" />
        <g filter="url(#filter1_d)">
            <path d="M41.7566 112.81C39.9772 106.167 38.3164 99.5243 36.6557 92.8814C34.9949 85.7641 33.4527 78.5281 32.1478 71.2921C31.4361 67.7334 30.8429 64.0561 30.1312 60.4975C29.8939 58.7181 29.4194 56.9388 29.1822 55.0408L28.9449 52.1939C28.8263 51.2449 28.7077 50.4146 28.589 49.4656C28.4704 48.2794 27.0469 48.2794 27.0469 49.5842C27.0469 50.5332 27.0469 51.4822 27.0469 52.4311L27.1655 55.1595C27.2841 57.0574 27.5214 58.8368 27.64 60.7347C28.1145 64.412 28.589 68.0893 29.1822 71.7666C30.3684 79.1212 31.792 86.3572 33.2155 93.5931C34.5204 100.355 35.9439 107.116 37.4861 113.759C39.0282 120.402 39.9772 128.35 43.4174 134.043C44.2478 135.585 46.3831 135.467 46.2644 133.332C46.5017 126.57 43.536 119.334 41.7566 112.81Z" fill="#5E1C4F" />
        </g>
        <g filter="url(#filter2_d)">
            <path d="M120.525 240.922C120.881 244.955 117.441 246.735 114.357 247.565C110.916 248.395 107.476 246.972 106.646 243.057C105.815 239.499 107.595 235.347 109.73 232.5C110.086 232.144 110.323 231.907 110.679 231.67C111.628 230.958 112.933 230.839 113.763 231.67C116.255 234.161 120.288 237.008 120.525 240.922Z" fill="#5E1C4F" />
        </g>
        <path d="M74.2605 279C115.273 279 148.521 276.61 148.521 273.662C148.521 270.714 115.273 268.324 74.2605 268.324C33.2475 268.324 0 270.714 0 273.662C0 276.61 33.2475 279 74.2605 279Z" fill="#E6E1F5" />
        <g filter="url(#filter3_d)">
            <path d="M152.673 197.032C153.503 198.693 154.096 200.353 154.452 202.133C154.808 203.912 154.808 205.691 154.571 207.471C153.978 211.029 151.842 214.232 149.114 216.842C146.148 219.57 142.471 221.587 138.675 223.247C134.879 224.908 130.845 226.094 126.812 227.162C124.795 227.636 122.779 228.111 120.643 228.585L114.475 229.772C113.407 230.009 112.34 230.365 111.272 230.958C110.323 231.551 109.374 232.381 108.899 233.568C108.425 234.635 108.425 235.94 108.543 237.008C108.662 238.075 109.018 239.143 109.374 240.21C109.967 241.634 111.153 240.922 110.797 239.617C110.56 238.668 110.323 237.719 110.323 236.77C110.323 235.821 110.441 234.991 110.797 234.398C111.509 233.093 113.051 232.5 114.949 232.263L121.237 231.314C123.372 230.958 125.388 230.483 127.524 230.009C131.676 228.941 135.828 227.874 139.861 226.094C143.894 224.434 147.928 222.298 151.368 219.333C154.571 216.605 157.418 212.69 158.367 208.182C158.841 205.929 158.841 203.675 158.485 201.421C158.129 199.286 157.418 197.151 156.587 195.134C156.231 194.185 155.638 193.236 155.164 192.287C154.571 191.338 154.096 190.389 153.384 189.559C152.198 187.779 150.775 186 149.232 184.458C146.148 181.374 142.589 178.764 138.793 177.696C136.658 177.222 135.828 179.001 137.37 180.306C139.98 182.679 142.945 185.17 145.792 187.898C147.216 189.321 148.521 190.626 149.707 192.168C150.3 192.88 150.893 193.71 151.368 194.422C151.842 195.49 152.317 196.202 152.673 197.032Z" fill="#5E1C4F" />
        </g>
        <g filter="url(#filter4_d)">
            <path d="M49.5862 273.425C55.1617 275.797 62.9911 274.255 68.3293 272.594C70.346 272.001 69.397 269.154 67.6176 268.917C61.449 266.307 53.1451 264.884 48.5186 270.103C47.5696 271.171 48.4 272.832 49.5862 273.425Z" fill="#5E1C4F" />
            <path d="M63.1099 218.028L67.7363 272.357L63.1099 218.028Z" fill="#5E1C4F" />
            <path d="M68.2109 258.36C67.6177 254.208 66.906 249.938 66.4315 245.786C65.3638 236.771 64.8893 227.637 63.703 218.621C63.5844 217.791 62.2795 218.028 62.1609 218.74C61.6864 227.874 62.3981 237.008 62.9913 246.023C63.3472 250.294 63.5844 254.445 64.0589 258.716C64.5334 262.868 64.1775 267.85 66.5501 271.646C67.1432 272.595 69.1599 272.713 69.5158 271.408C70.5834 267.138 68.9226 262.512 68.2109 258.36Z" fill="#5E1C4F" />
        </g>
        <g filter="url(#filter5_d)">
            <path d="M107.595 269.629C102.138 264.528 94.19 265.833 88.6146 268.443C86.8352 268.68 86.4793 271.527 88.6146 272.12C94.19 273.662 102.257 275.323 107.239 272.95C108.307 272.357 108.781 270.696 107.595 269.629Z" fill="#5E1C4F" />
        </g>
        <path d="M72.5996 214.707L89.0888 271.764L72.5996 214.707Z" fill="#5E1C4F" />
        <g filter="url(#filter6_d)">
            <path d="M86.5977 256.818C85.0556 252.429 83.3948 248.04 81.9713 243.651C78.887 234.161 76.3958 224.553 73.3115 215.182C73.0742 214.352 71.7693 214.826 71.888 215.656C73.4301 225.502 76.1586 235.11 78.7683 244.719C79.9546 249.226 81.2595 253.616 82.5644 258.123C83.8693 262.512 84.6997 267.85 87.784 271.409C88.6144 272.358 90.631 272.002 90.631 270.578C90.8683 265.715 88.1399 261.207 86.5977 256.818Z" fill="#5E1C4F" />
        </g>
        <g filter="url(#filter7_d)">
            <path d="M137.607 217.435C131.32 222.654 122.542 223.959 115.543 220.638C114.475 229.179 107.12 237.245 98.5791 239.736C92.0547 241.634 86.1233 240.566 82.3272 234.991C81.141 233.212 80.192 231.314 79.3616 229.297C77.9381 230.721 76.3959 231.907 74.9724 232.856C68.5665 237.245 61.093 240.092 53.6195 238.431C46.5019 236.889 41.7568 231.432 40.3333 224.315C32.6226 227.162 22.0648 224.434 18.3873 217.909C15.4216 212.809 15.4216 206.284 17.3197 200.116C17.0824 200.116 16.7265 200.235 16.4893 200.235C13.6422 200.353 10.9138 199.523 8.54128 197.981C3.44032 194.541 1.54229 188.135 2.72856 181.967C3.67758 177.222 6.52462 172.833 10.2021 169.393C6.76188 165.716 5.69424 158.954 8.1854 154.209C9.4903 151.718 11.2697 149.82 13.2864 148.278C9.60892 138.907 16.4893 122.537 25.3863 117.792C31.0804 114.827 36.7745 116.131 41.1637 119.453C43.299 113.996 47.8068 109.963 54.2127 111.031C59.7881 112.098 62.9911 115.538 64.5332 120.046C64.8891 119.571 65.245 119.097 65.7195 118.622C69.8714 113.996 76.5145 107.946 83.1576 109.607C88.7331 111.031 91.4615 116.369 92.4105 121.707C93.3596 120.876 94.4272 120.165 95.7321 119.453C101.545 116.369 110.086 113.759 114.594 120.165C115.899 122.063 116.492 124.198 116.61 126.452C121.474 124.198 128.236 122.774 132.506 126.452C137.37 130.722 137.252 139.026 135.591 144.838C135.353 145.668 135.116 146.38 134.76 147.21C135.828 147.092 136.896 147.21 138.082 147.329C149.945 149.227 155.283 168.088 146.979 176.985C145.081 179.001 142.946 180.781 140.573 182.441C142.946 184.814 144.606 188.135 145.555 191.575C147.809 201.184 144.962 211.385 137.607 217.435Z" fill="#FFC1D0" />
        </g>
        <path d="M137.37 151.718C135.709 151.362 133.455 151.481 131.201 151.955C131.676 150.651 131.913 149.227 132.032 148.041C132.506 144.719 132.15 141.042 130.608 137.958C129.897 136.534 127.524 137.365 127.999 138.907C128.829 141.872 129.422 144.719 129.066 147.804C128.829 149.583 127.88 151.481 127.761 153.26C125.507 154.565 123.965 156.7 124.321 159.547C124.44 160.496 125.626 160.733 126.219 160.14C127.287 159.191 127.88 157.886 128.948 156.819C130.727 155.277 133.337 154.684 135.591 155.04C140.692 155.751 142.59 161.089 142.946 165.716C143.064 167.495 145.437 168.207 146.03 166.309C147.809 160.615 142.946 152.904 137.37 151.718Z" fill="#FFB5C7" />
        <path d="M124.914 131.078C123.847 130.485 122.779 130.485 121.593 130.247C120.407 130.01 119.458 131.552 120.644 132.264C121.593 132.857 122.423 133.806 123.491 134.043C124.203 134.281 125.033 133.925 125.389 133.213C125.863 132.501 125.626 131.552 124.914 131.078Z" fill="#FFB5C7" />
        <path d="M115.424 132.383C114.001 127.282 111.391 122.774 105.815 122.063C101.308 121.588 95.4949 122.656 93.3596 127.163C93.0037 127.994 94.0713 128.587 94.6645 128.112C97.1556 126.096 101.782 125.265 104.866 125.74C109.374 126.452 110.323 130.01 111.747 133.806C112.577 135.823 116.017 134.518 115.424 132.383Z" fill="#FFB5C7" />
        <path d="M109.255 148.159C108.188 148.041 107.12 145.668 106.646 144.838C106.408 144.364 106.171 143.77 105.934 143.296C105.934 142.94 105.815 142.584 105.697 142.347C105.578 141.517 105.578 140.568 105.815 139.737C106.171 138.551 104.51 137.958 104.036 139.144C103.68 140.093 103.443 141.042 103.443 141.991C98.2231 143.059 93.7153 146.024 90.7496 150.651C87.784 147.21 82.9203 146.261 78.2938 148.159C73.6674 150.057 66.6684 156.344 70.1085 161.801C70.8203 162.869 72.7183 162.394 72.3625 160.971C70.8203 152.667 85.2928 147.092 89.3261 154.565C90.0379 155.87 91.6987 155.633 92.2918 154.328C94.6643 149.464 98.579 146.38 103.561 145.075C103.68 145.906 104.036 146.736 104.273 147.448C105.104 149.227 107.239 153.26 109.73 151.599C111.153 150.413 110.916 148.278 109.255 148.159Z" fill="#FFB5C7" />
        <path d="M79.1245 116.25C73.6676 115.776 68.5667 120.402 67.6177 125.621C67.499 126.452 68.6853 126.807 69.1598 126.096C70.2275 124.316 71.7696 122.774 73.4304 121.588C75.3284 120.283 77.2265 119.927 79.3617 119.571C81.2598 119.216 80.9039 116.369 79.1245 116.25Z" fill="#FFB5C7" />
        <path d="M66.3127 130.485C65.2451 127.163 64.1774 123.842 61.449 121.469C58.602 118.978 55.0432 117.555 51.2471 117.318C50.0608 117.199 49.5863 119.216 50.7726 119.453C53.3824 120.046 56.1108 121.825 58.2461 123.486C60.8559 125.503 61.8049 128.112 62.7539 131.196C63.347 133.45 66.9058 132.62 66.3127 130.485Z" fill="#FFB5C7" />
        <path d="M71.6512 138.551C69.16 135.704 66.0757 134.755 62.3983 135.348C59.0767 135.823 55.5179 136.89 54.0944 140.212C53.7385 141.042 54.6875 141.872 55.3993 141.398C58.6022 139.5 63.11 137.602 66.6688 139.381C67.8551 139.975 70.4649 143.533 71.8884 140.924C72.2443 140.093 72.2443 139.263 71.6512 138.551Z" fill="#FFB5C7" />
        <path d="M29.0637 123.367C26.4539 122.774 23.6069 125.028 21.9461 127.045C19.9295 129.417 19.2177 132.027 19.4549 134.992C19.4549 135.704 20.7598 135.823 20.8785 135.111C21.4716 132.976 22.7765 130.841 24.3187 129.299C25.8608 127.756 27.9961 127.282 29.5382 125.858C30.1314 125.147 30.1314 123.605 29.0637 123.367Z" fill="#FFB5C7" />
        <path d="M37.1306 148.634C36.8933 148.041 36.1816 147.566 35.5884 148.159C34.5208 149.108 34.6394 149.583 33.809 150.769C32.6228 152.43 30.8434 153.379 28.9453 153.735C26.0983 154.209 21.5905 153.379 19.8111 150.651C19.9297 150.413 19.9297 150.176 19.9297 149.939C19.3366 146.973 19.2179 143.889 19.0993 140.924C18.9807 139.737 17.2013 139.975 17.0826 141.161C16.8454 142.821 16.7268 144.364 16.8454 146.024C16.964 148.515 17.3199 149.108 15.6591 151.006C13.9983 153.142 12.1003 154.565 11.5072 157.412C10.7954 160.852 13.5238 168.207 17.7944 167.02C18.9807 166.665 19.0993 165.122 18.0317 164.767C14.7101 163.462 13.6425 158.954 15.1846 155.87C15.8964 154.446 17.0826 153.26 18.3875 152.311C20.0483 155.751 24.2003 157.175 28.1149 156.938C31.5551 156.463 38.5541 153.142 37.1306 148.634Z" fill="#FFB5C7" />
        <path d="M40.689 134.874C36.4184 132.501 28.7077 134.399 27.0469 139.737C26.8097 140.568 27.7587 141.279 28.4704 140.686C30.0126 139.381 31.5547 138.077 33.5714 137.483C35.5881 136.89 37.3675 137.128 39.2655 137.721C40.8076 138.077 42.2312 135.704 40.689 134.874Z" fill="#FFB5C7" />
        <path d="M25.7423 176.273C18.9805 173.07 5.93157 176.392 6.99921 186.237C7.11784 186.949 8.30411 187.068 8.54136 186.237C9.49038 182.797 12.1002 179.832 15.5404 178.645C18.8619 177.578 21.9462 178.527 25.1491 179.12C26.8099 179.476 27.0472 176.866 25.7423 176.273Z" fill="#FFB5C7" />
        <path d="M15.3031 193.592C14.9473 193.236 14.3541 193.355 13.9982 192.999C13.6424 192.762 13.6424 192.287 13.6424 191.931C13.761 190.982 12.3375 190.745 12.1002 191.694C11.6257 193.473 12.9306 196.557 15.0659 195.608C16.0149 195.134 15.8963 194.066 15.3031 193.592Z" fill="#FFB5C7" />
        <path d="M29.064 190.982C27.4032 188.61 22.7768 184.932 20.167 188.372C19.5738 189.084 20.5228 190.152 21.2346 189.677C23.014 188.491 26.6914 193.592 26.9287 194.778C27.6405 197.506 26.5728 200.353 25.8611 203.082C25.2679 205.335 28.2336 206.284 29.064 204.149C30.8434 199.879 31.7924 194.778 29.064 190.982Z" fill="#FFB5C7" />
        <path d="M39.0283 216.605C37.7234 216.723 36.893 216.96 35.7067 217.316C33.2156 218.147 31.9107 218.028 29.6568 217.198C25.6235 215.656 21.8274 213.046 22.3019 208.064C22.4205 207.115 20.997 206.878 20.7598 207.827C19.099 212.334 21.2343 216.249 24.7931 218.621C29.7754 221.824 33.5715 221.587 39.1469 220.282C41.045 219.689 41.045 216.486 39.0283 216.605Z" fill="#FFB5C7" />
        <path d="M53.7381 188.372C51.247 187.542 48.044 187.305 45.4342 188.491C45.5529 183.509 43.4176 178.408 39.0284 176.866C45.197 174.612 47.095 164.648 43.0617 159.784C41.6382 158.124 39.0284 160.496 40.4519 162.038C42.2313 164.174 42.3499 167.732 41.2823 170.342C40.096 173.07 37.9607 174.612 35.8255 176.392C35.5882 176.629 35.5882 176.866 35.7068 177.103C35.7068 177.341 35.7068 177.459 35.8255 177.578C38.3166 180.188 41.2823 181.611 41.9941 185.644C42.8244 190.033 40.4519 193.117 38.9098 197.032C38.3166 198.337 39.9774 199.286 40.9264 198.455C42.9431 196.795 44.248 194.422 44.8411 191.931C47.4509 191.575 49.8234 190.864 52.4332 191.813C54.094 192.406 55.6362 193.473 56.8224 194.897C57.6528 195.964 58.0087 196.439 59.195 196.913C59.9067 197.151 60.4999 196.557 60.6185 195.846C61.3302 192.05 56.5852 189.203 53.7381 188.372Z" fill="#FFB5C7" />
        <path d="M127.88 184.577C129.185 176.51 124.44 169.986 117.085 169.156C118.034 164.529 116.611 159.547 112.459 157.175C108.188 154.802 101.426 156.344 99.8841 161.682C99.6469 162.394 100.477 163.106 101.189 162.513C104.036 160.022 107.239 157.412 111.272 159.903C114.712 162.038 115.068 166.546 113.763 170.223C113.408 171.172 114.119 172.24 115.068 172.24C121.83 172.24 126.101 177.578 124.914 184.458C124.44 186.475 127.524 186.593 127.88 184.577Z" fill="#FFB5C7" />
        <path d="M139.268 197.506C138.794 196.083 136.658 196.439 137.014 198.1C139.268 208.182 129.897 218.977 120.051 214.469C118.983 213.995 118.271 215.774 119.22 216.367C123.965 219.926 130.608 218.503 134.998 214.707C139.624 210.555 141.048 203.556 139.268 197.506Z" fill="#FFB5C7" />
        <path d="M110.205 219.689C113.171 217.909 115.662 214.232 115.306 210.673C115.187 209.013 112.933 209.369 112.459 210.555C111.391 213.046 110.679 215.3 108.188 216.723C105.934 217.909 103.206 217.791 100.952 216.96C100.003 216.723 99.054 218.028 99.8844 218.74C101.901 220.638 104.392 221.349 107.002 220.875C105.578 225.383 104.274 229.179 99.1726 230.483C97.2746 230.958 95.2579 231.314 93.3599 231.195C90.0383 231.077 88.0217 228.467 86.1236 225.976C85.5305 225.145 84.3442 226.094 84.7001 227.043C87.4285 234.279 92.7667 235.466 99.8844 233.923C106.409 232.381 109.375 226.806 110.442 220.282C110.205 220.045 110.205 219.926 110.205 219.689Z" fill="#FFB5C7" />
        <path d="M95.7322 216.605C96.2068 214.825 93.7156 213.995 93.1225 215.774C90.394 225.027 80.4294 222.536 75.0912 218.503C74.3794 217.909 73.3118 218.503 72.9559 219.333C67.7363 233.33 48.4001 234.279 47.5697 217.791C47.5697 216.723 46.0276 217.079 45.9089 217.909C44.7227 225.501 49.8236 232.263 56.9412 233.33C64.652 234.517 71.651 228.941 74.8539 221.824C82.0902 226.45 92.8852 227.637 95.7322 216.605Z" fill="#FFB5C7" />
        <path d="M72.5998 201.184C72.5998 199.286 70.3459 199.048 69.6341 200.709C67.6175 204.861 65.7194 207.827 60.8557 208.301C56.4665 208.776 51.6028 207.589 49.2303 203.675C48.5185 202.489 46.7391 203.319 47.2136 204.742C51.0097 215.537 72.5998 214.588 72.5998 201.184Z" fill="#FFB5C7" />
        <path d="M88.3775 188.491C88.9707 183.153 82.5648 180.069 78.4129 178.883C72.6001 177.341 69.2786 181.492 66.6688 186.356C66.0756 187.423 67.3805 188.372 68.2109 187.423C71.058 183.865 74.1423 181.018 78.6501 182.679C82.2089 183.983 84.1069 185.644 85.6491 189.084C86.2422 190.508 88.2589 189.915 88.3775 188.491Z" fill="#FFB5C7" />
        <path d="M116.136 194.659C116.729 189.677 113.764 184.814 109.256 183.272C105.46 181.967 99.1725 182.085 97.5117 186.593C97.0372 187.661 98.5793 188.254 99.1725 187.423C100.952 185.17 106.053 185.407 108.307 186.356C111.628 187.661 113.17 191.101 113.052 194.659C112.933 196.795 115.899 196.795 116.136 194.659Z" fill="#FFB5C7" />
        <path d="M63.4655 174.375C63.94 171.528 63.2282 168.681 61.4488 166.546C59.9067 164.767 57.4155 163.462 55.043 164.885C53.9754 165.478 54.4499 167.139 55.6361 166.902C57.1783 166.665 58.7204 168.325 59.3136 169.512C60.144 170.935 60.2626 172.596 59.9067 174.256C59.5508 176.51 62.991 176.629 63.4655 174.375Z" fill="#FFB5C7" />
        <path d="M68.3293 206.522C63.4656 204.98 60.0254 200.591 59.195 194.897C58.9578 193.236 60.0254 191.575 61.6862 191.219C63.347 190.864 64.8891 191.931 65.1264 193.592C65.7195 197.032 67.6175 199.523 70.3459 200.472C73.0744 201.421 76.1587 200.472 78.6498 198.1C79.8361 196.913 81.7341 196.913 82.9204 198.218C83.988 199.404 83.8694 201.421 82.6831 202.607C78.5312 206.64 73.193 208.064 68.3293 206.522Z" fill="#692861" />
        <path d="M116.492 180.306C115.543 179.95 114.712 179.12 114.594 178.052C114.356 176.747 113.645 175.799 112.696 175.561C111.747 175.205 110.679 175.561 109.73 176.51C108.544 177.696 106.646 177.578 105.578 176.392C104.51 175.205 104.629 173.189 105.815 172.121C108.306 169.63 111.628 168.8 114.594 169.867C117.559 170.816 119.695 173.545 120.406 176.985C120.644 178.645 119.695 180.188 118.034 180.543C117.441 180.425 116.848 180.425 116.492 180.306Z" fill="#692861" />
        <path d="M54.0938 159.784C53.1447 159.429 52.3144 158.598 52.1957 157.531C51.9585 156.226 51.3653 155.277 50.2977 155.04C49.3487 154.684 48.1624 155.04 47.2134 155.989C46.0271 157.175 44.1291 157.056 42.9428 155.87C41.8752 154.684 41.9938 152.786 43.2987 151.6C45.9085 149.227 49.3487 148.278 52.3144 149.346C55.3987 150.295 57.5339 153.023 58.0085 156.463C58.2457 158.124 57.1781 159.666 55.5173 160.022C55.0428 160.022 54.5683 159.903 54.0938 159.784Z" fill="#692861" />
        <g filter="url(#filter8_d)">
            <path d="M106.646 192.406C88.1401 186.356 86.9538 184.221 86.4793 183.272C84.8185 180.069 87.7842 169.749 89.8008 163.936C93.3597 153.497 95.1391 152.548 96.2067 152.074C96.5626 151.955 96.9185 151.837 97.2743 151.837C104.511 151.362 131.676 159.073 137.726 163.343C138.082 163.58 138.319 163.936 138.557 164.292C139.031 165.122 140.217 167.376 135.947 181.255C131.558 195.253 129.185 196.439 128.355 196.913C127.287 197.388 125.152 198.455 106.646 192.406ZM94.6646 181.492C101.308 184.339 115.543 189.084 122.661 190.745C124.559 191.219 126.457 190.152 127.287 188.254C129.185 183.628 131.558 176.036 132.744 171.172C133.218 169.156 132.151 167.258 130.371 166.427C123.135 163.462 109.137 159.429 101.664 158.242C99.7655 158.005 97.9861 159.073 97.2743 160.852C95.4949 165.122 93.3597 172.24 92.4106 176.866C91.9361 178.764 92.8852 180.662 94.6646 181.492Z" fill="#9C3E64" />
            <path d="M44.1293 172.003C25.3863 165.834 24.3186 163.699 23.8441 162.75C23.3696 161.92 22.1834 159.547 27.2843 145.55C32.2667 131.79 34.7578 130.722 35.5882 130.247C35.9441 130.01 36.4186 130.01 36.8931 130.01C44.3666 130.129 71.0577 140.212 76.5145 144.957C76.7518 145.194 76.989 145.431 77.2263 145.787C77.7008 146.736 78.6498 148.515 75.091 158.954C73.0743 164.767 69.2783 174.849 65.9567 176.392C65.0077 176.985 62.7538 178.052 44.1293 172.003ZM32.6225 161.208C39.3843 164.055 53.145 168.562 60.144 170.223C62.1606 170.698 64.4145 169.63 65.3636 167.614C67.3802 163.462 69.7528 156.937 71.0577 152.548C71.6508 150.413 70.7018 148.278 68.8037 147.329C61.9234 143.77 48.9931 138.907 41.4009 136.89C39.2656 136.297 37.0117 137.483 35.9441 139.5C33.9274 144.008 31.3176 151.006 30.1314 155.751C29.5382 158.124 30.6059 160.259 32.6225 161.208Z" fill="#9C3E64" />
            <path d="M89.8009 173.307C89.2077 173.07 88.7332 172.596 88.6146 171.884C87.9028 167.495 85.4117 164.292 81.9715 163.106C78.4127 161.92 74.498 163.106 71.295 166.19C70.5833 166.902 69.397 166.902 68.8039 166.19C68.0921 165.478 68.2107 164.292 68.9225 163.58C73.0745 159.547 78.4127 158.124 83.1577 159.666C87.9028 161.208 91.2244 165.597 92.1734 171.172C92.292 172.121 91.6989 173.07 90.7499 173.307C90.2754 173.426 90.0381 173.426 89.8009 173.307Z" fill="#9C3E64" />
            <path d="M31.7922 144.126C31.4363 144.008 31.1991 143.77 30.9618 143.533L20.8785 128.943C20.1668 127.994 19.3364 127.4 18.2687 127.282C16.9638 127.045 15.5403 127.519 14.2354 128.587L12.9305 129.536C12.1001 130.129 11.0325 130.01 10.4393 129.18C9.84621 128.349 10.0835 127.282 10.9139 126.689L12.2188 125.74C14.354 124.079 16.8452 123.367 18.9805 123.723C20.9971 123.96 22.6579 125.028 23.8442 126.807L33.9275 141.398C34.5206 142.228 34.2834 143.296 33.453 143.889C32.8599 144.245 32.2667 144.245 31.7922 144.126Z" fill="#9C3E64" />
            <path d="M134.879 177.103C134.404 176.985 134.048 176.629 133.811 176.154C133.455 175.205 133.811 174.138 134.76 173.782L148.64 167.258C150.3 166.427 152.08 166.427 153.503 167.258C155.283 168.207 156.469 170.105 156.943 172.833L157.181 174.256C157.418 175.205 156.706 176.154 155.876 176.392C154.927 176.629 153.978 175.917 153.859 174.968L153.622 173.545C153.385 172.003 152.673 170.935 151.961 170.46C151.487 170.223 150.775 170.223 150.063 170.579L136.184 177.103C135.709 177.222 135.353 177.222 134.879 177.103Z" fill="#9C3E64" />
        </g>
        <path d="M117.322 201.184C116.255 200.353 114.713 199.879 113.408 199.642C112.103 199.404 110.561 199.879 110.086 201.421C109.612 202.963 110.442 204.268 111.747 204.861C112.696 205.335 114.001 206.047 114.95 206.284C116.255 206.64 117.678 206.047 118.271 204.742C118.746 203.556 118.39 202.014 117.322 201.184Z" fill="white" />
        <path d="M32.7413 173.545C34.1648 173.545 35.5884 174.138 36.8933 174.612C38.1982 175.205 39.0286 176.51 38.4354 178.052C37.8423 179.594 36.4188 180.188 34.9952 179.832C33.9276 179.594 32.5041 179.476 31.4364 179.12C30.1315 178.645 29.4198 177.341 29.657 175.917C30.1315 174.494 31.3178 173.545 32.7413 173.545Z" fill="white" />
        <g filter="url(#filter9_d)">
            <path d="M31.3173 31.3163C30.9615 30.0115 29.0634 29.8929 28.5889 31.1977C27.1654 34.7564 27.8772 39.0268 29.3007 42.7041C28.4703 42.7041 27.5213 42.7041 26.5723 42.8227C23.7252 43.4158 20.6409 44.7207 20.4037 47.9235C20.285 50.5332 22.4203 53.2615 24.0811 55.0408C29.1821 60.9719 34.8762 51.7194 33.8085 46.7373V46.6186C32.9781 41.6365 32.7409 36.1799 31.3173 31.3163Z" fill="#5E1C4F" />
        </g>
        <path d="M158.13 128.112C152.791 130.366 149.233 135.23 145.792 139.856C145.081 140.805 146.623 142.11 147.453 141.279C151.368 137.246 156.113 134.043 159.197 129.18C159.435 128.468 158.723 127.875 158.13 128.112Z" fill="#E6E1F5" />
        <path d="M165.485 140.686C161.926 138.67 156.469 140.805 153.029 142.228C151.605 142.821 151.961 144.957 153.622 144.719C155.757 144.364 157.893 144.126 159.909 143.77C161.689 143.533 163.942 143.415 165.366 142.347C165.959 141.991 166.078 141.042 165.485 140.686Z" fill="#E6E1F5" />
        <path d="M116.373 222.654C100.24 228.467 82.5645 237.957 64.0587 231.67C47.0951 225.857 28.8265 216.842 16.1335 203.082C14.9472 201.895 15.8962 200.353 17.2011 200.116C17.4383 199.879 17.9129 199.76 18.3874 199.997C34.2834 209.724 50.1794 217.198 67.7362 220.519C83.9881 223.603 100.24 223.129 115.306 219.452C117.204 218.977 118.153 222.061 116.373 222.654Z" fill="#FA3571" />
        <g filter="url(#filter10_d)">
            <path d="M9.3713 231.67C8.18503 231.551 7.71052 229.89 8.54091 229.06C9.25267 228.23 9.96443 227.399 10.6762 226.687C14.8281 215.3 30.0124 216.723 39.8584 218.858C40.9261 219.096 41.1633 220.282 40.5702 220.994C33.3339 230.839 20.9967 233.093 9.3713 231.67Z" fill="#FA3571" />
        </g>
        <g filter="url(#filter11_d)">
            <path d="M46.3833 250.887C47.095 251.835 48.6372 251.361 48.9931 250.293C49.349 249.226 49.7048 248.277 49.9421 247.209C57.6528 237.838 48.6372 225.501 41.7568 218.147C41.0451 217.435 39.8588 217.672 39.5029 218.621C34.8765 229.89 39.2657 241.753 46.3833 250.887Z" fill="#FA3571" />
        </g>
        <g filter="url(#filter12_d)">
            <path d="M100.596 97.9821L95.2576 97.2704C93.2409 97.0332 91.936 95.2538 92.1733 93.2372L93.0037 86.8316L105.578 88.4923L104.748 94.898C104.392 96.9145 102.612 98.2194 100.596 97.9821Z" fill="#997495" />
        </g>
        <g filter="url(#filter13_d)">
            <path d="M135.946 56.3457C133.692 73.6645 117.915 85.8827 100.596 83.6288C86.4789 81.8495 75.6839 70.9362 73.43 57.5319C72.9555 54.5663 72.8368 51.3635 73.3113 48.2793C75.5653 30.9605 91.3426 18.7424 108.662 20.9962C113.17 21.5893 117.322 23.1314 120.999 25.2666C131.32 31.435 137.607 43.5344 135.946 56.3457Z" fill="#FFDC5E" />
        </g>
        <path d="M80.9034 50.0587C81.2592 49.94 81.6151 49.5842 81.8524 49.3469C83.5131 47.6862 84.3435 45.4324 85.7671 43.5344C88.7327 39.6199 92.4102 36.1798 96.6807 33.8074C100.358 31.7908 104.391 30.3673 108.543 30.0115C109.492 29.8929 110.679 29.8929 111.272 29.0625C116.491 23.0128 81.8524 20.6403 77.9377 46.8559C77.7004 48.0421 78.5308 49.94 79.9543 50.1773C80.3102 50.2959 80.5475 50.1773 80.9034 50.0587Z" fill="white" />
        <g filter="url(#filter14_d)">
            <path d="M108.306 93.949L88.8516 91.4579C84.9369 90.9834 82.2085 87.4247 82.683 83.5102L83.632 76.037L117.203 80.3074L116.254 87.7806C115.78 91.6951 112.221 94.4235 108.306 93.949Z" fill="#6DC9F7" />
        </g>
        <g filter="url(#filter15_d)">
            <path d="M94.5458 6.64285C93.7154 6.16836 92.7664 6.04974 91.6987 6.52423C89.4448 7.59183 89.4448 11.1505 91.6987 12.0995C92.885 12.574 93.834 12.2181 94.783 11.5064C95.1389 11.2691 95.3762 10.9133 95.4948 10.5574C96.5625 9.13392 95.8507 7.47321 94.5458 6.64285Z" fill="#FFF082" />
        </g>
        <g filter="url(#filter16_d)">
            <path d="M66.431 31.0791C65.6006 30.6046 64.6516 30.486 63.584 30.9604C61.3301 32.028 61.3301 35.5867 63.584 36.5357C64.7703 37.0102 65.7193 36.6543 66.6683 35.9426C67.0242 35.7053 67.2614 35.3495 67.38 34.9936C68.3291 33.5701 67.7359 31.9094 66.431 31.0791Z" fill="#FFF082" />
        </g>
        <g filter="url(#filter17_d)">
            <path d="M149.588 53.1428C148.758 52.6684 147.809 52.5497 146.741 53.0242C144.487 54.0918 144.487 57.6505 146.741 58.5995C147.928 59.074 148.877 58.7181 149.826 58.0064C150.181 57.7691 150.419 57.4133 150.537 57.0574C151.605 55.6339 150.893 53.8546 149.588 53.1428Z" fill="#FFF082" />
        </g>
        <g filter="url(#filter18_d)">
            <path d="M74.8537 12.4553C70.5831 13.5229 69.5155 19.5727 73.5488 21.7079C76.1586 23.0127 79.836 21.5893 80.5478 18.6237C80.5478 18.5051 80.5478 18.3865 80.6664 18.2678C81.1409 15.8954 79.9547 13.5229 77.7007 12.6926C76.7517 12.3367 75.8027 12.2181 74.8537 12.4553Z" fill="#FFF082" />
        </g>
        <g filter="url(#filter19_d)">
            <path d="M117.203 0C113.882 0 110.797 2.84694 110.916 6.28699C111.035 9.72704 113.644 12.574 117.203 12.574C120.525 12.574 123.609 9.72704 123.49 6.28699C123.253 2.84694 120.643 0 117.203 0Z" fill="#FFF082" />
        </g>
        <g filter="url(#filter20_d)">
            <path d="M135.709 18.2679C134.404 18.2679 133.218 19.4541 133.218 20.759C133.336 22.0638 134.285 23.25 135.709 23.25C137.014 23.25 138.2 22.0638 138.2 20.759C138.081 19.3355 137.132 18.2679 135.709 18.2679Z" fill="#FFF082" />
        </g>
        <g filter="url(#filter21_d)">
            <path d="M147.928 30.2487C145.081 30.2487 142.471 32.7398 142.589 35.5867C142.708 38.4337 144.962 40.9247 147.928 40.9247C150.775 40.9247 153.384 38.4337 153.266 35.5867C153.147 32.7398 151.012 30.2487 147.928 30.2487Z" fill="#FFF082" />
        </g>
    </g>
    <defs>
        <filter id="filter0_d" x="57.9233" y="129.97" width="180.84" height="150.743" filterUnits="userSpaceOnUse" color-interpolation-filters="sRGB">
            <feFlood flood-opacity="0" result="BackgroundImageFix" />
            <feColorMatrix in="SourceAlpha" type="matrix" values="0 0 0 0 0 0 0 0 0 0 0 0 0 0 0 0 0 0 127 0" />
            <feOffset dy="4" />
            <feGaussianBlur stdDeviation="2" />
            <feColorMatrix type="matrix" values="0 0 0 0 0 0 0 0 0 0 0 0 0 0 0 0 0 0 0.25 0" />
            <feBlend mode="normal" in2="BackgroundImageFix" result="effect1_dropShadow" />
            <feBlend mode="normal" in="SourceGraphic" in2="effect1_dropShadow" result="shape" />
        </filter>
        <filter id="filter1_d" x="23.0469" y="48.5902" width="27.231" height="94.4939" filterUnits="userSpaceOnUse" color-interpolation-filters="sRGB">
            <feFlood flood-opacity="0" result="BackgroundImageFix" />
            <feColorMatrix in="SourceAlpha" type="matrix" values="0 0 0 0 0 0 0 0 0 0 0 0 0 0 0 0 0 0 127 0" />
            <feOffset dy="4" />
            <feGaussianBlur stdDeviation="2" />
            <feColorMatrix type="matrix" values="0 0 0 0 0 0 0 0 0 0 0 0 0 0 0 0 0 0 0.25 0" />
            <feBlend mode="normal" in2="BackgroundImageFix" result="effect1_dropShadow" />
            <feBlend mode="normal" in="SourceGraphic" in2="effect1_dropShadow" result="shape" />
        </filter>
        <filter id="filter2_d" x="102.438" y="231.09" width="22.1132" height="24.7025" filterUnits="userSpaceOnUse" color-interpolation-filters="sRGB">
            <feFlood flood-opacity="0" result="BackgroundImageFix" />
            <feColorMatrix in="SourceAlpha" type="matrix" values="0 0 0 0 0 0 0 0 0 0 0 0 0 0 0 0 0 0 127 0" />
            <feOffset dy="4" />
            <feGaussianBlur stdDeviation="2" />
            <feColorMatrix type="matrix" values="0 0 0 0 0 0 0 0 0 0 0 0 0 0 0 0 0 0 0.25 0" />
            <feBlend mode="normal" in2="BackgroundImageFix" result="effect1_dropShadow" />
            <feBlend mode="normal" in="SourceGraphic" in2="effect1_dropShadow" result="shape" />
        </filter>
        <filter id="filter3_d" x="104.478" y="177.618" width="58.2615" height="71.3752" filterUnits="userSpaceOnUse" color-interpolation-filters="sRGB">
            <feFlood flood-opacity="0" result="BackgroundImageFix" />
            <feColorMatrix in="SourceAlpha" type="matrix" values="0 0 0 0 0 0 0 0 0 0 0 0 0 0 0 0 0 0 127 0" />
            <feOffset dy="4" />
            <feGaussianBlur stdDeviation="2" />
            <feColorMatrix type="matrix" values="0 0 0 0 0 0 0 0 0 0 0 0 0 0 0 0 0 0 0.25 0" />
            <feBlend mode="normal" in2="BackgroundImageFix" result="effect1_dropShadow" />
            <feBlend mode="normal" in="SourceGraphic" in2="effect1_dropShadow" result="shape" />
        </filter>
        <filter id="filter4_d" x="44.1064" y="218.028" width="29.7578" height="64.6147" filterUnits="userSpaceOnUse" color-interpolation-filters="sRGB">
            <feFlood flood-opacity="0" result="BackgroundImageFix" />
            <feColorMatrix in="SourceAlpha" type="matrix" values="0 0 0 0 0 0 0 0 0 0 0 0 0 0 0 0 0 0 127 0" />
            <feOffset dy="4" />
            <feGaussianBlur stdDeviation="2" />
            <feColorMatrix type="matrix" values="0 0 0 0 0 0 0 0 0 0 0 0 0 0 0 0 0 0 0.25 0" />
            <feBlend mode="normal" in2="BackgroundImageFix" result="effect1_dropShadow" />
            <feBlend mode="normal" in="SourceGraphic" in2="effect1_dropShadow" result="shape" />
        </filter>
        <filter id="filter5_d" x="83.1436" y="266.144" width="29.1465" height="15.994" filterUnits="userSpaceOnUse" color-interpolation-filters="sRGB">
            <feFlood flood-opacity="0" result="BackgroundImageFix" />
            <feColorMatrix in="SourceAlpha" type="matrix" values="0 0 0 0 0 0 0 0 0 0 0 0 0 0 0 0 0 0 127 0" />
            <feOffset dy="4" />
            <feGaussianBlur stdDeviation="2" />
            <feColorMatrix type="matrix" values="0 0 0 0 0 0 0 0 0 0 0 0 0 0 0 0 0 0 0.25 0" />
            <feBlend mode="normal" in2="BackgroundImageFix" result="effect1_dropShadow" />
            <feBlend mode="normal" in="SourceGraphic" in2="effect1_dropShadow" result="shape" />
        </filter>
        <filter id="filter6_d" x="67.8804" y="214.748" width="26.7652" height="65.1905" filterUnits="userSpaceOnUse" color-interpolation-filters="sRGB">
            <feFlood flood-opacity="0" result="BackgroundImageFix" />
            <feColorMatrix in="SourceAlpha" type="matrix" values="0 0 0 0 0 0 0 0 0 0 0 0 0 0 0 0 0 0 127 0" />
            <feOffset dy="4" />
            <feGaussianBlur stdDeviation="2" />
            <feColorMatrix type="matrix" values="0 0 0 0 0 0 0 0 0 0 0 0 0 0 0 0 0 0 0.25 0" />
            <feBlend mode="normal" in2="BackgroundImageFix" result="effect1_dropShadow" />
            <feBlend mode="normal" in="SourceGraphic" in2="effect1_dropShadow" result="shape" />
        </filter>
        <filter id="filter7_d" x="-1.61279" y="109.326" width="156.612" height="139.276" filterUnits="userSpaceOnUse" color-interpolation-filters="sRGB">
            <feFlood flood-opacity="0" result="BackgroundImageFix" />
            <feColorMatrix in="SourceAlpha" type="matrix" values="0 0 0 0 0 0 0 0 0 0 0 0 0 0 0 0 0 0 127 0" />
            <feOffset dy="4" />
            <feGaussianBlur stdDeviation="2" />
            <feColorMatrix type="matrix" values="0 0 0 0 0 0 0 0 0 0 0 0 0 0 0 0 0 0 0.25 0" />
            <feBlend mode="normal" in2="BackgroundImageFix" result="effect1_dropShadow" />
            <feBlend mode="normal" in="SourceGraphic" in2="effect1_dropShadow" result="shape" />
        </filter>
        <filter id="filter8_d" x="6.10986" y="123.634" width="155.117" height="81.6662" filterUnits="userSpaceOnUse" color-interpolation-filters="sRGB">
            <feFlood flood-opacity="0" result="BackgroundImageFix" />
            <feColorMatrix in="SourceAlpha" type="matrix" values="0 0 0 0 0 0 0 0 0 0 0 0 0 0 0 0 0 0 127 0" />
            <feOffset dy="4" />
            <feGaussianBlur stdDeviation="2" />
            <feColorMatrix type="matrix" values="0 0 0 0 0 0 0 0 0 0 0 0 0 0 0 0 0 0 0.25 0" />
            <feBlend mode="normal" in2="BackgroundImageFix" result="effect1_dropShadow" />
            <feBlend mode="normal" in="SourceGraphic" in2="effect1_dropShadow" result="shape" />
        </filter>
        <filter id="filter9_d" x="16.3989" y="30.2764" width="21.5399" height="34.684" filterUnits="userSpaceOnUse" color-interpolation-filters="sRGB">
            <feFlood flood-opacity="0" result="BackgroundImageFix" />
            <feColorMatrix in="SourceAlpha" type="matrix" values="0 0 0 0 0 0 0 0 0 0 0 0 0 0 0 0 0 0 127 0" />
            <feOffset dy="4" />
            <feGaussianBlur stdDeviation="2" />
            <feColorMatrix type="matrix" values="0 0 0 0 0 0 0 0 0 0 0 0 0 0 0 0 0 0 0.25 0" />
            <feBlend mode="normal" in2="BackgroundImageFix" result="effect1_dropShadow" />
            <feBlend mode="normal" in="SourceGraphic" in2="effect1_dropShadow" result="shape" />
        </filter>
        <filter id="filter10_d" x="4.12305" y="217.393" width="40.7649" height="22.665" filterUnits="userSpaceOnUse" color-interpolation-filters="sRGB">
            <feFlood flood-opacity="0" result="BackgroundImageFix" />
            <feColorMatrix in="SourceAlpha" type="matrix" values="0 0 0 0 0 0 0 0 0 0 0 0 0 0 0 0 0 0 127 0" />
            <feOffset dy="4" />
            <feGaussianBlur stdDeviation="2" />
            <feColorMatrix type="matrix" values="0 0 0 0 0 0 0 0 0 0 0 0 0 0 0 0 0 0 0.25 0" />
            <feBlend mode="normal" in2="BackgroundImageFix" result="effect1_dropShadow" />
            <feBlend mode="normal" in="SourceGraphic" in2="effect1_dropShadow" result="shape" />
        </filter>
        <filter id="filter11_d" x="33.5986" y="217.733" width="23.3025" height="41.6645" filterUnits="userSpaceOnUse" color-interpolation-filters="sRGB">
            <feFlood flood-opacity="0" result="BackgroundImageFix" />
            <feColorMatrix in="SourceAlpha" type="matrix" values="0 0 0 0 0 0 0 0 0 0 0 0 0 0 0 0 0 0 127 0" />
            <feOffset dy="4" />
            <feGaussianBlur stdDeviation="2" />
            <feColorMatrix type="matrix" values="0 0 0 0 0 0 0 0 0 0 0 0 0 0 0 0 0 0 0.25 0" />
            <feBlend mode="normal" in2="BackgroundImageFix" result="effect1_dropShadow" />
            <feBlend mode="normal" in="SourceGraphic" in2="effect1_dropShadow" result="shape" />
        </filter>
        <filter id="filter12_d" x="88.1455" y="86.8316" width="21.4326" height="19.1783" filterUnits="userSpaceOnUse" color-interpolation-filters="sRGB">
            <feFlood flood-opacity="0" result="BackgroundImageFix" />
            <feColorMatrix in="SourceAlpha" type="matrix" values="0 0 0 0 0 0 0 0 0 0 0 0 0 0 0 0 0 0 127 0" />
            <feOffset dy="4" />
            <feGaussianBlur stdDeviation="2" />
            <feColorMatrix type="matrix" values="0 0 0 0 0 0 0 0 0 0 0 0 0 0 0 0 0 0 0.25 0" />
            <feBlend mode="normal" in2="BackgroundImageFix" result="effect1_dropShadow" />
            <feBlend mode="normal" in="SourceGraphic" in2="effect1_dropShadow" result="shape" />
        </filter>
        <filter id="filter13_d" x="69.0093" y="20.7283" width="71.202" height="71.1684" filterUnits="userSpaceOnUse" color-interpolation-filters="sRGB">
            <feFlood flood-opacity="0" result="BackgroundImageFix" />
            <feColorMatrix in="SourceAlpha" type="matrix" values="0 0 0 0 0 0 0 0 0 0 0 0 0 0 0 0 0 0 127 0" />
            <feOffset dy="4" />
            <feGaussianBlur stdDeviation="2" />
            <feColorMatrix type="matrix" values="0 0 0 0 0 0 0 0 0 0 0 0 0 0 0 0 0 0 0.25 0" />
            <feBlend mode="normal" in2="BackgroundImageFix" result="effect1_dropShadow" />
            <feBlend mode="normal" in="SourceGraphic" in2="effect1_dropShadow" result="shape" />
        </filter>
        <filter id="filter14_d" x="78.6294" y="76.037" width="42.574" height="25.9656" filterUnits="userSpaceOnUse" color-interpolation-filters="sRGB">
            <feFlood flood-opacity="0" result="BackgroundImageFix" />
            <feColorMatrix in="SourceAlpha" type="matrix" values="0 0 0 0 0 0 0 0 0 0 0 0 0 0 0 0 0 0 127 0" />
            <feOffset dy="4" />
            <feGaussianBlur stdDeviation="2" />
            <feColorMatrix type="matrix" values="0 0 0 0 0 0 0 0 0 0 0 0 0 0 0 0 0 0 0.25 0" />
            <feBlend mode="normal" in2="BackgroundImageFix" result="effect1_dropShadow" />
            <feBlend mode="normal" in="SourceGraphic" in2="effect1_dropShadow" result="shape" />
        </filter>
        <filter id="filter15_d" x="86.0083" y="6.22217" width="14.005" height="14.0934" filterUnits="userSpaceOnUse" color-interpolation-filters="sRGB">
            <feFlood flood-opacity="0" result="BackgroundImageFix" />
            <feColorMatrix in="SourceAlpha" type="matrix" values="0 0 0 0 0 0 0 0 0 0 0 0 0 0 0 0 0 0 127 0" />
            <feOffset dy="4" />
            <feGaussianBlur stdDeviation="2" />
            <feColorMatrix type="matrix" values="0 0 0 0 0 0 0 0 0 0 0 0 0 0 0 0 0 0 0.25 0" />
            <feBlend mode="normal" in2="BackgroundImageFix" result="effect1_dropShadow" />
            <feBlend mode="normal" in="SourceGraphic" in2="effect1_dropShadow" result="shape" />
        </filter>
        <filter id="filter16_d" x="57.8936" y="30.6584" width="13.9523" height="14.0934" filterUnits="userSpaceOnUse" color-interpolation-filters="sRGB">
            <feFlood flood-opacity="0" result="BackgroundImageFix" />
            <feColorMatrix in="SourceAlpha" type="matrix" values="0 0 0 0 0 0 0 0 0 0 0 0 0 0 0 0 0 0 127 0" />
            <feOffset dy="4" />
            <feGaussianBlur stdDeviation="2" />
            <feColorMatrix type="matrix" values="0 0 0 0 0 0 0 0 0 0 0 0 0 0 0 0 0 0 0.25 0" />
            <feBlend mode="normal" in2="BackgroundImageFix" result="effect1_dropShadow" />
            <feBlend mode="normal" in="SourceGraphic" in2="effect1_dropShadow" result="shape" />
        </filter>
        <filter id="filter17_d" x="141.051" y="52.7222" width="14.0051" height="14.0934" filterUnits="userSpaceOnUse" color-interpolation-filters="sRGB">
            <feFlood flood-opacity="0" result="BackgroundImageFix" />
            <feColorMatrix in="SourceAlpha" type="matrix" values="0 0 0 0 0 0 0 0 0 0 0 0 0 0 0 0 0 0 127 0" />
            <feOffset dy="4" />
            <feGaussianBlur stdDeviation="2" />
            <feColorMatrix type="matrix" values="0 0 0 0 0 0 0 0 0 0 0 0 0 0 0 0 0 0 0.25 0" />
            <feBlend mode="normal" in2="BackgroundImageFix" result="effect1_dropShadow" />
            <feBlend mode="normal" in="SourceGraphic" in2="effect1_dropShadow" result="shape" />
        </filter>
        <filter id="filter18_d" x="67.0244" y="12.3319" width="17.7455" height="17.8617" filterUnits="userSpaceOnUse" color-interpolation-filters="sRGB">
            <feFlood flood-opacity="0" result="BackgroundImageFix" />
            <feColorMatrix in="SourceAlpha" type="matrix" values="0 0 0 0 0 0 0 0 0 0 0 0 0 0 0 0 0 0 127 0" />
            <feOffset dy="4" />
            <feGaussianBlur stdDeviation="2" />
            <feColorMatrix type="matrix" values="0 0 0 0 0 0 0 0 0 0 0 0 0 0 0 0 0 0 0.25 0" />
            <feBlend mode="normal" in2="BackgroundImageFix" result="effect1_dropShadow" />
            <feBlend mode="normal" in="SourceGraphic" in2="effect1_dropShadow" result="shape" />
        </filter>
        <filter id="filter19_d" x="106.913" y="0" width="20.5811" height="20.574" filterUnits="userSpaceOnUse" color-interpolation-filters="sRGB">
            <feFlood flood-opacity="0" result="BackgroundImageFix" />
            <feColorMatrix in="SourceAlpha" type="matrix" values="0 0 0 0 0 0 0 0 0 0 0 0 0 0 0 0 0 0 127 0" />
            <feOffset dy="4" />
            <feGaussianBlur stdDeviation="2" />
            <feColorMatrix type="matrix" values="0 0 0 0 0 0 0 0 0 0 0 0 0 0 0 0 0 0 0.25 0" />
            <feBlend mode="normal" in2="BackgroundImageFix" result="effect1_dropShadow" />
            <feBlend mode="normal" in="SourceGraphic" in2="effect1_dropShadow" result="shape" />
        </filter>
        <filter id="filter20_d" x="129.218" y="18.2679" width="12.9823" height="12.9821" filterUnits="userSpaceOnUse" color-interpolation-filters="sRGB">
            <feFlood flood-opacity="0" result="BackgroundImageFix" />
            <feColorMatrix in="SourceAlpha" type="matrix" values="0 0 0 0 0 0 0 0 0 0 0 0 0 0 0 0 0 0 127 0" />
            <feOffset dy="4" />
            <feGaussianBlur stdDeviation="2" />
            <feColorMatrix type="matrix" values="0 0 0 0 0 0 0 0 0 0 0 0 0 0 0 0 0 0 0.25 0" />
            <feBlend mode="normal" in2="BackgroundImageFix" result="effect1_dropShadow" />
            <feBlend mode="normal" in="SourceGraphic" in2="effect1_dropShadow" result="shape" />
        </filter>
        <filter id="filter21_d" x="138.585" y="30.2487" width="18.6842" height="18.676" filterUnits="userSpaceOnUse" color-interpolation-filters="sRGB">
            <feFlood flood-opacity="0" result="BackgroundImageFix" />
            <feColorMatrix in="SourceAlpha" type="matrix" values="0 0 0 0 0 0 0 0 0 0 0 0 0 0 0 0 0 0 127 0" />
            <feOffset dy="4" />
            <feGaussianBlur stdDeviation="2" />
            <feColorMatrix type="matrix" values="0 0 0 0 0 0 0 0 0 0 0 0 0 0 0 0 0 0 0.25 0" />
            <feBlend mode="normal" in2="BackgroundImageFix" result="effect1_dropShadow" />
            <feBlend mode="normal" in="SourceGraphic" in2="effect1_dropShadow" result="shape" />
        </filter>
        <clipPath id="clip0">
            <rect width="235" height="279" fill="white" />
        </clipPath>
    </defs>
</svg>
