<svg width="306" height="252" viewBox="0 0 306 252" fill="none" xmlns="http://www.w3.org/2000/svg">
    <path d="M164.242 96.1583C165.339 102.814 164.181 109.409 160.463 115.078C160.219 115.448 160.036 115.941 160.28 116.373C161.072 117.913 160.402 126.48 164.669 124.569C168.022 123.09 165.339 117.482 163.328 115.202C166.742 109.224 167.778 102.506 165.827 95.7269C165.522 94.8641 164.12 95.2339 164.242 96.1583Z" fill="#5E1C4F" />
    <g filter="url(#filter0_d)">
        <path d="M235.444 6.67308C234.408 7.53589 233.432 8.52195 232.396 9.44638L232.335 9.50801C231.969 9.01498 231.421 8.58358 230.689 8.21381H230.628C230.141 7.47426 229.531 6.85797 228.86 6.54982C228.373 6.36494 227.946 6.24168 227.519 6.18005C227.641 4.5777 227.824 2.97535 228.007 1.31136C228.19 -0.16773 226.056 -0.537504 225.751 0.941591C225.325 2.79046 224.837 5.0091 225.02 6.98123C223.923 8.02892 223.496 9.81616 224.166 11.4801C225.447 14.5616 227.154 12.7127 224.593 17.8895C223.862 19.3686 222.521 20.7245 221.545 21.9571C218.741 25.5315 215.449 28.6746 212.645 32.2491C211.974 33.1119 213.072 34.2828 213.925 33.6049C218.863 29.9072 223.069 24.5455 226.727 19.5535C227.336 18.6907 228.19 17.7047 228.678 16.657C230.141 15.9174 231.604 14.6232 232.396 13.2057C233.006 12.5895 233.615 11.9732 234.164 11.4185C235.139 10.4324 236.176 9.50801 237.151 8.52195C238.065 7.41263 236.663 5.62539 235.444 6.67308Z" fill="#5E1C4F" />
    </g>
    <g filter="url(#filter1_d)">
        <path d="M82.433 138.313C78.2877 142.072 81.0919 146.509 85.7859 142.688C91.3333 138.929 107.488 131.41 121.082 144.722C125.532 149.036 132.177 141.702 135.469 138.004C137.907 135.293 141.931 130.979 141.016 126.665C139.736 120.933 128.397 120.255 124.13 120.07C116.876 119.701 110.292 121.488 104.623 123.706C97.1246 126.665 91.0895 130.917 85.8468 135.293C84.6886 136.279 83.5303 137.265 82.433 138.313Z" fill="#3A2C60" />
    </g>
    <g filter="url(#filter2_d)">
        <path d="M131.994 229.585C126.629 231.126 124.435 226.319 130.104 224.347C136.261 221.635 151.135 211.897 147.356 193.162C146.137 187.061 155.829 185.335 160.706 184.473C164.303 183.856 170.033 182.747 173.142 185.828C177.227 189.958 171.679 200.003 169.607 203.762C166.071 210.172 160.95 214.794 156.073 218.43C149.611 223.237 142.784 226.134 136.322 228.229C134.859 228.722 133.396 229.154 131.994 229.585Z" fill="#3A2C60" />
    </g>
    <g filter="url(#filter3_d)">
        <path d="M117.608 150.946L110.048 157.171C109.012 158.034 108.707 159.513 109.378 160.684L128.641 196.182C129.312 197.353 130.653 197.908 131.933 197.476L141.199 194.395C181.007 181.021 215.754 155.199 239.468 120.255C240.078 119.392 240.626 118.53 241.236 117.605L245.442 111.134C246.661 109.224 245.32 106.697 243.065 106.697L235.384 106.82C234.347 106.82 233.311 106.882 232.275 106.882C190.334 108.361 150.161 124.138 117.608 150.946Z" fill="#0089EF" />
    </g>
    <g filter="url(#filter4_d)">
        <path d="M140.346 125.001C135.591 128.39 130.958 131.965 126.386 135.724L118.339 142.318L116.083 144.167C114.681 145.338 114.254 147.372 115.169 148.974L141.443 197.415C142.296 199.017 144.247 199.818 145.954 199.202L147.966 198.524L158.573 194.95C163.998 193.162 169.302 191.19 174.545 189.033C217.217 171.654 254.83 143.428 283.177 106.82C284.823 104.663 286.468 102.506 288.053 100.287C288.541 99.6712 288.968 98.9933 289.456 98.3153C289.76 97.8839 290.065 97.4525 290.37 97.0828C291.102 96.0351 291.833 94.9258 292.626 93.8164C293.418 92.6455 294.211 91.4129 295.003 90.242L300.733 81.429C302.44 78.8406 300.368 74.958 297.259 75.0196L286.651 74.8347C285.554 75.451 284.03 75.2661 282.567 75.3277C281.287 75.3894 280.068 75.6359 278.787 75.6975C278.178 75.6975 277.568 75.8824 276.837 75.8824C276.227 75.8824 275.617 76.0057 274.947 76.0057C272.265 76.1905 269.582 76.4371 266.9 76.6836C221.24 81.2441 177.714 98.1305 140.346 125.001Z" fill="#FA3571" />
    </g>
    <path d="M235.81 129.253C244.059 129.253 250.746 122.493 250.746 114.154C250.746 105.815 244.059 99.0549 235.81 99.0549C227.562 99.0549 220.875 105.815 220.875 114.154C220.875 122.493 227.562 129.253 235.81 129.253Z" fill="#FFDBDB" />
    <g filter="url(#filter5_d)">
        <path d="M235.81 123.953C241.164 123.953 245.503 119.566 245.503 114.154C245.503 108.742 241.164 104.355 235.81 104.355C230.457 104.355 226.118 108.742 226.118 114.154C226.118 119.566 230.457 123.953 235.81 123.953Z" fill="#3A2C60" />
    </g>
    <g filter="url(#filter6_d)">
        <path d="M146.442 155.754C127.91 166.046 124.374 172.147 107.975 181.576C101.331 185.397 104.074 190.512 110.901 186.814C127.605 177.878 134.554 178.248 153.086 167.956C163.693 162.163 157.049 149.899 146.442 155.754Z" fill="#3A2C60" />
    </g>
    <g filter="url(#filter7_d)">
        <path d="M45.7955 192.669L52.9889 198.524L26.7758 215.657C25.2517 216.643 25.3127 218.369 26.8367 218.615L34.0301 219.663L5.01277 240.185C3.06202 241.603 4.15932 243.76 6.3539 242.897L34.7616 231.927L33.4205 237.165C33.0547 238.521 34.5787 239.199 36.0418 238.46L74.2642 218.8L72.0696 230.448C71.7648 231.927 73.9594 232.358 75.4224 231.187L103.342 208.693C104.318 207.892 104.501 206.782 103.769 206.228C98.1608 202.16 88.5899 184.596 88.2851 177.632C88.2242 176.707 87.1878 176.276 86.0296 176.646L47.3195 189.588C45.7955 190.142 44.8201 191.93 45.7955 192.669Z" fill="#FFDC5E" />
    </g>
    <path d="M50.9772 215.41C50.1238 216.212 50.9162 217.629 52.0135 217.259C59.8775 214.979 79.1411 209.556 90.2969 206.289C90.6627 206.166 90.5407 205.611 90.175 205.673C75.4225 206.474 62.3769 212.452 74.8129 194.518C75.4225 193.84 74.4471 192.854 73.7765 193.532L50.9772 215.41Z" fill="white" />
    <path d="M274.643 76.3138C279.154 81.922 285.494 93.6315 287.81 100.534C288.42 99.7944 289.029 99.1165 289.517 98.4386C289.822 98.0072 290.127 97.5758 290.431 97.206C291.163 96.1583 300.734 81.6139 300.734 81.6139C302.441 79.0255 300.49 75.3277 297.381 75.3894H286.896C286.896 75.3894 280.129 75.8824 278.849 75.944C278.239 75.944 277.569 76.0673 276.898 76.1289C276.167 76.0673 275.435 76.1905 274.643 76.3138Z" fill="#0089EF" />
    <g filter="url(#filter8_d)">
        <path d="M238.004 93.6315C238.187 92.9536 238.736 92.3373 238.919 91.721C239.345 90.4268 239.589 89.071 240.077 87.7768C240.443 86.7907 241.662 87.2837 241.845 88.0849C242.028 89.071 241.906 90.2419 241.662 91.2896C241.784 90.8582 243.308 90.6117 243.735 90.4884C245.137 90.1187 246.6 89.9338 247.941 89.4408C249.038 89.0094 250.379 88.4547 251.538 89.071C251.964 89.3175 252.208 89.8722 251.842 90.3036C251.172 91.0431 250.196 91.4129 249.282 91.721C248.794 91.9059 248.124 92.1524 247.819 92.5222C247.209 93.2001 248.185 93.3234 248.672 93.4466C249.709 93.7548 250.806 94.0629 251.72 94.7409C252.33 95.2339 251.964 96.2199 251.233 96.3432C250.135 96.5281 249.038 96.1583 247.941 95.9118C247.392 95.7885 245.198 95.7269 245.929 96.8362C246.051 97.0211 246.295 97.0828 246.478 97.1444C247.453 97.5142 248.733 98.377 249.282 99.3014C249.587 99.7944 249.343 100.596 248.672 100.596C247.148 100.657 245.868 99.7944 244.588 99.0549C242.515 97.9456 237.09 97.0211 238.004 93.6315Z" fill="#5E1C4F" />
        <path d="M198.868 84.4488C203.074 86.3593 207.28 88.1466 211.608 89.5024C216.242 90.9815 220.204 91.228 225.02 91.9675C229.836 92.7687 235.078 92.7071 239.894 93.2001C240.748 93.2618 241.174 95.4804 240.321 95.4804C235.383 95.4804 230.445 95.2955 225.568 94.6176C220.692 93.9397 215.815 92.9536 210.999 91.5978C206.549 90.3036 202.16 88.7628 197.892 86.9756C195.82 86.1128 193.503 85.25 191.248 84.4488C188.992 83.6476 186.858 82.8465 184.908 81.9837C183.871 81.4906 183.81 80.1964 185.152 80.1348C187.468 79.9499 189.906 80.6278 192.162 81.4906C194.6 82.3534 196.795 83.5244 198.868 84.4488Z" fill="#5E1C4F" />
    </g>
    <g filter="url(#filter9_d)">
        <path d="M171.558 87.8384C171.741 87.9 171.924 88.0849 172.045 88.2082C176.557 92.399 179.97 98.0688 180.458 104.232C180.946 110.395 178.202 116.989 172.899 120.132C174.972 121.241 176.861 122.597 178.568 124.261C179.056 124.693 179.483 125.186 179.666 125.802C180.336 127.774 177.898 128.39 176.496 127.959C175.581 127.651 174.789 127.034 174.057 126.418C173.021 125.555 171.984 124.631 171.009 123.645C170.095 122.782 169.119 121.549 169.485 120.317C169.729 119.516 170.46 118.961 171.131 118.53C173.387 116.927 175.459 115.017 176.678 112.552C178.568 108.792 178.324 104.232 176.983 100.287C175.642 96.3432 173.265 92.7687 170.948 89.3175C170.643 88.8861 170.399 88.2698 170.826 87.9617C171.009 87.6535 171.314 87.7152 171.558 87.8384Z" fill="#5E1C4F" />
    </g>
    <g filter="url(#filter10_d)">
        <path d="M148.88 92.0908C152.782 95.8501 158.451 97.0211 163.206 95.1106C163.572 100.78 168.083 106.512 173.569 108.484C177.715 109.963 181.677 109.593 184.42 106.019C185.274 104.91 186.005 103.677 186.554 102.383C187.407 103.369 188.383 104.232 189.297 104.971C193.26 108.176 198.075 110.395 203.074 109.532C207.768 108.792 211.121 105.403 212.34 100.719C217.278 102.937 224.289 101.582 226.971 97.3909C229.104 94.1245 229.409 89.8105 228.373 85.6814C228.556 85.743 228.739 85.743 228.922 85.8046C230.811 85.9895 232.64 85.5581 234.225 84.6337C237.761 82.5999 239.224 78.3475 238.675 74.28C238.249 71.0753 236.603 68.0555 234.286 65.652C236.725 63.3717 237.7 58.9344 236.237 55.6681C235.505 54.0041 234.408 52.5866 233.128 51.5389C235.932 45.4993 232.092 34.3445 226.422 30.8933C222.765 28.6746 219.046 29.2909 216.059 31.3247C214.84 27.6269 212.096 24.7304 207.829 25.2234C204.111 25.6548 201.916 27.8118 200.697 30.77C200.453 30.4619 200.27 30.1537 200.026 29.7839C197.527 26.5176 193.381 22.2652 188.931 23.128C185.213 23.8676 183.262 27.2571 182.409 30.77C181.799 30.2153 181.128 29.6607 180.336 29.1676C176.617 26.8257 171.131 24.8536 167.961 28.8595C167.046 30.0304 166.559 31.4479 166.437 32.927C163.328 31.2014 158.939 30.0304 156.073 32.3107C152.721 34.9608 152.416 40.4457 153.269 44.39C153.391 44.9446 153.513 45.4993 153.696 45.9923C153.025 45.9307 152.294 45.8691 151.501 45.9923C143.637 46.7935 139.37 58.996 144.43 65.2822C145.588 66.6997 146.929 67.9939 148.392 69.1032C146.746 70.5823 145.466 72.6777 144.735 74.9579C142.845 80.8743 144.308 87.7151 148.88 92.0908Z" fill="#FFC1D0" />
    </g>
    <path d="M151.684 48.5192C152.843 48.3343 154.306 48.5192 155.708 48.9506C155.464 48.0878 155.342 47.1017 155.342 46.3005C155.22 44.0819 155.586 41.6167 156.683 39.7062C157.232 38.7818 158.756 39.3981 158.39 40.4458C157.719 42.4179 157.171 44.2052 157.354 46.3005C157.415 47.4715 157.963 48.7657 157.963 49.9983C159.365 50.9843 160.28 52.4634 159.975 54.3123C159.853 54.9286 159.061 55.0519 158.695 54.6821C158.024 54.0042 157.719 53.0797 157.049 52.4018C155.952 51.2925 154.245 50.7995 152.782 50.9227C149.429 51.2309 147.905 54.6821 147.539 57.7019C147.417 58.8112 145.771 59.2426 145.527 57.9484C144.552 54.0042 148.027 49.0738 151.684 48.5192Z" fill="#FFB5C7" />
    <path d="M160.707 35.3922C161.377 35.0224 162.17 35.0841 162.901 34.9608C163.633 34.8375 164.242 35.9469 163.45 36.3167C162.84 36.6864 162.231 37.2411 161.499 37.3644C161.011 37.4876 160.463 37.2411 160.28 36.6864C160.097 36.255 160.219 35.6387 160.707 35.3922Z" fill="#FFB5C7" />
    <path d="M166.864 36.6863C167.961 33.3583 169.912 30.4618 173.569 30.2769C176.495 30.1536 180.275 31.0781 181.494 34.1595C181.738 34.7142 180.946 35.0223 180.58 34.7142C179.056 33.2351 176.069 32.4955 173.996 32.6804C171.009 32.9269 170.277 35.2688 169.18 37.734C168.57 39.0282 166.437 38.0422 166.864 36.6863Z" fill="#FFB5C7" />
    <path d="M170.277 47.3481C171.009 47.3481 171.801 45.8074 172.167 45.2528C172.35 44.9446 172.533 44.5748 172.655 44.2051C172.655 43.9586 172.716 43.712 172.838 43.5272C172.96 42.9725 173.021 42.3562 172.838 41.7399C172.655 40.9387 173.813 40.6306 174.057 41.4318C174.24 42.0481 174.362 42.6643 174.362 43.3423C177.775 44.2667 180.519 46.4237 182.287 49.5668C184.42 47.4098 187.59 46.9784 190.516 48.4575C193.442 49.9366 197.832 54.3122 195.332 57.8251C194.844 58.503 193.625 58.1332 193.869 57.1472C195.21 51.7238 185.944 47.4098 183.018 52.1552C182.469 53.018 181.433 52.7099 181.067 51.8471C179.726 48.5191 177.227 46.3005 174.057 45.2528C173.935 45.8074 173.691 46.3005 173.447 46.7935C172.838 47.9644 171.253 50.5529 169.668 49.3203C168.936 48.7656 169.18 47.3481 170.277 47.3481Z" fill="#FFB5C7" />
    <path d="M191.309 27.442C194.906 27.3804 198.015 30.5851 198.502 34.0979C198.563 34.6526 197.771 34.8375 197.527 34.3445C196.917 33.1119 195.942 32.0026 194.906 31.1398C193.747 30.1537 192.467 29.9072 191.065 29.5374C189.846 29.3525 190.151 27.5037 191.309 27.442Z" fill="#FFB5C7" />
    <path d="M199.173 37.4259C199.965 35.2688 200.819 33.1118 202.708 31.6943C204.72 30.1536 207.098 29.4141 209.597 29.4141C210.389 29.4141 210.633 30.7083 209.841 30.8315C208.134 31.0781 206.244 32.1874 204.781 33.1734C203.013 34.3444 202.221 36.1316 201.55 38.1038C200.941 39.5212 198.624 38.8433 199.173 37.4259Z" fill="#FFB5C7" />
    <path d="M195.271 42.5411C197.039 40.8155 199.112 40.3224 201.489 40.8155C203.623 41.2469 205.94 42.1713 206.732 44.39C206.915 44.9446 206.244 45.4377 205.818 45.1295C203.806 43.7737 200.941 42.3562 198.563 43.2807C197.71 43.5888 195.942 45.8691 195.089 44.0818C194.845 43.5888 194.845 42.9725 195.271 42.5411Z" fill="#FFB5C7" />
    <path d="M223.801 34.2829C225.508 34.0364 227.337 35.6387 228.312 36.9946C229.531 38.5969 229.836 40.3842 229.653 42.3563C229.592 42.8493 228.8 42.8493 228.678 42.3563C228.373 40.8772 227.642 39.4597 226.666 38.3504C225.691 37.2411 224.35 36.8713 223.435 35.8852C223.009 35.3922 223.07 34.4061 223.801 34.2829Z" fill="#FFB5C7" />
    <path d="M217.461 50.6145C217.583 50.1831 218.132 49.9982 218.498 50.368C219.107 50.9843 219.107 51.3541 219.595 52.1552C220.265 53.2646 221.485 54.0041 222.704 54.3123C224.533 54.7437 227.52 54.3739 228.8 52.6483C228.739 52.4634 228.739 52.2785 228.8 52.1552C229.288 50.1831 229.47 48.211 229.714 46.1773C229.836 45.3761 230.994 45.6226 231.055 46.3621C231.177 47.4715 231.116 48.5191 230.994 49.6285C230.812 51.2924 230.568 51.6006 231.543 52.9564C232.579 54.4355 233.738 55.4832 233.982 57.3937C234.286 59.674 232.153 64.481 229.409 63.4333C228.678 63.1868 228.617 62.1391 229.349 61.8926C231.604 61.1531 232.458 58.2565 231.604 56.1611C231.177 55.1751 230.446 54.3739 229.653 53.6343C228.434 55.853 225.63 56.5925 223.07 56.2844C220.814 56.0995 216.364 53.5727 217.461 50.6145Z" fill="#FFB5C7" />
    <path d="M215.754 41.4318C218.619 40.0143 223.618 41.6167 224.471 45.1912C224.593 45.8075 223.984 46.1773 223.496 45.7458C222.521 44.8214 221.545 43.897 220.326 43.4039C218.985 42.9109 217.888 43.0342 216.547 43.2807C215.51 43.4656 214.718 41.9248 215.754 41.4318Z" fill="#FFB5C7" />
    <path d="M223.801 69.4113C228.373 67.5624 236.785 70.3357 235.688 76.8068C235.627 77.2998 234.774 77.2998 234.713 76.8068C234.225 74.4649 232.64 72.3695 230.445 71.5067C228.312 70.6439 226.3 71.1985 224.166 71.3834C222.947 71.5067 222.947 69.7811 223.801 69.4113Z" fill="#FFB5C7" />
    <path d="M229.897 81.3673C230.202 81.1208 230.506 81.2441 230.811 81.0592C231.055 80.8743 231.116 80.6278 231.055 80.3196C230.994 79.7033 231.969 79.5801 232.091 80.1964C232.335 81.3673 231.36 83.4011 229.958 82.6615C229.409 82.3534 229.531 81.6755 229.897 81.3673Z" fill="#FFB5C7" />
    <path d="M220.996 79.0871C222.216 77.608 225.325 75.3893 226.91 77.7312C227.214 78.2243 226.605 78.9022 226.178 78.5324C225.081 77.6696 222.459 80.8743 222.216 81.6755C221.606 83.4627 222.216 85.3732 222.581 87.1604C222.886 88.6395 220.874 89.1942 220.448 87.7151C219.533 84.8802 219.107 81.3673 220.996 79.0871Z" fill="#FFB5C7" />
    <path d="M213.499 95.6037C214.352 95.7269 214.84 95.9118 215.632 96.2199C217.217 96.8979 218.071 96.8362 219.595 96.4048C222.277 95.542 224.899 93.9397 224.777 90.6117C224.777 89.9954 225.63 89.8721 225.813 90.4884C226.727 93.5083 225.142 96.0351 222.704 97.4525C219.351 99.363 216.852 99.0549 213.194 97.9456C212.036 97.5142 212.158 95.4188 213.499 95.6037Z" fill="#FFB5C7" />
    <path d="M204.964 76.2522C206.61 75.8208 208.744 75.8208 210.39 76.622C210.512 73.294 212.158 70.0893 215.084 69.2265C211.121 67.4393 210.268 60.7833 213.133 57.7635C214.108 56.7158 215.693 58.3798 214.718 59.3659C213.438 60.7217 213.194 63.002 213.804 64.7892C214.413 66.6381 215.815 67.6858 217.156 68.98C217.278 69.1032 217.278 69.2881 217.156 69.473C217.156 69.5963 217.156 69.7195 217.034 69.7812C215.267 71.3835 213.316 72.1847 212.645 74.8347C211.914 77.7313 213.316 79.8267 214.23 82.4767C214.535 83.4011 213.438 83.8942 212.828 83.3395C211.609 82.1686 210.877 80.5662 210.573 78.8406C208.866 78.4708 207.403 77.9162 205.574 78.4092C204.416 78.7174 203.44 79.3953 202.587 80.2581C201.977 80.936 201.794 81.2441 200.941 81.4907C200.453 81.6139 200.087 81.2441 200.026 80.7511C199.844 78.4092 203.075 76.7452 204.964 76.2522Z" fill="#FFB5C7" />
    <path d="M156.622 70.7056C156.074 65.3439 159.487 61.2147 164.364 60.9682C163.938 57.8868 165.035 54.6204 167.9 53.2646C170.826 51.8471 175.154 53.1413 175.947 56.7158C176.069 57.2088 175.459 57.6402 175.093 57.2088C173.326 55.4216 171.314 53.5727 168.632 55.0518C166.254 56.346 165.827 59.3042 166.559 61.7694C166.742 62.3857 166.193 63.1252 165.584 63.0636C161.194 62.7554 158.146 66.145 158.634 70.7672C158.756 72.123 156.744 72.0614 156.622 70.7056Z" fill="#FFB5C7" />
    <path d="M148.636 78.7789C149.002 77.7929 150.404 78.2243 150.099 79.272C148.21 85.8046 153.94 93.385 160.585 90.7966C161.316 90.4884 161.682 91.721 161.072 92.0908C157.841 94.2478 153.513 93.0769 150.831 90.3652C147.844 87.3454 147.173 82.7232 148.636 78.7789Z" fill="#FFB5C7" />
    <path d="M166.742 94.6792C164.852 93.385 163.328 90.8582 163.755 88.5163C163.938 87.407 165.34 87.7151 165.645 88.5779C166.254 90.2419 166.62 91.7826 168.205 92.8303C169.607 93.6931 171.436 93.6931 172.96 93.3233C173.57 93.1385 174.179 94.0629 173.63 94.5559C172.228 95.7269 170.582 96.0966 168.876 95.7269C169.668 98.7467 170.339 101.335 173.57 102.444C174.789 102.814 176.069 103.184 177.349 103.184C179.544 103.246 180.946 101.643 182.287 100.041C182.714 99.4862 183.506 100.226 183.201 100.842C181.129 105.526 177.532 106.081 173.021 104.725C168.815 103.492 167.108 99.6095 166.681 95.2338C166.681 94.9257 166.742 94.8024 166.742 94.6792Z" fill="#FFB5C7" />
    <path d="M176.373 93.2618C176.13 92.0292 177.836 91.5978 178.08 92.8304C179.543 99.1165 186.127 97.8223 189.785 95.3571C190.272 94.9874 190.943 95.4188 191.126 95.9734C193.991 105.464 206.549 106.882 207.768 96.0351C207.829 95.3571 208.804 95.6037 208.865 96.22C209.353 101.274 205.695 105.526 201.002 106.019C195.881 106.512 191.553 102.506 189.785 97.699C184.908 100.287 177.715 100.657 176.373 93.2618Z" fill="#FFB5C7" />
    <path d="M192.101 83.9557C192.162 82.7232 193.625 82.5999 194.052 83.7092C195.15 86.5442 196.308 88.5779 199.478 89.071C202.282 89.564 205.574 89.0093 207.281 86.4825C207.829 85.6813 208.927 86.3593 208.561 87.2837C205.696 94.3711 191.553 92.892 192.101 83.9557Z" fill="#FFB5C7" />
    <path d="M182.287 74.8963C182.165 71.3218 186.432 69.5345 189.175 68.9183C193.016 68.1171 195.088 71.0753 196.552 74.4032C196.856 75.1428 196.003 75.6975 195.515 75.0195C193.747 72.5544 191.919 70.5206 188.87 71.4451C186.493 72.1846 185.152 73.1707 183.994 75.4509C183.567 76.3138 182.348 75.8207 182.287 74.8963Z" fill="#FFB5C7" />
    <path d="M163.877 77.9161C163.694 74.5881 165.827 71.445 168.814 70.6439C171.314 69.9659 175.459 70.2741 176.374 73.3555C176.617 74.0951 175.642 74.4032 175.276 73.8486C174.179 72.2462 170.887 72.2462 169.363 72.7393C167.108 73.4172 166.01 75.6358 165.949 78.0394C165.888 79.3952 163.938 79.2719 163.877 77.9161Z" fill="#FFB5C7" />
    <path d="M199.234 66.5764C198.99 64.6659 199.6 62.7554 200.88 61.4612C201.977 60.3519 203.684 59.6123 205.147 60.5984C205.818 61.0914 205.452 62.0775 204.659 61.8926C203.684 61.6461 202.648 62.6938 202.16 63.4333C201.611 64.3578 201.429 65.4671 201.55 66.5764C201.672 68.1171 199.417 68.1171 199.234 66.5764Z" fill="#FFB5C7" />
    <path d="M173.63 63.2484C174.301 63.0635 174.85 62.5705 174.971 61.8309C175.154 60.9681 175.642 60.4135 176.313 60.2286C176.983 60.0437 177.654 60.3518 178.263 60.9681C178.995 61.7693 180.214 61.8309 181.007 61.0914C181.799 60.3518 181.799 59.0576 181.067 58.2565C179.543 56.5308 177.41 55.8529 175.398 56.346C173.386 56.9006 171.862 58.5646 171.314 60.8449C171.07 61.8926 171.68 63.0019 172.716 63.31C173.021 63.3717 173.326 63.3717 173.63 63.2484Z" fill="#692861" />
    <path d="M215.266 52.2784C215.937 52.0936 216.486 51.5389 216.607 50.861C216.79 49.9982 217.278 49.4435 217.949 49.2586C218.619 49.0738 219.351 49.3203 219.899 49.9982C220.692 50.7994 221.911 50.861 222.643 50.1214C223.374 49.3819 223.374 48.0877 222.643 47.2865C220.997 45.5609 218.863 44.883 216.79 45.4376C214.779 45.9923 213.255 47.6563 212.767 49.9366C212.523 50.9842 213.194 52.0936 214.23 52.4017C214.657 52.4017 214.962 52.3401 215.266 52.2784Z" fill="#692861" />
    <g filter="url(#filter11_d)">
        <path d="M192.833 58.01C193.259 57.8867 193.564 57.5786 193.625 57.1472C194.235 54.3123 196.003 52.2169 198.38 51.6006C200.697 50.9843 203.318 51.9087 205.269 54.0658C205.695 54.5588 206.427 54.6204 206.915 54.1274C207.402 53.696 207.402 52.8948 206.915 52.4018C204.354 49.5668 200.94 48.3959 197.771 49.1971C194.601 50.0599 192.223 52.7715 191.431 56.4693C191.309 57.1472 191.674 57.7635 192.284 57.9484C192.467 58.01 192.65 58.01 192.833 58.01Z" fill="#9C3E64" />
    </g>
    <g filter="url(#filter12_d)">
        <path d="M162.901 58.6878C163.267 58.5645 163.572 58.3797 163.754 58.0099C164.059 57.332 163.815 56.4692 163.206 56.0994L153.025 50.4296C151.806 49.7516 150.465 49.6284 149.307 50.183C147.966 50.7993 146.929 52.2784 146.442 54.2505L146.198 55.2982C146.015 56.0378 146.442 56.7773 147.112 57.0238C147.783 57.2087 148.514 56.7773 148.697 56.0378L148.941 54.9901C149.246 53.8191 149.733 53.018 150.343 52.7714C150.77 52.5866 151.257 52.6482 151.806 52.9563L161.987 58.6262C162.291 58.7494 162.657 58.7494 162.901 58.6878Z" fill="#9C3E64" />
    </g>
    <g filter="url(#filter13_d)">
        <path d="M166.681 72.0614C166.132 71.7533 164.608 70.8905 162.353 61.3996C160.097 52.032 161.012 50.6146 161.317 50.0599C161.499 49.8134 161.682 49.6285 161.926 49.4436C166.011 46.8552 184.116 42.8493 188.871 43.5273C189.115 43.5889 189.358 43.6505 189.541 43.7738C190.151 44.1435 191.37 44.7598 193.199 51.8472C194.235 55.7914 195.82 62.7555 194.54 64.7892C194.174 65.4055 193.382 66.7614 180.946 70.0277C168.632 73.1708 167.23 72.3696 166.681 72.0614ZM191.004 60.1671C190.578 57.0856 189.48 52.3402 188.505 49.382C188.078 48.1494 186.981 47.3482 185.762 47.4715C180.763 47.9645 171.497 49.9983 166.559 51.6623C165.34 52.0937 164.608 53.3879 164.852 54.6821C165.34 57.9484 166.62 63.1253 167.717 66.2067C168.144 67.5009 169.363 68.3021 170.644 68.0556C175.398 67.2544 184.908 64.7276 189.358 63.1253C190.456 62.7555 191.187 61.4613 191.004 60.1671Z" fill="#FF3B86" />
    </g>
    <g filter="url(#filter14_d)">
        <path d="M208.256 61.0914C206.122 59.9205 204.049 53.0797 202.952 49.1354C201.062 42.0481 201.733 40.9388 202.099 40.3225C202.221 40.1376 202.404 39.9527 202.586 39.7678C206.427 36.8712 224.288 31.3246 229.165 31.5095C229.47 31.5095 229.775 31.5711 230.019 31.756C230.567 32.0642 232.152 32.8654 234.835 42.233C237.578 51.6622 236.724 53.1413 236.359 53.696C235.993 54.3122 235.2 55.6681 222.703 58.9344C210.267 62.2624 208.865 61.4612 208.256 61.0914ZM232.579 48.8889C231.97 45.7458 230.567 40.9388 229.409 37.9189C228.86 36.5015 227.397 35.6387 225.995 35.9468C220.875 36.9329 212.218 39.6445 207.585 41.6783C206.305 42.233 205.634 43.6504 205.939 45.0679C206.549 48.0261 207.89 52.4018 209.048 55.2367C209.597 56.5925 210.999 57.3937 212.34 57.1472C217.034 56.346 226.178 53.9425 230.75 52.3401C232.091 51.8471 232.884 50.368 232.579 48.8889Z" fill="#FF3B86" />
    </g>
    <path d="M170.217 77.7929C171.009 77.2998 171.984 77.0533 172.899 76.9301C173.752 76.8068 174.789 77.2382 174.971 78.2859C175.215 79.3336 174.667 80.1348 173.752 80.5045C173.082 80.751 172.289 81.1824 171.558 81.3057C170.704 81.4906 169.79 81.0592 169.485 80.1348C169.18 79.272 169.485 78.2859 170.217 77.7929Z" fill="white" />
    <path d="M224.227 65.2206C223.313 65.1589 222.276 65.4671 221.484 65.7752C220.631 66.0834 219.96 66.9462 220.326 67.9939C220.692 69.0416 221.545 69.473 222.52 69.3497C223.252 69.2265 224.166 69.2265 224.837 68.98C225.69 68.7334 226.239 67.8706 226.117 66.9462C225.934 65.9601 225.142 65.2822 224.227 65.2206Z" fill="white" />
    <path d="M187.651 78.6556C187.102 86.6674 196.003 91.4744 202.952 90.9198C209.414 90.3651 217.4 83.8941 217.461 76.93C217.461 73.8486 216.059 70.0892 213.194 68.6717C210.146 67.1926 208.195 69.288 205.939 70.7055C203.44 71.9381 200.819 72.1846 197.649 71.9381C195.82 71.8148 194.174 71.3834 192.406 72.0613C189.663 72.9858 187.834 75.7591 187.651 78.6556Z" fill="#692861" />
    <path d="M193.138 84.9418C194.418 86.2361 196.43 87.0989 198.136 87.5303C202.526 88.7012 207.281 87.2837 210.511 84.079C212.218 82.3534 213.925 79.9499 214.291 77.5464C214.901 73.3556 210.451 71.8149 207.22 73.4172C203.074 75.3894 199.051 74.5882 194.662 74.4649C194.235 74.4649 193.808 74.4649 193.382 74.5882C189.48 76.0673 191.004 82.7232 193.138 84.9418Z" fill="#692861" />
    <path d="M202.525 83.0929C203.988 84.2639 205.451 85.4348 206.914 86.6674C204.232 87.9616 201.123 88.3314 198.197 87.5918C196.49 87.1604 194.478 86.2976 193.198 85.0034C191.796 83.5243 190.638 80.1347 191.126 77.5463C195.149 78.594 198.807 80.258 202.525 83.0929Z" fill="#FF3B86" />
    <g filter="url(#filter15_d)">
        <path d="M226.422 188.848L221.667 190.266L220.265 195.073C219.96 196.059 218.558 196.059 218.314 195.073L216.912 190.266L212.157 188.848C211.182 188.54 211.182 187.123 212.157 186.876L216.912 185.459L218.314 180.652C218.619 179.665 220.021 179.665 220.265 180.652L221.667 185.459L226.422 186.876C227.398 187.184 227.398 188.54 226.422 188.848Z" fill="#0089EF" />
    </g>
    <g filter="url(#filter16_d)">
        <path d="M71.8259 72.123L68.1073 73.2323L67.01 76.9917C66.7661 77.7929 65.7298 77.7929 65.4859 76.9917L64.3887 73.2323L60.6701 72.123C59.8776 71.8765 59.8776 70.8288 60.6701 70.5823L64.3887 69.4729L65.4859 65.7136C65.7298 64.9124 66.7661 64.9124 67.01 65.7136L68.1073 69.4729L71.8259 70.5823C72.6183 70.7671 72.6183 71.8765 71.8259 72.123Z" fill="#FA3571" />
    </g>
    <g filter="url(#filter17_d)">
        <path d="M267.936 163.765L264.218 164.875L263.12 168.634C262.876 169.435 261.84 169.435 261.596 168.634L260.499 164.875L256.78 163.765C255.988 163.519 255.988 162.471 256.78 162.225L260.499 161.115L261.596 157.356C261.84 156.555 262.876 156.555 263.12 157.356L264.218 161.115L267.936 162.225C268.668 162.471 268.668 163.58 267.936 163.765Z" fill="#FA3571" />
    </g>
    <g filter="url(#filter18_d)">
        <path d="M82.9816 98.6235L80.6041 99.3014L79.8726 101.705C79.7506 102.198 79.0191 102.198 78.8972 101.705L78.2266 99.3014L75.8492 98.6235C75.3615 98.5002 75.3615 97.7607 75.8492 97.6374L78.2266 96.9595L78.8972 94.556C79.0191 94.063 79.7506 94.063 79.8726 94.556L80.6041 96.9595L82.9816 97.6374C83.4693 97.7607 83.4693 98.4386 82.9816 98.6235Z" fill="#FFDC5E" />
    </g>
    <g filter="url(#filter19_d)">
        <path d="M268.18 56.6541L265.803 57.332L265.071 59.7355C264.949 60.2286 264.218 60.2286 264.096 59.7355L263.425 57.332L261.048 56.6541C260.56 56.5308 260.56 55.7913 261.048 55.668L263.425 54.9901L264.096 52.5866C264.218 52.0935 264.949 52.0935 265.071 52.5866L265.803 54.9901L268.18 55.668C268.668 55.7913 268.668 56.4692 268.18 56.6541Z" fill="#FFDC5E" />
    </g>
    <g filter="url(#filter20_d)">
        <path d="M114.255 58.5646L111.877 59.2425L111.146 61.646C111.024 62.1391 110.292 62.1391 110.17 61.646L109.5 59.2425L107.122 58.5646C106.634 58.4413 106.634 57.7018 107.122 57.5785L109.5 56.9006L110.17 54.4971C110.292 54.0041 111.024 54.0041 111.146 54.4971L111.877 56.9006L114.255 57.5785C114.742 57.7018 114.742 58.4413 114.255 58.5646Z" fill="#FFDC5E" />
    </g>
    <g filter="url(#filter21_d)">
        <path d="M126.142 92.7687L122.423 93.8781L121.326 97.6374C121.082 98.4386 120.046 98.4386 119.802 97.6374L118.705 93.8781L114.986 92.7687C114.193 92.5222 114.193 91.4745 114.986 91.228L118.705 90.1187L119.802 86.3593C120.046 85.5581 121.082 85.5581 121.326 86.3593L122.423 90.1187L126.142 91.228C126.873 91.4745 126.873 92.5222 126.142 92.7687Z" fill="#0089EF" />
    </g>
    <defs>
        <filter id="filter0_d" x="208.438" y="0" width="33.0075" height="41.8074" filterUnits="userSpaceOnUse" color-interpolation-filters="sRGB">
            <feFlood flood-opacity="0" result="BackgroundImageFix" />
            <feColorMatrix in="SourceAlpha" type="matrix" values="0 0 0 0 0 0 0 0 0 0 0 0 0 0 0 0 0 0 127 0" />
            <feOffset dy="4" />
            <feGaussianBlur stdDeviation="2" />
            <feColorMatrix type="matrix" values="0 0 0 0 0 0 0 0 0 0 0 0 0 0 0 0 0 0 0.25 0" />
            <feBlend mode="normal" in2="BackgroundImageFix" result="effect1_dropShadow" />
            <feBlend mode="normal" in="SourceGraphic" in2="effect1_dropShadow" result="shape" />
        </filter>
        <filter id="filter1_d" x="76.416" y="120.022" width="68.733" height="34.0195" filterUnits="userSpaceOnUse" color-interpolation-filters="sRGB">
            <feFlood flood-opacity="0" result="BackgroundImageFix" />
            <feColorMatrix in="SourceAlpha" type="matrix" values="0 0 0 0 0 0 0 0 0 0 0 0 0 0 0 0 0 0 127 0" />
            <feOffset dy="4" />
            <feGaussianBlur stdDeviation="2" />
            <feColorMatrix type="matrix" values="0 0 0 0 0 0 0 0 0 0 0 0 0 0 0 0 0 0 0.25 0" />
            <feBlend mode="normal" in2="BackgroundImageFix" result="effect1_dropShadow" />
            <feBlend mode="normal" in="SourceGraphic" in2="effect1_dropShadow" result="shape" />
        </filter>
        <filter id="filter2_d" x="122.773" y="183.762" width="55.8324" height="54.1222" filterUnits="userSpaceOnUse" color-interpolation-filters="sRGB">
            <feFlood flood-opacity="0" result="BackgroundImageFix" />
            <feColorMatrix in="SourceAlpha" type="matrix" values="0 0 0 0 0 0 0 0 0 0 0 0 0 0 0 0 0 0 127 0" />
            <feOffset dy="4" />
            <feGaussianBlur stdDeviation="2" />
            <feColorMatrix type="matrix" values="0 0 0 0 0 0 0 0 0 0 0 0 0 0 0 0 0 0 0.25 0" />
            <feBlend mode="normal" in2="BackgroundImageFix" result="effect1_dropShadow" />
            <feBlend mode="normal" in="SourceGraphic" in2="effect1_dropShadow" result="shape" />
        </filter>
        <filter id="filter3_d" x="105.021" y="106.697" width="144.881" height="98.9251" filterUnits="userSpaceOnUse" color-interpolation-filters="sRGB">
            <feFlood flood-opacity="0" result="BackgroundImageFix" />
            <feColorMatrix in="SourceAlpha" type="matrix" values="0 0 0 0 0 0 0 0 0 0 0 0 0 0 0 0 0 0 127 0" />
            <feOffset dy="4" />
            <feGaussianBlur stdDeviation="2" />
            <feColorMatrix type="matrix" values="0 0 0 0 0 0 0 0 0 0 0 0 0 0 0 0 0 0 0.25 0" />
            <feBlend mode="normal" in2="BackgroundImageFix" result="effect1_dropShadow" />
            <feBlend mode="normal" in="SourceGraphic" in2="effect1_dropShadow" result="shape" />
        </filter>
        <filter id="filter4_d" x="110.686" y="74.8347" width="194.662" height="132.575" filterUnits="userSpaceOnUse" color-interpolation-filters="sRGB">
            <feFlood flood-opacity="0" result="BackgroundImageFix" />
            <feColorMatrix in="SourceAlpha" type="matrix" values="0 0 0 0 0 0 0 0 0 0 0 0 0 0 0 0 0 0 127 0" />
            <feOffset dy="4" />
            <feGaussianBlur stdDeviation="2" />
            <feColorMatrix type="matrix" values="0 0 0 0 0 0 0 0 0 0 0 0 0 0 0 0 0 0 0.25 0" />
            <feBlend mode="normal" in2="BackgroundImageFix" result="effect1_dropShadow" />
            <feBlend mode="normal" in="SourceGraphic" in2="effect1_dropShadow" result="shape" />
        </filter>
        <filter id="filter5_d" x="222.118" y="104.355" width="27.3855" height="27.598" filterUnits="userSpaceOnUse" color-interpolation-filters="sRGB">
            <feFlood flood-opacity="0" result="BackgroundImageFix" />
            <feColorMatrix in="SourceAlpha" type="matrix" values="0 0 0 0 0 0 0 0 0 0 0 0 0 0 0 0 0 0 127 0" />
            <feOffset dy="4" />
            <feGaussianBlur stdDeviation="2" />
            <feColorMatrix type="matrix" values="0 0 0 0 0 0 0 0 0 0 0 0 0 0 0 0 0 0 0.25 0" />
            <feBlend mode="normal" in2="BackgroundImageFix" result="effect1_dropShadow" />
            <feBlend mode="normal" in="SourceGraphic" in2="effect1_dropShadow" result="shape" />
        </filter>
        <filter id="filter6_d" x="100.168" y="154.209" width="62.2866" height="41.8852" filterUnits="userSpaceOnUse" color-interpolation-filters="sRGB">
            <feFlood flood-opacity="0" result="BackgroundImageFix" />
            <feColorMatrix in="SourceAlpha" type="matrix" values="0 0 0 0 0 0 0 0 0 0 0 0 0 0 0 0 0 0 127 0" />
            <feOffset dy="4" />
            <feGaussianBlur stdDeviation="2" />
            <feColorMatrix type="matrix" values="0 0 0 0 0 0 0 0 0 0 0 0 0 0 0 0 0 0 0.25 0" />
            <feBlend mode="normal" in2="BackgroundImageFix" result="effect1_dropShadow" />
            <feBlend mode="normal" in="SourceGraphic" in2="effect1_dropShadow" result="shape" />
        </filter>
        <filter id="filter7_d" x="0" y="176.514" width="108.216" height="74.5808" filterUnits="userSpaceOnUse" color-interpolation-filters="sRGB">
            <feFlood flood-opacity="0" result="BackgroundImageFix" />
            <feColorMatrix in="SourceAlpha" type="matrix" values="0 0 0 0 0 0 0 0 0 0 0 0 0 0 0 0 0 0 127 0" />
            <feOffset dy="4" />
            <feGaussianBlur stdDeviation="2" />
            <feColorMatrix type="matrix" values="0 0 0 0 0 0 0 0 0 0 0 0 0 0 0 0 0 0 0.25 0" />
            <feBlend mode="normal" in2="BackgroundImageFix" result="effect1_dropShadow" />
            <feBlend mode="normal" in="SourceGraphic" in2="effect1_dropShadow" result="shape" />
        </filter>
        <filter id="filter8_d" x="180.137" y="80.1042" width="75.8915" height="28.4945" filterUnits="userSpaceOnUse" color-interpolation-filters="sRGB">
            <feFlood flood-opacity="0" result="BackgroundImageFix" />
            <feColorMatrix in="SourceAlpha" type="matrix" values="0 0 0 0 0 0 0 0 0 0 0 0 0 0 0 0 0 0 127 0" />
            <feOffset dy="4" />
            <feGaussianBlur stdDeviation="2" />
            <feColorMatrix type="matrix" values="0 0 0 0 0 0 0 0 0 0 0 0 0 0 0 0 0 0 0.25 0" />
            <feBlend mode="normal" in2="BackgroundImageFix" result="effect1_dropShadow" />
            <feBlend mode="normal" in="SourceGraphic" in2="effect1_dropShadow" result="shape" />
        </filter>
        <filter id="filter9_d" x="165.406" y="87.7374" width="19.1072" height="48.3521" filterUnits="userSpaceOnUse" color-interpolation-filters="sRGB">
            <feFlood flood-opacity="0" result="BackgroundImageFix" />
            <feColorMatrix in="SourceAlpha" type="matrix" values="0 0 0 0 0 0 0 0 0 0 0 0 0 0 0 0 0 0 127 0" />
            <feOffset dy="4" />
            <feGaussianBlur stdDeviation="2" />
            <feColorMatrix type="matrix" values="0 0 0 0 0 0 0 0 0 0 0 0 0 0 0 0 0 0 0.25 0" />
            <feBlend mode="normal" in2="BackgroundImageFix" result="effect1_dropShadow" />
            <feBlend mode="normal" in="SourceGraphic" in2="effect1_dropShadow" result="shape" />
        </filter>
        <filter id="filter10_d" x="138.24" y="23.0149" width="104.548" height="94.7043" filterUnits="userSpaceOnUse" color-interpolation-filters="sRGB">
            <feFlood flood-opacity="0" result="BackgroundImageFix" />
            <feColorMatrix in="SourceAlpha" type="matrix" values="0 0 0 0 0 0 0 0 0 0 0 0 0 0 0 0 0 0 127 0" />
            <feOffset dy="4" />
            <feGaussianBlur stdDeviation="2" />
            <feColorMatrix type="matrix" values="0 0 0 0 0 0 0 0 0 0 0 0 0 0 0 0 0 0 0.25 0" />
            <feBlend mode="normal" in2="BackgroundImageFix" result="effect1_dropShadow" />
            <feBlend mode="normal" in="SourceGraphic" in2="effect1_dropShadow" result="shape" />
        </filter>
        <filter id="filter11_d" x="187.407" y="48.9503" width="23.8732" height="17.0597" filterUnits="userSpaceOnUse" color-interpolation-filters="sRGB">
            <feFlood flood-opacity="0" result="BackgroundImageFix" />
            <feColorMatrix in="SourceAlpha" type="matrix" values="0 0 0 0 0 0 0 0 0 0 0 0 0 0 0 0 0 0 127 0" />
            <feOffset dy="4" />
            <feGaussianBlur stdDeviation="2" />
            <feColorMatrix type="matrix" values="0 0 0 0 0 0 0 0 0 0 0 0 0 0 0 0 0 0 0.25 0" />
            <feBlend mode="normal" in2="BackgroundImageFix" result="effect1_dropShadow" />
            <feBlend mode="normal" in="SourceGraphic" in2="effect1_dropShadow" result="shape" />
        </filter>
        <filter id="filter12_d" x="142.155" y="49.8337" width="25.7304" height="16.8945" filterUnits="userSpaceOnUse" color-interpolation-filters="sRGB">
            <feFlood flood-opacity="0" result="BackgroundImageFix" />
            <feColorMatrix in="SourceAlpha" type="matrix" values="0 0 0 0 0 0 0 0 0 0 0 0 0 0 0 0 0 0 127 0" />
            <feOffset dy="4" />
            <feGaussianBlur stdDeviation="2" />
            <feColorMatrix type="matrix" values="0 0 0 0 0 0 0 0 0 0 0 0 0 0 0 0 0 0 0.25 0" />
            <feBlend mode="normal" in2="BackgroundImageFix" result="effect1_dropShadow" />
            <feBlend mode="normal" in="SourceGraphic" in2="effect1_dropShadow" result="shape" />
        </filter>
        <filter id="filter13_d" x="156.874" y="43.4512" width="42.1437" height="36.9327" filterUnits="userSpaceOnUse" color-interpolation-filters="sRGB">
            <feFlood flood-opacity="0" result="BackgroundImageFix" />
            <feColorMatrix in="SourceAlpha" type="matrix" values="0 0 0 0 0 0 0 0 0 0 0 0 0 0 0 0 0 0 127 0" />
            <feOffset dy="4" />
            <feGaussianBlur stdDeviation="2" />
            <feColorMatrix type="matrix" values="0 0 0 0 0 0 0 0 0 0 0 0 0 0 0 0 0 0 0.25 0" />
            <feBlend mode="normal" in2="BackgroundImageFix" result="effect1_dropShadow" />
            <feBlend mode="normal" in="SourceGraphic" in2="effect1_dropShadow" result="shape" />
        </filter>
        <filter id="filter14_d" x="197.678" y="31.505" width="43.0986" height="37.9455" filterUnits="userSpaceOnUse" color-interpolation-filters="sRGB">
            <feFlood flood-opacity="0" result="BackgroundImageFix" />
            <feColorMatrix in="SourceAlpha" type="matrix" values="0 0 0 0 0 0 0 0 0 0 0 0 0 0 0 0 0 0 127 0" />
            <feOffset dy="4" />
            <feGaussianBlur stdDeviation="2" />
            <feColorMatrix type="matrix" values="0 0 0 0 0 0 0 0 0 0 0 0 0 0 0 0 0 0 0.25 0" />
            <feBlend mode="normal" in2="BackgroundImageFix" result="effect1_dropShadow" />
            <feBlend mode="normal" in="SourceGraphic" in2="effect1_dropShadow" result="shape" />
        </filter>
        <filter id="filter15_d" x="207.426" y="179.912" width="23.7279" height="23.9003" filterUnits="userSpaceOnUse" color-interpolation-filters="sRGB">
            <feFlood flood-opacity="0" result="BackgroundImageFix" />
            <feColorMatrix in="SourceAlpha" type="matrix" values="0 0 0 0 0 0 0 0 0 0 0 0 0 0 0 0 0 0 127 0" />
            <feOffset dy="4" />
            <feGaussianBlur stdDeviation="2" />
            <feColorMatrix type="matrix" values="0 0 0 0 0 0 0 0 0 0 0 0 0 0 0 0 0 0 0.25 0" />
            <feBlend mode="normal" in2="BackgroundImageFix" result="effect1_dropShadow" />
            <feBlend mode="normal" in="SourceGraphic" in2="effect1_dropShadow" result="shape" />
        </filter>
        <filter id="filter16_d" x="56.0757" y="65.1127" width="20.3445" height="20.4799" filterUnits="userSpaceOnUse" color-interpolation-filters="sRGB">
            <feFlood flood-opacity="0" result="BackgroundImageFix" />
            <feColorMatrix in="SourceAlpha" type="matrix" values="0 0 0 0 0 0 0 0 0 0 0 0 0 0 0 0 0 0 127 0" />
            <feOffset dy="4" />
            <feGaussianBlur stdDeviation="2" />
            <feColorMatrix type="matrix" values="0 0 0 0 0 0 0 0 0 0 0 0 0 0 0 0 0 0 0.25 0" />
            <feBlend mode="normal" in2="BackgroundImageFix" result="effect1_dropShadow" />
            <feBlend mode="normal" in="SourceGraphic" in2="effect1_dropShadow" result="shape" />
        </filter>
        <filter id="filter17_d" x="252.186" y="156.755" width="20.2988" height="20.4798" filterUnits="userSpaceOnUse" color-interpolation-filters="sRGB">
            <feFlood flood-opacity="0" result="BackgroundImageFix" />
            <feColorMatrix in="SourceAlpha" type="matrix" values="0 0 0 0 0 0 0 0 0 0 0 0 0 0 0 0 0 0 127 0" />
            <feOffset dy="4" />
            <feGaussianBlur stdDeviation="2" />
            <feColorMatrix type="matrix" values="0 0 0 0 0 0 0 0 0 0 0 0 0 0 0 0 0 0 0.25 0" />
            <feBlend mode="normal" in2="BackgroundImageFix" result="effect1_dropShadow" />
            <feBlend mode="normal" in="SourceGraphic" in2="effect1_dropShadow" result="shape" />
        </filter>
        <filter id="filter18_d" x="71.4834" y="94.1862" width="15.8639" height="15.8885" filterUnits="userSpaceOnUse" color-interpolation-filters="sRGB">
            <feFlood flood-opacity="0" result="BackgroundImageFix" />
            <feColorMatrix in="SourceAlpha" type="matrix" values="0 0 0 0 0 0 0 0 0 0 0 0 0 0 0 0 0 0 127 0" />
            <feOffset dy="4" />
            <feGaussianBlur stdDeviation="2" />
            <feColorMatrix type="matrix" values="0 0 0 0 0 0 0 0 0 0 0 0 0 0 0 0 0 0 0.25 0" />
            <feBlend mode="normal" in2="BackgroundImageFix" result="effect1_dropShadow" />
            <feBlend mode="normal" in="SourceGraphic" in2="effect1_dropShadow" result="shape" />
        </filter>
        <filter id="filter19_d" x="256.682" y="52.2168" width="15.8639" height="15.8885" filterUnits="userSpaceOnUse" color-interpolation-filters="sRGB">
            <feFlood flood-opacity="0" result="BackgroundImageFix" />
            <feColorMatrix in="SourceAlpha" type="matrix" values="0 0 0 0 0 0 0 0 0 0 0 0 0 0 0 0 0 0 127 0" />
            <feOffset dy="4" />
            <feGaussianBlur stdDeviation="2" />
            <feColorMatrix type="matrix" values="0 0 0 0 0 0 0 0 0 0 0 0 0 0 0 0 0 0 0.25 0" />
            <feBlend mode="normal" in2="BackgroundImageFix" result="effect1_dropShadow" />
            <feBlend mode="normal" in="SourceGraphic" in2="effect1_dropShadow" result="shape" />
        </filter>
        <filter id="filter20_d" x="102.756" y="54.1273" width="15.8639" height="15.8885" filterUnits="userSpaceOnUse" color-interpolation-filters="sRGB">
            <feFlood flood-opacity="0" result="BackgroundImageFix" />
            <feColorMatrix in="SourceAlpha" type="matrix" values="0 0 0 0 0 0 0 0 0 0 0 0 0 0 0 0 0 0 127 0" />
            <feOffset dy="4" />
            <feGaussianBlur stdDeviation="2" />
            <feColorMatrix type="matrix" values="0 0 0 0 0 0 0 0 0 0 0 0 0 0 0 0 0 0 0.25 0" />
            <feBlend mode="normal" in2="BackgroundImageFix" result="effect1_dropShadow" />
            <feBlend mode="normal" in="SourceGraphic" in2="effect1_dropShadow" result="shape" />
        </filter>
        <filter id="filter21_d" x="110.392" y="85.7584" width="20.2988" height="20.4799" filterUnits="userSpaceOnUse" color-interpolation-filters="sRGB">
            <feFlood flood-opacity="0" result="BackgroundImageFix" />
            <feColorMatrix in="SourceAlpha" type="matrix" values="0 0 0 0 0 0 0 0 0 0 0 0 0 0 0 0 0 0 127 0" />
            <feOffset dy="4" />
            <feGaussianBlur stdDeviation="2" />
            <feColorMatrix type="matrix" values="0 0 0 0 0 0 0 0 0 0 0 0 0 0 0 0 0 0 0.25 0" />
            <feBlend mode="normal" in2="BackgroundImageFix" result="effect1_dropShadow" />
            <feBlend mode="normal" in="SourceGraphic" in2="effect1_dropShadow" result="shape" />
        </filter>
    </defs>
</svg>
