<svg width="205" height="298" viewBox="0 0 205 298" fill="none" xmlns="http://www.w3.org/2000/svg">
    <path d="M104.791 297.612C159.709 297.612 204.229 294.533 204.229 290.735C204.229 286.937 159.709 283.858 104.791 283.858C49.8732 283.858 5.35352 286.937 5.35352 290.735C5.35352 294.533 49.8732 297.612 104.791 297.612Z" fill="#E6E1F5" />
    <path d="M159.391 260.914C159.693 264.931 156.378 266.696 153.244 267.487C149.809 268.339 146.495 266.878 145.651 263.044C144.868 259.454 146.615 255.376 148.725 252.577C149.026 252.211 149.387 251.907 149.689 251.785C150.593 251.055 151.979 250.933 152.762 251.785C155.233 254.281 159.09 257.08 159.391 260.914Z" fill="#5E1C4F" />
    <path d="M191.212 217.34C192.055 218.983 192.598 220.748 192.959 222.513C193.261 224.278 193.321 226.103 193.02 227.868C192.417 231.459 190.308 234.684 187.535 237.18C184.582 239.918 180.906 241.926 177.17 243.57C173.433 245.274 169.456 246.369 165.478 247.525C163.49 248.012 161.501 248.499 159.452 248.925L153.365 250.081C152.341 250.325 151.256 250.629 150.292 251.238C149.327 251.785 148.423 252.698 148.002 253.794C147.519 254.889 147.519 256.045 147.64 257.141C147.76 258.236 148.122 259.271 148.484 260.306C149.026 261.644 150.111 261.097 149.689 259.819C149.388 258.845 149.207 257.932 149.147 256.958C149.086 256.045 149.207 255.193 149.568 254.463C150.231 253.124 151.919 252.455 153.727 252.151L159.874 251.177C161.923 250.812 163.972 250.325 166.081 249.899C170.179 248.864 174.277 247.708 178.194 246.004C182.112 244.361 186.029 242.292 189.404 239.31C192.537 236.571 195.249 232.859 196.153 228.416C196.575 226.225 196.575 223.973 196.274 221.843C195.852 219.713 195.31 217.644 194.406 215.758C194.044 214.784 193.441 213.871 193.02 212.958C192.477 212.045 191.935 211.132 191.332 210.22C190.127 208.394 188.741 206.751 187.294 205.168C184.281 202.065 180.846 199.509 177.11 198.413C175.061 197.865 174.277 199.448 175.904 200.665C178.556 202.917 181.509 205.473 184.281 208.211C185.667 209.611 186.993 211.011 188.138 212.532C188.741 213.262 189.283 214.054 189.826 214.845C190.368 215.697 190.91 216.488 191.212 217.34Z" fill="#5E1C4F" />
    <path d="M23.494 150.092C22.59 147.536 21.5655 145.588 19.3357 145.953C14.6953 146.745 8.36746 156.908 16.5635 161.777C18.8536 163.115 21.1436 163.115 23.0721 163.115C23.8556 163.115 24.639 163.055 25.1211 162.324C25.6032 161.594 25.6032 160.377 25.4827 159.342C25.2417 156.299 24.5787 153.135 23.494 150.092Z" fill="#5E1C4F" />
    <path d="M75.4427 196.709C69.1149 193.544 62.8473 190.258 56.8811 186.424C50.4929 182.407 44.4664 177.721 38.681 172.853C32.8353 167.984 27.3511 162.75 21.8067 157.516C20.8425 156.604 20.0591 157.516 20.9028 158.429C25.965 164.15 31.2684 169.688 37.1141 174.739C42.8995 179.851 48.9863 184.598 55.3744 188.919C61.3407 192.936 67.548 196.587 73.8155 199.934C76.8891 201.578 80.2036 203.525 83.3374 205.351C86.4712 207.237 89.605 209.002 92.558 210.524C94.1249 211.254 95.5713 210.28 94.2454 208.576C92.0156 205.716 88.8216 203.525 85.507 201.638C82.0719 199.752 78.5765 198.291 75.4427 196.709Z" fill="#5E1C4F" />
    <path d="M84.1207 292.56C89.6048 294.934 97.3187 293.351 102.501 291.769C104.49 291.161 103.586 288.361 101.778 288.118C95.7518 285.501 87.4955 284.162 83.036 289.335C82.132 290.43 82.9154 292.013 84.1207 292.56Z" fill="#5E1C4F" />
    <path d="M97.4395 237.666L101.959 291.587L97.4395 237.666Z" fill="#5E1C4F" />
    <path d="M102.261 277.712C101.658 273.513 101.056 269.374 100.574 265.175C99.4888 256.168 99.0067 247.161 97.9219 238.215C97.8014 237.424 96.6563 237.607 96.5961 238.337C96.2345 247.405 96.9577 256.473 97.6206 265.479C97.9219 269.679 98.2232 273.878 98.6451 278.077C99.0669 282.215 98.8259 287.145 100.875 290.918C101.417 291.892 103.165 291.953 103.406 290.675C104.37 286.475 102.864 281.85 102.261 277.712Z" fill="#5E1C4F" />
    <path d="M141.192 288.848C135.889 283.797 127.994 285.075 122.51 287.631C120.822 287.874 120.401 290.674 122.45 291.221C127.934 292.804 135.828 294.325 140.77 292.012C141.855 291.526 142.337 289.943 141.192 288.848Z" fill="#5E1C4F" />
    <path d="M106.721 234.38L122.993 291.1L106.721 234.38Z" fill="#5E1C4F" />
    <path d="M120.28 276.189C118.773 271.868 117.267 267.487 115.88 263.105C112.867 253.733 110.396 244.178 107.383 234.806C107.142 234.015 105.997 234.38 106.118 235.171C107.745 244.908 110.457 254.463 113.048 263.896C114.253 268.339 115.459 272.781 116.845 277.163C118.171 281.484 119.014 286.779 121.847 290.43C122.57 291.404 124.318 291.1 124.318 289.7C124.257 285.135 121.786 280.51 120.28 276.189Z" fill="#5E1C4F" />
    <path d="M176.206 237.666C169.998 242.9 161.441 244.117 154.51 240.892C153.425 249.351 146.194 257.445 137.756 259.879C131.368 261.705 125.523 260.731 121.786 255.133C120.581 253.368 119.677 251.481 118.893 249.534C117.507 250.933 115.94 252.09 114.554 253.124C108.287 257.506 100.934 260.366 93.5218 258.662C86.5311 257.08 81.8304 251.785 80.5046 244.665C72.9112 247.525 62.5456 244.787 58.8694 238.336C55.9767 233.224 55.9767 226.773 57.8449 220.748C57.6038 220.809 57.3025 220.809 57.0012 220.869C54.1687 220.991 51.4568 220.2 49.1667 218.618C44.1044 215.21 42.2965 208.759 43.5018 202.734C44.466 197.987 47.1779 193.605 50.8541 190.258C47.419 186.606 46.3945 179.851 48.8654 175.165C50.1309 172.731 51.8786 170.783 53.8674 169.262C50.2515 159.951 57.0614 143.641 65.7999 139.016C71.4648 136.034 76.9489 137.312 81.288 140.598C83.3973 135.182 87.8569 131.104 94.1245 132.26C99.6086 133.295 102.742 136.703 104.309 141.267C104.671 140.78 105.032 140.354 105.454 139.928C109.552 135.303 116.061 129.278 122.63 130.982C128.114 132.382 130.766 137.677 131.67 143.032C132.634 142.241 133.658 141.511 134.864 140.841C140.649 137.738 149.026 135.242 153.365 141.572C154.631 143.458 155.233 145.588 155.294 147.84C160.055 145.527 166.804 144.189 170.902 147.84C175.663 152.1 175.603 160.316 173.915 166.158C173.674 166.949 173.433 167.741 173.132 168.532C174.157 168.471 175.241 168.532 176.386 168.714C188.078 170.662 193.321 189.284 185.185 198.17C183.317 200.178 181.208 201.943 178.857 203.525C181.147 205.898 182.895 209.124 183.799 212.654C186.21 221.539 183.498 231.58 176.206 237.666Z" fill="#FFC1D0" />
    <path d="M175.965 172.366C174.277 172.001 172.047 172.062 169.938 172.609C170.36 171.331 170.601 169.871 170.782 168.714C171.204 165.367 170.842 161.716 169.396 158.734C168.733 157.273 166.322 158.064 166.804 159.707C167.588 162.689 168.251 165.428 167.829 168.593C167.588 170.358 166.684 172.244 166.563 174.009C164.394 175.348 162.827 177.417 163.188 180.277C163.309 181.251 164.514 181.495 165.117 180.947C166.202 179.973 166.684 178.695 167.829 177.661C169.516 176.078 172.168 175.53 174.338 175.896C179.34 176.626 181.268 181.921 181.569 186.546C181.69 188.25 184.04 189.041 184.583 187.093C186.21 181.251 181.509 173.583 175.965 172.366Z" fill="#FFB5C7" />
    <path d="M163.731 151.918C162.707 151.309 161.561 151.309 160.477 151.066C159.332 150.761 158.428 152.405 159.512 153.074C160.416 153.622 161.26 154.535 162.345 154.839C163.068 155.021 163.912 154.717 164.213 153.987C164.575 153.317 164.454 152.344 163.731 151.918Z" fill="#FFB5C7" />
    <path d="M154.389 153.196C153.063 148.144 150.352 143.641 144.928 143.032C140.528 142.545 134.803 143.58 132.694 148.084C132.332 148.875 133.417 149.422 134.02 148.996C136.43 146.927 141.011 146.136 144.084 146.562C148.544 147.232 149.387 150.761 150.834 154.534C151.617 156.604 154.992 155.326 154.389 153.196Z" fill="#FFB5C7" />
    <path d="M148.303 168.836C147.218 168.775 146.133 166.402 145.712 165.55C145.47 165.002 145.229 164.515 145.049 163.967C145.049 163.602 144.988 163.237 144.808 162.994C144.627 162.142 144.687 161.29 144.928 160.377C145.29 159.16 143.602 158.612 143.18 159.768C142.819 160.681 142.638 161.655 142.578 162.568C137.395 163.602 133.056 166.584 130.163 171.149C127.21 167.68 122.449 166.767 117.99 168.654C113.47 170.54 106.539 176.748 109.914 182.164C110.577 183.259 112.445 182.773 112.204 181.312C110.758 173.035 124.92 167.558 128.898 174.922C129.621 176.261 131.188 175.957 131.79 174.678C134.08 169.81 137.998 166.828 142.879 165.55C143.06 166.341 143.301 167.132 143.602 167.923C144.386 169.688 146.555 173.766 148.966 172.062C150.171 171.088 149.99 168.958 148.303 168.836Z" fill="#FFB5C7" />
    <path d="M118.713 137.19C113.289 136.703 108.347 141.267 107.323 146.501C107.142 147.292 108.407 147.658 108.769 146.988C109.793 145.223 111.36 143.641 112.987 142.485C114.856 141.146 116.724 140.841 118.833 140.476C120.762 140.111 120.46 137.312 118.713 137.19Z" fill="#FFB5C7" />
    <path d="M106.057 151.248C105.032 147.901 103.948 144.615 101.296 142.302C98.4634 139.868 94.968 138.468 91.2316 138.225C90.0865 138.164 89.6044 140.111 90.7495 140.355C93.3409 140.902 96.0528 142.728 98.1019 144.31C100.633 146.258 101.597 148.936 102.501 151.978C103.164 154.291 106.72 153.5 106.057 151.248Z" fill="#FFB5C7" />
    <path d="M111.36 159.281C108.95 156.482 105.876 155.569 102.2 156.117C98.9458 156.604 95.4504 157.699 94.004 160.985C93.6425 161.777 94.6067 162.568 95.3299 162.142C98.4637 160.316 102.923 158.429 106.358 160.073C107.564 160.681 110.095 164.15 111.481 161.594C111.903 160.925 111.963 159.951 111.36 159.281Z" fill="#FFB5C7" />
    <path d="M69.4761 144.25C66.8847 143.702 64.0523 145.954 62.4251 147.901C60.4364 150.214 59.7735 152.831 59.9543 155.752C60.0145 156.482 61.2198 156.543 61.4006 155.813C62.0033 153.622 63.2086 151.613 64.7755 150.031C66.2821 148.449 68.3914 148.023 69.8377 146.623C70.5609 145.954 70.5609 144.493 69.4761 144.25Z" fill="#FFB5C7" />
    <path d="M77.431 169.323C77.2502 168.654 76.527 168.288 75.9243 168.836C74.8998 169.749 74.9601 170.236 74.1164 171.392C72.9713 172.974 71.1634 173.948 69.2952 174.313C66.523 174.8 62.0633 173.887 60.3157 171.27C60.4362 171.027 60.4362 170.784 60.4362 170.54C59.8938 167.558 59.7733 164.576 59.5925 161.533C59.5322 160.316 57.7243 160.62 57.5435 161.716C57.3024 163.359 57.2421 164.941 57.3024 166.584C57.4229 169.08 57.7242 169.627 56.2176 171.514C54.5302 173.583 52.662 175.104 52.1196 177.904C51.4567 181.312 54.1686 188.676 58.3269 187.398C59.4719 187.033 59.5925 185.511 58.568 185.085C55.3136 183.746 54.2891 179.304 55.7355 176.261C56.4587 174.8 57.6037 173.705 58.8693 172.67C60.4964 176.078 64.6547 177.478 68.4515 177.234C71.9468 177.113 78.7568 173.826 77.431 169.323Z" fill="#FFB5C7" />
    <path d="M80.8664 155.691C76.7081 153.317 69.0544 155.204 67.4875 160.438C67.2465 161.29 68.1504 161.959 68.8736 161.411C70.4405 160.133 71.9471 158.794 73.8756 158.186C75.8644 157.577 77.612 157.882 79.5405 158.369C80.9869 158.795 82.373 156.543 80.8664 155.691Z" fill="#FFB5C7" />
    <path d="M66.2218 196.709C59.5926 193.544 46.6959 196.831 47.7807 206.629C47.8409 207.42 49.0462 207.481 49.2873 206.69C50.2515 203.221 52.8429 200.3 56.1575 199.204C59.4721 198.17 62.4251 199.083 65.6192 199.63C67.3066 199.935 67.4874 197.378 66.2218 196.709Z" fill="#FFB5C7" />
    <path d="M55.9767 213.993C55.5548 213.628 55.0727 213.749 54.6509 213.445C54.3495 213.202 54.2893 212.776 54.3495 212.349C54.4701 211.437 53.084 211.193 52.8429 212.106C52.3608 213.871 53.6866 216.975 55.7959 216.001C56.6396 215.575 56.5191 214.48 55.9767 213.993Z" fill="#FFB5C7" />
    <path d="M69.5364 211.437C67.849 209.124 63.3894 205.473 60.798 208.881C60.2556 209.55 61.0993 210.646 61.8225 210.159C63.5702 209.002 67.1258 213.993 67.4874 215.21C68.2105 217.948 67.1258 220.748 66.4026 223.426C65.8 225.617 68.7529 226.651 69.5966 224.46C71.1635 220.261 72.1277 215.088 69.5364 211.437Z" fill="#FFB5C7" />
    <path d="M79.2391 236.814C77.9735 236.875 77.19 237.119 75.9245 237.545C73.4536 238.397 72.2483 238.275 70.0185 237.423C66.1012 235.902 62.3648 233.285 62.7866 228.294C62.8469 227.321 61.5813 227.138 61.2197 228.051C59.5926 232.494 61.7019 236.449 65.1973 238.762C70.0787 241.987 73.8152 241.744 79.3596 240.344C81.2278 239.857 81.2278 236.693 79.2391 236.814Z" fill="#FFB5C7" />
    <path d="M93.763 208.759C91.3524 207.968 88.1583 207.724 85.5669 208.82C85.6874 203.829 83.5179 198.839 79.2993 197.318C85.3861 195.066 87.2543 185.146 83.3371 180.399C82.0112 178.756 79.4198 181.069 80.8059 182.712C82.6139 184.842 82.7344 188.311 81.6497 190.928C80.5649 193.605 78.3953 195.127 76.2861 196.892C76.045 197.074 76.045 197.378 76.2258 197.561C76.2258 197.744 76.2258 197.926 76.4066 198.048C78.8775 200.665 81.7099 202.065 82.4934 206.02C83.2768 210.402 81.047 213.384 79.4198 217.279C78.8775 218.618 80.5046 219.47 81.4689 218.679C83.3974 217.036 84.6629 214.723 85.3258 212.167C87.857 211.741 90.2073 211.071 92.859 212.045C94.5464 212.654 95.9928 213.688 97.1378 215.088C97.9815 216.123 98.2828 216.67 99.5484 217.096C100.211 217.34 100.814 216.792 100.935 216.062C101.236 212.471 96.5352 209.672 93.763 208.759Z" fill="#FFB5C7" />
    <path d="M166.624 205.047C167.95 197.074 163.189 190.562 155.957 189.71C156.861 185.146 155.535 180.156 151.377 177.843C147.098 175.47 140.529 176.991 139.022 182.286C138.781 183.016 139.625 183.685 140.227 183.138C143 180.582 146.254 178.086 150.111 180.521C153.546 182.651 153.847 187.154 152.582 190.745C152.22 191.658 152.943 192.814 153.908 192.753C160.537 192.692 164.695 198.048 163.55 204.925C163.249 206.933 166.262 207.055 166.624 205.047Z" fill="#FFB5C7" />
    <path d="M177.833 217.888C177.411 216.427 175.242 216.853 175.543 218.435C177.773 228.416 168.492 239.188 158.849 234.623C157.765 234.137 157.102 235.902 158.006 236.51C162.646 239.979 169.215 238.64 173.494 234.867C178.195 230.789 179.641 223.852 177.833 217.888Z" fill="#FFB5C7" />
    <path d="M149.207 239.857C152.16 238.092 154.63 234.502 154.269 230.911C154.088 229.207 151.979 229.572 151.436 230.789C150.352 233.224 149.628 235.536 147.218 236.875C144.988 238.092 142.276 237.91 140.046 237.119C139.142 236.814 138.178 238.153 138.962 238.884C140.95 240.709 143.421 241.44 145.952 241.074C144.506 245.517 143.24 249.351 138.299 250.629C136.491 251.116 134.442 251.481 132.634 251.359C129.319 251.238 127.391 248.682 125.523 246.187C124.92 245.335 123.715 246.369 124.076 247.282C126.728 254.524 132.031 255.619 138.962 254.037C145.41 252.577 148.242 246.917 149.327 240.466C149.267 240.283 149.267 240.04 149.207 239.857Z" fill="#FFB5C7" />
    <path d="M134.985 236.875C135.407 235.11 132.936 234.258 132.454 236.023C129.742 245.274 119.979 242.779 114.675 238.701C113.952 238.153 112.867 238.64 112.566 239.492C107.383 253.429 88.4599 254.342 87.6162 237.971C87.5559 236.936 86.1698 237.24 85.989 238.153C84.7837 245.7 89.9062 252.394 96.897 253.49C104.49 254.707 111.3 249.108 114.434 242.109C121.546 246.552 132.212 247.83 134.985 236.875Z" fill="#FFB5C7" />
    <path d="M112.265 221.478C112.265 219.652 110.095 219.348 109.312 220.991C107.383 225.191 105.455 227.99 100.754 228.477C96.4752 228.903 91.654 227.807 89.3639 223.852C88.6407 222.634 86.893 223.547 87.3751 224.947C90.991 235.78 112.325 234.867 112.265 221.478Z" fill="#FFB5C7" />
    <path d="M127.813 208.881C128.355 203.525 122.087 200.482 117.989 199.326C112.324 197.744 108.95 201.943 106.419 206.811C105.876 207.907 107.142 208.759 107.865 207.846C110.697 204.316 113.65 201.456 118.17 203.16C121.726 204.499 123.594 206.081 125.101 209.55C125.703 210.889 127.692 210.28 127.813 208.881Z" fill="#FFB5C7" />
    <path d="M155.053 215.088C155.595 210.159 152.763 205.29 148.303 203.708C144.627 202.43 138.419 202.551 136.732 206.994C136.31 208.089 137.756 208.637 138.359 207.785C140.167 205.533 145.109 205.838 147.339 206.69C150.653 207.907 152.1 211.376 151.979 214.906C151.859 217.096 154.812 217.157 155.053 215.088Z" fill="#FFB5C7" />
    <path d="M103.285 194.822C103.827 192.023 103.104 189.102 101.296 187.033C99.7896 185.207 97.3188 183.99 95.0287 185.389C94.0043 186.059 94.4864 187.641 95.6916 187.398C97.1982 187.154 98.6446 188.798 99.3075 189.954C100.091 191.414 100.211 193.058 99.9101 194.64C99.428 196.952 102.863 197.074 103.285 194.822Z" fill="#FFB5C7" />
    <path d="M129.138 193.849C128.536 193.666 128.114 193.118 127.993 192.449C127.33 188.128 124.86 184.902 121.424 183.746C117.989 182.59 114.072 183.746 110.938 186.789C110.215 187.459 109.13 187.459 108.467 186.728C107.804 185.998 107.865 184.842 108.588 184.172C112.686 180.156 117.929 178.756 122.569 180.277C127.21 181.86 130.524 186.12 131.428 191.719C131.609 192.692 130.946 193.666 129.982 193.849C129.681 193.97 129.44 193.909 129.138 193.849Z" fill="#9C3E64" />
    <path d="M72.0673 164.819C71.7057 164.698 71.4647 164.515 71.2236 164.15L61.3401 149.727C60.6772 148.753 59.8335 148.205 58.8089 148.023C57.6036 147.84 56.1573 148.327 54.7712 149.301L53.5659 150.213C52.7824 150.822 51.6374 150.639 51.095 149.848C50.5526 149.057 50.7334 147.962 51.5771 147.353L52.7824 146.44C54.952 144.858 57.3023 144.128 59.4719 144.432C61.4004 144.736 63.0878 145.771 64.2931 147.536L74.1766 162.02C74.719 162.811 74.5382 163.967 73.6945 164.515C73.2124 164.941 72.6097 165.002 72.0673 164.819Z" fill="#9C3E64" />
    <path d="M173.554 197.622C173.132 197.5 172.71 197.135 172.529 196.648C172.168 195.735 172.529 194.64 173.433 194.275L187.113 187.763C188.801 186.972 190.488 186.972 191.934 187.763C193.622 188.676 194.827 190.623 195.309 193.24L195.55 194.64C195.731 195.614 195.128 196.587 194.224 196.77C193.321 196.952 192.417 196.344 192.236 195.37L191.995 193.97C191.693 192.449 191.091 191.353 190.368 190.927C189.825 190.623 189.223 190.684 188.499 191.049L174.819 197.561C174.397 197.744 173.915 197.744 173.554 197.622Z" fill="#9C3E64" />
    <path d="M145.771 212.836C127.571 206.811 126.426 204.681 125.944 203.769C124.257 200.604 127.27 190.319 129.199 184.537C132.634 174.131 134.442 173.279 135.466 172.792C135.767 172.609 136.129 172.548 136.491 172.548C143.662 172.062 170.36 179.73 176.205 183.99C176.567 184.233 176.868 184.598 177.049 184.963C177.531 185.815 178.736 188.067 174.458 201.821C170.179 215.758 167.828 216.914 166.985 217.34C166.081 217.766 163.971 218.861 145.771 212.836ZM133.899 201.943C140.408 204.803 154.45 209.489 161.44 211.071C163.309 211.497 165.177 210.463 165.96 208.576C167.828 204.012 170.179 196.466 171.264 191.597C171.685 189.649 170.721 187.641 168.973 186.911C161.802 183.929 148.122 180.034 140.709 178.817C138.901 178.512 137.093 179.608 136.37 181.434C134.622 185.755 132.513 192.753 131.669 197.318C131.308 199.265 132.212 201.152 133.899 201.943Z" fill="#FF3B86" />
    <path d="M84.2407 192.51C65.7996 186.424 64.7148 184.294 64.2929 183.381C63.8711 182.529 62.6658 180.216 67.6678 166.341C72.6095 152.648 74.9598 151.613 75.8638 151.187C76.2857 151.005 76.7075 150.883 77.1294 150.944C84.4817 151.126 110.697 161.107 116.121 165.793C116.362 166.037 116.603 166.28 116.784 166.645C117.266 167.619 118.23 169.384 114.735 179.79C112.806 185.572 109.01 195.553 105.755 197.135C104.851 197.5 102.621 198.596 84.2407 192.51ZM72.9711 181.799C79.6605 184.659 93.0996 189.102 100.09 190.745C102.139 191.232 104.249 190.136 105.213 188.189C107.141 184.111 109.552 177.66 110.757 173.279C111.36 171.209 110.396 169.019 108.588 168.106C101.898 164.637 89.1221 159.768 81.589 157.76C79.4797 157.212 77.1897 158.308 76.2857 160.377C74.2969 164.88 71.7658 171.818 70.5605 176.504C69.9578 178.695 70.9824 180.947 72.9711 181.799Z" fill="#FF3B86" />
    <path d="M156.197 221.539C155.113 220.748 153.606 220.322 152.28 220.018C150.954 219.713 149.448 220.261 149.026 221.782C148.604 223.304 149.327 224.582 150.653 225.191C151.617 225.617 152.822 226.347 153.847 226.651C155.113 227.016 156.499 226.408 157.101 225.13C157.704 223.791 157.342 222.33 156.197 221.539Z" fill="white" />
    <path d="M73.0314 194.092C74.4175 194.092 75.8639 194.64 77.1294 195.187C78.3347 195.735 79.2387 197.135 78.6963 198.596C78.0937 200.117 76.7679 200.665 75.3215 200.36C74.2367 200.117 72.8506 199.995 71.8864 199.63C70.6208 199.143 69.8976 197.865 70.1989 196.465C70.44 195.005 71.7056 194.031 73.0314 194.092Z" fill="white" />
    <path d="M114.795 236.693C112.445 236.693 109.793 236.51 106.66 235.901C104.49 235.475 102.441 234.928 100.633 234.197C98.3429 233.224 96.2939 232.128 94.6065 230.729C89.9661 226.955 87.3747 220.2 88.4594 214.662C89.3032 210.341 92.3164 207.177 96.5952 205.959L97.5595 205.655L98.584 205.838C101.597 206.325 104.189 208.089 106.72 209.733C108.226 210.767 109.914 211.863 110.938 212.167C111.662 212.349 112.324 212.41 112.927 212.41C117.507 212.471 128.174 212.532 130.585 220.444C131.428 223 131.067 226.042 129.56 229.329L129.44 229.633H129.259C125.462 235.354 120.581 236.327 117.146 236.327C116.362 236.267 115.579 236.693 114.795 236.693Z" fill="#692861" />
    <path d="M125.402 227.32C123.233 230.668 120.4 232.25 116.905 232.189C113.952 232.554 110.456 232.007 107.564 231.459C105.816 231.094 104.008 230.607 102.321 229.937C100.573 229.207 98.9458 228.294 97.4994 227.138C92.3166 222.878 90.2073 212.654 97.861 210.463C101.718 211.071 105.997 215.757 109.854 216.731C110.878 216.975 111.903 217.157 112.927 217.157C117.809 217.218 124.86 217.644 126.186 221.904C126.607 223.182 126.427 225.008 125.402 227.32Z" fill="#692861" />
    <path d="M113.53 222.756C106.84 219.044 100.874 221.113 94.8477 223.973C95.5708 225.19 96.4748 226.286 97.4993 227.138C98.9457 228.294 100.633 229.268 102.321 229.937C104.008 230.607 105.756 231.094 107.564 231.459C110.396 232.007 113.952 232.554 116.905 232.189C118.532 232.25 120.039 231.885 121.425 231.155C119.255 227.99 117.146 224.764 113.53 222.756Z" fill="#FF3B86" />
    <path d="M155.233 192.327C154.751 190.38 153.486 188.737 151.256 189.163C150.352 189.345 149.508 189.832 148.845 190.441C147.037 192.145 146.133 195.309 146.796 197.683C147.098 198.717 147.76 199.691 148.725 200.056C151.316 201.091 154.269 198.474 155.113 196.161C155.474 195.066 155.535 193.605 155.233 192.327Z" fill="#692861" />
    <path d="M94.9681 172.001C94.486 170.053 93.2204 168.41 90.9906 168.836C90.0866 169.019 89.2429 169.505 88.58 170.114C86.7721 171.818 85.8681 174.983 86.531 177.356C86.8324 178.391 87.4953 179.364 88.4595 179.73C91.0509 180.764 94.0038 178.147 94.8475 175.835C95.2091 174.739 95.2694 173.339 94.9681 172.001Z" fill="#692861" />
    <path d="M2.58154 26.7329C2.58154 26.7329 32.5936 0.138005 64.7752 7.44095C122.811 20.708 161.32 6.2238 173.915 0.198864C175.603 -0.592289 177.652 1.11173 177.23 2.93747L164.213 52.7192C163.67 54.4841 164.032 56.5533 165.237 58.1356L192.778 100.249C193.441 101.406 193.019 102.805 191.874 103.292C184.462 106.213 152.34 117.472 103.586 109.439C34.6426 98.1192 13.2485 127.696 13.2485 127.696L2.58154 26.7329Z" fill="#FF3B86" />
    <path d="M42.8189 47.6089C43.3024 45.3503 46.6876 46.327 46.2644 48.5856C44.9346 55.4224 43.1815 62.1372 40.9449 68.7299C40.4614 70.0728 38.4665 70.5612 37.7412 69.0961C36.4113 66.5323 35.021 63.9685 33.5702 61.5267C33.0262 64.701 31.8776 67.7532 30.1851 70.6222C29.3388 72.0262 27.5253 71.5379 26.9813 70.1949C24.5029 64.2127 22.0849 58.2914 19.6065 52.3092C18.6998 50.1727 22.1454 49.257 22.9917 51.3325C24.9865 56.0328 26.9208 60.7942 28.9156 65.4946C30.1246 62.5034 30.7291 59.4513 30.6687 56.0328C30.6082 54.2015 33.0262 53.7132 33.9329 55.1172C35.7463 57.8641 37.4389 60.7332 39.0106 63.6633C40.6427 58.3525 41.9726 53.0417 43.0002 47.6089H42.8189Z" fill="white" />
    <path d="M56.3595 52.7364C59.4424 52.5533 62.5253 56.4601 61.7999 59.5122C60.8931 63.1748 56.2386 63.7853 52.9743 63.5411C53.5184 65.6776 54.7878 67.57 56.5408 67.9362C58.4147 68.3025 57.6289 71.2326 55.755 70.8663C47.7757 69.1571 47.1712 53.2858 56.3595 52.7364ZM57.7498 59.8175C60.0469 58.1082 57.5684 55.4223 55.3923 56.0938C53.5788 56.6432 52.7325 58.4135 52.5512 60.4279C54.2437 60.6721 56.3595 60.8552 57.7498 59.8175Z" fill="white" />
    <path d="M69.2352 48.2192C69.2957 56.7042 69.3561 65.1892 69.4166 73.6743C69.477 75.6277 66.4545 75.6277 66.3941 73.6743C66.3336 65.7386 66.2732 57.803 66.2127 49.8063C65.6687 49.8674 65.0642 49.8674 64.5201 49.9284C62.5857 50.0505 62.5857 46.9983 64.5201 46.8762L67.6635 46.7542C68.4494 46.6931 69.1143 47.4867 69.1143 48.2802L69.2352 48.2192Z" fill="white" />
    <path d="M85.3145 67.57C87.007 66.6543 88.5183 69.2792 86.8257 70.1949C83.7428 71.782 80.1763 72.8808 76.8516 71.4768C74.3128 70.378 72.2575 67.9362 72.318 65.0062C72.3784 59.3291 80.7808 54.5067 85.1936 58.7797C86.5839 60.1227 84.4682 62.2592 83.0779 60.9163C80.2972 58.2303 74.4337 62.7476 75.5822 66.1049C76.9121 70.439 82.4734 69.0961 85.3145 67.57Z" fill="white" />
    <path d="M95.0465 57.4979C101.635 56.216 104.839 67.9973 97.525 69.8897C94.4421 70.6832 91.2383 68.4246 90.5733 65.3725C89.9084 62.5034 90.7547 58.4135 93.6562 57.1927C94.2607 56.8874 94.7443 57.0706 95.0465 57.4979ZM94.8048 60.6111C94.4421 60.7332 94.1398 60.7332 93.898 60.6111C93.2935 61.6488 93.2935 63.7243 93.4144 64.4568C93.7167 65.9218 95.1674 67.2038 96.7391 66.8985C100.608 66.105 98.613 59.2071 94.8048 60.6111Z" fill="white" />
    <path d="M119.952 60.0617C125.029 58.7798 124.606 67.9973 125.029 70.8664C125.332 72.7587 122.43 73.6133 122.128 71.6599C122.007 70.5611 121.644 63.5412 120.738 63.297C118.501 62.7476 117.957 70.0117 117.836 71.2937C117.715 73.186 114.874 73.247 114.814 71.2326C114.753 69.3403 114.632 67.4479 114.33 65.6166C114.209 64.8231 114.088 64.0295 113.907 63.2359C113.907 61.954 113.786 61.6488 113.423 62.3813C112.517 62.3203 110.945 66.166 110.703 66.8375C110.159 68.3025 109.978 69.8286 109.917 71.4157C109.857 73.3691 106.955 73.3691 106.895 71.4157C106.774 67.2038 106.532 62.9918 105.988 58.7187C105.807 56.7653 108.829 56.8264 109.011 58.7187C109.131 60.0617 109.252 61.3436 109.373 62.6865C110.34 61.0994 111.731 59.146 113.544 58.9019C115.176 58.7187 116.083 59.7565 116.567 61.1605C116.688 61.5267 116.808 61.893 116.929 62.2592C117.655 61.1605 118.622 60.3059 119.952 59.9396V60.0617Z" fill="white" />
    <path d="M135.547 52.7364C138.63 52.5533 141.713 56.4601 140.987 59.5122C140.081 63.1748 135.426 63.7853 132.162 63.5411C132.706 65.6776 133.975 67.57 135.728 67.9362C137.602 68.3025 136.816 71.2326 134.943 70.8663C127.024 69.1571 126.359 53.2858 135.547 52.7364ZM136.998 59.8175C139.295 58.1082 136.816 55.4223 134.64 56.0938C132.827 56.6432 131.981 58.4135 131.799 60.4279C133.492 60.6721 135.547 60.8552 136.998 59.8175Z" fill="white" />
    <path d="M147.455 38.6354C147.999 36.7431 150.961 37.5977 150.357 39.429C147.999 47.3646 147.153 55.4223 147.697 63.6632C147.818 65.6166 144.796 65.6166 144.675 63.6632C144.131 55.1782 145.038 46.8763 147.455 38.6354ZM148.302 69.9507C148.423 70.3169 148.483 70.7442 148.483 71.1715C148.362 72.8197 146.549 73.0639 145.763 71.9651C145.461 71.6599 145.219 71.2936 145.219 70.8053L145.158 69.8286C145.098 69.1571 145.702 68.4856 146.307 68.3635C146.73 68.2415 147.093 68.3635 147.455 68.5467C147.879 68.7908 148.362 69.3402 148.302 69.9507Z" fill="white" />
    <path d="M31.8101 292.134C33.2565 291.891 34.3413 290.613 34.1605 289.091L5.05239 25.7591C4.6908 22.5336 3.90735 21.8642 2.40072 21.8642C0.894094 21.8642 -0.0701491 22.7771 0.532503 28.2543L28.6763 289.7C28.8571 291.221 30.2432 292.378 31.8101 292.134C31.7499 292.134 31.7499 292.134 31.8101 292.134Z" fill="#9C3E64" />
    <path d="M17.2857 152.1C16.3818 149.362 13.7904 146.501 12.2837 150.214C11.44 152.222 11.7413 155.326 12.1029 157.517C12.344 159.16 13.0069 160.742 14.152 161.29C15.3573 161.898 16.8036 160.925 17.4665 159.342C18.1897 157.151 18.0089 154.291 17.2857 152.1Z" fill="#5E1C4F" />
</svg>
