<svg width="723" height="144" viewBox="0 0 723 144" fill="none" xmlns="http://www.w3.org/2000/svg">
    <g filter="url(#filter0_d)">
        <g filter="url(#filter1_d)">
            <path d="M87.4297 102.969C87.4297 106.859 86.7031 110.211 85.25 113.023C83.8438 115.836 81.9453 118.227 79.5547 120.195C77.1641 122.164 74.3984 123.781 71.2578 125.047C68.1641 126.266 64.9297 127.227 61.5547 127.93C58.1797 128.633 54.7812 129.102 51.3594 129.336C47.9844 129.57 44.8203 129.688 41.8672 129.688C38.9609 129.688 35.9375 129.57 32.7969 129.336C29.7031 129.148 26.6094 128.797 23.5156 128.281C20.4219 127.766 17.375 127.086 14.375 126.242C11.375 125.352 8.53906 124.25 5.86719 122.938L5.72656 32.3749C8.35156 31.2968 11.1406 30.3358 14.0938 29.4921C17.0469 28.6015 20.0469 27.8749 23.0938 27.3124C26.1875 26.703 29.2578 26.2577 32.3047 25.9765C35.3516 25.6483 38.3047 25.4843 41.1641 25.4843C44.4922 25.4843 47.8438 25.6952 51.2188 26.1171C54.6406 26.539 57.9219 27.2421 61.0625 28.2265C64.2031 29.2108 67.1328 30.4999 69.8516 32.0937C72.5703 33.6405 74.9375 35.5624 76.9531 37.8593C79.0156 40.1562 80.6094 42.828 81.7344 45.8749C82.9062 48.9218 83.4922 52.4374 83.4922 56.4218C83.4922 59.0468 83.1172 61.5077 82.3672 63.8046C81.6172 66.1015 80.5391 68.164 79.1328 69.9921C77.7266 71.8202 76.0156 73.3905 74 74.703C71.9844 75.9687 69.7109 76.9061 67.1797 77.5155C70.2266 78.3124 72.9922 79.4843 75.4766 81.0311C78.0078 82.578 80.1406 84.453 81.875 86.6561C83.6562 88.8593 85.0156 91.3437 85.9531 94.1093C86.9375 96.8749 87.4297 99.828 87.4297 102.969ZM51.7109 62.8905C51.7109 61.5311 51.4297 60.3827 50.8672 59.4452C50.3047 58.4608 49.6016 57.664 48.7578 57.0546C47.9609 56.4452 47.0703 55.9999 46.0859 55.7187C45.1484 55.4374 44.3047 55.2968 43.5547 55.2968C42.6172 55.2968 41.7031 55.4374 40.8125 55.7187C39.9219 55.9999 39.0547 56.328 38.2109 56.703L37.7891 72.3124C38.8672 72.3124 40.2031 72.2187 41.7969 72.0311C43.3906 71.8437 44.9141 71.4452 46.3672 70.8358C47.8672 70.1796 49.1328 69.2421 50.1641 68.0233C51.1953 66.7577 51.7109 65.0468 51.7109 62.8905ZM41.7266 85.8124C40.3672 85.8124 39.0547 85.953 37.7891 86.2343L37.5078 102.266C38.2109 102.406 38.8906 102.547 39.5469 102.688C40.25 102.781 40.9297 102.828 41.5859 102.828C42.5703 102.828 43.6484 102.734 44.8203 102.547C45.9922 102.312 47.0938 101.891 48.125 101.281C49.1562 100.625 50 99.7577 50.6562 98.6796C51.3594 97.6015 51.7109 96.1718 51.7109 94.3905C51.7109 92.6093 51.3594 91.1561 50.6562 90.0311C50 88.9061 49.1797 88.039 48.1953 87.4296C47.2109 86.7733 46.1328 86.3515 44.9609 86.164C43.7891 85.9296 42.7109 85.8124 41.7266 85.8124ZM162.971 90.7343L160.018 121.953L100.814 126.594L103.064 26.1874H139.627L134.424 90.7343H162.971ZM424.537 80.328C424.537 87.0311 424.326 93.7108 423.905 100.367C423.483 107.023 422.99 113.703 422.428 120.406L386.287 122.094C387.365 113.938 388.326 105.781 389.17 97.6249C390.061 89.4218 390.506 81.2187 390.506 73.0155C390.506 72.4999 390.483 71.6093 390.436 70.3437C390.389 69.0311 390.295 67.5546 390.155 65.914C390.061 64.2733 389.897 62.5858 389.662 60.8515C389.475 59.0702 389.194 57.453 388.819 55.9999C388.49 54.4999 388.069 53.2811 387.553 52.3437C387.037 51.4062 386.428 50.9374 385.725 50.9374C384.084 50.9374 382.795 51.5702 381.858 52.8358C380.92 54.0546 380.217 55.5311 379.748 57.2655C379.326 58.9999 379.069 60.7811 378.975 62.6093C378.881 64.3905 378.834 65.8437 378.834 66.9687C378.834 68.9374 378.881 70.9061 378.975 72.8749C379.069 74.8437 379.115 76.8593 379.115 78.9218C379.115 86.1874 378.928 93.4296 378.553 100.648C378.225 107.867 377.803 115.109 377.287 122.375L343.959 123.641C345.037 115.484 345.975 107.352 346.772 99.2421C347.615 91.0858 348.037 82.9061 348.037 74.703C348.037 74.1874 348.014 73.2499 347.967 71.8905C347.92 70.5311 347.826 69.0077 347.686 67.3202C347.592 65.6327 347.428 63.8749 347.194 62.0468C346.959 60.2187 346.655 58.5546 346.28 57.0546C345.951 55.5077 345.53 54.2421 345.014 53.2577C344.498 52.2733 343.865 51.7811 343.115 51.7811C341.944 51.7811 340.959 52.2499 340.162 53.1874C339.365 54.078 338.709 55.2499 338.194 56.703C337.725 58.1561 337.35 59.7733 337.069 61.5546C336.834 63.289 336.647 64.9999 336.506 66.6874C336.412 68.3749 336.342 69.9452 336.295 71.3983C336.295 72.8046 336.272 73.8593 336.225 74.5624L334.678 125.891H299.24C299.99 117.969 300.74 110.023 301.49 102.055C302.287 94.0858 302.967 86.1405 303.53 78.2187C304.139 70.2499 304.631 62.2811 305.006 54.3124C305.381 46.3437 305.569 38.3749 305.569 30.4061L339.037 28.9999L338.897 37.1561C339.928 35.8436 341.1 34.5312 342.412 33.2187C343.725 31.8593 345.108 30.664 346.561 29.6327C348.061 28.5546 349.631 27.6874 351.272 27.0311C352.959 26.3749 354.694 26.0468 356.475 26.0468C358.772 26.0468 360.834 26.2343 362.662 26.6093C364.49 26.9374 366.131 27.5233 367.584 28.3671C369.084 29.2108 370.397 30.3827 371.522 31.8827C372.647 33.3358 373.631 35.1874 374.475 37.4374C375.975 35.7968 377.475 34.2733 378.975 32.8671C380.522 31.4608 382.139 30.2655 383.826 29.2811C385.514 28.2499 387.342 27.453 389.311 26.8905C391.28 26.328 393.459 26.0468 395.85 26.0468C400.397 26.0468 404.264 26.9374 407.451 28.7187C410.639 30.453 413.287 32.7733 415.397 35.6796C417.553 38.5858 419.217 41.914 420.389 45.664C421.608 49.414 422.522 53.3046 423.131 57.3358C423.74 61.3671 424.115 65.3749 424.256 69.3593C424.444 73.3437 424.537 76.9999 424.537 80.328ZM563.992 80.328C563.992 87.0311 563.781 93.7108 563.36 100.367C562.938 107.023 562.445 113.703 561.883 120.406L525.742 122.094C526.82 113.938 527.781 105.781 528.625 97.6249C529.516 89.4218 529.961 81.2187 529.961 73.0155C529.961 72.4999 529.938 71.6093 529.891 70.3437C529.844 69.0311 529.75 67.5546 529.61 65.914C529.516 64.2733 529.352 62.5858 529.117 60.8515C528.93 59.0702 528.649 57.453 528.274 55.9999C527.945 54.4999 527.524 53.2811 527.008 52.3437C526.492 51.4062 525.883 50.9374 525.18 50.9374C523.539 50.9374 522.25 51.5702 521.313 52.8358C520.375 54.0546 519.672 55.5311 519.203 57.2655C518.781 58.9999 518.524 60.7811 518.43 62.6093C518.336 64.3905 518.289 65.8437 518.289 66.9687C518.289 68.9374 518.336 70.9061 518.43 72.8749C518.524 74.8437 518.57 76.8593 518.57 78.9218C518.57 86.1874 518.383 93.4296 518.008 100.648C517.68 107.867 517.258 115.109 516.742 122.375L483.414 123.641C484.492 115.484 485.43 107.352 486.227 99.2421C487.07 91.0858 487.492 82.9061 487.492 74.703C487.492 74.1874 487.469 73.2499 487.422 71.8905C487.375 70.5311 487.281 69.0077 487.141 67.3202C487.047 65.6327 486.883 63.8749 486.649 62.0468C486.414 60.2187 486.11 58.5546 485.735 57.0546C485.406 55.5077 484.985 54.2421 484.469 53.2577C483.953 52.2733 483.32 51.7811 482.57 51.7811C481.399 51.7811 480.414 52.2499 479.617 53.1874C478.82 54.078 478.164 55.2499 477.649 56.703C477.18 58.1561 476.805 59.7733 476.524 61.5546C476.289 63.289 476.102 64.9999 475.961 66.6874C475.867 68.3749 475.797 69.9452 475.75 71.3983C475.75 72.8046 475.727 73.8593 475.68 74.5624L474.133 125.891H438.695C439.445 117.969 440.195 110.023 440.945 102.055C441.742 94.0858 442.422 86.1405 442.985 78.2187C443.594 70.2499 444.086 62.2811 444.461 54.3124C444.836 46.3437 445.024 38.3749 445.024 30.4061L478.492 28.9999L478.352 37.1561C479.383 35.8436 480.555 34.5312 481.867 33.2187C483.18 31.8593 484.563 30.664 486.016 29.6327C487.516 28.5546 489.086 27.6874 490.727 27.0311C492.414 26.3749 494.149 26.0468 495.93 26.0468C498.227 26.0468 500.289 26.2343 502.117 26.6093C503.945 26.9374 505.586 27.5233 507.039 28.3671C508.539 29.2108 509.852 30.3827 510.977 31.8827C512.102 33.3358 513.086 35.1874 513.93 37.4374C515.43 35.7968 516.93 34.2733 518.43 32.8671C519.977 31.4608 521.594 30.2655 523.281 29.2811C524.969 28.2499 526.797 27.453 528.766 26.8905C530.735 26.328 532.914 26.0468 535.305 26.0468C539.852 26.0468 543.719 26.9374 546.906 28.7187C550.094 30.453 552.742 32.7733 554.852 35.6796C557.008 38.5858 558.672 41.914 559.844 45.664C561.063 49.414 561.977 53.3046 562.586 57.3358C563.195 61.3671 563.57 65.3749 563.711 69.3593C563.899 73.3437 563.992 76.9999 563.992 80.328ZM667.447 74.1405C667.447 78.4061 666.955 82.5311 665.971 86.5155C664.986 90.453 663.557 94.1561 661.682 97.6249C659.854 101.094 657.604 104.281 654.932 107.188C652.307 110.047 649.33 112.508 646.002 114.57C642.721 116.633 639.135 118.25 635.244 119.422C631.354 120.547 627.229 121.109 622.869 121.109C618.65 121.109 614.619 120.57 610.775 119.492C606.979 118.414 603.416 116.914 600.088 114.992C596.76 113.023 593.736 110.68 591.018 107.961C588.346 105.195 586.049 102.148 584.127 98.8202C582.252 95.4452 580.775 91.8358 579.697 87.9921C578.666 84.1483 578.15 80.1405 578.15 75.9687C578.15 71.8905 578.643 67.9061 579.627 64.0155C580.611 60.078 582.018 56.3749 583.846 52.9061C585.721 49.4374 587.971 46.2499 590.596 43.3437C593.221 40.4374 596.15 37.9296 599.385 35.8202C602.666 33.7108 606.205 32.0702 610.002 30.8983C613.799 29.7265 617.807 29.1405 622.025 29.1405C628.822 29.1405 635.01 30.1952 640.588 32.3046C646.213 34.414 650.994 37.4374 654.932 41.3749C658.916 45.2655 661.986 49.9999 664.143 55.578C666.346 61.1093 667.447 67.2968 667.447 74.1405ZM636.229 75.9687C636.229 73.953 635.924 72.0077 635.315 70.1327C634.752 68.2108 633.908 66.5233 632.783 65.0702C631.658 63.5702 630.252 62.3749 628.565 61.4843C626.924 60.5468 625.025 60.078 622.869 60.078C620.666 60.078 618.697 60.4765 616.963 61.2733C615.229 62.0702 613.729 63.1718 612.463 64.578C611.244 65.9374 610.307 67.5546 609.65 69.4296C608.994 71.2577 608.666 73.203 608.666 75.2655C608.666 77.2343 608.947 79.203 609.51 81.1718C610.072 83.1405 610.916 84.9218 612.041 86.5155C613.166 88.1093 614.549 89.3983 616.19 90.3827C617.877 91.3671 619.822 91.8593 622.025 91.8593C624.229 91.8593 626.197 91.4374 627.932 90.5937C629.713 89.703 631.213 88.5311 632.432 87.078C633.65 85.578 634.588 83.8671 635.244 81.9452C635.9 80.0233 636.229 78.0311 636.229 75.9687ZM716.902 23.5155L711.137 97.4843H685.121L682.449 23.5155H716.902ZM712.262 119.141C712.262 121.203 711.863 123.125 711.066 124.906C710.27 126.688 709.191 128.234 707.832 129.547C706.52 130.906 704.973 131.961 703.191 132.711C701.41 133.508 699.512 133.906 697.496 133.906C695.434 133.906 693.512 133.508 691.73 132.711C689.949 131.961 688.379 130.906 687.02 129.547C685.707 128.234 684.652 126.688 683.855 124.906C683.105 123.125 682.73 121.203 682.73 119.141C682.73 117.125 683.105 115.203 683.855 113.375C684.652 111.547 685.707 109.977 687.02 108.664C688.379 107.305 689.949 106.227 691.73 105.43C693.512 104.633 695.434 104.234 697.496 104.234C699.512 104.234 701.41 104.633 703.191 105.43C704.973 106.227 706.52 107.305 707.832 108.664C709.191 109.977 710.27 111.547 711.066 113.375C711.863 115.203 712.262 117.125 712.262 119.141Z" fill="#0089EF" />
            <path d="M288.082 120.441L244.488 126.066L239.215 106.203H219.176L214.781 126.066L169.957 121.672L204.937 4.60157L253.805 2.14062L288.082 120.441ZM236.051 79.3086L229.371 48.7227L222.867 79.3086H236.051Z" fill="#FF3B86" />
            <path d="M85.2501 113.023L83.9175 112.335L83.9129 112.344L83.9085 112.353L85.2501 113.023ZM71.2579 125.047L71.8077 126.443L71.8186 126.438L71.2579 125.047ZM51.3595 129.336L51.257 127.839L51.2556 127.84L51.3595 129.336ZM32.797 129.336L32.9086 127.84L32.8982 127.839H32.8877L32.797 129.336ZM14.3751 126.242L13.9482 127.68L13.9586 127.683L13.969 127.686L14.3751 126.242ZM5.86729 122.938L4.36729 122.94L4.36874 123.873L5.20593 124.284L5.86729 122.938ZM5.72666 32.375L5.15678 30.9875L4.2251 31.3701L4.22666 32.3773L5.72666 32.375ZM14.0939 29.4922L14.5059 30.9345L14.5165 30.9315L14.527 30.9283L14.0939 29.4922ZM23.0939 27.3125L23.3662 28.7876L23.375 28.786L23.3837 28.7842L23.0939 27.3125ZM32.3048 25.9766L32.4427 27.4702L32.454 27.4692L32.4654 27.4679L32.3048 25.9766ZM51.2189 26.1172L51.0328 27.6056L51.0353 27.6059L51.2189 26.1172ZM69.8517 32.0938L69.0931 33.3878L69.1014 33.3927L69.1099 33.3975L69.8517 32.0938ZM76.9532 37.8594L75.8258 38.8488L75.8314 38.8552L75.8372 38.8616L76.9532 37.8594ZM81.7345 45.875L80.3273 46.3946L80.3308 46.404L80.3345 46.4135L81.7345 45.875ZM74.0001 74.7031L74.7978 75.9735L74.8082 75.9669L74.8186 75.9601L74.0001 74.7031ZM67.1798 77.5156L66.8287 76.0573L66.8002 78.9668L67.1798 77.5156ZM75.4767 81.0312L74.6838 82.3046L74.6945 82.3112L75.4767 81.0312ZM81.8751 86.6562L80.6965 87.5841L80.7025 87.5918L80.7087 87.5993L81.8751 86.6562ZM85.9532 94.1094L84.5326 94.5909L84.5363 94.6017L84.5401 94.6124L85.9532 94.1094ZM50.8673 59.4453L49.5649 60.1895L49.5728 60.2034L49.581 60.2171L50.8673 59.4453ZM48.7579 57.0547L47.8467 58.2462L47.863 58.2587L47.8797 58.2707L48.7579 57.0547ZM46.086 55.7188L45.655 57.1555L45.6645 57.1583L45.674 57.161L46.086 55.7188ZM38.211 56.7031L37.6018 55.3324L36.7371 55.7167L36.7116 56.6626L38.211 56.7031ZM37.7892 72.3125L36.2897 72.272L36.2481 73.8125H37.7892V72.3125ZM46.3673 70.8359L46.9474 72.2192L46.958 72.2148L46.9685 72.2102L46.3673 70.8359ZM50.1642 68.0234L51.3092 68.9924L51.3182 68.9817L51.327 68.9709L50.1642 68.0234ZM37.7892 86.2344L37.4638 84.7701L36.3101 85.0265L36.2894 86.2081L37.7892 86.2344ZM37.5079 102.266L36.0081 102.239L35.9862 103.491L37.2137 103.736L37.5079 102.266ZM39.547 102.688L39.2327 104.154L39.2903 104.167L39.3487 104.174L39.547 102.688ZM44.8204 102.547L45.0574 104.028L45.0861 104.023L45.1146 104.018L44.8204 102.547ZM48.1251 101.281L48.8882 102.573L48.9095 102.56L48.9304 102.547L48.1251 101.281ZM50.6563 98.6797L49.3999 97.8603L49.3872 97.8798L49.3751 97.8998L50.6563 98.6797ZM50.6563 90.0312L49.3607 90.7871L49.3722 90.8068L49.3844 90.8262L50.6563 90.0312ZM48.1954 87.4297L47.3634 88.6778L47.3844 88.6918L47.4059 88.7051L48.1954 87.4297ZM44.961 86.1641L44.6669 87.6349L44.6954 87.6406L44.7241 87.6452L44.961 86.1641ZM85.9298 102.969C85.9298 106.674 85.2382 109.779 83.9175 112.335L86.5827 113.712C88.1682 110.643 88.9298 107.045 88.9298 102.969H85.9298ZM83.9085 112.353C82.5946 114.98 80.8273 117.204 78.6012 119.037L80.5083 121.353C83.0635 119.249 85.0931 116.692 86.5917 113.694L83.9085 112.353ZM78.6012 119.037C76.3394 120.9 73.7089 122.442 70.6972 123.656L71.8186 126.438C75.0881 125.121 77.9889 123.428 80.5083 121.353L78.6012 119.037ZM70.7081 123.651C67.6963 124.838 64.5437 125.775 61.2489 126.461L61.8607 129.398C65.3159 128.678 68.632 127.694 71.8077 126.442L70.7081 123.651ZM61.2489 126.461C57.9406 127.15 54.6101 127.61 51.257 127.839L51.462 130.832C54.9526 130.593 58.419 130.115 61.8607 129.398L61.2489 126.461ZM51.2556 127.84C47.9103 128.072 44.7812 128.188 41.8673 128.188V131.188C44.8596 131.188 48.0587 131.069 51.4634 130.832L51.2556 127.84ZM41.8673 128.188C39.0012 128.188 36.0151 128.072 32.9086 127.84L32.6853 130.832C35.8601 131.069 38.9209 131.188 41.8673 131.188V128.188ZM32.8877 127.839C29.8468 127.654 26.8051 127.309 23.7623 126.802L23.2691 129.761C26.4139 130.285 29.5596 130.642 32.7062 130.833L32.8877 127.839ZM23.7623 126.802C20.722 126.295 17.7284 125.627 14.7812 124.798L13.969 127.686C17.0218 128.545 20.1219 129.236 23.2691 129.761L23.7623 126.802ZM14.802 124.804C11.8785 123.936 9.12133 122.865 6.52864 121.591L5.20593 124.284C7.957 125.635 10.8717 126.767 13.9482 127.68L14.802 124.804ZM7.36729 122.935L7.22666 32.3727L4.22666 32.3773L4.36729 122.94L7.36729 122.935ZM6.29654 33.7625C8.866 32.7072 11.6021 31.7642 14.5059 30.9345L13.6818 28.0499C10.6794 28.9077 7.83733 29.8865 5.15678 30.9875L6.29654 33.7625ZM14.527 30.9283C17.427 30.0537 20.3733 29.3401 23.3662 28.7876L22.8215 25.8374C19.7206 26.4099 16.6669 27.1494 13.6607 28.0561L14.527 30.9283ZM23.3837 28.7842C26.4287 28.1844 29.4483 27.7466 32.4427 27.4702L32.1669 24.4829C29.0675 24.769 25.9465 25.2218 22.804 25.8408L23.3837 28.7842ZM32.4654 27.4679C35.4627 27.1452 38.3621 26.9844 41.1642 26.9844V23.9844C38.2475 23.9844 35.2406 24.1517 32.1442 24.4852L32.4654 27.4679ZM41.1642 26.9844C44.4287 26.9844 47.7182 27.1913 51.0328 27.6056L51.4049 24.6288C47.9695 24.1994 44.5558 23.9844 41.1642 23.9844V26.9844ZM51.0353 27.6059C54.3715 28.0172 57.5638 28.7019 60.614 29.6579L61.5112 26.7952C58.2802 25.7825 54.9099 25.0609 51.4024 24.6285L51.0353 27.6059ZM60.614 29.6579C63.6512 30.6099 66.4764 31.8539 69.0931 33.3878L70.6102 30.7997C67.7895 29.1461 64.7552 27.812 61.5112 26.7952L60.614 29.6579ZM69.1099 33.3975C71.6869 34.8638 73.9229 36.6804 75.8258 38.8488L78.0807 36.87C75.9523 34.4446 73.4539 32.4175 70.5934 30.79L69.1099 33.3975ZM75.8372 38.8616C77.7665 41.0101 79.2645 43.5161 80.3273 46.3946L83.1416 45.3554C81.9544 42.1401 80.265 39.3024 78.0693 36.8572L75.8372 38.8616ZM80.3345 46.4135C81.4274 49.2552 81.9923 52.5822 81.9923 56.4219H84.9923C84.9923 52.2928 84.3853 48.5885 83.1345 45.3365L80.3345 46.4135ZM81.9923 56.4219C81.9923 58.9024 81.6382 61.205 80.9414 63.3391L83.7932 64.2703C84.5963 61.8107 84.9923 59.1914 84.9923 56.4219H81.9923ZM80.9414 63.3391C80.2417 65.4817 79.2414 67.3909 77.944 69.0776L80.3218 70.9068C81.8369 68.9372 82.9928 66.7214 83.7932 64.2703L80.9414 63.3391ZM77.944 69.0776C76.6454 70.7658 75.0614 72.222 73.1816 73.4461L74.8186 75.9601C76.97 74.5592 78.808 72.8748 80.3218 70.9068L77.944 69.0776ZM73.2024 73.4328C71.3368 74.6042 69.2167 75.4824 66.8287 76.0573L67.5309 78.974C70.2054 78.3301 72.6321 77.3333 74.7978 75.9735L73.2024 73.4328ZM66.8002 78.9668C69.7123 79.7284 72.3369 80.8433 74.6838 82.3046L76.2695 79.7579C73.6477 78.1255 70.741 76.8966 67.5593 76.0644L66.8002 78.9668ZM74.6945 82.3112C77.0826 83.7706 79.0786 85.5289 80.6965 87.5841L83.0537 85.7284C81.2029 83.3774 78.9332 81.3857 76.2588 79.7513L74.6945 82.3112ZM80.7087 87.5993C82.3752 89.6606 83.6502 91.9877 84.5326 94.5909L87.3738 93.6278C86.3813 90.6998 84.9375 88.0582 83.0415 85.7132L80.7087 87.5993ZM84.5401 94.6124C85.4631 97.2056 85.9298 99.9875 85.9298 102.969H88.9298C88.9298 99.6688 88.4121 96.5444 87.3664 93.6064L84.5401 94.6124ZM53.211 62.8906C53.211 61.3251 52.8862 59.8947 52.1535 58.6736L49.581 60.2171C49.9733 60.8709 50.211 61.7374 50.211 62.8906H53.211ZM52.1697 58.7011C51.5106 57.5478 50.6683 56.5841 49.6361 55.8387L47.8797 58.2707C48.535 58.744 49.099 59.3741 49.5649 60.1895L52.1697 58.7011ZM49.6691 55.8632C48.7199 55.1373 47.6593 54.6082 46.4981 54.2765L45.674 57.161C46.4815 57.3918 47.2022 57.7533 47.8467 58.2462L49.6691 55.8632ZM46.5171 54.282C45.4798 53.9708 44.4874 53.7969 43.5548 53.7969V56.7969C44.1221 56.7969 44.8173 56.9042 45.655 57.1555L46.5171 54.282ZM43.5548 53.7969C42.4646 53.7969 41.3982 53.9608 40.3609 54.2884L41.2643 57.1491C42.0082 56.9142 42.7699 56.7969 43.5548 56.7969V53.7969ZM40.3609 54.2884C39.4173 54.5864 38.4975 54.9343 37.6018 55.3324L38.8202 58.0738C39.6121 57.7219 40.4266 57.4136 41.2643 57.1491L40.3609 54.2884ZM36.7116 56.6626L36.2897 72.272L39.2886 72.353L39.7105 56.7437L36.7116 56.6626ZM37.7892 73.8125C38.9466 73.8125 40.3455 73.7124 41.9722 73.521L41.6217 70.5415C40.061 70.7251 38.7879 70.8125 37.7892 70.8125V73.8125ZM41.9722 73.521C43.7027 73.3174 45.3626 72.8838 46.9474 72.2192L45.7872 69.4526C44.4658 70.0068 43.0788 70.3701 41.6217 70.5415L41.9722 73.521ZM46.9685 72.2102C48.6728 71.4645 50.1262 70.3905 51.3092 68.9924L49.0191 67.0545C48.1396 68.0939 47.0617 68.8948 45.7661 69.4617L46.9685 72.2102ZM51.327 68.9709C52.6377 67.3624 53.211 65.2806 53.211 62.8906H50.211C50.211 64.8131 49.7532 66.1532 49.0013 67.0759L51.327 68.9709ZM41.7267 84.3125C40.2631 84.3125 38.8413 84.464 37.4638 84.7701L38.1146 87.6987C39.2683 87.4423 40.4714 87.3125 41.7267 87.3125V84.3125ZM36.2894 86.2081L36.0081 102.239L39.0077 102.292L39.2889 86.2607L36.2894 86.2081ZM37.2137 103.736C37.9106 103.876 38.5836 104.015 39.2327 104.154L39.8613 101.221C39.1979 101.079 38.5115 100.937 37.8021 100.795L37.2137 103.736ZM39.3487 104.174C40.1123 104.276 40.8584 104.328 41.586 104.328V101.328C41.0012 101.328 40.3879 101.286 39.7452 101.201L39.3487 104.174ZM41.586 104.328C42.664 104.328 43.8225 104.226 45.0574 104.028L44.5834 101.066C43.4746 101.243 42.4769 101.328 41.586 101.328V104.328ZM45.1146 104.018C46.4521 103.75 47.7122 103.268 48.8882 102.573L47.362 99.9899C46.4755 100.514 45.5324 100.875 44.5262 101.076L45.1146 104.018ZM48.9304 102.547C50.1618 101.763 51.166 100.727 51.9376 99.4596L49.3751 97.8998C48.8342 98.7883 48.1509 99.4869 47.3198 100.016L48.9304 102.547ZM51.9128 99.4991C52.825 98.1004 53.211 96.3551 53.211 94.3906H50.211C50.211 95.9887 49.894 97.1027 49.3999 97.8603L51.9128 99.4991ZM53.211 94.3906C53.211 92.4218 52.8233 90.6682 51.9283 89.2363L49.3844 90.8262C49.8956 91.6443 50.211 92.7969 50.211 94.3906H53.211ZM51.952 89.2754C51.1878 87.9653 50.2029 86.9083 48.9849 86.1543L47.4059 88.7051C48.1567 89.1698 48.8124 89.8472 49.3607 90.7871L51.952 89.2754ZM49.0275 86.1816C47.8632 85.4054 46.582 84.9043 45.198 84.6829L44.7241 87.6452C45.6838 87.7988 46.5589 88.1414 47.3634 88.6778L49.0275 86.1816ZM45.2552 84.6932C44.0063 84.4434 42.8281 84.3125 41.7267 84.3125V87.3125C42.594 87.3125 43.5721 87.416 44.6669 87.6349L45.2552 84.6932ZM162.971 90.7344L164.464 90.8756L164.619 89.2344H162.971V90.7344ZM160.018 121.953L160.135 123.449L161.392 123.35L161.511 122.094L160.018 121.953ZM100.814 126.594L99.3149 126.56L99.2777 128.219L100.932 128.089L100.814 126.594ZM103.064 26.1875V24.6875H101.598L101.565 26.1539L103.064 26.1875ZM139.627 26.1875L141.122 26.308L141.253 24.6875H139.627V26.1875ZM134.424 90.7344L132.929 90.6139L132.798 92.2344H134.424V90.7344ZM161.477 90.5931L158.524 121.812L161.511 122.094L164.464 90.8756L161.477 90.5931ZM159.9 120.458L100.697 125.098L100.932 128.089L160.135 123.449L159.9 120.458ZM102.314 126.627L104.564 26.2211L101.565 26.1539L99.3149 126.56L102.314 126.627ZM103.064 27.6875H139.627V24.6875H103.064V27.6875ZM138.132 26.067L132.929 90.6139L135.919 90.8549L141.122 26.308L138.132 26.067ZM134.424 92.2344H162.971V89.2344H134.424V92.2344ZM288.082 120.441L288.274 121.929L290.01 121.705L289.523 120.024L288.082 120.441ZM244.488 126.066L243.038 126.451L243.376 127.722L244.68 127.554L244.488 126.066ZM239.215 106.203L240.664 105.818L240.368 104.703H239.215V106.203ZM219.176 106.203V104.703H217.971L217.711 105.879L219.176 106.203ZM214.781 126.066L214.635 127.559L215.958 127.689L216.246 126.39L214.781 126.066ZM169.957 121.672L168.52 121.242L167.998 122.987L169.811 123.165L169.957 121.672ZM204.937 4.60151L204.862 3.10341L203.804 3.15671L203.5 4.17207L204.937 4.60151ZM253.805 2.14057L255.245 1.72312L254.915 0.582764L253.729 0.642478L253.805 2.14057ZM236.051 79.3086V80.8086H237.914L237.516 78.9886L236.051 79.3086ZM229.371 48.7227L230.836 48.4026L227.904 48.4107L229.371 48.7227ZM222.867 79.3086L221.4 78.9966L221.015 80.8086H222.867V79.3086ZM287.89 118.954L244.296 124.579L244.68 127.554L288.274 121.929L287.89 118.954ZM245.938 125.682L240.664 105.818L237.765 106.588L243.038 126.451L245.938 125.682ZM239.215 104.703H219.176V107.703H239.215V104.703ZM217.711 105.879L213.317 125.742L216.246 126.39L220.64 106.527L217.711 105.879ZM214.927 124.574L170.103 120.179L169.811 123.165L214.635 127.559L214.927 124.574ZM171.394 122.101L206.375 5.03095L203.5 4.17207L168.52 121.242L171.394 122.101ZM205.013 6.09961L253.88 3.63868L253.729 0.642478L204.862 3.10341L205.013 6.09961ZM252.364 2.55803L286.641 120.859L289.523 120.024L255.245 1.72312L252.364 2.55803ZM237.516 78.9886L230.836 48.4026L227.905 49.0427L234.585 79.6286L237.516 78.9886ZM227.904 48.4107L221.4 78.9966L224.334 79.6206L230.838 49.0346L227.904 48.4107ZM222.867 80.8086H236.051V77.8086H222.867V80.8086ZM422.428 120.406L422.498 121.905L423.813 121.843L423.923 120.532L422.428 120.406ZM386.287 122.094L384.8 121.897L384.565 123.676L386.357 123.592L386.287 122.094ZM389.17 97.625L387.679 97.4631L387.678 97.4707L389.17 97.625ZM390.436 70.3438L388.937 70.3973V70.3993L390.436 70.3438ZM390.155 65.9141L388.657 65.9996L388.658 66.0209L388.66 66.0422L390.155 65.9141ZM389.662 60.8516L388.171 61.0086L388.173 61.0306L388.176 61.0524L389.662 60.8516ZM388.819 56L387.353 56.3205L387.359 56.3478L387.366 56.3748L388.819 56ZM381.858 52.8359L383.047 53.7505L383.055 53.7397L383.063 53.7288L381.858 52.8359ZM379.748 57.2656L378.3 56.8743L378.295 56.8926L378.291 56.9111L379.748 57.2656ZM378.975 62.6094L380.473 62.6882V62.6862L378.975 62.6094ZM378.553 100.648L377.055 100.571V100.58L378.553 100.648ZM377.287 122.375L377.344 123.874L378.688 123.823L378.784 122.481L377.287 122.375ZM343.959 123.641L342.472 123.444L342.239 125.207L344.016 125.14L343.959 123.641ZM346.772 99.2422L345.28 99.0878L345.279 99.0955L346.772 99.2422ZM347.686 67.3203L346.188 67.4035L346.189 67.4242L346.191 67.4449L347.686 67.3203ZM346.28 57.0547L344.812 57.3659L344.818 57.3923L344.824 57.4185L346.28 57.0547ZM340.162 53.1875L341.28 54.1877L341.293 54.1735L341.305 54.159L340.162 53.1875ZM338.194 56.7031L336.78 56.2015L336.773 56.222L336.766 56.2426L338.194 56.7031ZM337.069 61.5547L335.587 61.3207L335.584 61.3373L335.582 61.3538L337.069 61.5547ZM336.506 66.6875L335.011 66.5629L335.01 66.5836L335.008 66.6043L336.506 66.6875ZM336.295 71.3984L334.796 71.3501L334.795 71.3743V71.3984H336.295ZM336.225 74.5625L334.728 74.4627L334.726 74.49V74.5173L336.225 74.5625ZM334.678 125.891V127.391H336.133L336.177 125.936L334.678 125.891ZM299.24 125.891L297.747 125.749L297.592 127.391H299.24V125.891ZM301.49 102.055L299.998 101.905L299.997 101.914L301.49 102.055ZM303.53 78.2188L302.034 78.1044L302.033 78.1125L303.53 78.2188ZM305.569 30.4062L305.506 28.9076L304.069 28.968V30.4062H305.569ZM339.037 29L340.537 29.0259L340.565 27.4345L338.974 27.5013L339.037 29ZM338.897 37.1562L337.397 37.1304L337.32 41.5908L340.076 38.083L338.897 37.1562ZM342.412 33.2188L343.473 34.2794L343.482 34.2701L343.491 34.2606L342.412 33.2188ZM346.561 29.6328L347.429 30.8561L347.436 30.8508L346.561 29.6328ZM351.272 27.0312L350.728 25.6332L350.721 25.6359L350.715 25.6385L351.272 27.0312ZM362.662 26.6094L362.361 28.0788L362.379 28.0825L362.397 28.0858L362.662 26.6094ZM367.584 28.3672L366.831 29.6644L366.84 29.6695L366.849 29.6746L367.584 28.3672ZM371.522 31.8828L370.322 32.7828L370.329 32.792L370.336 32.8011L371.522 31.8828ZM374.475 37.4375L373.07 37.9642L373.93 40.2565L375.582 38.4497L374.475 37.4375ZM378.975 32.8672L377.966 31.7573L377.957 31.765L377.949 31.7729L378.975 32.8672ZM383.826 29.2812L384.582 30.5769L384.595 30.5692L384.609 30.5612L383.826 29.2812ZM407.451 28.7188L406.72 30.0282L406.727 30.0323L406.734 30.0363L407.451 28.7188ZM415.397 35.6797L414.183 36.5608L414.187 36.5671L414.192 36.5735L415.397 35.6797ZM420.389 45.6641L418.957 46.1115L418.96 46.1196L418.962 46.1277L420.389 45.6641ZM424.256 69.3594L422.757 69.4123V69.4211L422.758 69.4299L424.256 69.3594ZM423.037 80.3281C423.037 86.9998 422.827 93.6478 422.408 100.272L425.402 100.462C425.825 93.7741 426.037 87.0627 426.037 80.3281H423.037ZM422.408 100.272C421.986 106.918 421.495 113.588 420.933 120.281L423.923 120.532C424.486 113.818 424.979 107.129 425.402 100.462L422.408 100.272ZM422.358 118.908L386.217 120.595L386.357 123.592L422.498 121.905L422.358 118.908ZM387.774 122.29C388.854 114.12 389.817 105.95 390.662 97.7793L387.678 97.4707C386.836 105.613 385.877 113.755 384.8 121.897L387.774 122.29ZM390.661 97.7869C391.558 89.5303 392.006 81.2732 392.006 73.0156H389.006C389.006 81.1643 388.564 89.3134 387.679 97.4631L390.661 97.7869ZM392.006 73.0156C392.006 72.4692 391.982 71.5535 391.935 70.2882L388.937 70.3993C388.984 71.6653 389.006 72.5308 389.006 73.0156H392.006ZM391.935 70.2902C391.887 68.9475 391.791 67.4455 391.649 65.786L388.66 66.0422C388.799 67.6639 388.891 69.115 388.937 70.3973L391.935 70.2902ZM391.652 65.8285C391.556 64.1469 391.388 62.4209 391.149 60.6507L388.176 61.0524C388.405 62.751 388.566 64.4 388.657 65.9996L391.652 65.8285ZM391.154 60.6945C390.96 58.8534 390.668 57.1619 390.271 55.6252L387.366 56.3748C387.72 57.7443 387.989 59.2872 388.171 61.0086L391.154 60.6945ZM390.284 55.6795C389.937 54.0944 389.475 52.7262 388.867 51.6209L386.239 53.0666C386.662 53.8363 387.044 54.9056 387.353 56.3205L390.284 55.6795ZM388.867 51.6209C388.238 50.4767 387.228 49.4375 385.725 49.4375V52.4375C385.73 52.4375 385.729 52.4378 385.73 52.438C385.732 52.4388 385.754 52.4465 385.795 52.478C385.884 52.5471 386.044 52.7128 386.239 53.0666L388.867 51.6209ZM385.725 49.4375C383.632 49.4375 381.886 50.2773 380.652 51.9431L383.063 53.7288C383.704 52.8634 384.536 52.4375 385.725 52.4375V49.4375ZM380.669 51.9214C379.593 53.3198 378.812 54.9817 378.3 56.8743L381.196 57.657C381.622 56.0808 382.247 54.7896 383.047 53.7505L380.669 51.9214ZM378.291 56.9111C377.846 58.7389 377.575 60.6132 377.477 62.5326L380.473 62.6862C380.562 60.9493 380.807 59.2611 381.206 57.6202L378.291 56.9111ZM377.477 62.5305C377.382 64.3248 377.334 65.8069 377.334 66.9688H380.334C380.334 65.8806 380.38 64.4565 380.473 62.6882L377.477 62.5305ZM377.334 66.9688C377.334 68.9613 377.382 70.9539 377.477 72.9463L380.473 72.8037C380.381 70.8586 380.334 68.9137 380.334 66.9688H377.334ZM377.477 72.9463C377.569 74.8903 377.615 76.8821 377.615 78.9219H380.615C380.615 76.8367 380.568 74.7972 380.473 72.8037L377.477 72.9463ZM377.615 78.9219C377.615 86.1617 377.429 93.3779 377.055 100.571L380.051 100.726C380.427 93.4815 380.615 86.2133 380.615 78.9219H377.615ZM377.055 100.58C376.727 107.786 376.306 115.016 375.791 122.269L378.784 122.481C379.3 115.203 379.723 107.948 380.051 100.717L377.055 100.58ZM377.23 120.876L343.902 122.142L344.016 125.14L377.344 123.874L377.23 120.876ZM345.446 123.837C346.527 115.665 347.466 107.515 348.265 99.3889L345.279 99.0955C344.484 107.188 343.548 115.304 342.472 123.444L345.446 123.837ZM348.264 99.3965C349.113 91.189 349.537 82.9578 349.537 74.7031H346.537C346.537 82.8547 346.118 90.9829 345.28 99.0878L348.264 99.3965ZM349.537 74.7031C349.537 74.1582 349.513 73.1965 349.466 71.8389L346.468 71.9423C346.515 73.3035 346.537 74.2168 346.537 74.7031H349.537ZM349.466 71.8389C349.418 70.4502 349.323 68.9019 349.181 67.1957L346.191 67.4449C346.33 69.1137 346.422 70.6123 346.468 71.9423L349.466 71.8389ZM349.183 67.2371C349.088 65.5106 348.92 63.7168 348.681 61.8561L345.706 62.2376C345.936 64.0332 346.097 65.755 346.188 67.4035L349.183 67.2371ZM348.681 61.8561C348.441 59.9804 348.126 58.2575 347.735 56.6909L344.824 57.4185C345.183 58.8519 345.478 60.4571 345.706 62.2376L348.681 61.8561ZM347.747 56.7434C347.401 55.1141 346.942 53.7067 346.343 52.5618L343.685 53.9538C344.117 54.7777 344.502 55.9015 344.812 57.3659L347.747 56.7434ZM346.343 52.5618C345.707 51.348 344.67 50.2812 343.115 50.2812V53.2812C343.133 53.2812 343.159 53.278 343.232 53.3344C343.327 53.4083 343.491 53.5828 343.685 53.9538L346.343 52.5618ZM343.115 50.2812C341.479 50.2812 340.085 50.9624 339.019 52.216L341.305 54.159C341.833 53.5376 342.408 53.2812 343.115 53.2812V50.2812ZM339.044 52.1873C338.086 53.2588 337.343 54.6155 336.78 56.2015L339.607 57.2047C340.076 55.8845 340.645 54.8974 341.28 54.1877L339.044 52.1873ZM336.766 56.2426C336.27 57.7816 335.878 59.476 335.587 61.3207L338.55 61.7886C338.821 60.0708 339.18 58.5309 339.621 57.1636L336.766 56.2426ZM335.582 61.3538C335.344 63.1127 335.154 64.8491 335.011 66.5629L338.001 66.8121C338.139 65.1509 338.324 63.4654 338.555 61.7556L335.582 61.3538ZM335.008 66.6043C334.914 68.3016 334.843 69.8836 334.796 71.3501L337.794 71.4468C337.841 70.007 337.911 68.4484 338.004 66.7707L335.008 66.6043ZM334.795 71.3984C334.795 72.7972 334.772 73.8112 334.728 74.4627L337.722 74.6623C337.772 73.9075 337.795 72.8122 337.795 71.3984H334.795ZM334.726 74.5173L333.179 125.845L336.177 125.936L337.724 74.6077L334.726 74.5173ZM334.678 124.391H299.24V127.391H334.678V124.391ZM300.734 126.032C301.484 118.11 302.234 110.164 302.984 102.195L299.997 101.914C299.247 109.883 298.497 117.828 297.747 125.749L300.734 126.032ZM302.983 102.204C303.781 94.221 304.462 86.2613 305.026 78.325L302.033 78.1125C301.472 86.0199 300.793 93.9509 299.998 101.905L302.983 102.204ZM305.025 78.3331C305.636 70.3498 306.129 62.3664 306.504 54.383L303.508 54.242C303.133 62.1961 302.642 70.1502 302.034 78.1044L305.025 78.3331ZM306.504 54.383C306.881 46.3908 307.069 38.3985 307.069 30.4062H304.069C304.069 38.3515 303.882 46.2967 303.508 54.242L306.504 54.383ZM305.632 31.9049L339.1 30.4987L338.974 27.5013L305.506 28.9076L305.632 31.9049ZM337.538 28.9741L337.397 37.1304L340.397 37.1821L340.537 29.0259L337.538 28.9741ZM340.076 38.083C341.067 36.8223 342.198 35.5543 343.473 34.2794L341.352 32.1581C340.002 33.5082 338.789 34.8652 337.717 36.2295L340.076 38.083ZM343.491 34.2606C344.743 32.9641 346.056 31.8304 347.429 30.8561L345.693 28.4096C344.159 29.4977 342.706 30.7546 341.333 32.1769L343.491 34.2606ZM347.436 30.8508C348.842 29.8404 350.306 29.0331 351.829 28.424L350.715 25.6385C348.956 26.3419 347.28 27.269 345.685 28.4148L347.436 30.8508ZM351.815 28.4293C353.332 27.8393 354.883 27.5469 356.475 27.5469V24.5469C354.505 24.5469 352.586 24.9107 350.728 25.6332L351.815 28.4293ZM356.475 27.5469C358.693 27.5469 360.652 27.7281 362.361 28.0788L362.964 25.14C361.017 24.7406 358.851 24.5469 356.475 24.5469V27.5469ZM362.397 28.0858C364.072 28.3863 365.544 28.9171 366.831 29.6644L368.337 27.07C366.718 26.1298 364.909 25.4887 362.927 25.133L362.397 28.0858ZM366.849 29.6746C368.152 30.4074 369.31 31.4343 370.322 32.7828L372.722 30.9828C371.483 29.3313 370.017 28.0145 368.32 27.0598L366.849 29.6746ZM370.336 32.8011C371.345 34.1053 372.264 35.8142 373.07 37.9642L375.879 36.9108C374.998 34.5608 373.948 32.5666 372.708 30.9646L370.336 32.8011ZM375.582 38.4497C377.058 36.8352 378.531 35.3394 380.001 33.9615L377.949 31.7729C376.419 33.2075 374.892 34.7586 373.368 36.4253L375.582 38.4497ZM379.984 33.9771C381.458 32.6366 382.991 31.5049 384.582 30.5769L383.071 27.9856C381.286 29.0264 379.585 30.2853 377.966 31.7573L379.984 33.9771ZM384.609 30.5612C386.177 29.603 387.88 28.8596 389.723 28.3329L388.899 25.4483C386.804 26.0467 384.851 26.897 383.044 28.0013L384.609 30.5612ZM389.723 28.3329C391.537 27.8145 393.576 27.5469 395.85 27.5469V24.5469C393.343 24.5469 391.022 24.8418 388.899 25.4483L389.723 28.3329ZM395.85 27.5469C400.203 27.5469 403.804 28.399 406.72 30.0282L408.183 27.4093C404.724 25.476 400.591 24.5469 395.85 24.5469V27.5469ZM406.734 30.0363C409.728 31.6652 412.206 33.8372 414.183 36.5608L416.611 34.7986C414.369 31.7097 411.55 29.2411 408.168 27.4012L406.734 30.0363ZM414.192 36.5735C416.24 39.3336 417.831 42.5082 418.957 46.1115L421.821 45.2167C420.603 41.3199 418.866 37.8383 416.601 34.7859L414.192 36.5735ZM418.962 46.1277C420.155 49.797 421.05 53.6074 421.648 57.5601L424.614 57.1117C423.993 53.002 423.06 49.0312 421.815 45.2004L418.962 46.1277ZM421.648 57.5601C422.249 61.5359 422.618 65.4865 422.757 69.4123L425.755 69.3065C425.612 65.2635 425.232 61.1985 424.614 57.1117L421.648 57.5601ZM422.758 69.4299C422.944 73.3952 423.037 77.0276 423.037 80.3281H426.037C426.037 76.9724 425.943 73.2923 425.754 69.2889L422.758 69.4299ZM561.883 120.406L561.953 121.905L563.268 121.843L563.378 120.532L561.883 120.406ZM525.742 122.094L524.255 121.897L524.02 123.676L525.812 123.592L525.742 122.094ZM528.625 97.625L527.134 97.4631L527.133 97.4707L528.625 97.625ZM529.891 70.3438L528.392 70.3973V70.3993L529.891 70.3438ZM529.61 65.9141L528.112 65.9996L528.113 66.0209L528.115 66.0422L529.61 65.9141ZM529.117 60.8516L527.626 61.0086L527.628 61.0306L527.631 61.0524L529.117 60.8516ZM528.274 56L526.808 56.3205L526.814 56.3478L526.821 56.3748L528.274 56ZM521.313 52.8359L522.502 53.7505L522.51 53.7397L522.518 53.7288L521.313 52.8359ZM519.203 57.2656L517.755 56.8743L517.75 56.8926L517.746 56.9111L519.203 57.2656ZM518.43 62.6094L519.928 62.6882V62.6862L518.43 62.6094ZM518.008 100.648L516.51 100.571V100.58L518.008 100.648ZM516.742 122.375L516.799 123.874L518.143 123.823L518.239 122.481L516.742 122.375ZM483.414 123.641L481.927 123.444L481.694 125.207L483.471 125.14L483.414 123.641ZM486.227 99.2422L484.735 99.0878L484.734 99.0955L486.227 99.2422ZM487.141 67.3203L485.643 67.4035L485.644 67.4242L485.646 67.4449L487.141 67.3203ZM485.735 57.0547L484.267 57.3659L484.273 57.3923L484.279 57.4185L485.735 57.0547ZM479.617 53.1875L480.735 54.1877L480.748 54.1735L480.76 54.159L479.617 53.1875ZM477.649 56.7031L476.235 56.2015L476.228 56.222L476.221 56.2426L477.649 56.7031ZM476.524 61.5547L475.042 61.3207L475.039 61.3373L475.037 61.3538L476.524 61.5547ZM475.961 66.6875L474.466 66.5629L474.465 66.5836L474.463 66.6043L475.961 66.6875ZM475.75 71.3984L474.251 71.3501L474.25 71.3743V71.3984H475.75ZM475.68 74.5625L474.183 74.4627L474.181 74.49V74.5173L475.68 74.5625ZM474.133 125.891V127.391H475.588L475.632 125.936L474.133 125.891ZM438.695 125.891L437.202 125.749L437.047 127.391H438.695V125.891ZM440.945 102.055L439.453 101.905L439.452 101.914L440.945 102.055ZM442.985 78.2188L441.489 78.1044L441.488 78.1125L442.985 78.2188ZM445.024 30.4062L444.961 28.9076L443.524 28.968V30.4062H445.024ZM478.492 29L479.992 29.0259L480.02 27.4345L478.429 27.5013L478.492 29ZM478.352 37.1562L476.852 37.1304L476.775 41.5908L479.531 38.083L478.352 37.1562ZM481.867 33.2188L482.928 34.2794L482.937 34.2701L482.946 34.2606L481.867 33.2188ZM486.016 29.6328L486.884 30.8561L486.891 30.8508L486.016 29.6328ZM490.727 27.0312L490.183 25.6332L490.176 25.6359L490.17 25.6385L490.727 27.0312ZM502.117 26.6094L501.816 28.0788L501.834 28.0825L501.852 28.0858L502.117 26.6094ZM507.039 28.3672L506.286 29.6644L506.295 29.6695L506.304 29.6746L507.039 28.3672ZM510.977 31.8828L509.777 32.7828L509.784 32.792L509.791 32.8011L510.977 31.8828ZM513.93 37.4375L512.525 37.9642L513.385 40.2565L515.037 38.4497L513.93 37.4375ZM518.43 32.8672L517.421 31.7573L517.412 31.765L517.404 31.7729L518.43 32.8672ZM523.281 29.2812L524.037 30.5769L524.05 30.5692L524.064 30.5612L523.281 29.2812ZM546.906 28.7188L546.175 30.0282L546.182 30.0323L546.189 30.0363L546.906 28.7188ZM554.852 35.6797L553.638 36.5608L553.642 36.5671L553.647 36.5735L554.852 35.6797ZM559.844 45.6641L558.412 46.1115L558.415 46.1196L558.417 46.1277L559.844 45.6641ZM563.711 69.3594L562.212 69.4123V69.4211L562.213 69.4299L563.711 69.3594ZM562.492 80.3281C562.492 86.9998 562.282 93.6478 561.863 100.272L564.857 100.462C565.28 93.7741 565.492 87.0627 565.492 80.3281H562.492ZM561.863 100.272C561.441 106.918 560.95 113.588 560.388 120.281L563.378 120.532C563.941 113.818 564.434 107.129 564.857 100.462L561.863 100.272ZM561.813 118.908L525.672 120.595L525.812 123.592L561.953 121.905L561.813 118.908ZM527.229 122.29C528.309 114.12 529.272 105.95 530.117 97.7793L527.133 97.4707C526.291 105.613 525.332 113.755 524.255 121.897L527.229 122.29ZM530.116 97.7869C531.013 89.5303 531.461 81.2732 531.461 73.0156H528.461C528.461 81.1643 528.019 89.3134 527.134 97.4631L530.116 97.7869ZM531.461 73.0156C531.461 72.4692 531.437 71.5535 531.39 70.2882L528.392 70.3993C528.439 71.6653 528.461 72.5308 528.461 73.0156H531.461ZM531.39 70.2902C531.342 68.9475 531.246 67.4455 531.104 65.786L528.115 66.0422C528.254 67.6639 528.346 69.115 528.392 70.3973L531.39 70.2902ZM531.107 65.8285C531.011 64.1469 530.843 62.4209 530.604 60.6507L527.631 61.0524C527.86 62.751 528.021 64.4 528.112 65.9996L531.107 65.8285ZM530.609 60.6945C530.415 58.8534 530.123 57.1619 529.726 55.6252L526.821 56.3748C527.175 57.7443 527.444 59.2872 527.626 61.0086L530.609 60.6945ZM529.739 55.6795C529.392 54.0944 528.93 52.7262 528.322 51.6209L525.694 53.0666C526.117 53.8363 526.499 54.9056 526.808 56.3205L529.739 55.6795ZM528.322 51.6209C527.693 50.4767 526.683 49.4375 525.18 49.4375V52.4375C525.185 52.4375 525.184 52.4378 525.185 52.438C525.187 52.4388 525.209 52.4465 525.25 52.478C525.339 52.5471 525.499 52.7128 525.694 53.0666L528.322 51.6209ZM525.18 49.4375C523.087 49.4375 521.341 50.2773 520.107 51.9431L522.518 53.7288C523.159 52.8634 523.991 52.4375 525.18 52.4375V49.4375ZM520.124 51.9214C519.048 53.3198 518.267 54.9817 517.755 56.8743L520.651 57.657C521.077 56.0808 521.702 54.7896 522.502 53.7505L520.124 51.9214ZM517.746 56.9111C517.301 58.7389 517.03 60.6132 516.932 62.5326L519.928 62.6862C520.017 60.9493 520.262 59.2611 520.661 57.6202L517.746 56.9111ZM516.932 62.5305C516.837 64.3248 516.789 65.8069 516.789 66.9688H519.789C519.789 65.8806 519.835 64.4565 519.928 62.6882L516.932 62.5305ZM516.789 66.9688C516.789 68.9613 516.837 70.9539 516.932 72.9463L519.928 72.8037C519.836 70.8586 519.789 68.9137 519.789 66.9688H516.789ZM516.932 72.9463C517.024 74.8903 517.07 76.8821 517.07 78.9219H520.07C520.07 76.8367 520.023 74.7972 519.928 72.8037L516.932 72.9463ZM517.07 78.9219C517.07 86.1617 516.884 93.3779 516.51 100.571L519.506 100.726C519.882 93.4815 520.07 86.2133 520.07 78.9219H517.07ZM516.51 100.58C516.182 107.786 515.761 115.016 515.246 122.269L518.239 122.481C518.755 115.203 519.178 107.948 519.506 100.717L516.51 100.58ZM516.685 120.876L483.357 122.142L483.471 125.14L516.799 123.874L516.685 120.876ZM484.901 123.837C485.982 115.665 486.921 107.515 487.72 99.3889L484.734 99.0955C483.939 107.188 483.003 115.304 481.927 123.444L484.901 123.837ZM487.719 99.3965C488.568 91.189 488.992 82.9578 488.992 74.7031H485.992C485.992 82.8547 485.573 90.9829 484.735 99.0878L487.719 99.3965ZM488.992 74.7031C488.992 74.1582 488.968 73.1965 488.921 71.8389L485.923 71.9423C485.97 73.3035 485.992 74.2168 485.992 74.7031H488.992ZM488.921 71.8389C488.873 70.4502 488.778 68.9019 488.636 67.1957L485.646 67.4449C485.785 69.1137 485.877 70.6123 485.923 71.9423L488.921 71.8389ZM488.638 67.2371C488.543 65.5106 488.375 63.7168 488.136 61.8561L485.161 62.2376C485.391 64.0332 485.552 65.755 485.643 67.4035L488.638 67.2371ZM488.136 61.8561C487.896 59.9804 487.581 58.2575 487.19 56.6909L484.279 57.4185C484.638 58.8519 484.932 60.4571 485.161 62.2376L488.136 61.8561ZM487.202 56.7434C486.856 55.1141 486.397 53.7067 485.798 52.5618L483.14 53.9538C483.572 54.7777 483.957 55.9015 484.267 57.3659L487.202 56.7434ZM485.798 52.5618C485.162 51.348 484.125 50.2812 482.57 50.2812V53.2812C482.588 53.2812 482.614 53.278 482.687 53.3344C482.782 53.4083 482.946 53.5828 483.14 53.9538L485.798 52.5618ZM482.57 50.2812C480.934 50.2812 479.54 50.9624 478.474 52.216L480.76 54.159C481.288 53.5376 481.863 53.2812 482.57 53.2812V50.2812ZM478.499 52.1873C477.541 53.2588 476.798 54.6155 476.235 56.2015L479.062 57.2047C479.531 55.8845 480.1 54.8974 480.735 54.1877L478.499 52.1873ZM476.221 56.2426C475.725 57.7816 475.333 59.476 475.042 61.3207L478.005 61.7886C478.276 60.0708 478.635 58.5309 479.076 57.1636L476.221 56.2426ZM475.037 61.3538C474.799 63.1127 474.609 64.8491 474.466 66.5629L477.456 66.8121C477.594 65.1509 477.779 63.4654 478.01 61.7556L475.037 61.3538ZM474.463 66.6043C474.369 68.3016 474.298 69.8836 474.251 71.3501L477.249 71.4468C477.296 70.007 477.366 68.4484 477.459 66.7707L474.463 66.6043ZM474.25 71.3984C474.25 72.7972 474.227 73.8112 474.183 74.4627L477.177 74.6623C477.227 73.9075 477.25 72.8122 477.25 71.3984H474.25ZM474.181 74.5173L472.634 125.845L475.632 125.936L477.179 74.6077L474.181 74.5173ZM474.133 124.391H438.695V127.391H474.133V124.391ZM440.189 126.032C440.939 118.11 441.689 110.164 442.439 102.195L439.452 101.914C438.702 109.883 437.952 117.828 437.202 125.749L440.189 126.032ZM442.438 102.204C443.236 94.221 443.917 86.2613 444.481 78.325L441.488 78.1125C440.927 86.0199 440.248 93.9509 439.453 101.905L442.438 102.204ZM444.48 78.3331C445.091 70.3498 445.584 62.3664 445.959 54.383L442.963 54.242C442.588 62.1961 442.097 70.1502 441.489 78.1044L444.48 78.3331ZM445.959 54.383C446.336 46.3908 446.524 38.3985 446.524 30.4062H443.524C443.524 38.3515 443.337 46.2967 442.963 54.242L445.959 54.383ZM445.087 31.9049L478.555 30.4987L478.429 27.5013L444.961 28.9076L445.087 31.9049ZM476.993 28.9741L476.852 37.1304L479.851 37.1821L479.992 29.0259L476.993 28.9741ZM479.531 38.083C480.522 36.8223 481.653 35.5543 482.928 34.2794L480.807 32.1581C479.457 33.5082 478.244 34.8652 477.172 36.2295L479.531 38.083ZM482.946 34.2606C484.198 32.9641 485.511 31.8304 486.884 30.8561L485.148 28.4096C483.614 29.4977 482.161 30.7546 480.788 32.1769L482.946 34.2606ZM486.891 30.8508C488.297 29.8404 489.761 29.0331 491.284 28.424L490.17 25.6385C488.411 26.3419 486.735 27.269 485.14 28.4148L486.891 30.8508ZM491.27 28.4293C492.787 27.8393 494.338 27.5469 495.93 27.5469V24.5469C493.96 24.5469 492.041 24.9107 490.183 25.6332L491.27 28.4293ZM495.93 27.5469C498.148 27.5469 500.107 27.7281 501.816 28.0788L502.419 25.14C500.472 24.7406 498.306 24.5469 495.93 24.5469V27.5469ZM501.852 28.0858C503.527 28.3863 504.999 28.9171 506.286 29.6644L507.792 27.07C506.173 26.1298 504.364 25.4887 502.382 25.133L501.852 28.0858ZM506.304 29.6746C507.607 30.4074 508.765 31.4343 509.777 32.7828L512.177 30.9828C510.938 29.3313 509.472 28.0145 507.775 27.0598L506.304 29.6746ZM509.791 32.8011C510.8 34.1053 511.719 35.8142 512.525 37.9642L515.334 36.9108C514.453 34.5608 513.403 32.5666 512.163 30.9646L509.791 32.8011ZM515.037 38.4497C516.513 36.8352 517.986 35.3394 519.456 33.9615L517.404 31.7729C515.874 33.2075 514.347 34.7586 512.823 36.4253L515.037 38.4497ZM519.439 33.9771C520.913 32.6366 522.446 31.5049 524.037 30.5769L522.526 27.9856C520.741 29.0264 519.04 30.2853 517.421 31.7573L519.439 33.9771ZM524.064 30.5612C525.632 29.603 527.335 28.8596 529.178 28.3329L528.354 25.4483C526.259 26.0467 524.306 26.897 522.499 28.0013L524.064 30.5612ZM529.178 28.3329C530.992 27.8145 533.031 27.5469 535.305 27.5469V24.5469C532.798 24.5469 530.477 24.8418 528.354 25.4483L529.178 28.3329ZM535.305 27.5469C539.658 27.5469 543.259 28.399 546.175 30.0282L547.638 27.4093C544.178 25.476 540.046 24.5469 535.305 24.5469V27.5469ZM546.189 30.0363C549.183 31.6652 551.661 33.8372 553.638 36.5608L556.066 34.7986C553.824 31.7097 551.005 29.2411 547.623 27.4012L546.189 30.0363ZM553.647 36.5735C555.695 39.3336 557.286 42.5082 558.412 46.1115L561.276 45.2167C560.058 41.3199 558.321 37.8383 556.056 34.7859L553.647 36.5735ZM558.417 46.1277C559.61 49.797 560.505 53.6074 561.103 57.5601L564.069 57.1117C563.448 53.002 562.515 49.0312 561.27 45.2004L558.417 46.1277ZM561.103 57.5601C561.704 61.5359 562.073 65.4865 562.212 69.4123L565.21 69.3065C565.067 65.2635 564.687 61.1985 564.069 57.1117L561.103 57.5601ZM562.213 69.4299C562.399 73.3952 562.492 77.0276 562.492 80.3281H565.492C565.492 76.9724 565.398 73.2923 565.209 69.2889L562.213 69.4299ZM665.971 86.5156L667.426 86.8794L667.427 86.8754L665.971 86.5156ZM661.682 97.625L660.362 96.9117L660.358 96.9187L660.355 96.9256L661.682 97.625ZM654.932 107.188L653.827 106.172V106.173L654.932 107.188ZM646.002 114.57L645.212 113.295L645.204 113.3L646.002 114.57ZM635.244 119.422L635.661 120.863L635.669 120.861L635.677 120.858L635.244 119.422ZM610.775 119.492L610.366 120.935L610.37 120.936L610.775 119.492ZM600.088 114.992L599.324 116.283L599.331 116.287L599.338 116.291L600.088 114.992ZM591.018 107.961L589.939 109.003L589.948 109.012L589.957 109.022L591.018 107.961ZM584.127 98.8203L582.816 99.5488L582.822 99.5597L582.828 99.5704L584.127 98.8203ZM579.697 87.9922L578.249 88.3809L578.251 88.3891L578.253 88.3973L579.697 87.9922ZM579.627 64.0156L581.081 64.3836L581.082 64.3794L579.627 64.0156ZM583.846 52.9062L582.526 52.193L582.522 52.1999L582.519 52.2069L583.846 52.9062ZM599.385 35.8203L598.574 34.5585L598.565 34.5639L599.385 35.8203ZM640.588 32.3047L640.057 33.7077L640.061 33.7092L640.588 32.3047ZM654.932 41.375L653.871 42.4357L653.877 42.442L653.884 42.4482L654.932 41.375ZM664.143 55.5781L662.744 56.119L662.746 56.1261L662.749 56.1332L664.143 55.5781ZM635.315 70.1328L633.875 70.5542L633.881 70.5754L633.888 70.5964L635.315 70.1328ZM632.783 65.0703L631.583 65.9703L631.59 65.9795L631.597 65.9886L632.783 65.0703ZM628.565 61.4844L627.82 62.7867L627.842 62.7992L627.864 62.811L628.565 61.4844ZM612.463 64.5781L611.348 63.5747L611.346 63.5768L612.463 64.5781ZM609.65 69.4297L611.062 69.9365L611.066 69.9252L609.65 69.4297ZM616.19 90.3828L615.418 91.6691L615.426 91.6738L615.434 91.6785L616.19 90.3828ZM627.932 90.5938L628.588 91.9426L628.595 91.939L628.603 91.9354L627.932 90.5938ZM632.432 87.0781L633.581 88.042L633.589 88.0331L633.596 88.024L632.432 87.0781ZM665.947 74.1406C665.947 78.2898 665.469 82.2937 664.515 86.1559L667.427 86.8754C668.442 82.7688 668.947 78.5227 668.947 74.1406H665.947ZM664.516 86.1518C663.561 89.9712 662.176 93.5565 660.362 96.9117L663.001 98.3383C664.938 94.756 666.412 90.935 667.426 86.8794L664.516 86.1518ZM660.355 96.9256C658.587 100.279 656.412 103.361 653.827 106.172L656.036 108.203C658.795 105.202 661.12 101.908 663.009 98.3244L660.355 96.9256ZM653.827 106.173C651.295 108.931 648.425 111.304 645.212 113.295L646.792 115.845C650.236 113.711 653.318 111.163 656.037 108.202L653.827 106.173ZM645.204 113.3C642.042 115.288 638.58 116.851 634.812 117.986L635.677 120.858C639.69 119.649 643.4 117.978 646.8 115.84L645.204 113.3ZM634.828 117.981C631.082 119.064 627.098 119.609 622.869 119.609V122.609C627.359 122.609 631.625 122.03 635.661 120.863L634.828 117.981ZM622.869 119.609C618.78 119.609 614.885 119.087 611.181 118.048L610.37 120.936C614.353 122.054 618.521 122.609 622.869 122.609V119.609ZM611.185 118.049C607.504 117.004 604.056 115.552 600.838 113.693L599.338 116.291C602.776 118.277 606.453 119.824 610.366 120.935L611.185 118.049ZM600.852 113.701C597.631 111.796 594.708 109.53 592.078 106.9L589.957 109.022C592.765 111.83 595.888 114.251 599.324 116.283L600.852 113.701ZM592.096 106.919C589.51 104.241 587.287 101.292 585.426 98.0702L582.828 99.5704C584.811 103.005 587.182 106.15 589.939 109.003L592.096 106.919ZM585.438 98.0918C583.622 94.8225 582.189 91.3221 581.142 87.5871L578.253 88.3973C579.362 92.3498 580.882 96.0681 582.816 99.5488L585.438 98.0918ZM581.146 87.6035C580.15 83.8925 579.65 80.0157 579.65 75.9688H576.65C576.65 80.2655 577.182 84.4044 578.249 88.3809L581.146 87.6035ZM579.65 75.9688C579.65 72.0127 580.128 68.152 581.081 64.3835L578.173 63.6477C577.158 67.6605 576.65 71.7686 576.65 75.9688H579.65ZM581.082 64.3794C582.038 60.5544 583.403 56.9644 585.173 53.6056L582.519 52.2069C580.633 55.7856 579.184 59.6018 578.172 63.6518L581.082 64.3794ZM585.165 53.6195C586.984 50.2553 589.165 47.166 591.709 44.3492L589.483 42.3383C586.777 45.334 584.458 48.6197 582.526 52.193L585.165 53.6195ZM591.709 44.3492C594.248 41.5375 597.08 39.1144 600.204 37.0767L598.565 34.5639C595.221 36.7449 592.193 39.3375 589.483 42.3383L591.709 44.3492ZM600.196 37.0821C603.361 35.0477 606.775 33.4642 610.444 32.3317L609.56 29.4652C605.635 30.6764 601.972 32.3741 598.574 34.5585L600.196 37.0821ZM610.444 32.3317C614.089 31.2067 617.947 30.6406 622.025 30.6406V27.6406C617.666 27.6406 613.508 28.2464 609.56 29.4652L610.444 32.3317ZM622.025 30.6406C628.666 30.6406 634.671 31.6708 640.057 33.7077L641.119 30.9017C635.349 28.7199 628.979 27.6406 622.025 27.6406V30.6406ZM640.061 33.7092C645.502 35.7494 650.097 38.6612 653.871 42.4357L655.992 40.3143C651.892 36.2138 646.924 33.0787 641.115 30.9002L640.061 33.7092ZM653.884 42.4482C657.703 46.1777 660.659 50.7263 662.744 56.119L665.542 55.0373C663.314 49.2737 660.129 44.3535 655.98 40.3018L653.884 42.4482ZM662.749 56.1332C664.872 61.4635 665.947 67.4589 665.947 74.1406H668.947C668.947 67.1349 667.819 60.7553 665.536 55.0231L662.749 56.1332ZM637.729 75.9688C637.729 73.7993 637.4 71.6973 636.741 69.6692L633.888 70.5964C634.448 72.3184 634.729 74.107 634.729 75.9688H637.729ZM636.754 69.7115C636.144 67.6258 635.219 65.7663 633.969 64.1521L631.597 65.9886C632.597 67.2806 633.36 68.7961 633.875 70.5542L636.754 69.7115ZM633.983 64.1703C632.723 62.4897 631.145 61.15 629.265 60.1578L627.864 62.811C629.359 63.6 630.594 64.6509 631.583 65.9703L633.983 64.1703ZM629.309 60.182C627.411 59.0976 625.249 58.5781 622.869 58.5781V61.5781C624.802 61.5781 626.437 61.9961 627.82 62.7867L629.309 60.182ZM622.869 58.5781C620.483 58.5781 618.296 59.0104 616.337 59.9104L617.589 62.6365C619.099 61.9427 620.849 61.5781 622.869 61.5781V58.5781ZM616.337 59.9104C614.418 60.7918 612.752 62.0152 611.348 63.5747L613.578 65.5816C614.706 64.3286 616.039 63.3488 617.589 62.6365L616.337 59.9104ZM611.346 63.5768C609.984 65.0959 608.95 66.8891 608.235 68.9342L611.066 69.9252C611.663 68.2203 612.504 66.7791 613.58 65.5794L611.346 63.5768ZM608.239 68.9229C607.521 70.9234 607.166 73.0411 607.166 75.2656H610.166C610.166 73.3651 610.468 71.5922 611.062 69.9365L608.239 68.9229ZM607.166 75.2656C607.166 77.3792 607.468 79.4866 608.068 81.584L610.952 80.7598C610.426 78.9197 610.166 77.0895 610.166 75.2656H607.166ZM608.068 81.584C608.674 83.7067 609.589 85.6425 610.816 87.3806L613.267 85.6506C612.243 84.2013 611.471 82.5746 610.952 80.7598L608.068 81.584ZM610.816 87.3806C612.058 89.1414 613.595 90.5752 615.418 91.6691L616.961 89.0966C615.503 88.2217 614.274 87.0774 613.267 85.6506L610.816 87.3806ZM615.434 91.6785C617.379 92.8131 619.591 93.3594 622.025 93.3594V90.3594C620.053 90.3594 618.375 89.9213 616.945 89.0871L615.434 91.6785ZM622.025 93.3594C624.424 93.3594 626.622 92.8991 628.588 91.9426L627.276 89.2449C625.773 89.9759 624.034 90.3594 622.025 90.3594V93.3594ZM628.603 91.9354C630.558 90.9576 632.224 89.6603 633.581 88.042L631.282 86.1142C630.202 87.4022 628.868 88.4486 627.261 89.2521L628.603 91.9354ZM633.596 88.024C634.932 86.3797 635.953 84.5109 636.664 82.43L633.825 81.4606C633.223 83.2235 632.369 84.7766 631.268 86.1322L633.596 88.024ZM636.664 82.43C637.374 80.3496 637.729 78.1935 637.729 75.9688H634.729C634.729 77.869 634.427 79.6972 633.825 81.4606L636.664 82.43ZM716.902 23.5156L718.398 23.6322L718.524 22.0156H716.902V23.5156ZM711.137 97.4844V98.9844H712.524L712.632 97.6009L711.137 97.4844ZM685.121 97.4844L683.622 97.5385L683.674 98.9844H685.121V97.4844ZM682.449 23.5156V22.0156H680.894L680.95 23.5698L682.449 23.5156ZM711.066 124.906L709.697 124.294L711.066 124.906ZM707.832 129.547L706.79 128.468L706.771 128.486L706.753 128.505L707.832 129.547ZM703.191 132.711L702.609 131.328L702.594 131.335L702.579 131.342L703.191 132.711ZM691.73 132.711L692.343 131.342L692.328 131.335L692.313 131.328L691.73 132.711ZM683.855 124.906L682.473 125.488L682.479 125.504L682.486 125.519L683.855 124.906ZM683.855 113.375L682.48 112.776L682.474 112.791L682.468 112.806L683.855 113.375ZM707.832 108.664L706.753 109.706L706.771 109.725L706.79 109.743L707.832 108.664ZM715.407 23.3991L709.641 97.3678L712.632 97.6009L718.398 23.6322L715.407 23.3991ZM711.137 95.9844H685.121V98.9844H711.137V95.9844ZM686.62 97.4302L683.948 23.4615L680.95 23.5698L683.622 97.5385L686.62 97.4302ZM682.449 25.0156H716.902V22.0156H682.449V25.0156ZM710.762 119.141C710.762 121.004 710.403 122.716 709.697 124.294L712.436 125.519C713.324 123.534 713.762 121.402 713.762 119.141H710.762ZM709.697 124.294C708.976 125.906 708.007 127.293 706.79 128.468L708.874 130.626C710.376 129.176 711.563 127.469 712.436 125.519L709.697 124.294ZM706.753 128.505C705.585 129.715 704.208 130.655 702.609 131.328L703.773 134.093C705.737 133.266 707.454 132.097 708.911 130.589L706.753 128.505ZM702.579 131.342C700.997 132.05 699.308 132.406 697.496 132.406V135.406C699.716 135.406 701.824 134.966 703.804 134.08L702.579 131.342ZM697.496 132.406C695.632 132.406 693.921 132.048 692.343 131.342L691.118 134.08C693.103 134.968 695.235 135.406 697.496 135.406V132.406ZM692.313 131.328C690.709 130.653 689.302 129.708 688.08 128.486L685.959 130.608C687.456 132.105 689.189 133.269 691.148 134.093L692.313 131.328ZM688.08 128.486C686.904 127.31 685.951 125.917 685.225 124.294L682.486 125.519C683.354 127.458 684.511 129.159 685.959 130.608L688.08 128.486ZM685.238 124.324C684.571 122.739 684.23 121.017 684.23 119.141H681.23C681.23 121.389 681.64 123.511 682.473 125.488L685.238 124.324ZM684.23 119.141C684.23 117.316 684.569 115.588 685.243 113.944L682.468 112.806C681.642 114.818 681.23 116.934 681.23 119.141H684.23ZM685.231 113.974C685.958 112.305 686.91 110.895 688.08 109.725L685.959 107.603C684.504 109.058 683.347 110.788 682.48 112.776L685.231 113.974ZM688.08 109.725C689.308 108.497 690.726 107.522 692.343 106.799L691.118 104.06C689.172 104.931 687.45 106.113 685.959 107.603L688.08 109.725ZM692.343 106.799C693.921 106.093 695.632 105.734 697.496 105.734V102.734C695.235 102.734 693.103 103.173 691.118 104.06L692.343 106.799ZM697.496 105.734C699.308 105.734 700.997 106.091 702.579 106.799L703.804 104.06C701.824 103.175 699.716 102.734 697.496 102.734V105.734ZM702.579 106.799C704.191 107.52 705.578 108.489 706.753 109.706L708.911 107.622C707.461 106.12 705.754 104.933 703.804 104.06L702.579 106.799ZM706.79 109.743C708 110.912 708.969 112.316 709.691 113.974L712.441 112.776C711.57 110.777 710.382 109.041 708.874 107.585L706.79 109.743ZM709.691 113.974C710.405 115.611 710.762 117.329 710.762 119.141H713.762C713.762 116.921 713.322 114.795 712.441 112.776L709.691 113.974Z" fill="black" />
        </g>
    </g>
    <defs>
        <filter id="filter0_d" x="-4" y="0" width="731" height="152" filterUnits="userSpaceOnUse" color-interpolation-filters="sRGB">
            <feFlood flood-opacity="0" result="BackgroundImageFix" />
            <feColorMatrix in="SourceAlpha" type="matrix" values="0 0 0 0 0 0 0 0 0 0 0 0 0 0 0 0 0 0 127 0" />
            <feOffset dy="3" />
            <feGaussianBlur stdDeviation="2" />
            <feColorMatrix type="matrix" values="0 0 0 0 0 0 0 0 0 0 0 0 0 0 0 0 0 0 0.25 0" />
            <feBlend mode="normal" in2="BackgroundImageFix" result="effect1_dropShadow" />
            <feBlend mode="normal" in="SourceGraphic" in2="effect1_dropShadow" result="shape" />
        </filter>
        <filter id="filter1_d" x="0.225098" y="0.582764" width="722.299" height="142.823" filterUnits="userSpaceOnUse" color-interpolation-filters="sRGB">
            <feFlood flood-opacity="0" result="BackgroundImageFix" />
            <feColorMatrix in="SourceAlpha" type="matrix" values="0 0 0 0 0 0 0 0 0 0 0 0 0 0 0 0 0 0 127 0" />
            <feOffset dy="3" />
            <feGaussianBlur stdDeviation="2" />
            <feColorMatrix type="matrix" values="0 0 0 0 0 0 0 0 0 0 0 0 0 0 0 0 0 0 0.25 0" />
            <feBlend mode="normal" in2="BackgroundImageFix" result="effect1_dropShadow" />
            <feBlend mode="normal" in="SourceGraphic" in2="effect1_dropShadow" result="shape" />
        </filter>
    </defs>
</svg>
