<svg width="467" height="101" viewBox="0 0 467 101" fill="none" xmlns="http://www.w3.org/2000/svg">
    <g filter="url(#filter0_d)">
        <path d="M59.9531 71.3125C59.9531 73.9062 59.4688 76.1406 58.5 78.0156C57.5625 79.8906 56.2969 81.4844 54.7031 82.7969C53.1094 84.1094 51.2656 85.1875 49.1719 86.0312C47.1094 86.8438 44.9531 87.4844 42.7031 87.9531C40.4531 88.4219 38.1875 88.7344 35.9062 88.8906C33.6562 89.0469 31.5469 89.125 29.5781 89.125C27.6406 89.125 25.625 89.0469 23.5312 88.8906C21.4688 88.7656 19.4062 88.5312 17.3438 88.1875C15.2812 87.8438 13.25 87.3906 11.25 86.8281C9.25 86.2344 7.35938 85.5 5.57811 84.625L5.48438 24.25C7.23438 23.5313 9.09375 22.8906 11.0625 22.3281C13.0312 21.7344 15.0312 21.25 17.0625 20.875C19.125 20.4687 21.1719 20.1719 23.2031 19.9844C25.2344 19.7656 27.2031 19.6562 29.1094 19.6562C31.3281 19.6562 33.5625 19.7969 35.8125 20.0781C38.0938 20.3594 40.2812 20.8281 42.375 21.4844C44.4688 22.1406 46.4219 23 48.2344 24.0625C50.0469 25.0938 51.625 26.375 52.9688 27.9062C54.3438 29.4375 55.4062 31.2188 56.1562 33.25C56.9375 35.2812 57.3281 37.625 57.3281 40.2812C57.3281 42.0312 57.0781 43.6719 56.5781 45.2031C56.0781 46.7344 55.3594 48.1094 54.4219 49.3281C53.4844 50.5469 52.3438 51.5938 51 52.4688C49.6562 53.3125 48.1406 53.9375 46.4531 54.3438C48.4844 54.875 50.3281 55.6562 51.9844 56.6875C53.6719 57.7188 55.0938 58.9688 56.25 60.4375C57.4375 61.9062 58.3438 63.5625 58.9688 65.4062C59.625 67.25 59.9531 69.2188 59.9531 71.3125ZM36.1406 44.5938C36.1406 43.6875 35.9531 42.9219 35.5781 42.2969C35.2031 41.6406 34.7344 41.1094 34.1719 40.7031C33.6406 40.2969 33.0469 40 32.3906 39.8125C31.7656 39.625 31.2031 39.5312 30.7031 39.5312C30.0781 39.5312 29.4688 39.625 28.875 39.8125C28.2812 40 27.7031 40.2188 27.1406 40.4688L26.8594 50.875C27.5781 50.875 28.4688 50.8125 29.5312 50.6875C30.5938 50.5625 31.6094 50.2969 32.5781 49.8906C33.5781 49.4531 34.4219 48.8281 35.1094 48.0156C35.7969 47.1719 36.1406 46.0312 36.1406 44.5938ZM29.4844 59.875C28.5781 59.875 27.7031 59.9688 26.8594 60.1562L26.6719 70.8438C27.1406 70.9375 27.5938 71.0312 28.0312 71.125C28.5 71.1875 28.9531 71.2188 29.3906 71.2188C30.0469 71.2188 30.7656 71.1562 31.5469 71.0312C32.3281 70.875 33.0625 70.5938 33.75 70.1875C34.4375 69.75 35 69.1719 35.4375 68.4531C35.9062 67.7344 36.1406 66.7812 36.1406 65.5938C36.1406 64.4062 35.9062 63.4375 35.4375 62.6875C35 61.9375 34.4531 61.3594 33.7969 60.9531C33.1406 60.5156 32.4219 60.2344 31.6406 60.1094C30.8594 59.9531 30.1406 59.875 29.4844 59.875ZM110.408 61.2812L108.439 82.0938L68.97 85.1875C69.1575 74.2812 69.3606 63.4375 69.5794 52.6562C69.8294 41.875 70.1263 31.0313 70.47 20.125H94.845C94.1263 26.9688 93.4388 33.8125 92.7825 40.6562C92.1263 47.4688 91.6575 54.3438 91.3763 61.2812C92.845 61.3438 94.2981 61.375 95.7356 61.375C97.1731 61.375 98.6263 61.375 100.095 61.375C101.845 61.375 103.564 61.3594 105.251 61.3281C106.939 61.2969 108.658 61.2812 110.408 61.2812ZM196.378 82.793L166.346 86.668L162.713 72.9844H148.909L145.881 86.668L115.003 83.6406L139.1 2.99218L172.764 1.29688L196.378 82.793ZM160.534 54.457L155.932 33.3867L151.452 54.457H160.534ZM278.1 19.6562L273.788 88.4688L252.413 89.4062L252.6 53.125L242.944 82.375H234.694L227.288 56.2188L227.194 86.5938L205.538 87.25L206.475 22.4688L230.569 21.5312L240.132 52.5625L252.882 19.6562H278.1ZM360.758 19.6562L356.445 88.4688L335.07 89.4062L335.258 53.125L325.602 82.375H317.352L309.945 56.2188L309.852 86.5938L288.195 87.25L289.133 22.4688L313.227 21.5312L322.789 52.5625L335.539 19.6562H360.758ZM428.228 54.9062C428.228 57.75 427.9 60.5 427.244 63.1562C426.587 65.7812 425.634 68.25 424.384 70.5625C423.165 72.875 421.665 75 419.884 76.9375C418.134 78.8438 416.15 80.4844 413.931 81.8594C411.744 83.2344 409.353 84.3125 406.759 85.0938C404.165 85.8438 401.415 86.2188 398.509 86.2188C395.697 86.2188 393.009 85.8594 390.447 85.1406C387.915 84.4219 385.54 83.4219 383.322 82.1406C381.103 80.8281 379.087 79.2656 377.275 77.4531C375.494 75.6094 373.962 73.5781 372.681 71.3594C371.431 69.1094 370.447 66.7031 369.728 64.1406C369.04 61.5781 368.697 58.9062 368.697 56.125C368.697 53.4062 369.025 50.75 369.681 48.1562C370.337 45.5312 371.275 43.0625 372.494 40.75C373.744 38.4375 375.244 36.3125 376.994 34.375C378.744 32.4375 380.697 30.7656 382.853 29.3594C385.04 27.9531 387.4 26.8594 389.931 26.0781C392.462 25.2969 395.134 24.9062 397.947 24.9062C402.478 24.9062 406.603 25.6094 410.322 27.0156C414.072 28.4219 417.259 30.4375 419.884 33.0625C422.54 35.6562 424.587 38.8125 426.025 42.5312C427.494 46.2188 428.228 50.3438 428.228 54.9062ZM407.415 56.125C407.415 54.7812 407.212 53.4844 406.806 52.2344C406.431 50.9531 405.869 49.8281 405.119 48.8594C404.369 47.8594 403.431 47.0625 402.306 46.4688C401.212 45.8438 399.947 45.5312 398.509 45.5312C397.04 45.5312 395.728 45.7969 394.572 46.3281C393.415 46.8594 392.415 47.5938 391.572 48.5312C390.759 49.4375 390.134 50.5156 389.697 51.7656C389.259 52.9844 389.04 54.2812 389.04 55.6562C389.04 56.9688 389.228 58.2812 389.603 59.5938C389.978 60.9062 390.54 62.0938 391.29 63.1562C392.04 64.2188 392.962 65.0781 394.056 65.7344C395.181 66.3906 396.478 66.7188 397.947 66.7188C399.415 66.7188 400.728 66.4375 401.884 65.875C403.072 65.2812 404.072 64.5 404.884 63.5312C405.697 62.5312 406.322 61.3906 406.759 60.1094C407.197 58.8281 407.415 57.5 407.415 56.125ZM461.198 18.3438L457.354 67.6562H440.01L438.229 18.3438H461.198ZM458.104 82.0938C458.104 83.4688 457.839 84.75 457.307 85.9375C456.776 87.125 456.057 88.1562 455.151 89.0312C454.276 89.9375 453.245 90.6406 452.057 91.1406C450.87 91.6719 449.604 91.9375 448.26 91.9375C446.885 91.9375 445.604 91.6719 444.417 91.1406C443.229 90.6406 442.182 89.9375 441.276 89.0312C440.401 88.1562 439.698 87.125 439.167 85.9375C438.667 84.75 438.417 83.4688 438.417 82.0938C438.417 80.75 438.667 79.4688 439.167 78.25C439.698 77.0312 440.401 75.9844 441.276 75.1094C442.182 74.2031 443.229 73.4844 444.417 72.9531C445.604 72.4219 446.885 72.1562 448.26 72.1562C449.604 72.1562 450.87 72.4219 452.057 72.9531C453.245 73.4844 454.276 74.2031 455.151 75.1094C456.057 75.9844 456.776 77.0312 457.307 78.25C457.839 79.4688 458.104 80.75 458.104 82.0938Z" fill="white" />
        <path d="M58.5001 78.0156L57.6116 77.5566L57.6057 77.5684L58.5001 78.0156ZM49.172 86.0312L49.5385 86.9617L49.5458 86.9588L49.172 86.0312ZM35.9063 88.8906L35.838 87.893H35.8371L35.9063 88.8906ZM23.5313 88.8906L23.6058 87.8933L23.5918 87.8925L23.5313 88.8906ZM11.2501 86.8281L10.9655 87.7868L10.9724 87.7888L10.9793 87.7908L11.2501 86.8281ZM5.57818 84.625L4.57819 84.6266L4.57916 85.2484L5.13728 85.5226L5.57818 84.625ZM5.48444 24.25L5.10452 23.325L4.4834 23.5801L4.48444 24.2516L5.48444 24.25ZM11.0626 22.3281L11.3373 23.2896L11.3443 23.2876L11.3513 23.2855L11.0626 22.3281ZM17.0626 20.875L17.2442 21.8585L17.2559 21.8561L17.0626 20.875ZM23.2032 19.9844L23.2951 20.9801L23.3027 20.9794L23.3103 20.9786L23.2032 19.9844ZM35.8126 20.0781L35.6886 21.0704L35.6902 21.0706L35.8126 20.0781ZM48.2345 24.0625L47.7287 24.9253L47.74 24.9317L48.2345 24.0625ZM52.9689 27.9062L52.2172 28.5659L52.2248 28.5744L52.9689 27.9062ZM56.1563 33.25L55.2182 33.5964L55.223 33.609L56.1563 33.25ZM51.0001 52.4688L51.5319 53.3156L51.5389 53.3113L51.5458 53.3067L51.0001 52.4688ZM46.4532 54.3438L46.2192 53.3715L46.2002 55.3112L46.4532 54.3438ZM51.9845 56.6875L51.4559 57.5364L51.463 57.5408L51.9845 56.6875ZM56.2501 60.4375L55.4643 61.0561L55.4725 61.0662L56.2501 60.4375ZM58.9689 65.4062L58.0218 65.7273L58.0242 65.7345L58.0267 65.7416L58.9689 65.4062ZM35.5782 42.2969L34.71 42.793L34.7153 42.8022L34.7207 42.8114L35.5782 42.2969ZM34.172 40.7031L33.5645 41.4975L33.5754 41.5058L33.5865 41.5138L34.172 40.7031ZM32.3907 39.8125L32.1034 40.7704L32.116 40.774L32.3907 39.8125ZM27.1407 40.4688L26.7346 39.5549L26.1581 39.8111L26.1411 40.4417L27.1407 40.4688ZM26.8595 50.875L25.8598 50.848L25.8321 51.875H26.8595V50.875ZM32.5782 49.8906L32.965 50.8128L32.972 50.8099L32.979 50.8068L32.5782 49.8906ZM35.1095 48.0156L35.8729 48.6616L35.8789 48.6545L35.8847 48.6473L35.1095 48.0156ZM26.8595 60.1562L26.6425 59.1801L25.8734 59.351L25.8596 60.1387L26.8595 60.1562ZM26.672 70.8438L25.6721 70.8262L25.6575 71.6607L26.4759 71.8243L26.672 70.8438ZM28.0313 71.125L27.8218 72.1028L27.8602 72.111L27.8992 72.1162L28.0313 71.125ZM31.547 71.0312L31.705 72.0187L31.7241 72.0156L31.7431 72.0118L31.547 71.0312ZM33.7501 70.1875L34.2588 71.0484L34.273 71.04L34.287 71.0312L33.7501 70.1875ZM35.4376 68.4531L34.6 67.9069L34.5915 67.9199L34.5834 67.9332L35.4376 68.4531ZM35.4376 62.6875L34.5738 63.1914L34.5815 63.2046L34.5896 63.2175L35.4376 62.6875ZM33.797 60.9531L33.2423 61.7852L33.2563 61.7945L33.2706 61.8034L33.797 60.9531ZM31.6407 60.1094L31.4446 61.09L31.4636 61.0938L31.4827 61.0968L31.6407 60.1094ZM58.9532 71.3125C58.9532 73.7825 58.4922 75.8524 57.6117 77.5566L59.3885 78.4746C60.4455 76.4289 60.9532 74.03 60.9532 71.3125H58.9532ZM57.6057 77.5684C56.7298 79.3202 55.5516 80.8028 54.0675 82.0249L55.3389 83.5688C57.0424 82.166 58.3954 80.461 59.3945 78.4628L57.6057 77.5684ZM54.0675 82.0249C52.5596 83.2667 50.806 84.2946 48.7982 85.1037L49.5458 86.9588C51.7255 86.0804 53.6593 84.952 55.3389 83.5688L54.0675 82.0249ZM48.8055 85.1008C46.7976 85.8918 44.6958 86.5165 42.4993 86.9741L42.9072 88.9321C45.2106 88.4522 47.4214 87.7957 49.5385 86.9617L48.8055 85.1008ZM42.4993 86.9741C40.2938 87.4336 38.0735 87.7399 35.838 87.893L35.9747 89.8883C38.3017 89.7289 40.6127 89.4101 42.9072 88.9321L42.4993 86.9741ZM35.8371 87.893C33.6069 88.0479 31.5208 88.125 29.5782 88.125V90.125C31.5731 90.125 33.7058 90.0458 35.9756 89.8882L35.8371 87.893ZM29.5782 88.125C27.6675 88.125 25.6768 88.048 23.6058 87.8934L23.4569 89.8879C25.5734 90.0458 27.6139 90.125 29.5782 90.125V88.125ZM23.5918 87.8925C21.5646 87.7696 19.5368 87.5392 17.5082 87.2011L17.1795 89.1739C19.2759 89.5233 21.3731 89.7617 23.4709 89.8888L23.5918 87.8925ZM17.5082 87.2011C15.4814 86.8633 13.4856 86.4181 11.5208 85.8655L10.9793 87.7908C13.0145 88.3632 15.0813 88.8242 17.1795 89.1739L17.5082 87.2011ZM11.5347 85.8695C9.58565 85.2909 7.74755 84.5765 6.01909 83.7274L5.13728 85.5226C6.97132 86.4235 8.91447 87.1779 10.9655 87.7868L11.5347 85.8695ZM6.57818 84.6234L6.48443 24.2484L4.48444 24.2516L4.57819 84.6266L6.57818 84.6234ZM5.86435 25.175C7.57732 24.4715 9.40136 23.8428 11.3373 23.2896L10.7878 21.3666C8.78626 21.9385 6.89155 22.591 5.10452 23.325L5.86435 25.175ZM11.3513 23.2855C13.2847 22.7025 15.2489 22.2267 17.2441 21.8584L16.8811 19.8916C14.8138 20.2733 12.778 20.7663 10.7738 21.3707L11.3513 23.2855ZM17.2559 21.8561C19.2859 21.4563 21.2989 21.1644 23.2951 20.9801L23.1113 18.9886C21.045 19.1793 18.9643 19.4812 16.8693 19.8939L17.2559 21.8561ZM23.3103 20.9786C25.3085 20.7634 27.2414 20.6562 29.1095 20.6562V18.6562C27.165 18.6562 25.1605 18.7678 23.0962 18.9901L23.3103 20.9786ZM29.1095 20.6562C31.2859 20.6562 33.4788 20.7942 35.6886 21.0704L35.9366 19.0858C33.6464 18.7996 31.3706 18.6562 29.1095 18.6562V20.6562ZM35.6902 21.0706C37.9144 21.3448 40.0426 21.8012 42.076 22.4386L42.6742 20.5301C40.5201 19.855 38.2733 19.3739 35.935 19.0856L35.6902 21.0706ZM42.076 22.4386C44.1008 23.0732 45.9843 23.9026 47.7288 24.9252L48.7402 23.1998C46.8597 22.0974 44.8369 21.208 42.6742 20.5301L42.076 22.4386ZM47.74 24.9317C49.458 25.9092 50.9486 27.1203 52.2172 28.5658L53.7205 27.2467C52.3016 25.6297 50.636 24.2783 48.729 23.1933L47.74 24.9317ZM52.2248 28.5744C53.511 30.0068 54.5097 31.6774 55.2183 33.5964L57.0944 32.9036C56.303 30.7601 55.1767 28.8682 53.7129 27.2381L52.2248 28.5744ZM55.223 33.609C55.9517 35.5035 56.3282 37.7215 56.3282 40.2812H58.3282C58.3282 37.5285 57.9235 35.059 57.0897 32.891L55.223 33.609ZM56.3282 40.2812C56.3282 41.9349 56.0922 43.47 55.6276 44.8927L57.5288 45.5135C58.0643 43.8738 58.3282 42.1276 58.3282 40.2812H56.3282ZM55.6276 44.8927C55.1612 46.3211 54.4943 47.594 53.6294 48.7184L55.2146 49.9378C56.2246 48.6248 56.9953 47.1476 57.5288 45.5135L55.6276 44.8927ZM53.6294 48.7184C52.7636 49.8439 51.7077 50.8147 50.4544 51.6308L51.5458 53.3067C52.98 52.3728 54.2053 51.2499 55.2146 49.9378L53.6294 48.7184ZM50.4683 51.6219C49.2246 52.4028 47.8112 52.9883 46.2192 53.3715L46.6873 55.316C48.4703 54.8867 50.0881 54.2222 51.5319 53.3156L50.4683 51.6219ZM46.2002 55.3112C48.1416 55.8189 49.8913 56.5622 51.4559 57.5364L52.513 55.8386C50.7652 54.7503 48.8274 53.9311 46.7063 53.3763L46.2002 55.3112ZM51.463 57.5408C53.0551 58.5137 54.3858 59.6859 55.4644 61.0561L57.0358 59.8189C55.8019 58.2516 54.2888 56.9238 52.5059 55.8342L51.463 57.5408ZM55.4725 61.0662C56.5835 62.4404 57.4335 63.9918 58.0218 65.7273L59.9159 65.0852C59.2542 63.1332 58.2917 61.3721 57.0277 59.8088L55.4725 61.0662ZM58.0267 65.7416C58.6421 67.4704 58.9532 69.325 58.9532 71.3125H60.9532C60.9532 69.1125 60.6081 67.0296 59.911 65.0709L58.0267 65.7416ZM37.1407 44.5938C37.1407 43.5501 36.9242 42.5965 36.4357 41.7824L34.7207 42.8114C34.9823 43.2473 35.1407 43.8249 35.1407 44.5938H37.1407ZM36.4465 41.8007C36.0071 41.0319 35.4456 40.3894 34.7575 39.8924L33.5865 41.5138C34.0234 41.8293 34.3993 42.2494 34.71 42.793L36.4465 41.8007ZM34.7794 39.9088C34.1466 39.4249 33.4396 39.0722 32.6654 38.851L32.116 40.774C32.6544 40.9278 33.1348 41.1689 33.5645 41.4975L34.7794 39.9088ZM32.6781 38.8547C31.9866 38.6472 31.325 38.5312 30.7032 38.5312V40.5312C31.0815 40.5312 31.5449 40.6028 32.1034 40.7703L32.6781 38.8547ZM30.7032 38.5312C29.9765 38.5312 29.2655 38.6405 28.574 38.8589L29.1762 40.7661C29.6722 40.6095 30.18 40.5312 30.7032 40.5312V38.5312ZM28.574 38.8589C27.9449 39.0576 27.3317 39.2896 26.7346 39.5549L27.5469 41.3826C28.0747 41.1479 28.6178 40.9424 29.1762 40.7661L28.574 38.8589ZM26.1411 40.4417L25.8598 50.848L27.8591 50.902L28.1404 40.4958L26.1411 40.4417ZM26.8595 51.875C27.6311 51.875 28.5637 51.8082 29.6482 51.6807L29.4145 49.6943C28.374 49.8168 27.5253 49.875 26.8595 49.875V51.875ZM29.6482 51.6807C30.8018 51.5449 31.9084 51.2559 32.965 50.8128L32.1915 48.9684C31.3105 49.3379 30.3859 49.5801 29.4145 49.6943L29.6482 51.6807ZM32.979 50.8068C34.1153 50.3097 35.0842 49.5937 35.8729 48.6616L34.3461 47.3697C33.7598 48.0626 33.0412 48.5966 32.1774 48.9745L32.979 50.8068ZM35.8847 48.6473C36.7585 47.575 37.1407 46.1871 37.1407 44.5938H35.1407C35.1407 45.8754 34.8355 46.7688 34.3342 47.384L35.8847 48.6473ZM29.4845 58.875C28.5088 58.875 27.5609 58.976 26.6425 59.1801L27.0764 61.1324C27.8456 60.9615 28.6477 60.875 29.4845 60.875V58.875ZM25.8596 60.1387L25.6721 70.8262L27.6718 70.8613L27.8593 60.1738L25.8596 60.1387ZM26.4759 71.8243C26.9404 71.9172 27.3891 72.0101 27.8218 72.1028L28.2409 70.1472C27.7986 70.0524 27.341 69.9578 26.8681 69.8632L26.4759 71.8243ZM27.8992 72.1162C28.4083 72.1841 28.9056 72.2188 29.3907 72.2188V70.2188C29.0008 70.2188 28.5919 70.1909 28.1635 70.1338L27.8992 72.1162ZM29.3907 72.2188C30.1093 72.2188 30.8817 72.1504 31.705 72.0187L31.389 70.0438C30.6497 70.1621 29.9846 70.2188 29.3907 70.2188V72.2188ZM31.7431 72.0118C32.6348 71.8335 33.4748 71.5117 34.2588 71.0484L33.2414 69.3266C32.6504 69.6758 32.0217 69.9165 31.3509 70.0507L31.7431 72.0118ZM34.287 71.0312C35.1079 70.5088 35.7774 69.8182 36.2918 68.9731L34.5834 67.9332C34.2228 68.5255 33.7673 68.9912 33.2132 69.3438L34.287 71.0312ZM36.2752 68.9994C36.8833 68.0669 37.1407 66.9034 37.1407 65.5938H35.1407C35.1407 66.6591 34.9294 67.4018 34.6 67.9069L36.2752 68.9994ZM37.1407 65.5938C37.1407 64.2812 36.8822 63.1121 36.2856 62.1575L34.5896 63.2175C34.9305 63.7629 35.1407 64.5313 35.1407 65.5938H37.1407ZM36.3014 62.1836C35.7919 61.3102 35.1353 60.6055 34.3233 60.1029L33.2706 61.8034C33.7711 62.1132 34.2083 62.5648 34.5738 63.1914L36.3014 62.1836ZM34.3517 60.1211C33.5755 59.6036 32.7214 59.2696 31.7987 59.1219L31.4827 61.0968C32.1226 61.1992 32.706 61.4276 33.2423 61.7852L34.3517 60.1211ZM31.8368 59.1288C31.0042 58.9623 30.2188 58.875 29.4845 58.875V60.875C30.0627 60.875 30.7147 60.944 31.4446 61.09L31.8368 59.1288ZM110.408 61.2812L111.403 61.3754L111.507 60.2812H110.408V61.2812ZM108.439 82.0938L108.517 83.0907L109.355 83.025L109.434 82.1879L108.439 82.0938ZM68.9701 85.1875L67.9702 85.1703L67.9513 86.2704L69.0482 86.1844L68.9701 85.1875ZM69.5795 52.6562L68.5797 52.6331V52.636L69.5795 52.6562ZM70.4701 20.125V19.125H69.5011L69.4706 20.0935L70.4701 20.125ZM94.8451 20.125L95.8396 20.2294L95.9556 19.125H94.8451V20.125ZM92.7826 40.6562L93.778 40.7521V40.7517L92.7826 40.6562ZM91.3764 61.2812L90.3772 61.2407L90.3367 62.2379L91.3338 62.2803L91.3764 61.2812ZM109.412 61.1871L107.443 81.9996L109.434 82.1879L111.403 61.3754L109.412 61.1871ZM108.361 81.0968L68.892 84.1906L69.0482 86.1844L108.517 83.0907L108.361 81.0968ZM69.97 85.2047C70.1574 74.2995 70.3605 63.4567 70.5793 52.6765L68.5797 52.636C68.3609 63.4183 68.1578 74.263 67.9702 85.1703L69.97 85.2047ZM70.5792 52.6794C70.8291 41.901 71.1259 31.06 71.4696 20.1565L69.4706 20.0935C69.1268 31.0025 68.8298 41.849 68.5797 52.6331L70.5792 52.6794ZM70.4701 21.125H94.8451V19.125H70.4701V21.125ZM93.8506 20.0206C93.1315 26.8673 92.4437 33.714 91.7872 40.5608L93.778 40.7517C94.434 33.911 95.1212 27.0702 95.8396 20.2294L93.8506 20.0206ZM91.7872 40.5604C91.1292 47.3915 90.6592 54.285 90.3772 61.2407L92.3755 61.3218C92.656 54.4025 93.1235 47.546 93.778 40.7521L91.7872 40.5604ZM91.3338 62.2803C92.8164 62.3434 94.2837 62.375 95.7357 62.375V60.375C94.3127 60.375 92.8738 60.3441 91.4189 60.2822L91.3338 62.2803ZM95.7357 62.375C95.7385 62.375 95.7413 62.375 95.7441 62.375C95.747 62.375 95.7498 62.375 95.7526 62.375C95.7554 62.375 95.7582 62.375 95.761 62.375C95.7638 62.375 95.7666 62.375 95.7694 62.375C95.7722 62.375 95.775 62.375 95.7778 62.375C95.7807 62.375 95.7835 62.375 95.7863 62.375C95.7891 62.375 95.7919 62.375 95.7947 62.375C95.7975 62.375 95.8003 62.375 95.8031 62.375C95.8059 62.375 95.8087 62.375 95.8115 62.375C95.8144 62.375 95.8172 62.375 95.82 62.375C95.8228 62.375 95.8256 62.375 95.8284 62.375C95.8312 62.375 95.834 62.375 95.8368 62.375C95.8396 62.375 95.8424 62.375 95.8453 62.375C95.8481 62.375 95.8509 62.375 95.8537 62.375C95.8565 62.375 95.8593 62.375 95.8621 62.375C95.8649 62.375 95.8677 62.375 95.8705 62.375C95.8733 62.375 95.8762 62.375 95.879 62.375C95.8818 62.375 95.8846 62.375 95.8874 62.375C95.8902 62.375 95.893 62.375 95.8958 62.375C95.8986 62.375 95.9014 62.375 95.9043 62.375C95.9071 62.375 95.9099 62.375 95.9127 62.375C95.9155 62.375 95.9183 62.375 95.9211 62.375C95.9239 62.375 95.9267 62.375 95.9295 62.375C95.9324 62.375 95.9352 62.375 95.938 62.375C95.9408 62.375 95.9436 62.375 95.9464 62.375C95.9492 62.375 95.952 62.375 95.9548 62.375C95.9577 62.375 95.9605 62.375 95.9633 62.375C95.9661 62.375 95.9689 62.375 95.9717 62.375C95.9745 62.375 95.9773 62.375 95.9801 62.375C95.983 62.375 95.9858 62.375 95.9886 62.375C95.9914 62.375 95.9942 62.375 95.997 62.375C95.9998 62.375 96.0026 62.375 96.0054 62.375C96.0083 62.375 96.0111 62.375 96.0139 62.375C96.0167 62.375 96.0195 62.375 96.0223 62.375C96.0251 62.375 96.0279 62.375 96.0307 62.375C96.0336 62.375 96.0364 62.375 96.0392 62.375C96.042 62.375 96.0448 62.375 96.0476 62.375C96.0504 62.375 96.0532 62.375 96.0561 62.375C96.0589 62.375 96.0617 62.375 96.0645 62.375C96.0673 62.375 96.0701 62.375 96.0729 62.375C96.0757 62.375 96.0786 62.375 96.0814 62.375C96.0842 62.375 96.087 62.375 96.0898 62.375C96.0926 62.375 96.0954 62.375 96.0982 62.375C96.1011 62.375 96.1039 62.375 96.1067 62.375C96.1095 62.375 96.1123 62.375 96.1151 62.375C96.1179 62.375 96.1207 62.375 96.1236 62.375C96.1264 62.375 96.1292 62.375 96.132 62.375C96.1348 62.375 96.1376 62.375 96.1404 62.375C96.1432 62.375 96.1461 62.375 96.1489 62.375C96.1517 62.375 96.1545 62.375 96.1573 62.375C96.1601 62.375 96.1629 62.375 96.1658 62.375C96.1686 62.375 96.1714 62.375 96.1742 62.375C96.177 62.375 96.1798 62.375 96.1826 62.375C96.1855 62.375 96.1883 62.375 96.1911 62.375C96.1939 62.375 96.1967 62.375 96.1995 62.375C96.2023 62.375 96.2052 62.375 96.208 62.375C96.2108 62.375 96.2136 62.375 96.2164 62.375C96.2192 62.375 96.222 62.375 96.2249 62.375C96.2277 62.375 96.2305 62.375 96.2333 62.375C96.2361 62.375 96.2389 62.375 96.2417 62.375C96.2446 62.375 96.2474 62.375 96.2502 62.375C96.253 62.375 96.2558 62.375 96.2586 62.375C96.2614 62.375 96.2643 62.375 96.2671 62.375C96.2699 62.375 96.2727 62.375 96.2755 62.375C96.2783 62.375 96.2812 62.375 96.284 62.375C96.2868 62.375 96.2896 62.375 96.2924 62.375C96.2952 62.375 96.298 62.375 96.3009 62.375C96.3037 62.375 96.3065 62.375 96.3093 62.375C96.3121 62.375 96.3149 62.375 96.3178 62.375C96.3206 62.375 96.3234 62.375 96.3262 62.375C96.329 62.375 96.3318 62.375 96.3347 62.375C96.3375 62.375 96.3403 62.375 96.3431 62.375C96.3459 62.375 96.3487 62.375 96.3515 62.375C96.3544 62.375 96.3572 62.375 96.36 62.375C96.3628 62.375 96.3656 62.375 96.3684 62.375C96.3713 62.375 96.3741 62.375 96.3769 62.375C96.3797 62.375 96.3825 62.375 96.3853 62.375C96.3882 62.375 96.391 62.375 96.3938 62.375C96.3966 62.375 96.3994 62.375 96.4022 62.375C96.4051 62.375 96.4079 62.375 96.4107 62.375C96.4135 62.375 96.4163 62.375 96.4192 62.375C96.422 62.375 96.4248 62.375 96.4276 62.375C96.4304 62.375 96.4332 62.375 96.4361 62.375C96.4389 62.375 96.4417 62.375 96.4445 62.375C96.4473 62.375 96.4501 62.375 96.453 62.375C96.4558 62.375 96.4586 62.375 96.4614 62.375C96.4642 62.375 96.467 62.375 96.4699 62.375C96.4727 62.375 96.4755 62.375 96.4783 62.375C96.4811 62.375 96.484 62.375 96.4868 62.375C96.4896 62.375 96.4924 62.375 96.4952 62.375C96.498 62.375 96.5009 62.375 96.5037 62.375C96.5065 62.375 96.5093 62.375 96.5121 62.375C96.515 62.375 96.5178 62.375 96.5206 62.375C96.5234 62.375 96.5262 62.375 96.5291 62.375C96.5319 62.375 96.5347 62.375 96.5375 62.375C96.5403 62.375 96.5431 62.375 96.546 62.375C96.5488 62.375 96.5516 62.375 96.5544 62.375C96.5572 62.375 96.5601 62.375 96.5629 62.375C96.5657 62.375 96.5685 62.375 96.5713 62.375C96.5742 62.375 96.577 62.375 96.5798 62.375C96.5826 62.375 96.5854 62.375 96.5883 62.375C96.5911 62.375 96.5939 62.375 96.5967 62.375C96.5995 62.375 96.6024 62.375 96.6052 62.375C96.608 62.375 96.6108 62.375 96.6136 62.375C96.6165 62.375 96.6193 62.375 96.6221 62.375C96.6249 62.375 96.6277 62.375 96.6306 62.375C96.6334 62.375 96.6362 62.375 96.639 62.375C96.6418 62.375 96.6447 62.375 96.6475 62.375C96.6503 62.375 96.6531 62.375 96.6559 62.375C96.6588 62.375 96.6616 62.375 96.6644 62.375C96.6672 62.375 96.67 62.375 96.6729 62.375C96.6757 62.375 96.6785 62.375 96.6813 62.375C96.6841 62.375 96.687 62.375 96.6898 62.375C96.6926 62.375 96.6954 62.375 96.6983 62.375C96.7011 62.375 96.7039 62.375 96.7067 62.375C96.7095 62.375 96.7124 62.375 96.7152 62.375C96.718 62.375 96.7208 62.375 96.7236 62.375C96.7265 62.375 96.7293 62.375 96.7321 62.375C96.7349 62.375 96.7378 62.375 96.7406 62.375C96.7434 62.375 96.7462 62.375 96.749 62.375C96.7519 62.375 96.7547 62.375 96.7575 62.375C96.7603 62.375 96.7632 62.375 96.766 62.375C96.7688 62.375 96.7716 62.375 96.7744 62.375C96.7773 62.375 96.7801 62.375 96.7829 62.375C96.7857 62.375 96.7886 62.375 96.7914 62.375C96.7942 62.375 96.797 62.375 96.7998 62.375C96.8027 62.375 96.8055 62.375 96.8083 62.375C96.8111 62.375 96.814 62.375 96.8168 62.375C96.8196 62.375 96.8224 62.375 96.8252 62.375C96.8281 62.375 96.8309 62.375 96.8337 62.375C96.8365 62.375 96.8394 62.375 96.8422 62.375C96.845 62.375 96.8478 62.375 96.8507 62.375C96.8535 62.375 96.8563 62.375 96.8591 62.375C96.862 62.375 96.8648 62.375 96.8676 62.375C96.8704 62.375 96.8732 62.375 96.8761 62.375C96.8789 62.375 96.8817 62.375 96.8845 62.375C96.8874 62.375 96.8902 62.375 96.893 62.375C96.8958 62.375 96.8987 62.375 96.9015 62.375C96.9043 62.375 96.9071 62.375 96.91 62.375C96.9128 62.375 96.9156 62.375 96.9184 62.375C96.9213 62.375 96.9241 62.375 96.9269 62.375C96.9297 62.375 96.9326 62.375 96.9354 62.375C96.9382 62.375 96.941 62.375 96.9439 62.375C96.9467 62.375 96.9495 62.375 96.9523 62.375C96.9551 62.375 96.958 62.375 96.9608 62.375C96.9636 62.375 96.9664 62.375 96.9693 62.375C96.9721 62.375 96.9749 62.375 96.9777 62.375C96.9806 62.375 96.9834 62.375 96.9862 62.375C96.9891 62.375 96.9919 62.375 96.9947 62.375C96.9975 62.375 97.0004 62.375 97.0032 62.375C97.006 62.375 97.0088 62.375 97.0117 62.375C97.0145 62.375 97.0173 62.375 97.0201 62.375C97.023 62.375 97.0258 62.375 97.0286 62.375C97.0314 62.375 97.0343 62.375 97.0371 62.375C97.0399 62.375 97.0427 62.375 97.0456 62.375C97.0484 62.375 97.0512 62.375 97.054 62.375C97.0569 62.375 97.0597 62.375 97.0625 62.375C97.0653 62.375 97.0682 62.375 97.071 62.375C97.0738 62.375 97.0767 62.375 97.0795 62.375C97.0823 62.375 97.0851 62.375 97.088 62.375C97.0908 62.375 97.0936 62.375 97.0964 62.375C97.0993 62.375 97.1021 62.375 97.1049 62.375C97.1077 62.375 97.1106 62.375 97.1134 62.375C97.1162 62.375 97.1191 62.375 97.1219 62.375C97.1247 62.375 97.1275 62.375 97.1304 62.375C97.1332 62.375 97.136 62.375 97.1388 62.375C97.1417 62.375 97.1445 62.375 97.1473 62.375C97.1502 62.375 97.153 62.375 97.1558 62.375C97.1586 62.375 97.1615 62.375 97.1643 62.375C97.1671 62.375 97.17 62.375 97.1728 62.375C97.1756 62.375 97.1784 62.375 97.1813 62.375C97.1841 62.375 97.1869 62.375 97.1897 62.375C97.1926 62.375 97.1954 62.375 97.1982 62.375C97.2011 62.375 97.2039 62.375 97.2067 62.375C97.2095 62.375 97.2124 62.375 97.2152 62.375C97.218 62.375 97.2209 62.375 97.2237 62.375C97.2265 62.375 97.2293 62.375 97.2322 62.375C97.235 62.375 97.2378 62.375 97.2407 62.375C97.2435 62.375 97.2463 62.375 97.2491 62.375C97.252 62.375 97.2548 62.375 97.2576 62.375C97.2605 62.375 97.2633 62.375 97.2661 62.375C97.2689 62.375 97.2718 62.375 97.2746 62.375C97.2774 62.375 97.2803 62.375 97.2831 62.375C97.2859 62.375 97.2888 62.375 97.2916 62.375C97.2944 62.375 97.2972 62.375 97.3001 62.375C97.3029 62.375 97.3057 62.375 97.3086 62.375C97.3114 62.375 97.3142 62.375 97.3171 62.375C97.3199 62.375 97.3227 62.375 97.3255 62.375C97.3284 62.375 97.3312 62.375 97.334 62.375C97.3369 62.375 97.3397 62.375 97.3425 62.375C97.3454 62.375 97.3482 62.375 97.351 62.375C97.3538 62.375 97.3567 62.375 97.3595 62.375C97.3623 62.375 97.3652 62.375 97.368 62.375C97.3708 62.375 97.3737 62.375 97.3765 62.375C97.3793 62.375 97.3822 62.375 97.385 62.375C97.3878 62.375 97.3906 62.375 97.3935 62.375C97.3963 62.375 97.3991 62.375 97.402 62.375C97.4048 62.375 97.4076 62.375 97.4105 62.375C97.4133 62.375 97.4161 62.375 97.419 62.375C97.4218 62.375 97.4246 62.375 97.4274 62.375C97.4303 62.375 97.4331 62.375 97.4359 62.375C97.4388 62.375 97.4416 62.375 97.4444 62.375C97.4473 62.375 97.4501 62.375 97.4529 62.375C97.4558 62.375 97.4586 62.375 97.4614 62.375C97.4643 62.375 97.4671 62.375 97.4699 62.375C97.4728 62.375 97.4756 62.375 97.4784 62.375C97.4813 62.375 97.4841 62.375 97.4869 62.375C97.4898 62.375 97.4926 62.375 97.4954 62.375C97.4982 62.375 97.5011 62.375 97.5039 62.375C97.5067 62.375 97.5096 62.375 97.5124 62.375C97.5152 62.375 97.5181 62.375 97.5209 62.375C97.5237 62.375 97.5266 62.375 97.5294 62.375C97.5322 62.375 97.5351 62.375 97.5379 62.375C97.5407 62.375 97.5436 62.375 97.5464 62.375C97.5492 62.375 97.5521 62.375 97.5549 62.375C97.5577 62.375 97.5606 62.375 97.5634 62.375C97.5662 62.375 97.5691 62.375 97.5719 62.375C97.5747 62.375 97.5776 62.375 97.5804 62.375C97.5832 62.375 97.5861 62.375 97.5889 62.375C97.5917 62.375 97.5946 62.375 97.5974 62.375C97.6002 62.375 97.6031 62.375 97.6059 62.375C97.6087 62.375 97.6116 62.375 97.6144 62.375C97.6172 62.375 97.6201 62.375 97.6229 62.375C97.6257 62.375 97.6286 62.375 97.6314 62.375C97.6343 62.375 97.6371 62.375 97.6399 62.375C97.6428 62.375 97.6456 62.375 97.6484 62.375C97.6513 62.375 97.6541 62.375 97.6569 62.375C97.6598 62.375 97.6626 62.375 97.6654 62.375C97.6683 62.375 97.6711 62.375 97.6739 62.375C97.6768 62.375 97.6796 62.375 97.6824 62.375C97.6853 62.375 97.6881 62.375 97.6909 62.375C97.6938 62.375 97.6966 62.375 97.6995 62.375C97.7023 62.375 97.7051 62.375 97.708 62.375C97.7108 62.375 97.7136 62.375 97.7165 62.375C97.7193 62.375 97.7221 62.375 97.725 62.375C97.7278 62.375 97.7306 62.375 97.7335 62.375C97.7363 62.375 97.7391 62.375 97.742 62.375C97.7448 62.375 97.7477 62.375 97.7505 62.375C97.7533 62.375 97.7562 62.375 97.759 62.375C97.7618 62.375 97.7647 62.375 97.7675 62.375C97.7703 62.375 97.7732 62.375 97.776 62.375C97.7789 62.375 97.7817 62.375 97.7845 62.375C97.7874 62.375 97.7902 62.375 97.793 62.375C97.7959 62.375 97.7987 62.375 97.8015 62.375C97.8044 62.375 97.8072 62.375 97.8101 62.375C97.8129 62.375 97.8157 62.375 97.8186 62.375C97.8214 62.375 97.8242 62.375 97.8271 62.375C97.8299 62.375 97.8328 62.375 97.8356 62.375C97.8384 62.375 97.8413 62.375 97.8441 62.375C97.8469 62.375 97.8498 62.375 97.8526 62.375C97.8555 62.375 97.8583 62.375 97.8611 62.375C97.864 62.375 97.8668 62.375 97.8696 62.375C97.8725 62.375 97.8753 62.375 97.8782 62.375C97.881 62.375 97.8838 62.375 97.8867 62.375C97.8895 62.375 97.8923 62.375 97.8952 62.375C97.898 62.375 97.9009 62.375 97.9037 62.375C97.9065 62.375 97.9094 62.375 97.9122 62.375C97.915 62.375 97.9179 62.375 97.9207 62.375C97.9236 62.375 97.9264 62.375 97.9292 62.375C97.9321 62.375 97.9349 62.375 97.9378 62.375C97.9406 62.375 97.9434 62.375 97.9463 62.375C97.9491 62.375 97.9519 62.375 97.9548 62.375C97.9576 62.375 97.9605 62.375 97.9633 62.375C97.9661 62.375 97.969 62.375 97.9718 62.375C97.9747 62.375 97.9775 62.375 97.9803 62.375C97.9832 62.375 97.986 62.375 97.9889 62.375C97.9917 62.375 97.9945 62.375 97.9974 62.375C98.0002 62.375 98.0031 62.375 98.0059 62.375C98.0087 62.375 98.0116 62.375 98.0144 62.375C98.0173 62.375 98.0201 62.375 98.0229 62.375C98.0258 62.375 98.0286 62.375 98.0315 62.375C98.0343 62.375 98.0371 62.375 98.04 62.375C98.0428 62.375 98.0457 62.375 98.0485 62.375C98.0513 62.375 98.0542 62.375 98.057 62.375C98.0599 62.375 98.0627 62.375 98.0655 62.375C98.0684 62.375 98.0712 62.375 98.0741 62.375C98.0769 62.375 98.0797 62.375 98.0826 62.375C98.0854 62.375 98.0883 62.375 98.0911 62.375C98.0939 62.375 98.0968 62.375 98.0996 62.375C98.1025 62.375 98.1053 62.375 98.1081 62.375C98.111 62.375 98.1138 62.375 98.1167 62.375C98.1195 62.375 98.1223 62.375 98.1252 62.375C98.128 62.375 98.1309 62.375 98.1337 62.375C98.1366 62.375 98.1394 62.375 98.1422 62.375C98.1451 62.375 98.1479 62.375 98.1508 62.375C98.1536 62.375 98.1564 62.375 98.1593 62.375C98.1621 62.375 98.165 62.375 98.1678 62.375C98.1707 62.375 98.1735 62.375 98.1763 62.375C98.1792 62.375 98.182 62.375 98.1849 62.375C98.1877 62.375 98.1905 62.375 98.1934 62.375C98.1962 62.375 98.1991 62.375 98.2019 62.375C98.2048 62.375 98.2076 62.375 98.2104 62.375C98.2133 62.375 98.2161 62.375 98.219 62.375C98.2218 62.375 98.2247 62.375 98.2275 62.375C98.2303 62.375 98.2332 62.375 98.236 62.375C98.2389 62.375 98.2417 62.375 98.2446 62.375C98.2474 62.375 98.2502 62.375 98.2531 62.375C98.2559 62.375 98.2588 62.375 98.2616 62.375C98.2645 62.375 98.2673 62.375 98.2701 62.375C98.273 62.375 98.2758 62.375 98.2787 62.375C98.2815 62.375 98.2844 62.375 98.2872 62.375C98.29 62.375 98.2929 62.375 98.2957 62.375C98.2986 62.375 98.3014 62.375 98.3043 62.375C98.3071 62.375 98.31 62.375 98.3128 62.375C98.3156 62.375 98.3185 62.375 98.3213 62.375C98.3242 62.375 98.327 62.375 98.3299 62.375C98.3327 62.375 98.3356 62.375 98.3384 62.375C98.3412 62.375 98.3441 62.375 98.3469 62.375C98.3498 62.375 98.3526 62.375 98.3555 62.375C98.3583 62.375 98.3611 62.375 98.364 62.375C98.3668 62.375 98.3697 62.375 98.3725 62.375C98.3754 62.375 98.3782 62.375 98.3811 62.375C98.3839 62.375 98.3868 62.375 98.3896 62.375C98.3924 62.375 98.3953 62.375 98.3981 62.375C98.401 62.375 98.4038 62.375 98.4067 62.375C98.4095 62.375 98.4124 62.375 98.4152 62.375C98.418 62.375 98.4209 62.375 98.4237 62.375C98.4266 62.375 98.4294 62.375 98.4323 62.375C98.4351 62.375 98.438 62.375 98.4408 62.375C98.4437 62.375 98.4465 62.375 98.4493 62.375C98.4522 62.375 98.455 62.375 98.4579 62.375C98.4607 62.375 98.4636 62.375 98.4664 62.375C98.4693 62.375 98.4721 62.375 98.475 62.375C98.4778 62.375 98.4807 62.375 98.4835 62.375C98.4863 62.375 98.4892 62.375 98.492 62.375C98.4949 62.375 98.4977 62.375 98.5006 62.375C98.5034 62.375 98.5063 62.375 98.5091 62.375C98.512 62.375 98.5148 62.375 98.5177 62.375C98.5205 62.375 98.5234 62.375 98.5262 62.375C98.529 62.375 98.5319 62.375 98.5347 62.375C98.5376 62.375 98.5404 62.375 98.5433 62.375C98.5461 62.375 98.549 62.375 98.5518 62.375C98.5547 62.375 98.5575 62.375 98.5604 62.375C98.5632 62.375 98.5661 62.375 98.5689 62.375C98.5718 62.375 98.5746 62.375 98.5774 62.375C98.5803 62.375 98.5831 62.375 98.586 62.375C98.5888 62.375 98.5917 62.375 98.5945 62.375C98.5974 62.375 98.6002 62.375 98.6031 62.375C98.6059 62.375 98.6088 62.375 98.6116 62.375C98.6145 62.375 98.6173 62.375 98.6202 62.375C98.623 62.375 98.6259 62.375 98.6287 62.375C98.6316 62.375 98.6344 62.375 98.6373 62.375C98.6401 62.375 98.643 62.375 98.6458 62.375C98.6487 62.375 98.6515 62.375 98.6543 62.375C98.6572 62.375 98.66 62.375 98.6629 62.375C98.6657 62.375 98.6686 62.375 98.6714 62.375C98.6743 62.375 98.6771 62.375 98.68 62.375C98.6828 62.375 98.6857 62.375 98.6885 62.375C98.6914 62.375 98.6942 62.375 98.6971 62.375C98.6999 62.375 98.7028 62.375 98.7056 62.375C98.7085 62.375 98.7113 62.375 98.7142 62.375C98.717 62.375 98.7199 62.375 98.7227 62.375C98.7256 62.375 98.7284 62.375 98.7313 62.375C98.7341 62.375 98.737 62.375 98.7398 62.375C98.7427 62.375 98.7455 62.375 98.7484 62.375C98.7512 62.375 98.7541 62.375 98.7569 62.375C98.7598 62.375 98.7626 62.375 98.7655 62.375C98.7683 62.375 98.7712 62.375 98.774 62.375C98.7769 62.375 98.7797 62.375 98.7826 62.375C98.7854 62.375 98.7883 62.375 98.7911 62.375C98.794 62.375 98.7968 62.375 98.7997 62.375C98.8025 62.375 98.8054 62.375 98.8082 62.375C98.8111 62.375 98.8139 62.375 98.8168 62.375C98.8196 62.375 98.8225 62.375 98.8253 62.375C98.8282 62.375 98.831 62.375 98.8339 62.375C98.8367 62.375 98.8396 62.375 98.8424 62.375C98.8453 62.375 98.8481 62.375 98.851 62.375C98.8538 62.375 98.8567 62.375 98.8596 62.375C98.8624 62.375 98.8653 62.375 98.8681 62.375C98.871 62.375 98.8738 62.375 98.8767 62.375C98.8795 62.375 98.8824 62.375 98.8852 62.375C98.8881 62.375 98.8909 62.375 98.8938 62.375C98.8966 62.375 98.8995 62.375 98.9023 62.375C98.9052 62.375 98.908 62.375 98.9109 62.375C98.9137 62.375 98.9166 62.375 98.9194 62.375C98.9223 62.375 98.9251 62.375 98.928 62.375C98.9309 62.375 98.9337 62.375 98.9366 62.375C98.9394 62.375 98.9423 62.375 98.9451 62.375C98.948 62.375 98.9508 62.375 98.9537 62.375C98.9565 62.375 98.9594 62.375 98.9622 62.375C98.9651 62.375 98.9679 62.375 98.9708 62.375C98.9736 62.375 98.9765 62.375 98.9793 62.375C98.9822 62.375 98.9851 62.375 98.9879 62.375C98.9908 62.375 98.9936 62.375 98.9965 62.375C98.9993 62.375 99.0022 62.375 99.005 62.375C99.0079 62.375 99.0107 62.375 99.0136 62.375C99.0164 62.375 99.0193 62.375 99.0222 62.375C99.025 62.375 99.0279 62.375 99.0307 62.375C99.0336 62.375 99.0364 62.375 99.0393 62.375C99.0421 62.375 99.045 62.375 99.0478 62.375C99.0507 62.375 99.0535 62.375 99.0564 62.375C99.0593 62.375 99.0621 62.375 99.065 62.375C99.0678 62.375 99.0707 62.375 99.0735 62.375C99.0764 62.375 99.0792 62.375 99.0821 62.375C99.0849 62.375 99.0878 62.375 99.0907 62.375C99.0935 62.375 99.0964 62.375 99.0992 62.375C99.1021 62.375 99.1049 62.375 99.1078 62.375C99.1106 62.375 99.1135 62.375 99.1163 62.375C99.1192 62.375 99.1221 62.375 99.1249 62.375C99.1278 62.375 99.1306 62.375 99.1335 62.375C99.1363 62.375 99.1392 62.375 99.142 62.375C99.1449 62.375 99.1478 62.375 99.1506 62.375C99.1535 62.375 99.1563 62.375 99.1592 62.375C99.162 62.375 99.1649 62.375 99.1677 62.375C99.1706 62.375 99.1735 62.375 99.1763 62.375C99.1792 62.375 99.182 62.375 99.1849 62.375C99.1877 62.375 99.1906 62.375 99.1934 62.375C99.1963 62.375 99.1992 62.375 99.202 62.375C99.2049 62.375 99.2077 62.375 99.2106 62.375C99.2134 62.375 99.2163 62.375 99.2192 62.375C99.222 62.375 99.2249 62.375 99.2277 62.375C99.2306 62.375 99.2334 62.375 99.2363 62.375C99.2392 62.375 99.242 62.375 99.2449 62.375C99.2477 62.375 99.2506 62.375 99.2534 62.375C99.2563 62.375 99.2591 62.375 99.262 62.375C99.2649 62.375 99.2677 62.375 99.2706 62.375C99.2734 62.375 99.2763 62.375 99.2791 62.375C99.282 62.375 99.2849 62.375 99.2877 62.375C99.2906 62.375 99.2934 62.375 99.2963 62.375C99.2992 62.375 99.302 62.375 99.3049 62.375C99.3077 62.375 99.3106 62.375 99.3134 62.375C99.3163 62.375 99.3192 62.375 99.322 62.375C99.3249 62.375 99.3277 62.375 99.3306 62.375C99.3334 62.375 99.3363 62.375 99.3392 62.375C99.342 62.375 99.3449 62.375 99.3477 62.375C99.3506 62.375 99.3535 62.375 99.3563 62.375C99.3592 62.375 99.362 62.375 99.3649 62.375C99.3677 62.375 99.3706 62.375 99.3735 62.375C99.3763 62.375 99.3792 62.375 99.382 62.375C99.3849 62.375 99.3878 62.375 99.3906 62.375C99.3935 62.375 99.3963 62.375 99.3992 62.375C99.4021 62.375 99.4049 62.375 99.4078 62.375C99.4106 62.375 99.4135 62.375 99.4163 62.375C99.4192 62.375 99.4221 62.375 99.4249 62.375C99.4278 62.375 99.4306 62.375 99.4335 62.375C99.4364 62.375 99.4392 62.375 99.4421 62.375C99.4449 62.375 99.4478 62.375 99.4507 62.375C99.4535 62.375 99.4564 62.375 99.4592 62.375C99.4621 62.375 99.465 62.375 99.4678 62.375C99.4707 62.375 99.4735 62.375 99.4764 62.375C99.4793 62.375 99.4821 62.375 99.485 62.375C99.4878 62.375 99.4907 62.375 99.4936 62.375C99.4964 62.375 99.4993 62.375 99.5021 62.375C99.505 62.375 99.5079 62.375 99.5107 62.375C99.5136 62.375 99.5164 62.375 99.5193 62.375C99.5222 62.375 99.525 62.375 99.5279 62.375C99.5307 62.375 99.5336 62.375 99.5365 62.375C99.5393 62.375 99.5422 62.375 99.5451 62.375C99.5479 62.375 99.5508 62.375 99.5536 62.375C99.5565 62.375 99.5594 62.375 99.5622 62.375C99.5651 62.375 99.5679 62.375 99.5708 62.375C99.5737 62.375 99.5765 62.375 99.5794 62.375C99.5822 62.375 99.5851 62.375 99.588 62.375C99.5908 62.375 99.5937 62.375 99.5966 62.375C99.5994 62.375 99.6023 62.375 99.6051 62.375C99.608 62.375 99.6109 62.375 99.6137 62.375C99.6166 62.375 99.6195 62.375 99.6223 62.375C99.6252 62.375 99.628 62.375 99.6309 62.375C99.6338 62.375 99.6366 62.375 99.6395 62.375C99.6424 62.375 99.6452 62.375 99.6481 62.375C99.6509 62.375 99.6538 62.375 99.6567 62.375C99.6595 62.375 99.6624 62.375 99.6653 62.375C99.6681 62.375 99.671 62.375 99.6738 62.375C99.6767 62.375 99.6796 62.375 99.6824 62.375C99.6853 62.375 99.6882 62.375 99.691 62.375C99.6939 62.375 99.6967 62.375 99.6996 62.375C99.7025 62.375 99.7053 62.375 99.7082 62.375C99.7111 62.375 99.7139 62.375 99.7168 62.375C99.7196 62.375 99.7225 62.375 99.7254 62.375C99.7282 62.375 99.7311 62.375 99.734 62.375C99.7368 62.375 99.7397 62.375 99.7426 62.375C99.7454 62.375 99.7483 62.375 99.7511 62.375C99.754 62.375 99.7569 62.375 99.7597 62.375C99.7626 62.375 99.7655 62.375 99.7683 62.375C99.7712 62.375 99.7741 62.375 99.7769 62.375C99.7798 62.375 99.7827 62.375 99.7855 62.375C99.7884 62.375 99.7912 62.375 99.7941 62.375C99.797 62.375 99.7998 62.375 99.8027 62.375C99.8056 62.375 99.8084 62.375 99.8113 62.375C99.8142 62.375 99.817 62.375 99.8199 62.375C99.8228 62.375 99.8256 62.375 99.8285 62.375C99.8314 62.375 99.8342 62.375 99.8371 62.375C99.8399 62.375 99.8428 62.375 99.8457 62.375C99.8485 62.375 99.8514 62.375 99.8543 62.375C99.8571 62.375 99.86 62.375 99.8629 62.375C99.8657 62.375 99.8686 62.375 99.8715 62.375C99.8743 62.375 99.8772 62.375 99.8801 62.375C99.8829 62.375 99.8858 62.375 99.8887 62.375C99.8915 62.375 99.8944 62.375 99.8973 62.375C99.9001 62.375 99.903 62.375 99.9059 62.375C99.9087 62.375 99.9116 62.375 99.9145 62.375C99.9173 62.375 99.9202 62.375 99.9231 62.375C99.9259 62.375 99.9288 62.375 99.9317 62.375C99.9345 62.375 99.9374 62.375 99.9403 62.375C99.9431 62.375 99.946 62.375 99.9489 62.375C99.9517 62.375 99.9546 62.375 99.9575 62.375C99.9603 62.375 99.9632 62.375 99.9661 62.375C99.9689 62.375 99.9718 62.375 99.9747 62.375C99.9775 62.375 99.9804 62.375 99.9833 62.375C99.9861 62.375 99.989 62.375 99.9919 62.375C99.9947 62.375 99.9976 62.375 100 62.375C100.003 62.375 100.006 62.375 100.009 62.375C100.012 62.375 100.015 62.375 100.018 62.375C100.02 62.375 100.023 62.375 100.026 62.375C100.029 62.375 100.032 62.375 100.035 62.375C100.038 62.375 100.041 62.375 100.043 62.375C100.046 62.375 100.049 62.375 100.052 62.375C100.055 62.375 100.058 62.375 100.061 62.375C100.063 62.375 100.066 62.375 100.069 62.375C100.072 62.375 100.075 62.375 100.078 62.375C100.081 62.375 100.084 62.375 100.086 62.375C100.089 62.375 100.092 62.375 100.095 62.375V60.375C100.092 60.375 100.089 60.375 100.086 60.375C100.084 60.375 100.081 60.375 100.078 60.375C100.075 60.375 100.072 60.375 100.069 60.375C100.066 60.375 100.063 60.375 100.061 60.375C100.058 60.375 100.055 60.375 100.052 60.375C100.049 60.375 100.046 60.375 100.043 60.375C100.041 60.375 100.038 60.375 100.035 60.375C100.032 60.375 100.029 60.375 100.026 60.375C100.023 60.375 100.02 60.375 100.018 60.375C100.015 60.375 100.012 60.375 100.009 60.375C100.006 60.375 100.003 60.375 100 60.375C99.9976 60.375 99.9947 60.375 99.9919 60.375C99.989 60.375 99.9861 60.375 99.9833 60.375C99.9804 60.375 99.9775 60.375 99.9747 60.375C99.9718 60.375 99.9689 60.375 99.9661 60.375C99.9632 60.375 99.9603 60.375 99.9575 60.375C99.9546 60.375 99.9517 60.375 99.9489 60.375C99.946 60.375 99.9431 60.375 99.9403 60.375C99.9374 60.375 99.9345 60.375 99.9317 60.375C99.9288 60.375 99.9259 60.375 99.9231 60.375C99.9202 60.375 99.9173 60.375 99.9145 60.375C99.9116 60.375 99.9087 60.375 99.9059 60.375C99.903 60.375 99.9001 60.375 99.8973 60.375C99.8944 60.375 99.8915 60.375 99.8887 60.375C99.8858 60.375 99.8829 60.375 99.8801 60.375C99.8772 60.375 99.8743 60.375 99.8715 60.375C99.8686 60.375 99.8657 60.375 99.8629 60.375C99.86 60.375 99.8571 60.375 99.8543 60.375C99.8514 60.375 99.8485 60.375 99.8457 60.375C99.8428 60.375 99.8399 60.375 99.8371 60.375C99.8342 60.375 99.8314 60.375 99.8285 60.375C99.8256 60.375 99.8228 60.375 99.8199 60.375C99.817 60.375 99.8142 60.375 99.8113 60.375C99.8084 60.375 99.8056 60.375 99.8027 60.375C99.7998 60.375 99.797 60.375 99.7941 60.375C99.7912 60.375 99.7884 60.375 99.7855 60.375C99.7827 60.375 99.7798 60.375 99.7769 60.375C99.7741 60.375 99.7712 60.375 99.7683 60.375C99.7655 60.375 99.7626 60.375 99.7597 60.375C99.7569 60.375 99.754 60.375 99.7511 60.375C99.7483 60.375 99.7454 60.375 99.7426 60.375C99.7397 60.375 99.7368 60.375 99.734 60.375C99.7311 60.375 99.7282 60.375 99.7254 60.375C99.7225 60.375 99.7196 60.375 99.7168 60.375C99.7139 60.375 99.7111 60.375 99.7082 60.375C99.7053 60.375 99.7025 60.375 99.6996 60.375C99.6967 60.375 99.6939 60.375 99.691 60.375C99.6882 60.375 99.6853 60.375 99.6824 60.375C99.6796 60.375 99.6767 60.375 99.6738 60.375C99.671 60.375 99.6681 60.375 99.6653 60.375C99.6624 60.375 99.6595 60.375 99.6567 60.375C99.6538 60.375 99.6509 60.375 99.6481 60.375C99.6452 60.375 99.6424 60.375 99.6395 60.375C99.6366 60.375 99.6338 60.375 99.6309 60.375C99.628 60.375 99.6252 60.375 99.6223 60.375C99.6195 60.375 99.6166 60.375 99.6137 60.375C99.6109 60.375 99.608 60.375 99.6051 60.375C99.6023 60.375 99.5994 60.375 99.5966 60.375C99.5937 60.375 99.5908 60.375 99.588 60.375C99.5851 60.375 99.5822 60.375 99.5794 60.375C99.5765 60.375 99.5737 60.375 99.5708 60.375C99.5679 60.375 99.5651 60.375 99.5622 60.375C99.5594 60.375 99.5565 60.375 99.5536 60.375C99.5508 60.375 99.5479 60.375 99.5451 60.375C99.5422 60.375 99.5393 60.375 99.5365 60.375C99.5336 60.375 99.5307 60.375 99.5279 60.375C99.525 60.375 99.5222 60.375 99.5193 60.375C99.5164 60.375 99.5136 60.375 99.5107 60.375C99.5079 60.375 99.505 60.375 99.5021 60.375C99.4993 60.375 99.4964 60.375 99.4936 60.375C99.4907 60.375 99.4878 60.375 99.485 60.375C99.4821 60.375 99.4793 60.375 99.4764 60.375C99.4735 60.375 99.4707 60.375 99.4678 60.375C99.465 60.375 99.4621 60.375 99.4592 60.375C99.4564 60.375 99.4535 60.375 99.4507 60.375C99.4478 60.375 99.4449 60.375 99.4421 60.375C99.4392 60.375 99.4364 60.375 99.4335 60.375C99.4306 60.375 99.4278 60.375 99.4249 60.375C99.4221 60.375 99.4192 60.375 99.4163 60.375C99.4135 60.375 99.4106 60.375 99.4078 60.375C99.4049 60.375 99.4021 60.375 99.3992 60.375C99.3963 60.375 99.3935 60.375 99.3906 60.375C99.3878 60.375 99.3849 60.375 99.382 60.375C99.3792 60.375 99.3763 60.375 99.3735 60.375C99.3706 60.375 99.3677 60.375 99.3649 60.375C99.362 60.375 99.3592 60.375 99.3563 60.375C99.3535 60.375 99.3506 60.375 99.3477 60.375C99.3449 60.375 99.342 60.375 99.3392 60.375C99.3363 60.375 99.3334 60.375 99.3306 60.375C99.3277 60.375 99.3249 60.375 99.322 60.375C99.3192 60.375 99.3163 60.375 99.3134 60.375C99.3106 60.375 99.3077 60.375 99.3049 60.375C99.302 60.375 99.2992 60.375 99.2963 60.375C99.2934 60.375 99.2906 60.375 99.2877 60.375C99.2849 60.375 99.282 60.375 99.2791 60.375C99.2763 60.375 99.2734 60.375 99.2706 60.375C99.2677 60.375 99.2649 60.375 99.262 60.375C99.2591 60.375 99.2563 60.375 99.2534 60.375C99.2506 60.375 99.2477 60.375 99.2449 60.375C99.242 60.375 99.2392 60.375 99.2363 60.375C99.2334 60.375 99.2306 60.375 99.2277 60.375C99.2249 60.375 99.222 60.375 99.2192 60.375C99.2163 60.375 99.2134 60.375 99.2106 60.375C99.2077 60.375 99.2049 60.375 99.202 60.375C99.1992 60.375 99.1963 60.375 99.1934 60.375C99.1906 60.375 99.1877 60.375 99.1849 60.375C99.182 60.375 99.1792 60.375 99.1763 60.375C99.1735 60.375 99.1706 60.375 99.1677 60.375C99.1649 60.375 99.162 60.375 99.1592 60.375C99.1563 60.375 99.1535 60.375 99.1506 60.375C99.1478 60.375 99.1449 60.375 99.142 60.375C99.1392 60.375 99.1363 60.375 99.1335 60.375C99.1306 60.375 99.1278 60.375 99.1249 60.375C99.1221 60.375 99.1192 60.375 99.1163 60.375C99.1135 60.375 99.1106 60.375 99.1078 60.375C99.1049 60.375 99.1021 60.375 99.0992 60.375C99.0964 60.375 99.0935 60.375 99.0907 60.375C99.0878 60.375 99.0849 60.375 99.0821 60.375C99.0792 60.375 99.0764 60.375 99.0735 60.375C99.0707 60.375 99.0678 60.375 99.065 60.375C99.0621 60.375 99.0593 60.375 99.0564 60.375C99.0535 60.375 99.0507 60.375 99.0478 60.375C99.045 60.375 99.0421 60.375 99.0393 60.375C99.0364 60.375 99.0336 60.375 99.0307 60.375C99.0279 60.375 99.025 60.375 99.0222 60.375C99.0193 60.375 99.0164 60.375 99.0136 60.375C99.0107 60.375 99.0079 60.375 99.005 60.375C99.0022 60.375 98.9993 60.375 98.9965 60.375C98.9936 60.375 98.9908 60.375 98.9879 60.375C98.9851 60.375 98.9822 60.375 98.9793 60.375C98.9765 60.375 98.9736 60.375 98.9708 60.375C98.9679 60.375 98.9651 60.375 98.9622 60.375C98.9594 60.375 98.9565 60.375 98.9537 60.375C98.9508 60.375 98.948 60.375 98.9451 60.375C98.9423 60.375 98.9394 60.375 98.9366 60.375C98.9337 60.375 98.9309 60.375 98.928 60.375C98.9251 60.375 98.9223 60.375 98.9194 60.375C98.9166 60.375 98.9137 60.375 98.9109 60.375C98.908 60.375 98.9052 60.375 98.9023 60.375C98.8995 60.375 98.8966 60.375 98.8938 60.375C98.8909 60.375 98.8881 60.375 98.8852 60.375C98.8824 60.375 98.8795 60.375 98.8767 60.375C98.8738 60.375 98.871 60.375 98.8681 60.375C98.8653 60.375 98.8624 60.375 98.8596 60.375C98.8567 60.375 98.8538 60.375 98.851 60.375C98.8481 60.375 98.8453 60.375 98.8424 60.375C98.8396 60.375 98.8367 60.375 98.8339 60.375C98.831 60.375 98.8282 60.375 98.8253 60.375C98.8225 60.375 98.8196 60.375 98.8168 60.375C98.8139 60.375 98.8111 60.375 98.8082 60.375C98.8054 60.375 98.8025 60.375 98.7997 60.375C98.7968 60.375 98.794 60.375 98.7911 60.375C98.7883 60.375 98.7854 60.375 98.7826 60.375C98.7797 60.375 98.7769 60.375 98.774 60.375C98.7712 60.375 98.7683 60.375 98.7655 60.375C98.7626 60.375 98.7598 60.375 98.7569 60.375C98.7541 60.375 98.7512 60.375 98.7484 60.375C98.7455 60.375 98.7427 60.375 98.7398 60.375C98.737 60.375 98.7341 60.375 98.7313 60.375C98.7284 60.375 98.7256 60.375 98.7227 60.375C98.7199 60.375 98.717 60.375 98.7142 60.375C98.7113 60.375 98.7085 60.375 98.7056 60.375C98.7028 60.375 98.6999 60.375 98.6971 60.375C98.6942 60.375 98.6914 60.375 98.6885 60.375C98.6857 60.375 98.6828 60.375 98.68 60.375C98.6771 60.375 98.6743 60.375 98.6714 60.375C98.6686 60.375 98.6657 60.375 98.6629 60.375C98.66 60.375 98.6572 60.375 98.6543 60.375C98.6515 60.375 98.6487 60.375 98.6458 60.375C98.643 60.375 98.6401 60.375 98.6373 60.375C98.6344 60.375 98.6316 60.375 98.6287 60.375C98.6259 60.375 98.623 60.375 98.6202 60.375C98.6173 60.375 98.6145 60.375 98.6116 60.375C98.6088 60.375 98.6059 60.375 98.6031 60.375C98.6002 60.375 98.5974 60.375 98.5945 60.375C98.5917 60.375 98.5888 60.375 98.586 60.375C98.5831 60.375 98.5803 60.375 98.5774 60.375C98.5746 60.375 98.5718 60.375 98.5689 60.375C98.5661 60.375 98.5632 60.375 98.5604 60.375C98.5575 60.375 98.5547 60.375 98.5518 60.375C98.549 60.375 98.5461 60.375 98.5433 60.375C98.5404 60.375 98.5376 60.375 98.5347 60.375C98.5319 60.375 98.529 60.375 98.5262 60.375C98.5234 60.375 98.5205 60.375 98.5177 60.375C98.5148 60.375 98.512 60.375 98.5091 60.375C98.5063 60.375 98.5034 60.375 98.5006 60.375C98.4977 60.375 98.4949 60.375 98.492 60.375C98.4892 60.375 98.4863 60.375 98.4835 60.375C98.4807 60.375 98.4778 60.375 98.475 60.375C98.4721 60.375 98.4693 60.375 98.4664 60.375C98.4636 60.375 98.4607 60.375 98.4579 60.375C98.455 60.375 98.4522 60.375 98.4493 60.375C98.4465 60.375 98.4437 60.375 98.4408 60.375C98.438 60.375 98.4351 60.375 98.4323 60.375C98.4294 60.375 98.4266 60.375 98.4237 60.375C98.4209 60.375 98.418 60.375 98.4152 60.375C98.4124 60.375 98.4095 60.375 98.4067 60.375C98.4038 60.375 98.401 60.375 98.3981 60.375C98.3953 60.375 98.3924 60.375 98.3896 60.375C98.3868 60.375 98.3839 60.375 98.3811 60.375C98.3782 60.375 98.3754 60.375 98.3725 60.375C98.3697 60.375 98.3668 60.375 98.364 60.375C98.3611 60.375 98.3583 60.375 98.3555 60.375C98.3526 60.375 98.3498 60.375 98.3469 60.375C98.3441 60.375 98.3412 60.375 98.3384 60.375C98.3356 60.375 98.3327 60.375 98.3299 60.375C98.327 60.375 98.3242 60.375 98.3213 60.375C98.3185 60.375 98.3156 60.375 98.3128 60.375C98.31 60.375 98.3071 60.375 98.3043 60.375C98.3014 60.375 98.2986 60.375 98.2957 60.375C98.2929 60.375 98.29 60.375 98.2872 60.375C98.2844 60.375 98.2815 60.375 98.2787 60.375C98.2758 60.375 98.273 60.375 98.2701 60.375C98.2673 60.375 98.2645 60.375 98.2616 60.375C98.2588 60.375 98.2559 60.375 98.2531 60.375C98.2502 60.375 98.2474 60.375 98.2446 60.375C98.2417 60.375 98.2389 60.375 98.236 60.375C98.2332 60.375 98.2303 60.375 98.2275 60.375C98.2247 60.375 98.2218 60.375 98.219 60.375C98.2161 60.375 98.2133 60.375 98.2104 60.375C98.2076 60.375 98.2048 60.375 98.2019 60.375C98.1991 60.375 98.1962 60.375 98.1934 60.375C98.1905 60.375 98.1877 60.375 98.1849 60.375C98.182 60.375 98.1792 60.375 98.1763 60.375C98.1735 60.375 98.1707 60.375 98.1678 60.375C98.165 60.375 98.1621 60.375 98.1593 60.375C98.1564 60.375 98.1536 60.375 98.1508 60.375C98.1479 60.375 98.1451 60.375 98.1422 60.375C98.1394 60.375 98.1366 60.375 98.1337 60.375C98.1309 60.375 98.128 60.375 98.1252 60.375C98.1223 60.375 98.1195 60.375 98.1167 60.375C98.1138 60.375 98.111 60.375 98.1081 60.375C98.1053 60.375 98.1025 60.375 98.0996 60.375C98.0968 60.375 98.0939 60.375 98.0911 60.375C98.0883 60.375 98.0854 60.375 98.0826 60.375C98.0797 60.375 98.0769 60.375 98.0741 60.375C98.0712 60.375 98.0684 60.375 98.0655 60.375C98.0627 60.375 98.0599 60.375 98.057 60.375C98.0542 60.375 98.0513 60.375 98.0485 60.375C98.0457 60.375 98.0428 60.375 98.04 60.375C98.0371 60.375 98.0343 60.375 98.0315 60.375C98.0286 60.375 98.0258 60.375 98.0229 60.375C98.0201 60.375 98.0173 60.375 98.0144 60.375C98.0116 60.375 98.0087 60.375 98.0059 60.375C98.0031 60.375 98.0002 60.375 97.9974 60.375C97.9945 60.375 97.9917 60.375 97.9889 60.375C97.986 60.375 97.9832 60.375 97.9803 60.375C97.9775 60.375 97.9747 60.375 97.9718 60.375C97.969 60.375 97.9661 60.375 97.9633 60.375C97.9605 60.375 97.9576 60.375 97.9548 60.375C97.9519 60.375 97.9491 60.375 97.9463 60.375C97.9434 60.375 97.9406 60.375 97.9378 60.375C97.9349 60.375 97.9321 60.375 97.9292 60.375C97.9264 60.375 97.9236 60.375 97.9207 60.375C97.9179 60.375 97.915 60.375 97.9122 60.375C97.9094 60.375 97.9065 60.375 97.9037 60.375C97.9009 60.375 97.898 60.375 97.8952 60.375C97.8923 60.375 97.8895 60.375 97.8867 60.375C97.8838 60.375 97.881 60.375 97.8782 60.375C97.8753 60.375 97.8725 60.375 97.8696 60.375C97.8668 60.375 97.864 60.375 97.8611 60.375C97.8583 60.375 97.8555 60.375 97.8526 60.375C97.8498 60.375 97.8469 60.375 97.8441 60.375C97.8413 60.375 97.8384 60.375 97.8356 60.375C97.8328 60.375 97.8299 60.375 97.8271 60.375C97.8242 60.375 97.8214 60.375 97.8186 60.375C97.8157 60.375 97.8129 60.375 97.8101 60.375C97.8072 60.375 97.8044 60.375 97.8015 60.375C97.7987 60.375 97.7959 60.375 97.793 60.375C97.7902 60.375 97.7874 60.375 97.7845 60.375C97.7817 60.375 97.7789 60.375 97.776 60.375C97.7732 60.375 97.7703 60.375 97.7675 60.375C97.7647 60.375 97.7618 60.375 97.759 60.375C97.7562 60.375 97.7533 60.375 97.7505 60.375C97.7477 60.375 97.7448 60.375 97.742 60.375C97.7391 60.375 97.7363 60.375 97.7335 60.375C97.7306 60.375 97.7278 60.375 97.725 60.375C97.7221 60.375 97.7193 60.375 97.7165 60.375C97.7136 60.375 97.7108 60.375 97.708 60.375C97.7051 60.375 97.7023 60.375 97.6995 60.375C97.6966 60.375 97.6938 60.375 97.6909 60.375C97.6881 60.375 97.6853 60.375 97.6824 60.375C97.6796 60.375 97.6768 60.375 97.6739 60.375C97.6711 60.375 97.6683 60.375 97.6654 60.375C97.6626 60.375 97.6598 60.375 97.6569 60.375C97.6541 60.375 97.6513 60.375 97.6484 60.375C97.6456 60.375 97.6428 60.375 97.6399 60.375C97.6371 60.375 97.6343 60.375 97.6314 60.375C97.6286 60.375 97.6257 60.375 97.6229 60.375C97.6201 60.375 97.6172 60.375 97.6144 60.375C97.6116 60.375 97.6087 60.375 97.6059 60.375C97.6031 60.375 97.6002 60.375 97.5974 60.375C97.5946 60.375 97.5917 60.375 97.5889 60.375C97.5861 60.375 97.5832 60.375 97.5804 60.375C97.5776 60.375 97.5747 60.375 97.5719 60.375C97.5691 60.375 97.5662 60.375 97.5634 60.375C97.5606 60.375 97.5577 60.375 97.5549 60.375C97.5521 60.375 97.5492 60.375 97.5464 60.375C97.5436 60.375 97.5407 60.375 97.5379 60.375C97.5351 60.375 97.5322 60.375 97.5294 60.375C97.5266 60.375 97.5237 60.375 97.5209 60.375C97.5181 60.375 97.5152 60.375 97.5124 60.375C97.5096 60.375 97.5067 60.375 97.5039 60.375C97.5011 60.375 97.4982 60.375 97.4954 60.375C97.4926 60.375 97.4898 60.375 97.4869 60.375C97.4841 60.375 97.4813 60.375 97.4784 60.375C97.4756 60.375 97.4728 60.375 97.4699 60.375C97.4671 60.375 97.4643 60.375 97.4614 60.375C97.4586 60.375 97.4558 60.375 97.4529 60.375C97.4501 60.375 97.4473 60.375 97.4444 60.375C97.4416 60.375 97.4388 60.375 97.4359 60.375C97.4331 60.375 97.4303 60.375 97.4274 60.375C97.4246 60.375 97.4218 60.375 97.419 60.375C97.4161 60.375 97.4133 60.375 97.4105 60.375C97.4076 60.375 97.4048 60.375 97.402 60.375C97.3991 60.375 97.3963 60.375 97.3935 60.375C97.3906 60.375 97.3878 60.375 97.385 60.375C97.3822 60.375 97.3793 60.375 97.3765 60.375C97.3737 60.375 97.3708 60.375 97.368 60.375C97.3652 60.375 97.3623 60.375 97.3595 60.375C97.3567 60.375 97.3538 60.375 97.351 60.375C97.3482 60.375 97.3454 60.375 97.3425 60.375C97.3397 60.375 97.3369 60.375 97.334 60.375C97.3312 60.375 97.3284 60.375 97.3255 60.375C97.3227 60.375 97.3199 60.375 97.3171 60.375C97.3142 60.375 97.3114 60.375 97.3086 60.375C97.3057 60.375 97.3029 60.375 97.3001 60.375C97.2972 60.375 97.2944 60.375 97.2916 60.375C97.2888 60.375 97.2859 60.375 97.2831 60.375C97.2803 60.375 97.2774 60.375 97.2746 60.375C97.2718 60.375 97.2689 60.375 97.2661 60.375C97.2633 60.375 97.2605 60.375 97.2576 60.375C97.2548 60.375 97.252 60.375 97.2491 60.375C97.2463 60.375 97.2435 60.375 97.2407 60.375C97.2378 60.375 97.235 60.375 97.2322 60.375C97.2293 60.375 97.2265 60.375 97.2237 60.375C97.2209 60.375 97.218 60.375 97.2152 60.375C97.2124 60.375 97.2095 60.375 97.2067 60.375C97.2039 60.375 97.2011 60.375 97.1982 60.375C97.1954 60.375 97.1926 60.375 97.1897 60.375C97.1869 60.375 97.1841 60.375 97.1813 60.375C97.1784 60.375 97.1756 60.375 97.1728 60.375C97.17 60.375 97.1671 60.375 97.1643 60.375C97.1615 60.375 97.1586 60.375 97.1558 60.375C97.153 60.375 97.1502 60.375 97.1473 60.375C97.1445 60.375 97.1417 60.375 97.1388 60.375C97.136 60.375 97.1332 60.375 97.1304 60.375C97.1275 60.375 97.1247 60.375 97.1219 60.375C97.1191 60.375 97.1162 60.375 97.1134 60.375C97.1106 60.375 97.1077 60.375 97.1049 60.375C97.1021 60.375 97.0993 60.375 97.0964 60.375C97.0936 60.375 97.0908 60.375 97.088 60.375C97.0851 60.375 97.0823 60.375 97.0795 60.375C97.0767 60.375 97.0738 60.375 97.071 60.375C97.0682 60.375 97.0653 60.375 97.0625 60.375C97.0597 60.375 97.0569 60.375 97.054 60.375C97.0512 60.375 97.0484 60.375 97.0456 60.375C97.0427 60.375 97.0399 60.375 97.0371 60.375C97.0343 60.375 97.0314 60.375 97.0286 60.375C97.0258 60.375 97.023 60.375 97.0201 60.375C97.0173 60.375 97.0145 60.375 97.0117 60.375C97.0088 60.375 97.006 60.375 97.0032 60.375C97.0004 60.375 96.9975 60.375 96.9947 60.375C96.9919 60.375 96.9891 60.375 96.9862 60.375C96.9834 60.375 96.9806 60.375 96.9777 60.375C96.9749 60.375 96.9721 60.375 96.9693 60.375C96.9664 60.375 96.9636 60.375 96.9608 60.375C96.958 60.375 96.9551 60.375 96.9523 60.375C96.9495 60.375 96.9467 60.375 96.9439 60.375C96.941 60.375 96.9382 60.375 96.9354 60.375C96.9326 60.375 96.9297 60.375 96.9269 60.375C96.9241 60.375 96.9213 60.375 96.9184 60.375C96.9156 60.375 96.9128 60.375 96.91 60.375C96.9071 60.375 96.9043 60.375 96.9015 60.375C96.8987 60.375 96.8958 60.375 96.893 60.375C96.8902 60.375 96.8874 60.375 96.8845 60.375C96.8817 60.375 96.8789 60.375 96.8761 60.375C96.8732 60.375 96.8704 60.375 96.8676 60.375C96.8648 60.375 96.862 60.375 96.8591 60.375C96.8563 60.375 96.8535 60.375 96.8507 60.375C96.8478 60.375 96.845 60.375 96.8422 60.375C96.8394 60.375 96.8365 60.375 96.8337 60.375C96.8309 60.375 96.8281 60.375 96.8252 60.375C96.8224 60.375 96.8196 60.375 96.8168 60.375C96.814 60.375 96.8111 60.375 96.8083 60.375C96.8055 60.375 96.8027 60.375 96.7998 60.375C96.797 60.375 96.7942 60.375 96.7914 60.375C96.7886 60.375 96.7857 60.375 96.7829 60.375C96.7801 60.375 96.7773 60.375 96.7744 60.375C96.7716 60.375 96.7688 60.375 96.766 60.375C96.7632 60.375 96.7603 60.375 96.7575 60.375C96.7547 60.375 96.7519 60.375 96.749 60.375C96.7462 60.375 96.7434 60.375 96.7406 60.375C96.7378 60.375 96.7349 60.375 96.7321 60.375C96.7293 60.375 96.7265 60.375 96.7236 60.375C96.7208 60.375 96.718 60.375 96.7152 60.375C96.7124 60.375 96.7095 60.375 96.7067 60.375C96.7039 60.375 96.7011 60.375 96.6983 60.375C96.6954 60.375 96.6926 60.375 96.6898 60.375C96.687 60.375 96.6841 60.375 96.6813 60.375C96.6785 60.375 96.6757 60.375 96.6729 60.375C96.67 60.375 96.6672 60.375 96.6644 60.375C96.6616 60.375 96.6588 60.375 96.6559 60.375C96.6531 60.375 96.6503 60.375 96.6475 60.375C96.6447 60.375 96.6418 60.375 96.639 60.375C96.6362 60.375 96.6334 60.375 96.6306 60.375C96.6277 60.375 96.6249 60.375 96.6221 60.375C96.6193 60.375 96.6165 60.375 96.6136 60.375C96.6108 60.375 96.608 60.375 96.6052 60.375C96.6024 60.375 96.5995 60.375 96.5967 60.375C96.5939 60.375 96.5911 60.375 96.5883 60.375C96.5854 60.375 96.5826 60.375 96.5798 60.375C96.577 60.375 96.5742 60.375 96.5713 60.375C96.5685 60.375 96.5657 60.375 96.5629 60.375C96.5601 60.375 96.5572 60.375 96.5544 60.375C96.5516 60.375 96.5488 60.375 96.546 60.375C96.5431 60.375 96.5403 60.375 96.5375 60.375C96.5347 60.375 96.5319 60.375 96.5291 60.375C96.5262 60.375 96.5234 60.375 96.5206 60.375C96.5178 60.375 96.515 60.375 96.5121 60.375C96.5093 60.375 96.5065 60.375 96.5037 60.375C96.5009 60.375 96.498 60.375 96.4952 60.375C96.4924 60.375 96.4896 60.375 96.4868 60.375C96.484 60.375 96.4811 60.375 96.4783 60.375C96.4755 60.375 96.4727 60.375 96.4699 60.375C96.467 60.375 96.4642 60.375 96.4614 60.375C96.4586 60.375 96.4558 60.375 96.453 60.375C96.4501 60.375 96.4473 60.375 96.4445 60.375C96.4417 60.375 96.4389 60.375 96.4361 60.375C96.4332 60.375 96.4304 60.375 96.4276 60.375C96.4248 60.375 96.422 60.375 96.4192 60.375C96.4163 60.375 96.4135 60.375 96.4107 60.375C96.4079 60.375 96.4051 60.375 96.4022 60.375C96.3994 60.375 96.3966 60.375 96.3938 60.375C96.391 60.375 96.3882 60.375 96.3853 60.375C96.3825 60.375 96.3797 60.375 96.3769 60.375C96.3741 60.375 96.3713 60.375 96.3684 60.375C96.3656 60.375 96.3628 60.375 96.36 60.375C96.3572 60.375 96.3544 60.375 96.3515 60.375C96.3487 60.375 96.3459 60.375 96.3431 60.375C96.3403 60.375 96.3375 60.375 96.3347 60.375C96.3318 60.375 96.329 60.375 96.3262 60.375C96.3234 60.375 96.3206 60.375 96.3178 60.375C96.3149 60.375 96.3121 60.375 96.3093 60.375C96.3065 60.375 96.3037 60.375 96.3009 60.375C96.298 60.375 96.2952 60.375 96.2924 60.375C96.2896 60.375 96.2868 60.375 96.284 60.375C96.2812 60.375 96.2783 60.375 96.2755 60.375C96.2727 60.375 96.2699 60.375 96.2671 60.375C96.2643 60.375 96.2614 60.375 96.2586 60.375C96.2558 60.375 96.253 60.375 96.2502 60.375C96.2474 60.375 96.2446 60.375 96.2417 60.375C96.2389 60.375 96.2361 60.375 96.2333 60.375C96.2305 60.375 96.2277 60.375 96.2249 60.375C96.222 60.375 96.2192 60.375 96.2164 60.375C96.2136 60.375 96.2108 60.375 96.208 60.375C96.2052 60.375 96.2023 60.375 96.1995 60.375C96.1967 60.375 96.1939 60.375 96.1911 60.375C96.1883 60.375 96.1855 60.375 96.1826 60.375C96.1798 60.375 96.177 60.375 96.1742 60.375C96.1714 60.375 96.1686 60.375 96.1658 60.375C96.1629 60.375 96.1601 60.375 96.1573 60.375C96.1545 60.375 96.1517 60.375 96.1489 60.375C96.1461 60.375 96.1432 60.375 96.1404 60.375C96.1376 60.375 96.1348 60.375 96.132 60.375C96.1292 60.375 96.1264 60.375 96.1236 60.375C96.1207 60.375 96.1179 60.375 96.1151 60.375C96.1123 60.375 96.1095 60.375 96.1067 60.375C96.1039 60.375 96.1011 60.375 96.0982 60.375C96.0954 60.375 96.0926 60.375 96.0898 60.375C96.087 60.375 96.0842 60.375 96.0814 60.375C96.0786 60.375 96.0757 60.375 96.0729 60.375C96.0701 60.375 96.0673 60.375 96.0645 60.375C96.0617 60.375 96.0589 60.375 96.0561 60.375C96.0532 60.375 96.0504 60.375 96.0476 60.375C96.0448 60.375 96.042 60.375 96.0392 60.375C96.0364 60.375 96.0336 60.375 96.0307 60.375C96.0279 60.375 96.0251 60.375 96.0223 60.375C96.0195 60.375 96.0167 60.375 96.0139 60.375C96.0111 60.375 96.0083 60.375 96.0054 60.375C96.0026 60.375 95.9998 60.375 95.997 60.375C95.9942 60.375 95.9914 60.375 95.9886 60.375C95.9858 60.375 95.983 60.375 95.9801 60.375C95.9773 60.375 95.9745 60.375 95.9717 60.375C95.9689 60.375 95.9661 60.375 95.9633 60.375C95.9605 60.375 95.9577 60.375 95.9548 60.375C95.952 60.375 95.9492 60.375 95.9464 60.375C95.9436 60.375 95.9408 60.375 95.938 60.375C95.9352 60.375 95.9324 60.375 95.9295 60.375C95.9267 60.375 95.9239 60.375 95.9211 60.375C95.9183 60.375 95.9155 60.375 95.9127 60.375C95.9099 60.375 95.9071 60.375 95.9043 60.375C95.9014 60.375 95.8986 60.375 95.8958 60.375C95.893 60.375 95.8902 60.375 95.8874 60.375C95.8846 60.375 95.8818 60.375 95.879 60.375C95.8762 60.375 95.8733 60.375 95.8705 60.375C95.8677 60.375 95.8649 60.375 95.8621 60.375C95.8593 60.375 95.8565 60.375 95.8537 60.375C95.8509 60.375 95.8481 60.375 95.8453 60.375C95.8424 60.375 95.8396 60.375 95.8368 60.375C95.834 60.375 95.8312 60.375 95.8284 60.375C95.8256 60.375 95.8228 60.375 95.82 60.375C95.8172 60.375 95.8144 60.375 95.8115 60.375C95.8087 60.375 95.8059 60.375 95.8031 60.375C95.8003 60.375 95.7975 60.375 95.7947 60.375C95.7919 60.375 95.7891 60.375 95.7863 60.375C95.7835 60.375 95.7807 60.375 95.7778 60.375C95.775 60.375 95.7722 60.375 95.7694 60.375C95.7666 60.375 95.7638 60.375 95.761 60.375C95.7582 60.375 95.7554 60.375 95.7526 60.375C95.7498 60.375 95.747 60.375 95.7441 60.375C95.7413 60.375 95.7385 60.375 95.7357 60.375V62.375ZM100.095 62.375C101.851 62.375 103.576 62.3593 105.27 62.328L105.233 60.3283C103.552 60.3594 101.839 60.375 100.095 60.375V62.375ZM105.27 62.328C106.951 62.2968 108.663 62.2812 110.408 62.2812V60.2812C108.652 60.2812 106.927 60.2969 105.233 60.3283L105.27 62.328ZM196.378 82.793L196.505 83.7847L197.663 83.6354L197.338 82.5147L196.378 82.793ZM166.346 86.668L165.38 86.9246L165.605 87.7719L166.474 87.6597L166.346 86.668ZM162.713 72.9844L163.68 72.7278L163.483 71.9844H162.713V72.9844ZM148.909 72.9844V71.9844H148.106L147.932 72.7684L148.909 72.9844ZM145.881 86.668L145.784 87.6632L146.666 87.7497L146.858 86.884L145.881 86.668ZM115.003 83.6406L114.044 83.3543L113.697 84.5174L114.905 84.6359L115.003 83.6406ZM139.1 2.99216L139.05 1.99342L138.344 2.02896L138.142 2.70587L139.1 2.99216ZM172.764 1.29685L173.725 1.01854L173.504 0.258301L172.714 0.298111L172.764 1.29685ZM160.534 54.457V55.457H161.776L161.511 54.2437L160.534 54.457ZM155.932 33.3867L156.909 33.1734L154.954 33.1787L155.932 33.3867ZM151.452 54.457L150.474 54.249L150.217 55.457H151.452V54.457ZM196.25 81.8012L166.218 85.6762L166.474 87.6597L196.505 83.7847L196.25 81.8012ZM167.313 86.4114L163.68 72.7278L161.747 73.241L165.38 86.9246L167.313 86.4114ZM162.713 71.9844H148.909V73.9844H162.713V71.9844ZM147.932 72.7684L144.905 86.452L146.858 86.884L149.885 73.2004L147.932 72.7684ZM145.979 85.6727L115.1 82.6454L114.905 84.6359L145.784 87.6632L145.979 85.6727ZM115.961 83.9269L140.058 3.27845L138.142 2.70587L114.044 83.3543L115.961 83.9269ZM139.15 3.99089L172.815 2.29558L172.714 0.298111L139.05 1.99342L139.15 3.99089ZM171.804 1.57515L195.417 83.0713L197.338 82.5147L173.725 1.01854L171.804 1.57515ZM161.511 54.2437L156.909 33.1734L154.955 33.6001L159.557 54.6704L161.511 54.2437ZM154.954 33.1787L150.474 54.249L152.43 54.665L156.91 33.5947L154.954 33.1787ZM151.452 55.457H160.534V53.457H151.452V55.457ZM278.1 19.6562L279.099 19.7188L279.165 18.6562H278.1V19.6562ZM273.788 88.4688L273.832 89.4678L274.73 89.4284L274.786 88.5313L273.788 88.4688ZM252.413 89.4062L251.413 89.4011L251.408 90.4513L252.457 90.4053L252.413 89.4062ZM252.6 53.125L253.6 53.1302L251.651 52.8115L252.6 53.125ZM242.944 82.375V83.375H243.667L243.894 82.6885L242.944 82.375ZM234.694 82.375L233.732 82.6474L233.938 83.375H234.694V82.375ZM227.288 56.2188L228.25 55.9463L226.288 56.2157L227.288 56.2188ZM227.194 86.5938L227.225 87.5933L228.191 87.564L228.194 86.5968L227.194 86.5938ZM205.538 87.25L204.538 87.2355L204.523 88.2812L205.568 88.2495L205.538 87.25ZM206.475 22.4688L206.437 21.4695L205.489 21.5064L205.476 22.4543L206.475 22.4688ZM230.569 21.5312L231.525 21.2368L231.298 20.5021L230.53 20.532L230.569 21.5312ZM240.132 52.5625L239.176 52.857L240.024 55.6085L241.064 52.9238L240.132 52.5625ZM252.882 19.6562V18.6562H252.197L251.949 19.295L252.882 19.6562ZM277.102 19.5937L272.79 88.4062L274.786 88.5313L279.099 19.7188L277.102 19.5937ZM273.744 87.4697L252.369 88.4072L252.457 90.4053L273.832 89.4678L273.744 87.4697ZM253.413 89.4114L253.6 53.1302L251.6 53.1198L251.413 89.4011L253.413 89.4114ZM251.651 52.8115L241.995 82.0615L243.894 82.6885L253.55 53.4385L251.651 52.8115ZM242.944 81.375H234.694V83.375H242.944V81.375ZM235.656 82.1026L228.25 55.9463L226.326 56.4912L233.732 82.6474L235.656 82.1026ZM226.288 56.2157L226.194 86.5907L228.194 86.5968L228.288 56.2218L226.288 56.2157ZM227.164 85.5942L205.508 86.2505L205.568 88.2495L227.225 87.5933L227.164 85.5942ZM206.538 87.2645L207.475 22.4832L205.476 22.4543L204.538 87.2355L206.538 87.2645ZM206.514 23.468L230.608 22.5305L230.53 20.532L206.437 21.4695L206.514 23.468ZM229.614 21.8257L239.176 52.857L241.087 52.268L231.525 21.2368L229.614 21.8257ZM241.064 52.9238L253.814 20.0175L251.949 19.295L239.199 52.2012L241.064 52.9238ZM252.882 20.6562H278.1V18.6562H252.882V20.6562ZM360.758 19.6562L361.756 19.7188L361.823 18.6562H360.758V19.6562ZM356.445 88.4688L356.489 89.4678L357.387 89.4284L357.444 88.5313L356.445 88.4688ZM335.07 89.4062L334.07 89.4011L334.065 90.4513L335.114 90.4053L335.07 89.4062ZM335.258 53.125L336.258 53.1302L334.308 52.8115L335.258 53.125ZM325.602 82.375V83.375H326.325L326.551 82.6885L325.602 82.375ZM317.352 82.375L316.39 82.6474L316.596 83.375H317.352V82.375ZM309.945 56.2188L310.908 55.9463L308.945 56.2157L309.945 56.2188ZM309.852 86.5938L309.882 87.5933L310.849 87.564L310.852 86.5968L309.852 86.5938ZM288.195 87.25L287.196 87.2355L287.18 88.2812L288.226 88.2495L288.195 87.25ZM289.133 22.4688L289.094 21.4695L288.147 21.5064L288.133 22.4543L289.133 22.4688ZM313.227 21.5312L314.182 21.2368L313.956 20.5021L313.188 20.532L313.227 21.5312ZM322.789 52.5625L321.834 52.857L322.681 55.6085L323.722 52.9238L322.789 52.5625ZM335.539 19.6562V18.6562H334.854L334.607 19.295L335.539 19.6562ZM359.76 19.5937L355.447 88.4062L357.444 88.5313L361.756 19.7188L359.76 19.5937ZM356.402 87.4697L335.027 88.4072L335.114 90.4053L356.489 89.4678L356.402 87.4697ZM336.07 89.4114L336.258 53.1302L334.258 53.1198L334.07 89.4011L336.07 89.4114ZM334.308 52.8115L324.652 82.0615L326.551 82.6885L336.208 53.4385L334.308 52.8115ZM325.602 81.375H317.352V83.375H325.602V81.375ZM318.314 82.1026L310.908 55.9463L308.983 56.4912L316.39 82.6474L318.314 82.1026ZM308.945 56.2157L308.852 86.5907L310.852 86.5968L310.945 56.2218L308.945 56.2157ZM309.821 85.5942L288.165 86.2505L288.226 88.2495L309.882 87.5933L309.821 85.5942ZM289.195 87.2645L290.133 22.4832L288.133 22.4543L287.196 87.2355L289.195 87.2645ZM289.172 23.468L313.266 22.5305L313.188 20.532L289.094 21.4695L289.172 23.468ZM312.271 21.8257L321.834 52.857L323.745 52.268L314.182 21.2368L312.271 21.8257ZM323.722 52.9238L336.472 20.0175L334.607 19.295L321.857 52.2012L323.722 52.9238ZM335.539 20.6562H360.758V18.6562H335.539V20.6562ZM427.244 63.1562L428.214 63.3988V63.3961L427.244 63.1562ZM424.384 70.5625L423.504 70.087L423.5 70.0963L424.384 70.5625ZM419.884 76.9375L419.148 76.2607V76.2612L419.884 76.9375ZM413.931 81.8594L413.404 81.0093L413.399 81.0127L413.931 81.8594ZM406.759 85.0938L407.037 86.0545L407.048 86.0513L406.759 85.0938ZM390.447 85.1406L390.174 86.1026L390.177 86.1035L390.447 85.1406ZM383.322 82.1406L382.813 83.0014L382.822 83.0066L383.322 82.1406ZM377.275 77.4531L376.556 78.1479L376.562 78.1541L376.568 78.1602L377.275 77.4531ZM372.681 71.3594L371.807 71.845L371.811 71.8523L371.815 71.8594L372.681 71.3594ZM369.728 64.1406L368.762 64.3998L368.765 64.4107L369.728 64.1406ZM369.681 48.1562L370.651 48.4015V48.3988L369.681 48.1562ZM372.494 40.75L371.614 40.2745L371.609 40.2838L372.494 40.75ZM382.853 29.3594L382.312 28.5182L382.307 28.5218L382.853 29.3594ZM410.322 27.0156L409.968 27.951L409.971 27.952L410.322 27.0156ZM419.884 33.0625L419.177 33.7697L419.186 33.778L419.884 33.0625ZM426.025 42.5312L425.092 42.8918L425.096 42.9013L426.025 42.5312ZM406.806 52.2344L405.846 52.5153L405.85 52.5294L405.855 52.5435L406.806 52.2344ZM405.119 48.8594L404.319 49.4594L404.323 49.4655L404.328 49.4715L405.119 48.8594ZM402.306 46.4688L401.81 47.337L401.825 47.3453L401.839 47.3531L402.306 46.4688ZM391.572 48.5312L390.828 47.8623L390.827 47.8637L391.572 48.5312ZM389.697 51.7656L390.638 52.1035L390.641 52.096L389.697 51.7656ZM394.056 65.7344L393.542 66.5919L393.552 66.5982L394.056 65.7344ZM401.884 65.875L402.322 66.7743L402.331 66.7694L401.884 65.875ZM404.884 63.5312L405.65 64.1739L405.655 64.1679L405.66 64.1618L404.884 63.5312ZM427.228 54.9062C427.228 57.6723 426.909 60.3417 426.273 62.9164L428.214 63.3961C428.891 60.6583 429.228 57.8277 429.228 54.9062H427.228ZM426.273 62.9137C425.637 65.46 424.714 67.8502 423.505 70.087L425.264 71.038C426.555 68.6498 427.538 66.1025 428.214 63.3988L426.273 62.9137ZM423.5 70.0963C422.321 72.3319 420.871 74.3863 419.148 76.2607L420.62 77.6143C422.46 75.6137 424.01 73.4181 425.269 71.0287L423.5 70.0963ZM419.148 76.2612C417.46 78.0997 415.546 79.682 413.404 81.0094L414.458 82.7094C416.753 81.2867 418.809 79.5878 420.621 77.6138L419.148 76.2612ZM413.399 81.0127C411.291 82.3378 408.983 83.3796 406.471 84.1362L407.048 86.0513C409.723 85.2454 412.196 84.131 414.463 82.706L413.399 81.0127ZM406.481 84.1331C403.985 84.8551 401.329 85.2188 398.509 85.2188V87.2188C401.502 87.2188 404.346 86.8324 407.037 86.0544L406.481 84.1331ZM398.509 85.2188C395.783 85.2188 393.187 84.8705 390.717 84.1778L390.177 86.1035C392.832 86.8482 395.611 87.2188 398.509 87.2188V85.2188ZM390.72 84.1787C388.266 83.4818 385.967 82.5136 383.822 81.2746L382.822 83.0066C385.114 84.3302 387.565 85.3619 390.174 86.1026L390.72 84.1787ZM383.831 81.2799C381.684 80.0099 379.735 78.4989 377.982 76.746L376.568 78.1602C378.44 80.0324 380.522 81.6464 382.813 83.0013L383.831 81.2799ZM377.994 76.7583C376.269 74.9732 374.787 73.0074 373.547 70.8593L371.815 71.8594C373.137 74.1489 374.718 76.2455 376.556 78.1479L377.994 76.7583ZM373.555 70.8737C372.344 68.6942 371.389 66.3605 370.691 63.8706L368.765 64.4107C369.504 67.0457 370.518 69.5246 371.807 71.845L373.555 70.8737ZM370.694 63.8815C370.03 61.4075 369.697 58.823 369.697 56.125H367.697C367.697 58.9895 368.051 61.7488 368.762 64.3998L370.694 63.8815ZM369.697 56.125C369.697 53.4876 370.015 50.9138 370.651 48.4015L368.712 47.911C368.035 50.5862 367.697 53.3249 367.697 56.125H369.697ZM370.651 48.3988C371.289 45.8488 372.198 43.4554 373.378 41.2162L371.609 40.2838C370.352 42.6696 369.386 45.2137 368.711 47.9137L370.651 48.3988ZM373.373 41.2255C374.586 38.9827 376.04 36.9232 377.736 35.0453L376.251 33.7047C374.448 35.7018 372.902 37.8923 371.614 40.2745L373.373 41.2255ZM377.736 35.0453C379.429 33.1709 381.316 31.5555 383.399 30.197L382.307 28.5218C380.077 29.9758 378.058 31.7041 376.251 33.7047L377.736 35.0453ZM383.394 30.2006C385.503 28.8443 387.78 27.7886 390.226 27.0336L389.636 25.1226C387.02 25.9301 384.578 27.0619 382.312 28.5182L383.394 30.2006ZM390.226 27.0336C392.656 26.2837 395.228 25.9062 397.947 25.9062V23.9062C395.04 23.9062 392.269 24.3101 389.636 25.1226L390.226 27.0336ZM397.947 25.9062C402.374 25.9062 406.377 26.593 409.968 27.951L410.675 26.0803C406.829 24.6257 402.582 23.9062 397.947 23.9062V25.9062ZM409.971 27.952C413.598 29.3121 416.661 31.2533 419.177 33.7696L420.591 32.3554C417.858 29.6217 414.546 27.5317 410.673 26.0793L409.971 27.952ZM419.186 33.778C421.732 36.2643 423.702 39.2967 425.092 42.8918L426.958 42.1707C425.472 38.3283 423.349 35.0482 420.583 32.347L419.186 33.778ZM425.096 42.9013C426.511 46.4548 427.228 50.4517 427.228 54.9062H429.228C429.228 50.2358 428.476 45.9827 426.954 42.1612L425.096 42.9013ZM408.415 56.125C408.415 54.6787 408.197 53.2773 407.757 51.9253L405.855 52.5435C406.228 53.6914 406.415 54.8838 406.415 56.125H408.415ZM407.766 51.9535C407.359 50.563 406.742 49.3234 405.909 48.2472L404.328 49.4715C404.995 50.3329 405.503 51.3432 405.846 52.5153L407.766 51.9535ZM405.919 48.2594C405.078 47.139 404.026 46.2459 402.773 45.5844L401.839 47.3531C402.836 47.8791 403.659 48.5798 404.319 49.4594L405.919 48.2594ZM402.802 45.6005C401.537 44.8776 400.096 44.5312 398.509 44.5312V46.5312C399.798 46.5312 400.888 46.8099 401.81 47.337L402.802 45.6005ZM398.509 44.5312C396.918 44.5312 395.46 44.8194 394.154 45.4194L394.989 47.2368C395.996 46.7743 397.162 46.5312 398.509 46.5312V44.5312ZM394.154 45.4194C392.875 46.0071 391.764 46.8226 390.828 47.8623L392.315 49.2002C393.067 48.3649 393.956 47.7117 394.989 47.2368L394.154 45.4194ZM390.827 47.8637C389.919 48.8765 389.23 50.0719 388.753 51.4353L390.641 52.096C391.038 50.9594 391.599 49.9985 392.316 49.1988L390.827 47.8637ZM388.756 51.4278C388.277 52.7615 388.04 54.1733 388.04 55.6562H390.04C390.04 54.3892 390.242 53.2073 390.638 52.1035L388.756 51.4278ZM388.04 55.6562C388.04 57.0653 388.242 58.4702 388.641 59.8685L390.564 59.319C390.214 58.0923 390.04 56.8722 390.04 55.6562H388.04ZM388.641 59.8685C389.046 61.2836 389.656 62.5741 390.473 63.7329L392.107 62.5796C391.425 61.6134 390.91 60.5289 390.564 59.319L388.641 59.8685ZM390.473 63.7329C391.302 64.9068 392.326 65.8626 393.542 66.5919L394.571 64.8769C393.598 64.2936 392.779 63.5307 392.107 62.5796L390.473 63.7329ZM393.552 66.5982C394.849 67.3546 396.324 67.7188 397.947 67.7188V65.7188C396.632 65.7188 395.513 65.4267 394.56 64.8706L393.552 66.5982ZM397.947 67.7188C399.545 67.7188 401.011 67.4119 402.322 66.7742L401.447 64.9758C400.445 65.4631 399.286 65.7188 397.947 65.7188V67.7188ZM402.331 66.7694C403.635 66.1176 404.746 65.2527 405.65 64.1739L404.118 62.8886C403.398 63.7473 402.508 64.4449 401.437 64.9806L402.331 66.7694ZM405.66 64.1618C406.551 63.0656 407.232 61.8198 407.706 60.4325L405.813 59.7862C405.412 60.9615 404.842 61.9969 404.108 62.9007L405.66 64.1618ZM407.706 60.4325C408.179 59.0456 408.415 57.6082 408.415 56.125H406.415C406.415 57.3918 406.214 58.6107 405.813 59.7862L407.706 60.4325ZM461.198 18.3438L462.195 18.4215L462.279 17.3438H461.198V18.3438ZM457.354 67.6562V68.6562H458.279L458.351 67.734L457.354 67.6562ZM440.01 67.6562L439.011 67.6923L439.046 68.6562H440.01V67.6562ZM438.229 18.3438V17.3438H437.192L437.23 18.3798L438.229 18.3438ZM455.151 89.0312L454.456 88.3118L454.444 88.324L454.432 88.3367L455.151 89.0312ZM452.057 91.1406L451.669 90.219L451.659 90.2233L451.649 90.2278L452.057 91.1406ZM444.417 91.1406L444.825 90.2278L444.815 90.2233L444.805 90.219L444.417 91.1406ZM439.167 85.9375L438.245 86.3256L438.249 86.3358L438.254 86.3459L439.167 85.9375ZM439.167 78.25L438.25 77.8504L438.246 77.8604L438.242 77.8704L439.167 78.25ZM455.151 75.1094L454.432 75.804L454.444 75.8166L454.456 75.8288L455.151 75.1094ZM460.201 18.266L456.357 67.5785L458.351 67.734L462.195 18.4215L460.201 18.266ZM457.354 66.6562H440.01V68.6562H457.354V66.6562ZM441.01 67.6202L439.229 18.3077L437.23 18.3798L439.011 67.6923L441.01 67.6202ZM438.229 19.3438H461.198V17.3438H438.229V19.3438ZM457.104 82.0938C457.104 83.3362 456.865 84.4774 456.395 85.5291L458.22 86.3459C458.812 85.0226 459.104 83.6013 459.104 82.0938H457.104ZM456.395 85.5291C455.914 86.6039 455.268 87.5285 454.456 88.3118L455.846 89.7507C456.847 88.784 457.638 87.6461 458.22 86.3459L456.395 85.5291ZM454.432 88.3367C453.653 89.1433 452.735 89.7703 451.669 90.219L452.445 92.0623C453.755 91.511 454.899 90.7317 455.87 89.7258L454.432 88.3367ZM451.649 90.2278C450.594 90.6997 449.468 90.9375 448.26 90.9375V92.9375C449.74 92.9375 451.145 92.6441 452.466 92.0534L451.649 90.2278ZM448.26 90.9375C447.018 90.9375 445.877 90.6983 444.825 90.2278L444.008 92.0534C445.332 92.6454 446.753 92.9375 448.26 92.9375V90.9375ZM444.805 90.219C443.736 89.7689 442.797 89.1384 441.983 88.3241L440.569 89.7384C441.567 90.7366 442.723 91.5123 444.029 92.0623L444.805 90.219ZM441.983 88.3241C441.199 87.5397 440.564 86.6111 440.08 85.5291L438.254 86.3459C438.832 87.6389 439.603 88.7728 440.569 89.7384L441.983 88.3241ZM440.088 85.5494C439.643 84.4929 439.417 83.3445 439.417 82.0938H437.417C437.417 83.593 437.69 85.0071 438.245 86.3256L440.088 85.5494ZM439.417 82.0938C439.417 80.8775 439.642 79.7254 440.092 78.6296L438.242 77.8704C437.691 79.2121 437.417 80.6225 437.417 82.0938H439.417ZM440.083 78.6496C440.568 77.537 441.203 76.5966 441.983 75.8165L440.569 74.4023C439.599 75.3722 438.828 76.5255 438.25 77.8504L440.083 78.6496ZM441.983 75.8165C442.802 74.9978 443.747 74.3482 444.825 73.8659L444.008 72.0403C442.711 72.6206 441.563 73.4085 440.569 74.4023L441.983 75.8165ZM444.825 73.8659C445.877 73.3954 447.018 73.1562 448.26 73.1562V71.1562C446.753 71.1562 445.332 71.4483 444.008 72.0403L444.825 73.8659ZM448.26 73.1562C449.468 73.1562 450.594 73.3941 451.649 73.8659L452.466 72.0403C451.145 71.4497 449.74 71.1562 448.26 71.1562V73.1562ZM451.649 73.8659C452.724 74.3467 453.648 74.9927 454.432 75.804L455.87 74.4148C454.904 73.4136 453.766 72.622 452.466 72.0403L451.649 73.8659ZM454.456 75.8288C455.263 76.6078 455.909 77.5442 456.391 78.6496L458.224 77.8504C457.643 76.5183 456.851 75.361 455.846 74.39L454.456 75.8288ZM456.391 78.6496C456.866 79.7409 457.104 80.886 457.104 82.0938H459.104C459.104 80.614 458.811 79.1966 458.224 77.8504L456.391 78.6496Z" fill="black" />
    </g>
    <defs>
        <filter id="filter0_d" x="0" y="0" width="467" height="101" filterUnits="userSpaceOnUse" color-interpolation-filters="sRGB">
            <feFlood flood-opacity="0" result="BackgroundImageFix" />
            <feColorMatrix in="SourceAlpha" type="matrix" values="0 0 0 0 0 0 0 0 0 0 0 0 0 0 0 0 0 0 127 0" />
            <feOffset dy="4" />
            <feGaussianBlur stdDeviation="2" />
            <feColorMatrix type="matrix" values="0 0 0 0 0 0 0 0 0 0 0 0 0 0 0 0 0 0 0.25 0" />
            <feBlend mode="normal" in2="BackgroundImageFix" result="effect1_dropShadow" />
            <feBlend mode="normal" in="SourceGraphic" in2="effect1_dropShadow" result="shape" />
        </filter>
    </defs>
</svg>
