<svg width="706" height="732" viewBox="0 0 706 732" fill="none" xmlns="http://www.w3.org/2000/svg">
    <g filter="url(#filter0_dd)">
        <path fill-rule="evenodd" clip-rule="evenodd" d="M250 687C245.576 694.467 247.36 685.85 254.235 670.305C252.957 675.739 251.546 681.303 250 687ZM660 517C658.884 516.365 657.759 515.691 656.625 514.978C657.744 515.64 658.869 516.314 660 517Z" fill="#FA3571" />
        <path d="M638 149C524.621 207.974 356.376 221.066 334 43C337.332 126.966 284.443 276.877 46.2933 205.088C121.049 227.74 267.864 345.134 76 463C179.083 448.893 299.56 477.67 254.235 670.305C280.052 611.936 377.662 455.894 488 687C458.713 605.764 483.69 412.724 656.625 514.978C582.502 468.406 471.966 258.599 638 149Z" fill="#FA3571" />
        <path d="M47.4453 200.213C44.8017 199.415 42.0116 200.911 41.2134 203.555C40.4152 206.198 41.9112 208.988 44.5547 209.787L44.8433 209.874C44.8437 209.874 44.8441 209.874 44.8444 209.874C62.913 215.349 85.5844 226.644 106.444 242.362C127.317 258.089 146.028 277.98 156.604 300.467C167.11 322.803 169.631 347.731 158.222 374.182C146.732 400.821 120.865 429.571 73.3828 458.74C71.3681 459.977 70.4958 462.457 71.292 464.684C72.0882 466.91 74.3352 468.274 76.6779 467.954C127.844 460.952 181.979 464.839 217.67 493.047C252.77 520.787 271.76 573.576 249.474 668.711C246.11 676.356 243.862 682.569 243.016 686.125C242.808 687 242.606 688.028 242.585 688.985C242.575 689.388 242.574 690.336 242.973 691.369C243.19 691.93 243.627 692.783 244.502 693.518C245.464 694.325 246.646 694.725 247.819 694.728C249.749 694.731 251.03 693.677 251.336 693.425L251.336 693.425C251.843 693.008 252.244 692.548 252.525 692.199C253.106 691.477 253.703 690.56 254.302 689.548C254.531 689.161 254.707 688.744 254.825 688.31C256.343 682.719 257.732 677.252 258.995 671.906C265.357 657.601 276.044 637.468 290.128 618.801C304.407 599.875 321.829 582.921 341.36 574.708C360.529 566.648 382.097 566.824 405.754 582.827C429.748 599.056 456.059 631.703 483.488 689.154C484.636 691.559 487.468 692.641 489.927 691.614C492.386 690.586 493.607 687.811 492.704 685.304C485.638 665.705 481.762 639.059 482.67 611.636C483.579 584.206 489.26 556.465 500.896 534.523C512.483 512.674 529.794 496.839 554.137 492.206C578.661 487.538 611.359 494.033 654.023 519.248C655.196 519.984 656.364 520.684 657.526 521.345C659.903 522.698 662.925 521.891 664.31 519.534C665.696 517.176 664.931 514.143 662.594 512.725C661.466 512.041 660.344 511.369 659.228 510.709C641.527 499.569 621.22 478.365 603.285 450.83C585.375 423.331 570.058 389.861 562.133 354.53C554.208 319.202 553.709 282.196 565.189 247.44C576.644 212.758 600.13 179.989 640.755 153.173C642.975 151.707 643.659 148.759 642.31 146.466C640.962 144.172 638.053 143.336 635.693 144.564C579.569 173.757 510.352 191.299 452.839 179.984C424.197 174.349 398.556 161.587 378.705 139.625C358.844 117.651 344.457 86.1106 338.961 42.3766C338.627 39.719 336.258 37.7967 333.589 38.0169C330.919 38.2372 328.898 40.5219 329.004 43.1983C330.635 84.2998 318.444 141.098 277.325 178.765C236.51 216.154 165.818 235.896 47.7363 200.301C47.7347 200.301 47.7331 200.3 47.7315 200.3L47.4453 200.213Z" stroke="#3A2C60" stroke-width="10" stroke-linecap="round" stroke-linejoin="round" />
    </g>
    <g filter="url(#filter1_dd)">
        <path fill-rule="evenodd" clip-rule="evenodd" d="M221.238 550.424C216.559 554.227 219.751 549.047 227.942 540.573C225.826 543.803 223.593 547.086 221.238 550.424ZM533.364 537.43C532.77 536.752 532.179 536.045 531.591 535.312C532.181 536.009 532.772 536.715 533.364 537.43Z" fill="#FFF082" />
        <path d="M604.439 292.839C515.339 304.213 400.454 272.687 427.048 151.543C409.709 206.949 339.642 291.868 198.056 188.496C242.473 221.02 312.726 332.318 157.741 363.317C229.548 378.675 302.93 426.066 227.942 540.573C258.696 508.752 359.917 430.49 379.442 607.067C378.893 547.259 440.45 427.645 531.591 535.312C493.165 487.379 468.549 324.609 604.439 292.839Z" fill="#FFF082" />
        <path d="M195.056 186.303C196.196 184.743 198.386 184.402 199.947 185.543L200.118 185.667C200.118 185.668 200.119 185.668 200.12 185.669C270.344 236.94 321.968 240.932 357.824 226.32C393.919 211.611 415.23 177.59 423.708 150.498C424.267 148.71 426.136 147.679 427.947 148.16C429.758 148.642 430.868 150.463 430.467 152.294C423.94 182.025 426.155 205.947 434.237 224.958C442.318 243.966 456.395 258.38 474.14 268.872C509.763 289.937 559.884 294.998 603.995 289.367C605.844 289.131 607.553 290.385 607.883 292.218C608.214 294.052 607.05 295.823 605.235 296.247C571.978 304.023 548.745 319.747 533.069 339.56C517.36 359.414 509.08 383.58 506.122 408.428C503.164 433.28 505.55 458.685 511.05 480.828C516.557 503 525.117 521.624 534.293 533.087C534.881 533.782 535.47 534.486 536.06 535.199C537.281 536.674 537.09 538.855 535.632 540.096C534.174 541.336 531.99 541.176 530.73 539.735C530.112 539.029 529.498 538.296 528.89 537.539C506.4 510.981 486.159 498.953 468.734 496.147C451.438 493.361 436.239 499.557 423.467 510.994C410.635 522.485 400.407 539.161 393.42 556.774C386.435 574.382 382.81 592.621 382.942 607.035C382.959 608.899 381.512 610.449 379.651 610.561C377.79 610.672 376.168 609.305 375.964 607.451C371.111 563.567 361.227 536.075 349.056 519.806C337.045 503.751 322.718 498.485 308.066 499.167C293.155 499.861 277.624 506.746 263.731 515.653C250.029 524.439 238.243 534.983 230.687 542.769C228.603 545.944 226.408 549.168 224.098 552.441C223.914 552.703 223.694 552.938 223.446 553.139C222.811 553.655 222.199 554.112 221.642 554.445C221.373 554.606 220.999 554.809 220.565 554.96C220.297 555.053 219.221 555.423 217.974 554.974C217.22 554.702 216.54 554.175 216.092 553.426C215.681 552.74 215.586 552.074 215.572 551.643C215.547 550.856 215.774 550.223 215.876 549.957C216.118 549.327 216.498 548.699 216.841 548.178C218.235 546.059 221.18 542.551 225.193 538.381C262.137 481.841 261.803 443.032 244.941 416.649C227.773 389.788 192.664 374.366 157.009 366.74C155.386 366.393 154.23 364.954 154.241 363.294C154.252 361.635 155.427 360.211 157.055 359.885C195.421 352.212 219.303 339.667 233.131 325.089C246.851 310.625 250.972 293.847 249.193 276.843C247.401 259.714 239.6 242.327 229.385 227.126C219.179 211.939 206.737 199.192 195.994 191.324C195.993 191.323 195.993 191.323 195.992 191.322L195.988 191.32M195.056 186.303L195.988 191.32M195.056 186.303C193.915 187.864 194.256 190.054 195.817 191.194M195.056 186.303L195.817 191.194M195.988 191.32L195.817 191.194M195.988 191.32L195.817 191.194M198.056 188.496L198.057 188.495L200.124 185.672C201.678 186.81 202.02 188.989 200.892 190.548C199.95 189.872 199.005 189.188 198.056 188.496ZM198.056 188.496C198.975 189.168 199.904 189.875 200.843 190.613L198.056 188.496ZM218.028 548.449C218.03 548.448 218.033 548.446 218.038 548.444C218.026 548.451 218.023 548.452 218.028 548.449Z" stroke="#3A2C60" stroke-width="7" stroke-linecap="round" stroke-linejoin="round" />
    </g>
    <g filter="url(#filter2_d)">
        <path fill-rule="evenodd" clip-rule="evenodd" d="M271.873 454.138C268.997 455.822 271.105 453.266 276.242 449.331C274.856 450.914 273.401 452.516 271.873 454.138ZM450.178 472.818C449.879 472.4 449.582 471.967 449.289 471.52C449.585 471.947 449.882 472.38 450.178 472.818Z" fill="white" />
        <path d="M504.393 345.601C453.063 344.439 389.478 317.807 411.433 254.088C398.447 282.803 353.801 323.227 279.074 255.302C302.511 276.663 336.209 343.015 246.289 347.096C286.276 361.376 325.355 393.215 276.242 449.331C295.531 434.555 357.527 400.323 358.687 498.009C361.744 465.422 403.503 405.42 449.289 471.52C430.129 442.27 425.294 351.676 504.393 345.601Z" fill="white" />
        <path d="M280.664 253.369C279.643 252.44 278.062 252.515 277.133 253.536C276.203 254.557 276.278 256.138 277.3 257.067L277.39 257.15C277.391 257.15 277.391 257.151 277.392 257.151C277.392 257.152 277.392 257.152 277.392 257.152C283.028 262.289 289.36 270.214 294.287 279.277C299.224 288.356 302.637 298.366 302.69 307.693C302.744 316.913 299.531 325.478 291.103 332.066C282.561 338.743 268.401 343.59 246.176 344.598C244.982 344.652 243.994 345.544 243.817 346.725C243.64 347.907 244.323 349.048 245.449 349.45C265.292 356.537 284.279 367.788 292.455 383.669C296.497 391.519 297.953 400.597 295.471 411.117C292.987 421.648 286.527 433.741 274.522 447.5C272.022 449.427 270.127 451.109 269.175 452.19C268.943 452.454 268.647 452.815 268.434 453.212C268.345 453.378 268.123 453.811 268.083 454.388C268.061 454.708 268.087 455.187 268.331 455.696C268.593 456.243 269.018 456.641 269.488 456.88C270.278 457.281 271.016 457.152 271.213 457.117C271.515 457.062 271.777 456.968 271.958 456.895C272.332 456.745 272.735 456.53 273.136 456.296C273.342 456.175 273.529 456.026 273.693 455.852C275.18 454.274 276.601 452.712 277.957 451.167C282.664 447.583 289.898 442.868 298.105 439.254C306.46 435.576 315.594 433.142 324.014 433.984C332.281 434.811 340.035 438.804 345.893 448.415C351.836 458.164 355.899 473.823 356.187 498.039C356.203 499.368 357.256 500.453 358.585 500.507C359.913 500.561 361.052 499.566 361.176 498.242C361.902 490.5 364.956 480.969 369.883 472.035C374.811 463.1 381.499 454.968 389.332 449.85C397.107 444.769 405.954 442.675 415.519 445.582C425.174 448.516 435.951 456.663 447.216 472.917C447.522 473.383 447.832 473.835 448.146 474.274C448.942 475.386 450.485 475.652 451.607 474.87C452.729 474.089 453.015 472.55 452.249 471.417C451.954 470.981 451.658 470.55 451.363 470.123C446.838 463.202 443.039 452.443 441.165 439.987C439.292 427.548 439.369 413.614 442.429 400.435C445.488 387.262 451.503 374.933 461.436 365.542C471.344 356.175 485.314 349.574 504.585 348.093C505.913 347.991 506.928 346.865 506.892 345.533C506.856 344.201 505.782 343.132 504.45 343.101C479.091 342.527 450.941 335.65 431.937 321.308C422.473 314.165 415.345 305.227 411.858 294.342C408.375 283.469 408.451 270.417 413.796 254.902C414.232 253.639 413.597 252.258 412.356 251.764C411.115 251.271 409.705 251.841 409.155 253.058C402.872 266.951 388.978 283.528 367.834 288.501C346.809 293.447 317.779 287.106 280.755 253.452C280.755 253.452 280.755 253.451 280.755 253.451L280.664 253.369Z" stroke="#3A2C60" stroke-width="5" stroke-linecap="round" stroke-linejoin="round" />
    </g>
    <defs>
        <filter id="filter0_dd" x="32.2905" y="32.9995" width="641.711" height="674.728" filterUnits="userSpaceOnUse" color-interpolation-filters="sRGB">
            <feFlood flood-opacity="0" result="BackgroundImageFix" />
            <feColorMatrix in="SourceAlpha" type="matrix" values="0 0 0 0 0 0 0 0 0 0 0 0 0 0 0 0 0 0 127 0" />
            <feOffset dy="4" />
            <feGaussianBlur stdDeviation="2" />
            <feColorMatrix type="matrix" values="0 0 0 0 0 0 0 0 0 0 0 0 0 0 0 0 0 0 0.25 0" />
            <feBlend mode="normal" in2="BackgroundImageFix" result="effect1_dropShadow" />
            <feColorMatrix in="SourceAlpha" type="matrix" values="0 0 0 0 0 0 0 0 0 0 0 0 0 0 0 0 0 0 127 0" />
            <feOffset dy="4" />
            <feGaussianBlur stdDeviation="2" />
            <feColorMatrix type="matrix" values="0 0 0 0 0 0 0 0 0 0 0 0 0 0 0 0 0 0 0.25 0" />
            <feBlend mode="normal" in2="effect1_dropShadow" result="effect2_dropShadow" />
            <feBlend mode="normal" in="SourceGraphic" in2="effect2_dropShadow" result="shape" />
        </filter>
        <filter id="filter1_dd" x="72.2432" y="74.1191" width="584.455" height="592.608" filterUnits="userSpaceOnUse" color-interpolation-filters="sRGB">
            <feFlood flood-opacity="0" result="BackgroundImageFix" />
            <feColorMatrix in="SourceAlpha" type="matrix" values="0 0 0 0 0 0 0 0 0 0 0 0 0 0 0 0 0 0 127 0" />
            <feOffset dy="4" />
            <feGaussianBlur stdDeviation="2" />
            <feColorMatrix type="matrix" values="0 0 0 0 0 0 0 0 0 0 0 0 0 0 0 0 0 0 0.25 0" />
            <feBlend mode="normal" in2="BackgroundImageFix" result="effect1_dropShadow" />
            <feColorMatrix in="SourceAlpha" type="matrix" values="0 0 0 0 0 0 0 0 0 0 0 0 0 0 0 0 0 0 127 0" />
            <feOffset dy="4" />
            <feGaussianBlur stdDeviation="2" />
            <feColorMatrix type="matrix" values="0 0 0 0 0 0 0 0 0 0 0 0 0 0 0 0 0 0 0.25 0" />
            <feBlend mode="normal" in2="effect1_dropShadow" result="effect2_dropShadow" />
            <feBlend mode="normal" in="SourceGraphic" in2="effect2_dropShadow" result="shape" />
        </filter>
        <filter id="filter2_d" x="186.388" y="194.335" width="354.676" height="351.01" filterUnits="userSpaceOnUse" color-interpolation-filters="sRGB">
            <feFlood flood-opacity="0" result="BackgroundImageFix" />
            <feColorMatrix in="SourceAlpha" type="matrix" values="0 0 0 0 0 0 0 0 0 0 0 0 0 0 0 0 0 0 127 0" />
            <feOffset dy="4" />
            <feGaussianBlur stdDeviation="2" />
            <feColorMatrix type="matrix" values="0 0 0 0 0 0 0 0 0 0 0 0 0 0 0 0 0 0 0.25 0" />
            <feBlend mode="normal" in2="BackgroundImageFix" result="effect1_dropShadow" />
            <feBlend mode="normal" in="SourceGraphic" in2="effect1_dropShadow" result="shape" />
        </filter>
    </defs>
</svg>
